####
#
# OBJ File Generated by Meshlab
#
####
# Object bar.obj
#
# Vertices: 252
# Faces: 500
#
####
mtllib ./bar.obj.mtl

vn -0.4109996668080383 0.1125078430686005 -0.9046663800162646
v -0.4957538607411605 0.7837117177745064 -0.0695638536867812
vn -0.9997066270430780 0.0119902932996391 -0.0210450163397617
v -0.5170664766455643 0.8817095335778716 -0.0691138382598313
vn -0.7696520627864083 0.0235000857872047 -0.6380309147812672
v -0.5159659464242634 0.4165157917078293 -0.0686888188077078
vn -0.9838634039918175 -0.0086396840121247 0.1787125013696699
v -0.5224476744824870 0.1675417172648762 -0.0502225563498887
vn -0.7931537182466091 -0.0061435259575857 0.6089905059361654
v -0.5158175581369747 -0.5461817864964442 -0.0297267264179031
vn -0.7173234103916895 0.0030364111710008 0.6967337404713773
v -0.5160378474355430 0.2992799970096764 -0.0282997420611249
vn -0.6915322785855802 0.0105875434355201 0.7222679638459928
v -0.5161733565277276 -0.0637522443353530 -0.0259332098065564
vn -0.4800111087483876 0.0036514161842799 -0.8772548105527792
v -0.5158797028344705 -0.0709151590972524 -0.0692511030535188
vn -0.7726660302881087 0.0134536210960188 -0.6346701550555378
v -0.5144725416019453 0.6491113066929479 -0.0692626070649436
vn -0.6026305726713573 -0.3914753625466185 0.6954016345974359
v -0.4698035130830264 -0.8981044060982553 -0.0072439149242230
vn -0.9803438693249303 -0.0270049906509431 0.1954395772533452
v -0.5229392658402882 0.5461488809092825 -0.0453802947568008
vn -0.1048552952495214 0.0005067688038352 -0.9944873605247655
v -0.4503520604609528 0.1993734784303359 -0.0693175715543269
vn -0.5428328215269764 -0.0057959750862234 -0.8398207752525904
v -0.5142739070190738 -0.6513914291336712 -0.0693499265768995
vn -0.5957192710538038 0.0017050071774725 0.8031909131991281
v -0.4426375472601309 -0.4284836614463653 0.0004477330936213
vn -0.9727930358496489 -0.1715408755688753 -0.1557158868307511
v -0.5203116337136444 -0.8169929482131445 -0.0609034001846108
vn -0.4561251699870001 -0.0015252400026590 0.8899143233745958
v -0.4427730435808629 -0.1727982196033302 0.0068927706343716
vn -0.6440966791758513 0.0049041099913812 0.7649283741500461
v -0.4422433432040565 -0.6696320944166252 0.0041897848928969
vn -0.7793210420220102 -0.0068529149919410 0.6265873849814098
v -0.5102947276334754 -0.3248086894595896 -0.0209585435928711
vn -0.6374189478267064 -0.0212822927382725 0.7702234409360034
v -0.4461282735608748 0.6421860055120144 0.0117656675211980
vn -0.0002806989755311 0.0000724443173960 -0.9999999579799521
v -0.4500411241757171 -0.1896455658918688 -0.0693075074885626
vn -0.4691842874654434 0.0089326041525738 0.8830551018926267
v -0.4426330201098168 -0.5279708577189348 0.0055706633584748
vn -0.4179278626710743 -0.0151672983729753 0.9083535956131030
v -0.4417300190483041 0.1855559060811707 0.0036163890266392
vn -0.6164236249119552 0.0205068558703956 0.7871476249806741
v -0.4482448831212283 0.0424941378943261 -0.0027990687363501
vn -0.8443756028473398 0.0275735850713601 0.5350416233551404
v -0.4884117048761293 0.7745018409543472 -0.0200381917342286
vn -0.0017700457239029 0.0000624806101187 -0.9999984315159243
v -0.4391750961334523 0.3354181443808835 -0.0693377519368277
vn -0.6187941055435781 -0.0308586544121492 0.7849468761593964
v -0.4471500887680712 0.2970667713853708 0.0045008330262919
vn -0.2684728028994434 0.3131351755387917 0.9109713035785522
v -0.3744168279580799 -0.5870737554893095 0.0734861280970922
vn -0.3602836571635203 -0.1080163684070393 0.9265679416734822
v -0.3836232248232603 0.2815603018059492 0.0737832973677507
vn -0.4106984132512937 0.8097090094979947 0.4191636116013004
v -0.4726560570488770 0.9352924575588752 -0.0221590545872173
vn -0.0000872477962781 0.0000468309444902 -0.9999999950973423
v -0.4500240420211926 -0.4044768429027902 -0.0693143183606957
vn -0.2747689947748919 -0.1624140904903741 0.9476938655075171
v -0.3950949595835771 -0.7861916608201318 0.0617686973599220
vn -0.2544051662437398 -0.2406180271264962 0.9366861675130299
v -0.3848014460427520 -0.1157271895885420 0.0713281483294106
vn -0.4413045030641352 0.0225227932356223 0.8970747233983254
v -0.3888097598459134 -0.3541984222951733 0.0702531984252007
vn -0.0001660602787387 0.0000124701868934 -0.9999999861342391
v -0.3092613677376347 -0.4184940469465898 -0.0693263125265361
vn -0.0164446598011805 -0.0076517271279325 -0.9998354985876341
v -0.3963843724510846 -0.7551884860043461 -0.0693146197589809
vn -0.0692038050517603 -0.7359685993230097 0.6734694159179653
v -0.3530822724511090 -0.9319141068077423 -0.0136578711568799
vn -0.5079064306101615 0.0727494508114702 0.8583347686954518
v -0.4568560086884617 0.5355677230493685 0.0079662325030695
vn -0.4016994928325148 0.1778827088469418 0.8983291486706723
v -0.3917620282058953 0.4635556401076277 0.0683211879020416
vn -0.0028813131800218 -0.0263093812954268 0.9996496958886200
v -0.3031668839478612 -0.1741941656680306 0.0063311309203106
vn -0.3489910671132404 -0.6969530681486177 -0.6264676016151116
v -0.4401215937848072 -0.9531936792256888 -0.0672972203440884
vn -0.0165395286305769 0.0117413404012564 0.9997942712969805
v -0.3098441614051229 0.0428040481720103 0.0694483580407345
vn -0.3048003912473911 0.2897917002998990 0.9072582278120882
v -0.3914638915770414 -0.2267417452965833 0.0646446489187861
vn -0.0491945114349678 0.0016749584638437 -0.9987878125802394
v -0.4259951475499887 0.6459202376498323 -0.0693327595252675
vn -0.0233676872409174 -0.4072059365109701 0.9130373905066728
v -0.2585081375317488 0.2362900984117597 0.0744148280612604
vn -0.2907024880427698 0.3059030449878400 0.9065954944256622
v -0.3847991645708697 0.1182208229410722 0.0708328854398365
vn -0.0001790697770566 -0.0001330928876213 -0.9999999751101488
v -0.2982981067605991 -0.0660705820476844 -0.0693213829069798
vn -0.0237126157607081 0.0110079775818702 0.9996582097313772
v -0.3046783507535117 -0.5244511481713759 0.0078545111648038
vn -0.2619235125630184 0.3144141903275284 0.9124361843369295
v -0.3885827062500956 0.8393023655581344 0.0701406332343707
vn -0.0637778853577871 0.5090336968914883 -0.8583804964980702
v -0.3470233744805173 0.9580676272534083 -0.0541626341509530
vn -0.0001928141833155 0.0000762849888762 -0.9999999785016455
v -0.3028642802834484 -0.3131232414099179 -0.0693049272334119
vn -0.0000181037083076 -0.0000854790564453 -0.9999999961827933
v -0.2990033424159915 0.3129943256964626 -0.0693352871911231
vn -0.4455582381194458 -0.0202467440726313 0.8950239805716674
v -0.3974037131606115 0.7402950693256196 0.0691250803265896
vn -0.0025723366530799 0.0388535592650730 0.9992416044263663
v -0.2134087563507678 -0.6501893428441774 0.0722830510757809
vn 0.0234485664631423 0.3214771162415486 0.9466269742954937
v -0.1975392521991355 -0.2435457316227848 0.0727708528480811
vn -0.0091892676397723 -0.1087620297571172 0.9940253408456732
v -0.3091908127755099 0.1813326830676830 0.0024516833861920
vn -0.2949054477933786 -0.2879736126233130 0.9110993224091788
v -0.3819249232121060 -0.4663782899480142 0.0754627375582403
vn -0.0013215718676309 -0.0018019300933205 -0.9999975032447518
v -0.2927223228642826 -0.7723334929341946 -0.0693260264703553
vn -0.0040710584159395 -0.3260487171616266 0.9453442021404856
v -0.2071242802118108 -0.1130261651477866 0.0727856883599797
vn -0.1901438800107471 -0.3549916197529089 0.9153284955684843
v -0.3646430343893277 0.5878533552838381 0.0740416051860893
vn 0.0076374843846768 0.3763768331114749 0.9264351830156552
v -0.3191112386740740 0.4658191836900540 0.0661203584800258
vn 0.0047117366568571 0.7302472327172547 0.6831667282929313
v -0.3101042649368044 0.1524068400421996 0.0262323359764521
vn 0.0085828579305273 -0.4021369159147303 0.9155393139610847
v -0.2058006276238757 -0.4631296519459884 0.0705688996110734
vn -0.0169054811063833 0.0279999097579818 -0.9994649617480879
v -0.2909806785739692 0.7758484090083624 -0.0693329348408904
vn -0.0000454650260371 -0.0001713942483770 -0.9999999842784714
v -0.3247883378210433 0.2019018704955578 -0.0693167707513622
vn -0.0401332707193701 -0.0222721657680366 0.9989460802332460
v -0.2823597354761546 -0.7331496683552503 0.0688363825087911
vn -0.0001268272829546 0.0000416844770302 -0.9999999910886223
v -0.2040244587317523 0.1606877230127175 -0.0693251526096389
vn -0.0000397113185908 -0.0000088677416990 -0.9999999991721872
v -0.3060652316744389 -0.5326368017872112 -0.0693064391611031
vn -0.0184832647096155 0.0167732635855646 0.9996884647500757
v -0.1987047307354337 0.0305359406544249 0.0745324151175923
vn -0.0270269214628882 0.4653673594497832 0.8847049034988871
v -0.2041176768450205 0.8515717809054197 0.0620779259492545
vn -0.0002756917024171 -0.0002266157390996 -0.9999999363196941
v -0.2296587221119926 -0.8561021839646162 -0.0693149446754845
vn 0.0000289423062879 -0.0000026645686726 -0.9999999995776215
v -0.3003695294939797 0.6041725802704914 -0.0693306895692915
vn 0.0191954005330613 -0.0063880224958714 0.9997953439414327
v -0.2689772071796858 0.5247340359692633 0.0084457506932369
vn 0.0140501693096394 0.0285390830717265 0.9994939286858103
v -0.3000622239465539 0.6576261544988550 0.0716106014505886
vn 0.0373963278365109 0.4475310374605362 0.8934861415678704
v -0.2658560564085363 -0.5779246173036322 0.0621860590781462
vn -0.0002009321012396 -0.0000853394581400 -0.9999999761717335
v -0.3068684952339149 -0.0117804531526065 -0.0693418062376857
vn -0.0266610039887323 0.4576680610265174 0.8887233184644930
v -0.1959098967915006 0.1243623641532723 0.0714557251875909
vn -0.0737145849215896 -0.4973249254222459 0.8644270232492707
v -0.2972281041818619 -0.8594387154380873 0.0522914103400635
vn 0.0418831887322401 -0.7429221776403037 0.6680661916844831
v -0.2095743141835904 -0.9142567540987484 -0.0107124122247582
vn -0.0001797105919763 -0.0000770621160642 -0.9999999808827666
v -0.2010973256091510 -0.0939081426099042 -0.0693253207012561
vn -0.0002273334179710 0.0000633658460589 -0.9999999721521430
v -0.2015729180332541 -0.1870506628019134 -0.0693354694925005
vn 0.0000030398669721 0.0000495120579861 -0.9999999987696577
v -0.1980034846842219 0.5607177729254342 -0.0693262125065779
vn 0.0084730160687434 -0.0309533010082761 0.9994849179229218
v -0.1686599741738904 0.5319444790898049 0.0039123657639750
vn -0.0161064983117927 0.7373853691382987 0.6752802367113280
v -0.2287692374950061 0.8914334150532354 0.0109570487962821
vn 0.0152485629860799 -0.0030086177608187 0.9998792074775976
v -0.1914475413251166 -0.3706450847841541 0.0717547061539594
vn -0.0000272270841236 0.0001063531437281 -0.9999999939738473
v -0.2075420965229748 -0.6234656787778203 -0.0693256265663948
vn 0.0002419821355133 -0.0009472493662368 -0.9999995220815280
v -0.1644952604150846 -0.8686420474450883 -0.0693456000438931
vn -0.0000333728007988 -0.0000353221188987 -0.9999999988193020
v -0.1943885176418265 -0.4413855025705568 -0.0693275879203124
vn -0.0131045164948331 -0.8143194519872095 -0.5802689908677593
v -0.2010026823564348 -0.9498229266296312 -0.0693132853156163
vn -0.0643982442997185 0.9936527311129776 0.0922340288767362
v -0.1758391553667795 0.9566174596590981 -0.0538077444532371
vn -0.0356884119901491 -0.0931271176992915 0.9950144105482311
v -0.2155827104906865 -0.8191178799307752 0.0668780818836085
vn 0.3954588257401341 -0.1593198016693414 0.9045604003825702
v -0.0855523668048866 0.2531221054371526 0.0718498350750535
vn -0.0000963704625596 0.0000320260507491 -0.9999999948435330
v -0.0855847477387198 -0.6421907286093843 -0.0693216566307004
vn 0.3153732013015675 -0.0044030619421604 0.9489575106116894
v -0.0440879322941031 -0.1725099597383294 0.0090221753082923
vn 0.0000369966760480 0.0000958486624658 -0.9999999947221400
v -0.1168845021408283 -0.7780944814815434 -0.0693336361324836
vn 0.3901093165681345 0.0847141049777622 0.9168632621850216
v -0.0798467709847409 -0.6503641062837274 0.0724941208023842
vn 0.1752890258163232 -0.3262378348290570 0.9288932299001934
v -0.0922034869357082 0.5940884629028724 0.0706542237285117
vn -0.0013584246438583 0.0227717604154912 0.9997397669444116
v -0.1893826185070628 0.3451381110403300 0.0716692307184850
vn 0.3768351038736761 0.3476059916013311 0.8585833559366098
v -0.0649537984090414 0.8467253376042961 0.0653712530576415
vn 0.4226164063859743 -0.3863398687277041 0.8198395445969081
v -0.0738135684046298 -0.1209742600926592 0.0703050508975488
vn 0.0000023723305410 -0.0000373003628757 -0.9999999993015275
v -0.0765429519062769 0.3808054793435247 -0.0693306320603103
vn -0.0000886189133888 0.0000315052636951 -0.9999999955770532
v -0.0351820343264389 -0.5781274550070084 -0.0693426840175008
vn 0.3110179057427622 0.2552847062447153 0.9154766960796630
v -0.0794839254909542 0.4530983823541035 0.0697947518750094
vn 0.1383417319366904 -0.5176849218369322 0.8443126712939031
v -0.1194310098342698 -0.8414650444138991 0.0689462340503998
vn 0.0000307423387460 0.0000298984992112 -0.9999999990804941
v -0.0934946556472260 0.0505443529071628 -0.0693406406401151
vn 0.2207140667790060 0.7826289871783692 0.5820456761750168
v -0.0683558305105396 0.9369332891472684 -0.0190138929798357
vn 0.4109859999058719 0.3622062774273648 0.8365985419982406
v -0.0689708786233583 -0.2213979040918288 0.0552292927548902
vn -0.0000374071145653 0.0000544678204834 -0.9999999978169821
v -0.0413908440017178 -0.4255435612829597 -0.0693358649982354
vn 0.3917048770758907 0.0092440482261925 0.9200444754724378
v -0.0793999202697713 -0.3284769918373766 0.0695723654762335
vn 0.4010408880562754 0.2485949891409904 0.8816840349473414
v -0.0819706284157799 0.1268469582114775 0.0725892511719625
vn 0.1506332936443542 0.9708868874176200 -0.1862478528369645
v -0.0474178465788403 0.9489847805162325 -0.0674221785167520
vn 0.1071104788474423 -0.8017153198794895 0.5880305189287366
v -0.0957950642060992 -0.8712980600309438 0.0189344129424768
vn -0.0001911409340297 -0.0000188337121006 -0.9999999815552172
v -0.0989756998941804 0.6535370325988717 -0.0693255433088293
vn 0.0000187845253725 -0.0000371987094122 -0.9999999991316989
v -0.0769937266166917 0.1673432058282267 -0.0693312426947478
vn 0.4900326976577775 0.0098043956783885 0.8716489138705003
v -0.0761324043648841 0.0322717944236010 0.0750156311607244
vn -0.0000332749931945 0.0000250384933381 -0.9999999991329244
v 0.0701221427981040 0.6550847443589933 -0.0693218461849459
vn 0.4518494125439795 -0.0226529896558181 0.8918065655977837
v -0.0727103063156425 0.7494062101817948 0.0604581879229031
vn 0.3024611880984955 -0.0190468005244664 0.9529713789426353
v -0.0408782929699190 0.5319278162977876 0.0102360018284811
vn 0.2778206428504249 -0.1930955657234379 0.9410259257343137
v -0.0771495734672378 -0.4742013846243510 0.0616390102705715
vn 0.5103892411521039 0.0352081164525935 0.8592224456169892
v -0.0426178339300468 0.0708380270587399 0.0179258584641735
vn 0.0000372470366894 -0.0000420864698267 -0.9999999984206935
v -0.0833140027938659 -0.1911291103735318 -0.0693363511766257
vn 0.0674644969445865 -0.0177509085086744 0.9975637558066806
v -0.0923420038959399 -0.5376591181299795 0.0260736704138763
vn 0.4695858630887757 -0.0158837749642796 0.8827439169317758
v -0.0364525727471017 0.3418031745878162 0.0101417132148301
vn 0.2286306027276045 -0.4086382952795227 0.8835965092322728
v -0.0444333722084852 -0.8770364175688227 0.0044989285533843
vn 0.2467225706532530 0.1400283173019692 0.9589160773935482
v -0.0508597874623259 0.1773627393880473 0.0081517924553972
vn 0.5396676153603923 0.0090501026475056 0.8418295317778400
v -0.0389821467611451 -0.3337191561838689 0.0152506271586597
vn 0.3278383849621146 -0.0211608536839547 0.9444968033915194
v -0.0351114171086176 -0.5957426875717977 0.0118465803292175
vn -0.0001418453660633 0.0000186724893726 -0.9999999897656151
v -0.0369012714572267 0.7667764804419128 -0.0693551663827377
vn 0.3322993956430426 -0.0306541364696933 0.9426756788909779
v -0.0369702967003697 -0.7765154256184894 0.0062958069722715
vn 0.6013323714975098 -0.0284416133577850 0.7984926133777237
v -0.0358261323530481 -0.0580020481997945 0.0078706639007290
vn 0.4372267860637807 0.3334038527183406 0.8352691832821943
v -0.0245038847440102 0.8840190143516669 0.0032072613572110
vn -0.5616874023665301 -0.0233987261300404 0.8270185981211252
v 0.0323987435275145 -0.7766206286536828 0.0082217943035481
vn -0.2626020085976074 -0.0534673530139323 0.9634217286537530
v 0.0318924056603893 -0.5040426866617236 0.0078204861609928
vn -0.1272206009514757 -0.3885206752530670 0.9126152549647887
v 0.0439930460604423 -0.8832542449512630 0.0088143863821705
vn -0.4759540265779656 0.0119286781476305 0.8793892603516780
v 0.0348257620792809 0.6571523807087664 0.0093842124209592
vn 0.0009032724438040 -0.0010352477525590 -0.9999990561800461
v 0.0892703370090594 -0.7518441856925071 -0.0693200692073905
vn -0.3868532520733649 -0.0026995933925019 0.9221373398554995
v 0.0358311701373712 0.4390870453726561 0.0076685079838920
vn 0.0000261871260559 0.0000047931151743 -0.9999999996456302
v 0.0691068202631318 -0.2961404206166426 -0.0693173931775080
vn -0.3100136444273759 -0.2778394491304667 0.9092286735336361
v 0.0839695819067830 0.5960189266744870 0.0746383284576369
vn -0.5072432308372287 -0.3032803023539780 0.8066755004175407
v 0.0736369471684436 -0.8370436519546163 0.0710232895387667
vn -0.3525142096202448 -0.3406371798570859 0.8716077350017182
v 0.0736035981010682 -0.4761741983623022 0.0713663743778207
vn -0.0000271890865545 0.0000118078869332 -0.9999999995606637
v 0.0680796031166225 0.5360786346397545 -0.0693450717658413
vn 0.0001217097505251 -0.0000087715389591 -0.9999999925548984
v 0.0257443659736247 -0.1604496305538919 -0.0693308882038328
vn -0.0462717000484854 -0.7650693603912605 0.6422832736146338
v -0.0614409128157380 -0.9489871304082294 -0.0241305591236738
vn 0.0000829852752338 -0.0000693463137370 -0.9999999941522664
v 0.0441941439272285 0.1294028414813256 -0.0693160256752248
vn -0.3008766535925699 -0.0010656909723521 0.9536624683952326
v 0.0369665591092060 -0.1745663807671207 0.0077899396722832
vn -0.3400021118184040 0.0056086273130801 0.9404079472541097
v 0.0361796343307099 0.5274498239154692 0.0088423804146419
vn 0.0000618279731367 0.0000823777066199 -0.9999999946956076
v 0.1955998898036438 -0.0625048158384662 -0.0693023633094384
vn -0.3993016674610014 0.3076773064058267 0.8636508863457032
v 0.0749933030171089 -0.5997852404164088 0.0695203861997526
vn -0.2699678290888090 -0.0358278677736048 0.9622025437234475
v 0.0354712132915212 -0.0656588743538902 0.0061686127045066
vn -0.4502588767273299 0.2623467670480070 0.8534876201490577
v 0.0739962019099881 0.4719314885543378 0.0761121288756855
vn -0.4003715221321615 0.1656758579004998 0.9012514379320066
v 0.0759243141830935 0.8042239317234909 0.0642206026099347
vn -0.2293755545134555 -0.2625890152135137 0.9372480269815678
v 0.0765348371619861 0.2252770482104466 0.0766315376993036
vn -0.0295424376675807 0.4856046355418993 0.8736792216350783
v 0.1886430941601679 0.1238706690131991 0.0664899178682307
vn 0.0001434178390065 0.0000337162284969 -0.9999999891472697
v 0.1014506133410731 -0.0550350450278629 -0.0693152494513718
vn -0.3449876317481507 0.1086256240677651 0.9323003849278894
v 0.0762543698091661 0.0974475920878908 0.0695911155014332
vn -0.1725081906476376 0.3265328313588371 0.9293100850653992
v 0.0855242056208496 -0.2451838802009713 0.0745919589024839
vn -0.0157569196614429 0.0343642874803841 -0.9992851521106216
v -0.0736771819314742 0.8419270816156293 -0.0693154644133483
vn -0.0000529442987685 -0.0000993259083667 -0.9999999936656326
v 0.1055870414988943 0.2966579145252320 -0.0693303865638774
vn -0.1932150351586093 0.4974425469372062 0.8457061325811009
v 0.0477290564166490 0.8816708881528176 0.0086956834549019
vn -0.4014080949071355 -0.0012654816309753 0.9158984331787372
v 0.0668040781896841 -0.7633961184097056 0.0689182458770407
vn 0.0000755874494070 0.0000379969081796 -0.9999999964213862
v 0.0752068515282141 -0.5434147873977037 -0.0693226781801007
vn 0.0000668141277693 -0.0015853903362151 -0.9999987410358847
v -0.0266441082473694 -0.8489776677548232 -0.0693281631673096
vn 0.0007941070914152 -0.0008523454747129 -0.9999993214503293
v 0.2186204257829039 -0.6409311102149067 -0.0693246009048083
vn 0.0048965391693851 -0.8613987567350151 0.5079057056182111
v 0.2082799678313524 -0.9469949941623643 -0.0188778862400427
vn -0.0073595962527766 0.9607614811063963 0.2772782226667649
v 0.1843806298603489 0.9502745948800430 -0.0263201819967962
vn 0.0109373697731728 -0.0050029135104321 0.9999276697835959
v 0.1504287484929148 -0.3520561121987920 0.0716305416384378
vn -0.0000000053090723 0.0001142867899377 -0.9999999934692647
v 0.2090161629047670 0.6164936570011461 -0.0693494625765462
vn 0.0545933845062164 -0.5083587302395133 0.8594131507938579
v 0.1924606631033601 0.2230371010418050 0.0694682784600670
vn 0.0083773849248884 -0.7164524498263863 -0.6975856266864948
v 0.0503554143849547 -0.9512334137183436 -0.0688682927139864
vn -0.0000575925228596 -0.0000926958450119 -0.9999999940452908
v 0.2043817750259140 0.2943206616380646 -0.0693437966858206
vn -0.0001721661435192 0.0013663807120363 -0.9999990516808348
v 0.1064011565366348 -0.8406169474830819 -0.0693335758716783
vn 0.0122811141165627 0.0572508520882181 0.9982842852470578
v 0.1466596674762866 0.7585994981173029 0.0663134661570323
vn 0.0190848292657808 0.2804495529852677 0.9596790179649962
v 0.2007846906178631 -0.1731811753046737 0.0065477186713592
vn 0.0063988683927764 -0.4345809623256293 0.9006100386223896
v 0.1979885883555809 -0.4803096862057152 0.0664161893915165
vn -0.0056396806821616 0.2081622335206518 -0.9780780533973232
v 0.2077204128164662 0.8774539198118853 -0.0693362323283007
vn -0.0044409307010840 0.7077725839967151 0.7064263921153577
v 0.2221149761707418 -0.5597659670192320 0.0405204068931965
vn -0.0332750734999127 0.3244108923328999 0.9453308111023078
v 0.1946883113925841 0.8320535312055934 0.0605811204311647
vn 0.0243170710389934 0.4128918413613078 0.9104553846253826
v 0.2291171813905681 -0.2319739029993571 0.0672017034619043
vn 0.0304268939348034 -0.2801360391328502 0.9594779850024900
v 0.2235646671129410 -0.8141296635396311 0.0694118647837439
vn -0.2933173719337333 -0.0311195704615013 0.9555084989973558
v 0.0365891755226909 0.1794542280166466 0.0088797233337128
vn -0.1366001699727106 -0.3378260514605613 0.9312432295152502
v 0.1452790885693896 -0.1245055314181990 0.0720545986876687
vn 0.0255003911687748 -0.0113845751926687 0.9996099846929910
v 0.1796556069761994 0.3714837165718543 0.0731457639332396
vn 0.0427048755801475 0.9948875531167055 0.0915153006613567
v 0.3320765775282723 0.9535964688689812 -0.0357051317634022
vn 0.0000141252222001 0.0000072643285587 -0.9999999998738538
v 0.2021602320394222 -0.3047635817988176 -0.0693094082700596
vn 0.0780962151995850 0.2944040914640529 0.9524847568862851
v 0.3183199627240314 -0.2514059037917777 0.0730352980277848
vn -0.0559907132081953 0.0200130296882124 0.9982306941169141
v 0.3112431554372606 0.7684566172835740 0.0674574856601033
vn -0.0210689947498008 0.0314073788547736 0.9992845810947477
v 0.1953282810656908 0.0571996465157335 0.0729425651353299
vn -0.0079126763050435 0.3245838729847706 0.9458238202497852
v 0.1770334692631653 -0.5929479911241481 0.0709094770991069
vn -0.0094805656694094 0.0696119849723166 0.9975290925195124
v 0.3120536935264029 -0.6649218047604102 0.0705128601577298
vn 0.0000530304186739 -0.0000612274862133 -0.9999999967194848
v 0.3104336048267223 0.2932522064800185 -0.0693491354522222
vn 0.0013041772216879 -0.0129304253120251 0.9999155480454461
v 0.3221404437052967 -0.3867244801876032 0.0701552084621513
vn -0.0231109563529084 0.0392722982033308 0.9989612456398310
v 0.1638022001978546 -0.5256265086143987 0.0076292108143657
vn -0.0002808436086307 0.0051674606860297 -0.9999866091488054
v 0.3364716678902760 0.5552602301872670 -0.0693559299267834
vn 0.0000265792219978 0.0000020208087607 -0.9999999996447307
v 0.2976956143752286 0.7427269052521234 -0.0693253743260590
vn 0.0638287958853499 0.3488226303710623 0.9350126509073766
v 0.3106124576154174 0.4655265894552092 0.0719203044815310
vn 0.0158285798368572 -0.4626568099783482 -0.8863961485932839
v 0.2163545248223303 -0.9451168394280602 -0.0696395918051327
vn 0.0770775523506159 -0.2253089554895432 0.9712337131194783
v 0.3259898552788592 0.5911818974870617 0.0727284627558159
vn -0.0025038541925439 0.6203636621813756 0.7843103068040701
v 0.3180696308623071 0.8932603757211391 0.0038750085872996
vn 0.0000269916574461 -0.0000274210048369 -0.9999999992597695
v 0.4226635054716818 -0.3112466836752005 -0.0693185911884827
vn -0.0000824395207589 -0.0001153152548797 -0.9999999899530587
v 0.2918692683921092 0.5186953845543348 -0.0693247543781846
vn 0.0616430545917602 0.1394777331344354 0.9883046573705279
v 0.1990985946128710 0.5343356175648135 0.0035193225751440
vn 0.2390164135397393 0.2608953489210030 0.9353099865659452
v 0.3633895635408376 0.8320384828886469 0.0695916076639912
vn -0.0127177989591640 0.2261311321755825 0.9740138441781121
v 0.3399630860267923 0.1734550560362626 0.0045930164630556
vn 0.4072340965106162 -0.0691372125156797 0.9107032647820825
v 0.4420508805813134 -0.1781804924246653 0.0094408601894486
vn 0.2254894313156984 -0.2057996783914599 0.9522609982241711
v 0.3903064140604215 -0.4673109235987640 0.0716794679047362
vn 0.0062962627992872 -0.0024418620660220 -0.9999771969322164
v 0.4320891677474635 0.3010485573707128 -0.0693304727288462
vn -0.0000257977193228 -0.0000124611482040 -0.9999999995895987
v 0.3064472145681298 -0.6781765147460705 -0.0693265945160050
vn 0.0358233157328093 -0.0620868863300600 0.9974276457947943
v 0.3267839148037998 -0.0407400319822650 0.0729521899671512
vn 0.0975425012674158 0.4311228355748461 0.8970053294671111
v 0.3828571772766529 -0.5750930202008770 0.0586598988403809
vn -0.0000062039792807 0.0002251246831128 -0.9999999746401935
v 0.3150507567445102 -0.0994957973686056 -0.0693249196382758
vn 0.0026669583527208 -0.0005600340043678 -0.9999962868406357
v 0.3109344840126739 0.1414941006699874 -0.0693135082794595
vn 0.0009492364700377 -0.0004493347178978 -0.9999994485240655
v 0.4149671356168974 0.7669243425289689 -0.0693278796562215
vn 0.3667104157382945 0.0840567917606960 0.9265300463276657
v 0.3902344218734821 -0.6252232272165056 0.0701269084090302
vn -0.0000117556851611 0.0054415766640908 -0.9999851944430042
v 0.4266737534404442 0.5574322692988746 -0.0693237530989064
vn 0.4242337430785646 0.3231179822345042 0.8459435565037735
v 0.3863482095059874 0.4437554077094187 0.0728557241165074
vn 0.1351959555246513 0.2946552784207155 0.9459917127060825
v 0.3836179449808783 0.1144598696760403 0.0786924178786942
vn 0.5768209312014227 0.0321415438998527 0.8162380378808974
v 0.3947788452255400 -0.3476503614353115 0.0690865797638373
vn 0.0000400143121293 -0.0000034352503013 -0.9999999991935270
v 0.2936136159976622 -0.4253000727264991 -0.0693221178059406
vn 0.3163223603877314 -0.0842833925057699 0.9449002455637592
v 0.3847812502311480 0.3027819828610208 0.0702713985744180
vn 0.3619276189862624 -0.3821244164277950 0.8502877918591163
v 0.4257897973839602 -0.8794282286188349 0.0134789966408553
vn 0.3235847567002173 -0.9174734395927338 -0.2313771658421363
v 0.4381037725570469 -0.9592507056405014 -0.0455400484468647
vn 0.5813046999494659 -0.0326287364317474 0.8130314947008689
v 0.4035024709913237 0.6615131536863023 0.0558042998936749
vn 0.4897269144272570 -0.1847614543301216 0.8520743830672159
v 0.4019818974587208 -0.8091567561090011 0.0627807498410006
vn 0.4780678620387382 -0.0900369354434788 0.8736958678748897
v 0.4406920249088536 0.5434656289815968 0.0077423939139199
vn 0.4590381544385777 0.0281357038703897 0.8879709200966789
v 0.4418402901029303 -0.5287385270378624 0.0058406742417967
vn 0.2800712418749151 0.5579302492279344 -0.7812003177617746
v 0.4577125878948037 0.9297837580708065 -0.0697796888444892
vn 0.4680276357239372 -0.0396886425989940 0.8828221473475337
v 0.4372432666540704 0.1854171666917589 0.0085709870720170
vn 0.4062566419802193 -0.1560317990636738 0.9003386132605382
v 0.4015586163660170 -0.1008899745143460 0.0600978057674833
vn 0.3841130884937408 0.5814514357173272 0.7171968789321790
v 0.4595207986715627 0.9103626720739773 -0.0105557285924380
vn 0.7148247209616674 0.0200354173992550 0.6990165951904947
v 0.4404425673216784 0.4075209396591760 0.0017135321010521
vn -0.0000032105150398 0.0000353803939293 -0.9999999993689602
v 0.3137937840039846 -0.5426749774082066 -0.0693164574985111
vn 0.6259554832601356 0.0186643887150479 0.7796354106699257
v 0.4396769423390878 -0.4128936721423046 0.0051941031057894
vn 0.7854470498974290 0.0904807431614821 0.6122794843242518
v 0.5086415973113447 0.1669919501928681 -0.0221743212984427
vn 0.0000468047472297 0.0000189432891332 -0.9999999987252338
v 0.4061346871870269 -0.1755941880789019 -0.0693260008987461
vn 0.6112995525728618 0.0363221094764939 0.7905653428954476
v 0.4378448434099385 0.6658069978344507 0.0115047884815387
vn 0.0019255378954917 0.0029506562590606 -0.9999937929464632
v 0.4239715128701800 -0.0516139965061278 -0.0692988073566600
vn 0.5412010439258359 0.0013297162481396 -0.8408921820948776
v 0.5125711993519709 -0.0574089977247653 -0.0693056735911088
vn 0.6212382522869780 -0.0162725187842620 0.7834527675794100
v 0.4362118483084605 -0.3066736419378375 0.0050789109152533
vn 0.8803792108586800 0.0050584250054620 0.4742434579668044
v 0.5150245008493599 -0.0509930773745120 -0.0226927425737865
vn 0.8409914205643778 0.0390745952219853 -0.5396356238660933
v 0.5152454912158947 0.1695410081612503 -0.0669213298119020
vn 0.0275989935427434 -0.0381572355671836 -0.9988905450194722
v 0.4278731217947231 -0.7765076576502891 -0.0693185454383625
vn 0.7414913555022120 -0.0211973948823334 0.6706274973229882
v 0.5142198115197431 0.6597649469372423 -0.0278206188049567
vn 0.0016402668792625 -0.0002035500931735 -0.9999986340450293
v 0.4278437064398373 -0.6515158773630427 -0.0693338118762758
vn 0.7183624186128523 -0.0032878521347037 -0.6956612865130800
v 0.5150811176556412 -0.6546177458819535 -0.0689663941202217
vn 0.4516647098606981 0.0031272355956202 -0.8921822741256301
v 0.5145225827133569 0.5763470467512735 -0.0689783881219356
vn 0.6198865981307259 -0.0072270954187864 0.7846581259056224
v 0.4506738188834967 -0.6715589051653262 -0.0006716435329382
vn 0.0058543627086211 0.0053748467203350 -0.9999684182313003
v 0.4775770194133473 0.5590737793767663 -0.0693120214313507
vn 0.9407736902795488 -0.2562719863533345 -0.2219674135730645
v 0.5207611165521819 -0.8418746946107872 -0.0577884922647893
vn 0.4458223738575177 0.0004131799968184 -0.8951213550409451
v 0.5138325935829842 -0.2911753832585292 -0.0693111512307675
vn 0.8968973405468008 0.2624129791098849 0.3559699269808493
v 0.5243812965702019 0.8683061981325320 -0.0443598465871583
vn 0.7969628236887348 -0.0159040653310773 0.6038189450191368
v 0.5157403169776609 -0.6652429474040275 -0.0287497116213201
vn 0.6851481309349600 -0.0062023941337725 0.7283773534256404
v 0.5131793783878952 -0.4148217937580559 -0.0237516448162727
# 252 vertices, 0 vertices normals


usemtl material_0
vt 0.6698621511459351 0.4854964315891266
vt 0.6805481910705566 0.5326278209686279
vt 0.6599166989326477 0.5219359397888184
f 4/1/4 6/2/6 3/3/3
vt 0.4492619037628174 0.8902478218078613
vt 0.4913071393966675 0.8737092614173889
vt 0.4629690051078796 0.9047426581382751
f 2/4/2 24/5/24 29/6/29
vt 0.5047942399978638 0.8406332135200500
vt 0.4847735762596130 0.8421125411987305
f 11/7/11 24/5/24 9/8/9
vt 0.6617968678474426 0.2432120889425278
vt 0.6792632341384888 0.2291464805603027
vt 0.7099962830543518 0.2347405850887299
f 3/9/3 6/10/6 37/11/37
vt 0.4624623656272888 0.8574527502059937
f 24/5/24 1/12/1 9/8/9
f 1/12/1 24/5/24 2/4/2
vt 0.6781802773475647 0.5538817644119263
vt 0.6605832576751709 0.5731579661369324
vt 0.6595600247383118 0.5537340044975281
f 7/13/7 4/14/4 8/15/8
vt 0.4498611986637115 0.4388728439807892
vt 0.4766108393669128 0.4573923349380493
vt 0.4492254853248596 0.4677710831165314
f 7/16/7 8/17/8 18/18/18
vt 0.8294375538825989 0.3937399983406067
vt 0.8379720449447632 0.4242245256900787
vt 0.8255311250686646 0.4222916662693024
f 15/19/15 5/20/5 13/21/13
vt 0.4565485417842865 0.4863008558750153
f 18/18/18 8/17/8 5/22/5
vt 0.7258059382438660 0.7581298947334290
vt 0.7188754081726074 0.7790024876594543
vt 0.6929168105125427 0.7574905157089233
f 13/23/13 5/24/5 8/25/8
vt 0.7260326147079468 0.9418307542800903
vt 0.7367516756057739 0.9705200195312500
vt 0.6800842285156250 0.9452041983604431
f 11/26/11 3/27/3 37/28/37
vt 0.8669807314872742 0.4388195872306824
f 15/19/15 17/29/17 5/20/5
vt 0.7241201996803284 0.4952568113803864
f 6/2/6 4/1/4 22/30/22
vt 0.6236842870712280 0.5035306811332703
f 4/1/4 3/3/3 12/31/12
vt 0.8586071133613586 0.3652377128601074
vt 0.8183854222297668 0.3453811705112457
f 10/32/10 15/19/15 40/33/40
vt 0.7533385157585144 0.8027880191802979
vt 0.7097110152244568 0.8189935088157654
f 5/24/5 17/34/17 21/35/21
vt 0.4794023931026459 0.7245128750801086
vt 0.4526220560073853 0.7049811482429504
vt 0.4659572839736938 0.6848554015159607
f 3/36/3 43/37/43 25/38/25
vt 0.3916846811771393 0.8771272897720337
vt 0.3861928880214691 0.8377794623374939
vt 0.4318935275077820 0.8689409494400024
f 5/39/5 14/40/14 18/41/18
vt 0.4836459755897522 0.7452111840248108
vt 0.5293891429901123 0.7807813882827759
vt 0.4843968749046326 0.7844302654266357
f 6/42/6 22/43/22 26/44/26
vt 0.4693219363689423 0.7669286131858826
f 26/44/26 37/45/37 6/42/6
vt 0.6794064640998840 0.4468532204627991
vt 0.7063364386558533 0.4580935835838318
f 7/46/7 23/47/23 4/1/4
vt 0.2182712703943253 0.6047286391258240
vt 0.2102441787719727 0.5675486326217651
vt 0.2632274031639099 0.5795972943305969
f 7/48/7 16/49/16 23/50/23
vt 0.6973549723625183 0.7300328612327576
f 8/25/8 30/51/30 13/23/13
vt 0.7480270266532898 0.7404211163520813
vt 0.7779025435447693 0.7174513339996338
vt 0.7762755751609802 0.7562102675437927
f 1/52/1 43/53/43 9/54/9
vt 0.3528370559215546 0.8381686210632324
f 5/39/5 21/55/21 14/40/14
vt 0.7823099493980408 0.9478636980056763
f 11/26/11 43/56/43 3/27/3
vt 0.7263432741165161 0.7213545441627502
f 13/23/13 30/51/30 35/57/35
vt 0.4118655025959015 0.4503040313720703
f 18/18/18 14/58/14 7/16/7
vt 0.6880284547805786 0.9059391617774963
f 11/26/11 37/28/37 19/59/19
vt 0.6171671152114868 0.4707110524177551
f 4/1/4 12/31/12 8/60/8
vt 0.5016313791275024 0.6980474591255188
f 3/36/3 25/38/25 12/61/12
f 4/1/4 23/47/23 22/30/22
vt 0.7856593132019043 0.4113255441188812
f 13/21/13 35/62/35 15/19/15
vt 0.7405633330345154 0.9215095043182373
f 11/26/11 9/63/9 43/56/43
vt 0.2478007078170776 0.4593977034091949
vt 0.2618265450000763 0.4364527761936188
vt 0.2719322443008423 0.4734965860843658
f 2/64/2 29/65/29 1/66/1
vt 0.4267594516277313 0.4244824349880219
f 16/67/16 7/16/7 14/58/14
vt 0.5110250711441040 0.4992408454418182
vt 0.5162100791931152 0.4433316588401794
f 30/68/30 8/17/8 20/69/20
vt 0.7693702578544617 0.7775775194168091
vt 0.7788614630699158 0.8121774792671204
vt 0.7550125122070312 0.8098233342170715
f 11/70/11 19/71/19 24/72/24
vt 0.5122498273849487 0.9145792126655579
f 29/6/29 24/5/24 48/73/48
f 15/19/15 10/32/10 17/29/17
vt 0.7210954427719116 0.2007779330015182
vt 0.7514196634292603 0.2089410126209259
f 37/11/37 26/74/26 38/75/38
vt 0.6306594610214233 0.5293986797332764
vt 0.6125552654266357 0.5584465861320496
vt 0.6163784861564636 0.5306667089462280
f 20/76/20 8/77/8 46/78/46
vt 0.4914728701114655 0.8259415030479431
f 26/44/26 22/43/22 28/79/28
vt 0.4899282157421112 0.6607182025909424
f 12/61/12 25/38/25 64/80/64
vt 0.3727945089340210 0.7969866991043091
f 21/55/21 56/81/56 14/40/14
vt 0.6008230447769165 0.7255600094795227
vt 0.5997316241264343 0.6916024684906006
vt 0.6303865909576416 0.6928545832633972
f 17/82/17 31/83/31 27/84/27
vt 0.7989820837974548 0.8195222020149231
vt 0.7845730185508728 0.8443375825881958
f 37/85/37 59/86/59 19/71/19
vt 0.8939673304557800 0.4046718776226044
f 10/32/10 31/87/31 17/29/17
vt 0.6277243494987488 0.7204083204269409
f 17/82/17 27/84/27 21/88/21
vt 0.5251593589782715 0.8737315535545349
vt 0.5348384976387024 0.8909088373184204
f 19/89/19 52/90/52 24/5/24
vt 0.7119413018226624 0.3127413094043732
vt 0.7477570772171021 0.3257535994052887
vt 0.7200192809104919 0.3576218783855438
f 10/91/10 40/92/40 36/93/36
vt 0.7148358821868896 0.6725606322288513
f 35/57/35 30/51/30 67/94/67
vt 0.4076915085315704 0.8194907307624817
f 56/81/56 33/95/33 14/40/14
vt 0.3056908547878265 0.4505011737346649
f 1/66/1 29/65/29 49/96/49
vt 0.4576228857040405 0.8050578236579895
f 26/44/26 28/79/28 38/97/38
vt 0.7100684046745300 0.5458800792694092
vt 0.7420275211334229 0.5800735950469971
vt 0.7171382904052734 0.5713056921958923
f 23/98/23 45/99/45 22/100/22
vt 0.0171653684228659 0.4058335423469543
vt 0.0278698001056910 0.3760387301445007
vt 0.0309579186141491 0.4046518802642822
f 16/101/16 32/102/32 23/103/23
vt 0.4380554854869843 0.7210873365402222
vt 0.4292689561843872 0.7355918288230896
vt 0.4120222628116608 0.7153096199035645
f 14/104/14 42/105/42 16/106/16
vt 0.1720341444015503 0.1013115569949150
vt 0.2030002921819687 0.0950871556997299
vt 0.2251999974250793 0.1408270895481110
f 20/107/20 46/108/46 50/109/50
f 24/5/24 52/90/52 48/73/48
f 15/19/15 35/62/35 40/33/40
vt 0.7464298605918884 0.5399677753448486
vt 0.7367950677871704 0.5612489581108093
f 23/98/23 32/110/32 45/111/45
vt 0.3784087300300598 0.4784794449806213
vt 0.3784153163433075 0.4327384531497955
f 14/58/14 33/112/33 42/113/42
vt 0.7428848743438721 0.8452376127243042
f 19/71/19 59/86/59 52/114/52
vt 0.7485439777374268 0.3680955171585083
f 40/92/40 88/115/88 36/93/36
vt 0.6793577671051025 0.3383441865444183
f 10/91/10 36/93/36 31/116/31
vt 0.6153684258460999 0.5307037830352783
vt 0.5945649743080139 0.5401002764701843
f 46/117/46 8/77/8 75/118/75
vt 0.5961446762084961 0.5108298659324646
f 12/31/12 64/119/64 8/60/8
vt 0.2964675724506378 0.4948374927043915
f 1/66/1 49/96/49 43/120/43
vt 0.3947932422161102 0.9314216971397400
vt 0.4020403027534485 0.9682872295379639
vt 0.3758636116981506 0.9513524174690247
f 30/121/30 34/122/34 67/123/67
vt 0.8123685121536255 0.3400146961212158
vt 0.7792946696281433 0.3641785979270935
f 35/124/35 57/125/57 40/92/40
vt 0.7592471241950989 0.6946525573730469
vt 0.7733341455459595 0.6870941519737244
f 43/53/43 63/126/63 71/127/71
vt 0.2040917277336121 0.6742510199546814
vt 0.2301945388317108 0.6710230112075806
vt 0.2036972343921661 0.7130762934684753
f 33/128/33 84/129/84 42/130/42
vt 0.1811461597681046 0.2664300501346588
vt 0.1257552206516266 0.2861163914203644
vt 0.1255978047847748 0.2626073658466339
f 28/131/28 60/132/60 38/133/38
vt 0.5358660221099854 0.2912994921207428
vt 0.5073760151863098 0.2745636701583862
vt 0.5374815464019775 0.2558040916919708
f 21/134/21 27/135/27 47/136/47
vt 0.5611329674720764 0.2809933722019196
f 21/134/21 47/136/47 56/137/56
vt 0.8030918240547180 0.0406456477940083
vt 0.8021649122238159 0.0641754567623138
vt 0.7732195258140564 0.0407719798386097
f 16/138/16 42/139/42 39/140/39
vt 0.9298635125160217 0.9715681076049805
vt 0.9402620792388916 0.9382089972496033
vt 0.9573510289192200 0.9619840383529663
f 52/141/52 59/142/59 73/143/73
vt 0.6864478588104248 0.3713494539260864
f 36/93/36 77/144/77 31/116/31
vt 0.0490700863301754 0.9954445362091064
vt 0.0313473902642727 0.9987823963165283
vt 0.0422568395733833 0.9698053598403931
f 16/145/16 39/146/39 32/147/32
vt 0.5608155131340027 0.4045747220516205
vt 0.5331492424011230 0.4739204347133636
f 20/69/20 50/148/50 30/149/30
vt 0.2662415802478790 0.8679639697074890
vt 0.2214948236942291 0.8404333591461182
vt 0.2635809779167175 0.8447932600975037
f 22/150/22 44/151/44 28/152/28
vt 0.9302057027816772 0.8862717151641846
vt 0.9553568959236145 0.8875861167907715
vt 0.9438989162445068 0.9106513857841492
f 38/153/38 60/154/60 37/155/37
vt 0.8124358057975769 0.9471582174301147
vt 0.8049646615982056 0.9669772386550903
f 43/56/43 71/156/71 25/157/25
vt 0.2080867439508438 0.6387622952461243
f 33/128/33 56/158/56 84/129/84
f 40/92/40 57/125/57 88/115/88
vt 0.2619206905364990 0.9258871674537659
vt 0.2351119518280029 0.9246577620506287
vt 0.2576087117195129 0.8997476696968079
f 32/159/32 41/160/41 45/161/45
vt 0.2330368012189865 0.8676195144653320
f 22/150/22 55/162/55 44/151/44
vt 0.2335398793220520 0.8809900283813477
f 45/161/45 61/163/61 22/150/22
vt 0.4802616238594055 0.2812154293060303
vt 0.4804686605930328 0.2543140351772308
f 31/164/31 53/165/53 27/135/27
vt 0.0840585604310036 0.5962145328521729
vt 0.0792082548141479 0.5685880780220032
vt 0.1056434810161591 0.5307641029357910
f 67/166/67 85/167/85 35/168/35
vt 0.2842836678028107 0.3881682455539703
vt 0.3315671682357788 0.4113112688064575
f 29/65/29 48/169/48 83/170/83
f 29/65/29 83/170/83 49/96/49
vt 0.2329243421554565 0.7064962983131409
f 84/129/84 54/171/54 42/130/42
vt 0.6758733391761780 0.0998871773481369
vt 0.7294339537620544 0.1225505247712135
vt 0.7360479235649109 0.1496249139308929
f 25/172/25 51/173/51 64/174/64
vt 0.1757289767265320 0.4656700193881989
vt 0.1695531159639359 0.5000883936882019
vt 0.1594737023115158 0.4795193374156952
f 75/175/75 8/176/8 66/177/66
vt 0.7740212082862854 0.0661910027265549
f 42/139/42 54/178/54 39/140/39
vt 0.5394546389579773 0.1766866296529770
vt 0.5153896212577820 0.1896777600049973
vt 0.5049404501914978 0.1755210459232330
f 34/179/34 30/180/30 50/181/50
f 22/150/22 61/163/61 55/162/55
vt 0.2303045094013214 0.8966653347015381
f 45/161/45 76/182/76 61/163/61
vt 0.3335476219654083 0.4854919314384460
f 43/120/43 49/96/49 63/183/63
vt 0.1656083464622498 0.3050256669521332
f 28/131/28 44/184/44 60/132/60
vt 0.4637412726879120 0.2458634823560715
f 31/164/31 65/185/65 53/165/53
vt 0.0859238803386688 0.1488377302885056
vt 0.0522053278982639 0.1660825610160828
vt 0.0564629472792149 0.1290169656276703
f 31/186/31 77/187/77 90/188/90
vt 0.0895891264081001 0.1280517727136612
vt 0.0427920147776604 0.1090943366289139
f 31/189/31 90/188/90 65/190/65
vt 0.9685378670692444 0.9079913496971130
f 37/155/37 60/154/60 72/191/72
vt 0.0125809861347079 0.9501834511756897
vt 0.0256431624293327 0.9431627392768860
f 32/147/32 68/192/68 41/193/41
vt 0.0141178350895643 0.9789216518402100
f 32/147/32 39/146/39 58/194/58
vt 0.1679391264915466 0.5221383571624756
vt 0.1540137231349945 0.5051939487457275
f 8/176/8 64/195/64 66/196/66
vt 0.2071489393711090 0.9690466523170471
vt 0.1896546781063080 0.9834867119789124
vt 0.2224142402410507 0.9442995190620422
f 52/197/52 73/198/73 48/199/48
f 45/161/45 41/160/41 76/182/76
vt 0.5613548755645752 0.2580317854881287
vt 0.5630940794944763 0.2293432652950287
f 56/200/56 47/136/47 62/201/62
f 37/155/37 72/191/72 59/142/59
vt 0.5136539936065674 0.2425200343132019
f 47/136/47 27/135/27 74/202/74
vt 0.1799420863389969 0.9635368585586548
f 48/199/48 73/198/73 69/203/69
vt 0.7891694903373718 0.3916753232479095
f 57/125/57 70/204/70 88/115/88
f 32/147/32 58/194/58 68/192/68
vt 0.7020238637924194 0.1105614528059959
f 25/172/25 100/205/100 51/173/51
vt 0.5568687319755554 0.1682803034782410
vt 0.5458835959434509 0.1519452035427094
f 67/206/67 34/179/34 87/207/87
vt 0.3058137595653534 0.7935441136360168
vt 0.3192115128040314 0.7410770058631897
vt 0.3395380973815918 0.7543682456016541
f 77/208/77 36/209/36 78/210/78
vt 0.4276405870914459 0.0963932573795319
vt 0.4536211490631104 0.1113684102892876
vt 0.4639403522014618 0.1330329179763794
f 60/211/60 44/212/44 97/213/97
vt 0.3849298357963562 0.2484663128852844
vt 0.3880652189254761 0.2292707115411758
vt 0.4176847636699677 0.2242287248373032
f 56/214/56 62/215/62 84/216/84
vt 0.0885011330246925 0.8048095703125000
vt 0.1021948456764221 0.7765887379646301
vt 0.1144552603363991 0.8061103224754333
f 71/217/71 81/218/81 25/219/25
vt 0.9578713774681091 0.9608204960823059
vt 0.9749279022216797 0.9410679340362549
f 73/220/73 59/142/59 96/221/96
vt 0.4526628851890564 0.3580814301967621
vt 0.5026298761367798 0.3433993756771088
vt 0.4529037773609161 0.3853340446949005
f 63/222/63 49/223/49 157/224/157
vt 0.7073404192924500 0.1904166489839554
vt 0.6775516867637634 0.1877853423357010
vt 0.6901816129684448 0.1734517514705658
f 50/225/50 46/226/46 79/227/79
vt 0.5646321177482605 0.3591618835926056
vt 0.5704108476638794 0.3910845518112183
vt 0.5438722968101501 0.3751137852668762
f 48/228/48 69/229/69 83/230/83
vt 0.8375667929649353 0.1930615752935410
vt 0.8312057256698608 0.1798359751701355
vt 0.8470135331153870 0.1706555932760239
f 64/231/64 51/232/51 66/233/66
vt 0.9790080189704895 0.9129514694213867
f 72/191/72 82/234/82 59/142/59
vt 0.4985400438308716 0.3980238437652588
f 49/223/49 83/230/83 89/235/89
vt 0.1223503276705742 0.0637874901294708
vt 0.1093341857194901 0.0843148827552795
vt 0.0754406601190567 0.0864314064383507
f 73/236/73 116/237/116 69/238/69
vt 0.7205275297164917 0.1752518266439438
f 50/225/50 79/227/79 80/239/80
vt 0.2720383405685425 0.3719685077667236
vt 0.2739231884479523 0.3422099947929382
vt 0.3028721213340759 0.3663663268089294
f 68/240/68 76/241/76 41/242/41
vt 0.8810276985168457 0.1829376965761185
vt 0.8849120736122131 0.1674424707889557
f 75/243/75 66/233/66 104/244/104
vt 0.8278207182884216 0.2266864478588104
vt 0.8155048489570618 0.2245605140924454
vt 0.8109209537506104 0.2122965157032013
f 74/245/74 27/246/27 53/247/53
vt 0.5482021570205688 0.1257720738649368
vt 0.5163629651069641 0.1512090563774109
vt 0.5228511095046997 0.1010545492172241
f 100/248/100 66/249/66 51/250/51
vt 0.3417713344097137 0.7119929790496826
f 36/209/36 88/251/88 78/210/78
vt 0.6670737862586975 0.1697295755147934
f 79/227/79 46/226/46 75/252/75
vt 0.1007930114865303 0.4168173670768738
vt 0.0636852160096169 0.4078989326953888
vt 0.0968065410852432 0.3903932869434357
f 65/253/65 90/254/90 53/255/53
vt 0.4246390759944916 0.3829711377620697
f 63/222/63 157/224/157 81/256/81
vt 0.6854449510574341 0.0801865011453629
vt 0.6453646421432495 0.0872409641742706
vt 0.6573913693428040 0.0592230074107647
f 59/257/59 82/258/82 96/259/96
f 157/224/157 49/223/49 89/235/89
vt 0.1399075388908386 0.1816291511058807
vt 0.1266408711671829 0.1775842458009720
vt 0.1245312020182610 0.1588073074817657
f 71/260/71 63/261/63 81/262/81
vt 0.9522700309753418 0.5205066800117493
vt 0.9397878050804138 0.5046743750572205
vt 0.9588103294372559 0.4909938871860504
f 54/263/54 106/264/106 39/265/39
vt 0.2884773910045624 0.3241480290889740
vt 0.2631893455982208 0.3112477660179138
vt 0.2898589968681335 0.3129726648330688
f 61/266/61 124/267/124 55/268/55
vt 0.2804145812988281 0.2914008200168610
f 55/268/55 124/267/124 44/269/44
vt 0.2880401015281677 0.5065790414810181
vt 0.2623166143894196 0.5236759185791016
vt 0.2603994309902191 0.4957806169986725
f 67/270/67 92/271/92 85/272/85
vt 0.3261646926403046 0.6692492365837097
vt 0.3325078189373016 0.6492522358894348
vt 0.3577491343021393 0.6740064620971680
f 70/273/70 57/274/57 86/275/86
f 88/251/88 70/273/70 86/275/86
vt 0.2654722929000854 0.1435203254222870
vt 0.2831161320209503 0.1538687348365784
vt 0.2525176405906677 0.1539304405450821
f 50/276/50 80/277/80 34/278/34
vt 0.8589578866958618 0.1591555774211884
f 66/233/66 113/279/113 104/244/104
vt 0.2948513925075531 0.5349767804145813
f 67/270/67 87/280/87 92/271/92
vt 0.0482076331973076 0.4226169288158417
vt 0.0496648736298084 0.3652706444263458
f 90/254/90 77/281/77 103/282/103
vt 0.8647023439407349 0.2105136066675186
vt 0.8494267463684082 0.2381756454706192
f 74/245/74 121/283/121 47/284/47
vt 0.3626613914966583 0.7916421294212341
f 77/208/77 78/210/78 103/285/103
f 61/266/61 76/241/76 124/267/124
vt 0.0443573668599129 0.5896033644676208
vt 0.0198230650275946 0.5926984548568726
vt 0.0438103526830673 0.5679130554199219
f 35/286/35 85/287/85 57/288/57
vt 0.0276705566793680 0.5496135354042053
vt 0.0171803850680590 0.5619115233421326
f 86/289/86 57/288/57 94/290/94
vt 0.0111022125929594 0.8642960786819458
vt 0.0229247417300940 0.8483273983001709
vt 0.0297347791492939 0.8765393495559692
f 72/291/72 60/292/60 82/293/82
vt 0.1422895938158035 0.0863104611635208
f 73/236/73 96/294/96 116/237/116
vt 0.8337159752845764 0.2089927345514297
f 74/245/74 53/247/53 95/295/95
vt 0.0169569198042154 0.5841672420501709
f 57/288/57 85/287/85 92/296/92
vt 0.9527812004089355 0.4604749679565430
vt 0.9344083070755005 0.4757435619831085
f 58/297/58 39/265/39 99/298/99
vt 0.2682364881038666 0.1725214421749115
f 80/277/80 87/299/87 34/278/34
vt 0.3636777400970459 0.7597616910934448
vt 0.3693383634090424 0.7725685834884644
f 78/210/78 123/300/123 111/301/111
f 78/210/78 111/301/111 103/285/103
vt 0.3958618342876434 0.7343609929084778
f 78/210/78 88/251/88 143/302/143
f 121/283/121 74/245/74 95/295/95
vt 0.0629148706793785 0.0238053668290377
vt 0.0814414173364639 0.0069398954510689
vt 0.0850135982036591 0.0197904240339994
f 81/303/81 157/304/157 112/305/112
f 83/230/83 69/229/69 89/235/89
f 94/290/94 57/288/57 92/296/92
vt 0.4995464682579041 0.1247182637453079
vt 0.4890488684177399 0.1649806797504425
f 44/306/44 91/307/91 97/213/97
vt 0.8662630319595337 0.2467507570981979
f 62/308/62 47/284/47 121/283/121
f 78/210/78 143/302/143 123/300/123
vt 0.0737455561757088 0.3745676577091217
f 90/254/90 95/309/95 53/255/53
vt 0.4273342490196228 0.1626459658145905
f 60/211/60 97/213/97 102/310/102
vt 0.5171133279800415 0.4403998851776123
f 89/235/89 69/229/69 105/311/105
f 90/254/90 103/282/103 95/309/95
vt 0.9315333366394043 0.4905580878257751
f 39/265/39 93/312/93 99/298/99
f 39/265/39 106/264/106 93/312/93
vt 0.0470105186104774 0.8459087014198303
f 60/292/60 102/313/102 82/293/82
vt 0.2485032528638840 0.3342089951038361
f 76/241/76 68/240/68 109/314/109
f 76/241/76 109/314/109 124/267/124
vt 0.3891455829143524 0.1979721784591675
f 62/215/62 118/315/118 84/216/84
vt 0.4574294090270996 0.2254144847393036
vt 0.4329345822334290 0.1916355043649673
f 54/316/54 84/216/84 108/317/108
vt 0.2170920372009277 0.2520058453083038
vt 0.2578789889812469 0.2515587210655212
vt 0.2566076219081879 0.2915367782115936
f 116/318/116 98/319/98 69/320/69
vt 0.8894101381301880 0.2223406881093979
f 121/283/121 118/321/118 62/308/62
vt 0.9247342348098755 0.4512702226638794
vt 0.9484049677848816 0.4187961816787720
f 58/297/58 114/322/114 68/323/68
vt 0.1661970466375351 0.7800693511962891
vt 0.1923693120479584 0.8126245737075806
vt 0.1608860492706299 0.8150765299797058
f 87/324/87 80/325/80 120/326/120
vt 0.4565007686614990 0.1553316563367844
f 91/307/91 102/327/102 97/213/97
vt 0.9329560995101929 0.4687867462635040
f 58/297/58 99/328/99 114/322/114
vt 0.4157742559909821 0.1906797587871552
f 84/216/84 118/315/118 108/329/108
vt 0.2412611842155457 0.0924045741558075
vt 0.2611186802387238 0.0683842003345490
vt 0.2802288830280304 0.0852823853492737
f 25/330/25 81/331/81 141/332/141
vt 0.2472855150699615 0.2824495732784271
f 124/267/124 91/333/91 44/269/44
vt 0.0619189068675041 0.8495928645133972
vt 0.0881053209304810 0.8489707112312317
vt 0.0677404180169106 0.8769991397857666
f 94/334/94 92/335/92 162/336/162
vt 0.2592592239379883 0.5505931973457336
f 92/271/92 87/280/87 107/337/107
vt 0.4910962581634521 0.4262379705905914
f 89/235/89 105/311/105 110/338/110
vt 0.2657065093517303 0.1660110801458359
vt 0.2921847701072693 0.1868767589330673
vt 0.2592767477035522 0.1925822347402573
f 54/339/54 108/340/108 106/341/106
vt 0.7854608893394470 0.1560658216476440
vt 0.7680172324180603 0.1881481856107712
vt 0.7416106462478638 0.1588182002305984
f 82/342/82 117/343/117 96/344/96
vt 0.4262877106666565 0.5792209506034851
vt 0.4228140115737915 0.5335887670516968
vt 0.4781680107116699 0.5321928262710571
f 69/345/69 98/346/98 105/347/105
vt 0.5661690831184387 0.5285226106643677
vt 0.5201858878135681 0.5680626034736633
vt 0.5122159123420715 0.5186618566513062
f 157/348/157 89/349/89 110/350/110
vt 0.0882710888981819 0.2752928733825684
vt 0.0850318968296051 0.3137913346290588
vt 0.0739593431353569 0.2946733534336090
f 104/351/104 113/352/113 144/353/144
vt 0.3577392995357513 0.1380028277635574
vt 0.3527193665504456 0.1655608117580414
vt 0.3384539484977722 0.1401544362306595
f 79/354/79 104/355/104 80/356/80
vt 0.8071362972259521 0.1887726336717606
f 82/342/82 102/357/102 117/343/117
vt 0.2520916759967804 0.5366283655166626
f 101/358/101 92/271/92 107/337/107
vt 0.3729195594787598 0.1465114802122116
f 79/354/79 75/359/75 104/355/104
vt 0.3176437318325043 0.1503428965806961
f 80/356/80 104/355/104 120/360/120
vt 0.0682205855846405 0.9456106424331665
vt 0.1078007295727730 0.9445418119430542
vt 0.0797717124223709 0.9767959117889404
f 112/361/112 157/362/157 127/363/127
vt 0.1423263996839523 0.7972483038902283
f 87/324/87 120/326/120 137/364/137
vt 0.0624290518462658 0.2460812479257584
vt 0.0734938532114029 0.2324624657630920
vt 0.0785590633749962 0.2478840500116348
f 114/365/114 109/366/109 68/367/68
vt 0.3376281261444092 0.1852219700813293
vt 0.2959820330142975 0.2105033546686172
f 118/368/118 125/369/125 108/340/108
vt 0.9535971879959106 0.2372598797082901
vt 0.9517880678176880 0.2141787707805634
vt 0.9774674773216248 0.2340912520885468
f 121/370/121 95/371/95 126/372/126
vt 0.1279639899730682 0.4327465295791626
vt 0.1547209471464157 0.4074324369430542
vt 0.1881898790597916 0.4315123558044434
f 91/373/91 122/374/122 102/375/102
vt 0.6008799076080322 0.4401971399784088
vt 0.6102095842361450 0.4000458121299744
vt 0.6297446489334106 0.4197996854782104
f 94/376/94 162/377/162 86/378/86
vt 0.0478157401084900 0.2305310964584351
f 114/365/114 119/379/119 109/366/109
vt 0.7936441898345947 0.2680512070655823
vt 0.7857977151870728 0.2988066077232361
vt 0.7653608322143555 0.2744546830654144
f 99/380/99 129/381/129 114/382/114
vt 0.0631863549351692 0.9714033007621765
f 112/361/112 127/363/127 115/383/115
vt 0.6587232947349548 0.4335376620292664
vt 0.6638349294662476 0.4009109735488892
vt 0.6861979961395264 0.4227994680404663
f 88/384/88 169/385/169 143/386/143
vt 0.0680557489395142 0.2034226357936859
f 109/366/109 119/379/119 124/387/124
vt 0.4461102485656738 0.5111541152000427
f 105/347/105 98/346/98 130/388/130
f 108/340/108 125/369/125 106/341/106
vt 0.1449751108884811 0.7659975886344910
f 87/324/87 137/364/137 107/389/107
vt 0.7653741836547852 0.2974472343921661
f 114/382/114 129/381/129 119/390/119
vt 0.2344002574682236 0.4629848897457123
vt 0.2466286718845367 0.4896612167358398
vt 0.2076742351055145 0.4789910912513733
f 103/391/103 123/392/123 95/393/95
vt 0.7542684674263000 0.4540847241878510
vt 0.7307614684104919 0.4448935091495514
vt 0.7252984642982483 0.4187411963939667
f 103/394/103 111/395/111 123/396/123
vt 0.9916834831237793 0.6663138270378113
vt 0.9739941358566284 0.6521428823471069
vt 0.9907906055450439 0.6493400335311890
f 96/397/96 117/398/117 116/399/116
vt 0.1243238598108292 0.6684681177139282
vt 0.1359101384878159 0.6878225803375244
vt 0.1192494705319405 0.7009134292602539
f 100/400/100 25/401/25 141/402/141
vt 0.2370775043964386 0.2195023000240326
f 116/318/116 130/403/130 98/319/98
vt 0.3400536477565765 0.1964783519506454
vt 0.3443487882614136 0.2099782079458237
f 118/404/118 126/405/126 125/369/125
vt 0.1224163398146629 0.1392594575881958
vt 0.1094941273331642 0.1217729672789574
vt 0.1303314864635468 0.1171207875013351
f 112/406/112 115/407/115 81/408/81
vt 0.8898162841796875 0.2004660815000534
f 121/283/121 126/409/126 118/321/118
vt 0.0610236860811710 0.1899693459272385
vt 0.0773971751332283 0.1834263652563095
f 124/387/124 122/410/122 91/411/91
f 88/384/88 86/378/86 169/385/169
vt 0.2183120101690292 0.2455471754074097
vt 0.2139412164688110 0.2167730182409286
f 116/412/116 117/413/117 130/403/130
vt 0.8202052712440491 0.2773500382900238
f 99/380/99 93/414/93 129/381/129
vt 0.1413758397102356 0.8199306130409241
f 142/415/142 137/364/137 120/326/120
vt 0.7121434807777405 0.3998114168643951
f 143/386/143 133/416/133 123/396/123
vt 0.8408112525939941 0.2669990658760071
vt 0.8296534419059753 0.2808907330036163
f 106/417/106 125/418/125 93/414/93
vt 0.2148598730564117 0.5104555487632751
f 123/392/123 128/419/128 95/393/95
vt 0.9793910384178162 0.1974172890186310
f 95/371/95 128/420/128 126/372/126
vt 0.3236713707447052 0.1824966669082642
f 104/355/104 142/421/142 120/360/120
vt 0.2014360725879669 0.4025295972824097
f 102/375/102 122/374/122 117/422/117
vt 0.0464058704674244 0.1953986734151840
f 122/410/122 124/387/124 180/423/180
vt 0.9967107176780701 0.1959372013807297
f 128/420/128 131/424/131 126/372/126
vt 0.2293093502521515 0.1914224177598953
f 117/413/117 134/425/134 130/403/130
vt 0.7376805543899536 0.4058160781860352
f 123/396/123 133/416/133 128/426/128
vt 0.3443702757358551 0.2280485630035400
f 125/369/125 126/405/126 132/427/132
vt 0.2528954744338989 0.2056495547294617
f 130/403/130 134/425/134 159/428/159
f 124/387/124 119/379/119 180/423/180
vt 0.6845275163650513 0.3223996758460999
vt 0.6832664608955383 0.3061758577823639
vt 0.7104887962341309 0.3111591339111328
f 129/429/129 149/430/149 119/431/119
vt 0.1417173743247986 0.5999998450279236
vt 0.1517015397548676 0.5693657994270325
vt 0.1643485277891159 0.5895369052886963
f 125/432/125 132/433/132 145/434/145
vt 0.1272219717502594 0.7320863008499146
vt 0.1054817363619804 0.7483596801757812
vt 0.1131195127964020 0.7169651389122009
f 92/435/92 101/436/101 162/437/162
vt 0.1534905433654785 0.5479220151901245
vt 0.1326121389865875 0.5769026279449463
vt 0.1239948496222496 0.5539260506629944
f 104/438/104 144/439/144 147/440/147
vt 0.9885388612747192 0.7409698367118835
vt 0.9730036854743958 0.7105516195297241
vt 0.9941219091415405 0.7093176245689392
f 93/441/93 149/442/149 129/443/129
vt 0.0369174145162106 0.6734860539436340
vt 0.0199235957115889 0.6913655400276184
vt 0.0111346906051040 0.6718394756317139
f 122/444/122 136/445/136 117/446/117
vt 0.9230707883834839 0.0533760115504265
vt 0.9352667927742004 0.0691416859626770
vt 0.9127683639526367 0.0595784634351730
f 66/447/66 100/448/100 113/449/113
vt 0.0535930357873440 0.4917085766792297
vt 0.0469745509326458 0.4591093957424164
vt 0.0636788606643677 0.4666315317153931
f 101/450/101 107/451/107 161/452/161
vt 0.9600809812545776 0.1263850182294846
vt 0.9452663660049438 0.1366413086652756
vt 0.9311941266059875 0.1015232577919960
f 137/453/137 184/454/184 107/455/107
vt 0.5854946374893188 0.2697945535182953
vt 0.6041842103004456 0.2607274651527405
vt 0.5964105725288391 0.2925435006618500
f 136/456/136 146/457/146 117/458/117
vt 0.0359457246959209 0.7721275687217712
vt 0.0152739966288209 0.7737317085266113
vt 0.0135158505290747 0.7578498721122742
f 132/459/132 126/460/126 131/461/131
vt 0.3331791162490845 0.5306560993194580
vt 0.3520742058753967 0.5198681950569153
vt 0.3346282243728638 0.5461905002593994
f 128/462/128 133/463/133 131/464/131
vt 0.9902157187461853 0.7632958292961121
vt 0.9685137271881104 0.7477546930313110
f 93/441/93 125/465/125 145/466/145
f 149/442/149 93/441/93 145/466/145
vt 0.5445996522903442 0.0378579832613468
vt 0.5130851864814758 0.0390139706432819
vt 0.5042100548744202 0.0191766824573278
f 180/467/180 136/468/136 122/469/122
vt 0.6273598074913025 0.2791075110435486
vt 0.6341995000839233 0.2695231735706329
f 117/470/117 146/457/146 134/471/134
vt 0.7210928201675415 0.2886756360530853
f 119/431/119 149/430/149 180/472/180
vt 0.9186967015266418 0.1299937814474106
f 107/455/107 184/454/184 218/473/218
vt 0.0490263625979424 0.7542484998703003
f 132/459/132 131/461/131 148/474/148
vt 0.1094981208443642 0.2046556174755096
vt 0.1216689795255661 0.2172166407108307
vt 0.1120512932538986 0.2408286184072495
f 157/475/157 175/476/175 127/477/127
vt 0.6475123763084412 0.2370056211948395
f 134/471/134 146/457/146 138/478/138
vt 0.1625812053680420 0.5334876775741577
vt 0.1872566789388657 0.5408254265785217
f 132/479/132 140/480/140 145/434/145
vt 0.6834483742713928 0.2799290120601654
f 149/430/149 155/481/155 180/472/180
vt 0.3506310284137726 0.0871988683938980
vt 0.3593399822711945 0.1089440062642097
vt 0.3391856253147125 0.1100345477461815
f 142/482/142 147/483/147 137/484/137
vt 0.7884410619735718 0.1054017916321754
vt 0.7545007467269897 0.1073685288429260
vt 0.7577536702156067 0.0849441513419151
f 115/485/115 141/486/141 81/487/81
vt 0.9696549773216248 0.3489770591259003
vt 0.9835519790649414 0.3914186656475067
vt 0.9551792740821838 0.3758633434772491
f 131/488/131 139/489/139 160/490/160
vt 0.3777709305286407 0.0686505734920502
vt 0.3980627357959747 0.0950394496321678
vt 0.3853984475135803 0.1114333793520927
f 104/491/104 147/492/147 154/493/154
vt 0.2292388230562210 0.0486575290560722
vt 0.1964857727289200 0.0577955059707165
vt 0.2047706097364426 0.0261135157197714
f 151/494/151 134/495/134 138/496/138
vt 0.8990943431854248 0.1125092357397079
vt 0.8932874202728271 0.1311636716127396
f 107/497/107 218/473/218 161/498/161
vt 0.1293283700942993 0.6050293445587158
vt 0.1140509769320488 0.5902627110481262
vt 0.1403680592775345 0.5979447364807129
f 158/499/158 211/500/211 113/501/113
vt 0.2477647513151169 0.3888460695743561
vt 0.2226959913969040 0.3977772891521454
vt 0.2175031751394272 0.3662325143814087
f 134/502/134 151/503/151 159/504/159
vt 0.0277764778584242 0.7377666831016541
f 148/474/148 131/461/131 160/505/160
vt 0.2183362543582916 0.3473362624645233
vt 0.2182522416114807 0.3599751591682434
vt 0.2094471305608749 0.3414062857627869
f 105/506/105 130/507/130 110/508/110
vt 0.3699918389320374 0.5508574247360229
f 131/464/131 133/463/133 139/509/139
vt 0.6075549125671387 0.2325216978788376
f 146/457/146 201/510/201 138/478/138
vt 0.3569705784320831 0.4268910586833954
vt 0.3443574011325836 0.3978378474712372
vt 0.3756676614284515 0.4093953073024750
f 162/511/162 135/512/135 171/513/171
f 142/482/142 104/491/104 154/493/154
f 144/439/144 113/501/113 211/500/211
vt 0.5048199892044067 0.0623808167874813
f 136/468/136 180/467/180 150/514/150
vt 0.3427066206932068 0.4407319724559784
vt 0.3519794344902039 0.4628553390502930
f 86/515/86 162/511/162 169/516/169
f 142/482/142 154/493/154 147/483/147
vt 0.9184201359748840 0.0857094153761864
f 113/449/113 100/448/100 158/517/158
vt 0.0173540376126766 0.6929348707199097
vt 0.0073465551249683 0.7216916680335999
vt 0.0039780866354704 0.7070915102958679
f 136/518/136 150/519/150 146/520/146
vt 0.1887542456388474 0.5774046182632446
f 140/480/140 156/521/156 145/434/145
vt 0.9435570836067200 0.7257962822914124
f 145/466/145 181/522/181 149/442/149
vt 0.7074165940284729 0.2700205743312836
f 180/472/180 155/481/155 153/523/153
vt 0.5391475558280945 0.0642620548605919
f 180/467/180 152/524/152 150/514/150
vt 0.9528389573097229 0.4061180651187897
f 139/489/139 179/525/179 160/490/160
vt 0.9490185379981995 0.6942331194877625
f 149/442/149 181/522/181 155/526/155
vt 0.5656377673149109 0.2337582409381866
f 146/457/146 150/527/150 201/510/201
vt 0.3557696044445038 0.4838415980339050
vt 0.3773559331893921 0.4976669251918793
f 143/528/143 164/529/164 133/463/133
vt 0.0595552697777748 0.7367126345634460
f 160/505/160 188/530/188 148/474/148
vt 0.0755603164434433 0.5023262500762939
vt 0.0508897602558136 0.5091789960861206
f 101/450/101 163/531/163 162/532/162
vt 0.9459804892539978 0.7519820928573608
f 145/466/145 173/533/173 181/522/181
vt 0.2096873521804810 0.3415637910366058
f 130/507/130 159/504/159 110/534/110
vt 0.0324413739144802 0.8107314705848694
vt 0.0396034494042397 0.8387828469276428
vt 0.0197195149958134 0.8221448659896851
f 132/535/132 192/536/192 140/537/140
vt 0.0778407007455826 0.5252057909965515
f 162/532/162 163/531/163 135/538/135
f 101/450/101 161/452/161 163/531/163
vt 0.0563452057540417 0.8214814066886902
f 132/535/132 148/539/148 192/536/192
f 144/439/144 211/500/211 147/440/147
vt 0.1377452462911606 0.2386889308691025
f 127/477/127 175/476/175 194/540/194
vt 0.1811673343181610 0.7354440689086914
vt 0.2018985748291016 0.7758663892745972
vt 0.1815434694290161 0.8051222562789917
f 140/541/140 166/542/166 156/543/156
vt 0.5805712342262268 0.3570891618728638
vt 0.5917851924896240 0.3205818831920624
vt 0.6102840900421143 0.3399324119091034
f 159/544/159 165/545/165 110/546/110
vt 0.9645822048187256 0.7618283629417419
f 145/466/145 156/547/156 173/533/173
vt 0.9034417271614075 0.0798753127455711
vt 0.9081382155418396 0.0937946066260338
f 211/548/211 158/517/158 170/549/170
vt 0.0789990574121475 0.4865303635597229
f 163/531/163 161/452/161 231/550/231
vt 0.9566631317138672 0.0787143632769585
f 100/448/100 141/551/141 158/517/158
vt 0.8199677467346191 0.1005557253956795
vt 0.8199116587638855 0.1408421248197556
f 127/552/127 194/553/194 115/485/115
vt 0.2016398906707764 0.3520042002201080
vt 0.1903139501810074 0.3834972381591797
vt 0.1685657948255539 0.3398587405681610
f 150/554/150 152/555/152 182/556/182
vt 0.2661252915859222 0.7580663561820984
vt 0.2575742900371552 0.7322847843170166
vt 0.2824187874794006 0.7296145558357239
f 180/557/180 168/558/168 152/559/152
vt 0.1933966428041458 0.4015729725360870
f 159/504/159 151/503/151 177/560/177
vt 0.6382210254669189 0.3104808032512665
vt 0.6339892148971558 0.3562929332256317
f 175/561/175 157/562/157 110/546/110
vt 0.9105280637741089 0.6169796586036682
vt 0.9181112051010132 0.6462708711624146
vt 0.8986095190048218 0.6304357647895813
f 148/563/148 188/564/188 192/565/192
vt 0.3583513200283051 0.8715046048164368
vt 0.3393453359603882 0.8860808610916138
vt 0.3099798858165741 0.8627994656562805
f 143/566/143 169/567/169 164/568/164
vt 0.8875417113304138 0.6440999507904053
vt 0.8662416934967041 0.6564779281616211
vt 0.8631834983825684 0.6197085976600647
f 192/569/192 174/570/174 140/571/140
vt 0.8297565579414368 0.0588836632668972
vt 0.8740965127944946 0.0370413549244404
vt 0.8818240165710449 0.0630009919404984
f 138/572/138 172/573/172 151/574/151
vt 0.2837325334548950 0.7865253090858459
vt 0.2587195038795471 0.8070425987243652
vt 0.2602488398551941 0.7842094898223877
f 155/575/155 187/576/187 153/577/153
vt 0.2705872356891632 0.9716616868972778
vt 0.2449157685041428 0.9897693991661072
vt 0.2505773901939392 0.9732664227485657
f 201/578/201 150/579/150 195/580/195
vt 0.2183422148227692 0.7365168333053589
f 140/541/140 174/581/174 166/542/166
vt 0.9214844703674316 0.6041242480278015
vt 0.9350227117538452 0.5784173011779785
vt 0.9373158216476440 0.6023961901664734
f 155/582/155 181/583/181 187/584/187
vt 0.2110690027475357 0.4218699634075165
f 151/503/151 172/585/172 177/560/177
vt 0.7895798087120056 0.1361879557371140
f 115/485/115 194/553/194 167/586/167
vt 0.1654787361621857 0.3860095143318176
f 152/555/152 168/587/168 182/556/182
vt 0.9462569355964661 0.6307213902473450
vt 0.9461152553558350 0.6463516354560852
f 160/588/160 179/589/179 188/564/188
vt 0.3318142890930176 0.9305296540260315
vt 0.3053767681121826 0.8895388841629028
vt 0.3343115150928497 0.9019138813018799
f 171/590/171 196/591/196 162/592/162
vt 0.5075582265853882 0.0778739526867867
vt 0.5077569484710693 0.0924745425581932
vt 0.4858450889587402 0.0840904414653778
f 115/593/115 167/594/167 141/595/141
vt 0.2967574298381805 0.9891040325164795
vt 0.3016637861728668 0.9673353433609009
f 138/596/138 201/578/201 197/597/197
vt 0.3204809427261353 0.9844654202461243
f 138/596/138 197/597/197 172/598/172
vt 0.9042928218841553 0.6618776321411133
f 188/564/188 176/599/176 192/569/192
f 164/568/164 169/567/169 196/591/196
f 169/567/169 162/592/162 196/591/196
vt 0.2964330613613129 0.9234077930450439
f 196/591/196 171/590/171 241/600/241
vt 0.4881318807601929 0.2264765053987503
vt 0.4931385517120361 0.2048016041517258
vt 0.5135523080825806 0.2153651267290115
f 170/601/170 190/602/190 211/603/211
vt 0.8830498456954956 0.1468424350023270
vt 0.8745595216751099 0.1328390538692474
vt 0.9067782163619995 0.1376229226589203
f 161/604/161 218/605/218 231/606/231
vt 0.5646976232528687 0.3335587680339813
vt 0.5425391197204590 0.3257748186588287
vt 0.5623213052749634 0.3091972768306732
f 159/607/159 177/608/177 198/609/198
vt 0.6361794471740723 0.1475709378719330
vt 0.6194714903831482 0.1313189119100571
vt 0.6501677036285400 0.1354411244392395
f 172/610/172 197/611/197 177/612/177
vt 0.2249423563480377 0.8146837353706360
f 156/543/156 166/542/166 178/613/178
vt 0.2277149111032486 0.7609313130378723
vt 0.2242249250411987 0.7904622554779053
f 166/542/166 191/614/191 185/615/185
vt 0.3127197921276093 0.9446831345558167
f 171/590/171 135/616/135 241/600/241
vt 0.1318622231483459 0.3102391362190247
vt 0.1742791533470154 0.3049237132072449
f 182/556/182 195/617/195 150/618/150
vt 0.1272327750921249 0.9254685640335083
vt 0.1256090700626373 0.9349609017372131
vt 0.1136271879076958 0.9425683021545410
f 207/619/207 135/620/135 163/621/163
f 166/542/166 174/581/174 191/614/191
vt 0.9581972360610962 0.6045134067535400
f 187/584/187 181/583/181 208/622/208
vt 0.9239369034767151 0.5274347662925720
vt 0.9629961848258972 0.5279742479324341
vt 0.9521931409835815 0.5537269115447998
f 156/623/156 178/624/178 173/625/173
f 110/546/110 165/545/165 175/561/175
vt 0.5658658146858215 0.3021430075168610
f 159/607/159 198/626/198 165/545/165
vt 0.2008273005485535 0.1503259837627411
vt 0.1944017708301544 0.1652855873107910
vt 0.1659362912178040 0.1499624401330948
f 147/627/147 210/628/210 137/629/137
f 178/613/178 166/542/166 185/615/185
vt 0.4750049710273743 0.0924928188323975
f 167/594/167 200/630/200 141/595/141
vt 0.2582022845745087 0.1110905408859253
vt 0.2793506979942322 0.1185544207692146
vt 0.2412949502468109 0.1194214522838593
f 158/631/158 141/632/141 170/633/170
vt 0.2417378872632980 0.7633826136589050
f 153/577/153 203/634/203 180/557/180
vt 0.1518951803445816 0.1598417758941650
vt 0.1642751097679138 0.1673618853092194
f 184/635/184 137/629/137 234/636/234
vt 0.9767640829086304 0.0162476301193237
vt 1.0005916357040405 0.0347099713981152
vt 0.9598613977432251 0.0335662513971329
f 207/637/207 241/638/241 135/639/135
vt 0.6092587113380432 0.2955245375633240
f 175/561/175 165/545/165 183/640/183
vt 0.1176336780190468 0.5100058317184448
vt 0.1181267946958542 0.4722498655319214
vt 0.1274141222238541 0.4957639575004578
f 189/641/189 179/642/179 213/643/213
vt 0.5424580574035645 0.2159837186336517
vt 0.5390161871910095 0.1960913687944412
f 147/644/147 211/603/211 236/645/236
vt 0.9477372765541077 0.6642153263092041
f 179/589/179 189/646/189 188/564/188
vt 0.0262758210301399 0.2409214079380035
vt 0.0463154464960098 0.2373900115489960
vt 0.0428193360567093 0.2603317797183990
f 175/647/175 212/648/212 194/649/194
vt 0.8432961106300354 0.1330991685390472
vt 0.8571044206619263 0.1140017583966255
f 184/650/184 199/651/199 218/605/218
vt 0.6165727376937866 0.0943471267819405
f 177/612/177 197/611/197 186/652/186
vt 0.6493123769760132 0.1084842383861542
vt 0.6809536218643188 0.1151202246546745
f 177/612/177 202/653/202 198/654/198
f 177/612/177 186/652/186 202/653/202
vt 0.1095418855547905 0.4572963118553162
vt 0.1425936967134476 0.4479654133319855
f 139/655/139 133/656/133 179/642/179
f 180/557/180 203/634/203 168/558/168
vt 0.1642826944589615 0.8829540014266968
vt 0.1477954536676407 0.8939791917800903
vt 0.1456228196620941 0.8715934157371521
f 184/657/184 234/658/234 199/659/199
vt 0.5910322666168213 0.2873976528644562
f 165/545/165 198/626/198 183/660/183
vt 0.9235243797302246 0.1959074586629868
vt 0.9151527285575867 0.1712021827697754
vt 0.9370256066322327 0.1784420758485794
f 141/661/141 200/662/200 170/663/170
vt 0.8838183283805847 0.1053063943982124
vt 0.8459945321083069 0.0990059599280357
vt 0.8718655705451965 0.0906304493546486
f 200/664/200 167/665/167 193/666/193
vt 0.1697792261838913 0.9535056948661804
vt 0.1562737673521042 0.9660106301307678
vt 0.1532405316829681 0.9352929592132568
f 137/667/137 210/668/210 234/669/234
vt 0.7228699922561646 0.0766940191388130
vt 0.7409802675247192 0.0539976134896278
vt 0.7406898140907288 0.0714358612895012
f 179/670/179 133/671/133 220/672/220
vt 0.3544537425041199 0.2329229861497879
vt 0.3549731969833374 0.2559953033924103
vt 0.3310858607292175 0.2351362109184265
f 178/673/178 185/674/185 173/675/173
vt 0.5003830194473267 0.2774554789066315
vt 0.5229991078376770 0.2959046959877014
vt 0.5049054622650146 0.3236632049083710
f 153/676/153 187/677/187 216/678/216
vt 0.4721083343029022 0.3092883825302124
f 203/679/203 153/676/153 216/678/216
vt 0.1341372430324554 0.8558913469314575
vt 0.1067587137222290 0.8862980604171753
vt 0.1113951578736305 0.8427402973175049
f 163/680/163 231/681/231 207/682/207
vt 0.1685524135828018 0.9913763403892517
vt 0.1572677195072174 1.0103739500045776
f 210/668/210 147/683/147 236/684/236
vt 0.3078704774379730 0.5292060375213623
vt 0.3361196517944336 0.5849023461341858
vt 0.3018946647644043 0.6219342947006226
f 175/685/175 183/686/183 226/687/226
vt 0.6161374449729919 0.1693036705255508
vt 0.6476430892944336 0.1742068678140640
vt 0.6302751302719116 0.1991716474294662
f 182/688/182 168/689/168 219/690/219
vt 0.1010005176067352 0.8576371669769287
f 207/682/207 231/681/231 243/691/243
vt 0.9247481822967529 0.8739885091781616
vt 0.9399399757385254 0.8525337576866150
vt 0.9641352295875549 0.8566998243331909
f 174/692/174 192/693/192 225/694/225
vt 0.9413079619407654 0.8412398695945740
vt 0.9418289065361023 0.8238333463668823
vt 0.9701008796691895 0.8305132389068604
f 176/695/176 188/696/188 209/697/209
f 176/695/176 225/694/225 192/693/192
vt 0.1952111124992371 0.8792181611061096
vt 0.2068970352411270 0.9069496989250183
vt 0.1739528179168701 0.9047619700431824
f 191/698/191 174/699/174 205/700/205
vt 0.9751538038253784 0.8772257566452026
f 225/694/225 205/701/205 174/692/174
vt 0.8801659941673279 0.3563386201858521
vt 0.9252575039863586 0.3385894894599915
vt 0.8896230459213257 0.3850155472755432
f 164/702/164 220/703/220 133/704/133
vt 0.2846524119377136 0.5737044215202332
f 175/685/175 226/687/226 212/705/212
vt 0.8612247109413147 0.3451996445655823
vt 0.8967080712318420 0.3143209218978882
f 196/706/196 221/707/221 164/702/164
f 176/695/176 209/697/209 225/694/225
vt 0.5791275501251221 0.1773812770843506
f 182/688/182 219/690/219 195/708/195
vt 0.9619153141975403 0.1714895367622375
f 190/709/190 170/663/170 200/662/200
vt 0.9478876590728760 0.7994940280914307
f 188/696/188 189/710/189 209/697/209
vt 0.8506632447242737 0.3149890899658203
f 241/711/241 221/707/221 196/706/196
vt 0.3667180836200714 0.5885778069496155
vt 0.3849318623542786 0.6019791364669800
vt 0.3418715894222260 0.6363592147827148
f 198/712/198 202/713/202 229/714/229
vt 0.3334108591079712 0.2809972167015076
vt 0.3047554492950439 0.2474430948495865
f 173/675/173 204/715/204 181/716/181
vt 0.5463085770606995 0.3026955127716064
f 208/717/208 216/678/216 187/677/187
f 173/675/173 185/674/185 204/715/204
vt 0.9684870839118958 0.2712312042713165
vt 0.9620378613471985 0.2994973063468933
vt 0.9445375800132751 0.2708144485950470
f 195/718/195 215/719/215 201/720/201
vt 0.8850602507591248 0.2513124942779541
vt 0.9141291975975037 0.2645611166954041
vt 0.8770213723182678 0.2742108702659607
f 186/721/186 197/722/197 202/723/202
vt 0.9407696723937988 0.1575397700071335
f 190/709/190 200/662/200 206/724/206
vt 0.7396575808525085 0.1044045537710190
f 179/670/179 220/672/220 223/725/223
vt 0.7079209089279175 0.0900666490197182
f 213/726/213 179/670/179 223/725/223
vt 0.9727995991706848 0.8106879591941833
f 189/710/189 213/727/213 209/697/209
vt 0.9316484928131104 0.3002033829689026
f 201/720/201 224/728/224 197/722/197
f 220/703/220 164/702/164 221/707/221
vt 0.6411097049713135 0.7444289326667786
vt 0.6551319360733032 0.7524967193603516
vt 0.6594390273094177 0.7787066102027893
f 241/729/241 207/730/207 243/731/243
vt 0.5867863297462463 0.2017978429794312
f 195/708/195 219/690/219 215/732/215
vt 0.4937299489974976 0.9318109750747681
vt 0.5038578510284424 0.9605290293693542
vt 0.4639211297035217 0.9566279649734497
f 193/733/193 206/734/206 200/735/200
vt 0.7589395046234131 0.4686825275421143
vt 0.7685292363166809 0.4429821968078613
vt 0.7894968390464783 0.4625550210475922
f 167/736/167 194/737/194 214/738/214
vt 0.3012810349464417 0.2697720229625702
vt 0.2775062918663025 0.2461495995521545
f 181/716/181 228/739/228 208/740/208
vt 0.7601070404052734 0.4889244139194489
f 167/736/167 214/738/214 193/741/193
vt 0.1957897394895554 0.8375403881072998
vt 0.1711077392101288 0.8668190240859985
f 185/742/185 191/698/191 217/743/217
vt 0.4472250640392303 0.2970767021179199
vt 0.4624642133712769 0.3382405638694763
f 168/744/168 203/679/203 227/745/227
vt 0.8977080583572388 0.2863880991935730
f 197/722/197 222/746/222 202/723/202
f 198/712/198 229/714/229 183/686/183
vt 0.6502349376678467 0.2047485262155533
f 168/689/168 227/747/227 219/690/219
f 191/698/191 205/700/205 217/743/217
vt 0.8791508078575134 0.3006173968315125
f 241/711/241 248/748/248 221/707/221
vt 0.2558793127536774 0.2648437023162842
f 208/740/208 228/739/228 216/749/216
vt 0.1723937988281250 0.8319133520126343
f 185/742/185 217/743/217 204/750/204
f 201/720/201 215/719/215 224/728/224
f 203/679/203 216/678/216 227/745/227
f 181/716/181 204/715/204 228/739/228
f 183/686/183 229/714/229 226/687/226
vt 0.9183183312416077 0.2913984954357147
f 197/722/197 224/751/224 222/746/222
vt 0.7501515150070190 0.4968363642692566
vt 0.7815010547637939 0.5245241522789001
vt 0.7569225430488586 0.5093804001808167
f 213/752/213 225/753/225 209/754/209
vt 0.8956722617149353 0.6958221793174744
vt 0.9078328609466553 0.7130829095840454
vt 0.8683258295059204 0.6963455677032471
f 210/755/210 236/756/236 234/757/234
vt 0.6832588315010071 0.6568633913993835
vt 0.7175981402397156 0.6471653580665588
vt 0.7179797887802124 0.6907958984375000
f 217/758/217 238/759/238 204/760/204
vt 0.0102165080606937 0.2879408299922943
vt 0.0512536056339741 0.2802320718765259
vt 0.0545229241251945 0.3055834472179413
f 217/761/217 205/762/205 225/763/225
vt 0.8025494813919067 0.4288448095321655
f 194/737/194 212/764/212 214/738/214
vt 0.0280236676335335 0.3183762133121490
f 217/761/217 225/763/225 232/765/232
vt 0.9087074398994446 0.5552293062210083
vt 0.9179762005805969 0.5866413712501526
vt 0.8802776336669922 0.5753312706947327
f 215/766/215 219/767/219 230/768/230
vt 0.9383879899978638 0.8511067032814026
vt 0.8845933079719543 0.8420211076736450
vt 0.9151042103767395 0.8103507757186890
f 216/769/216 228/770/228 227/771/227
vt 0.6489386558532715 0.9392220973968506
vt 0.6097670197486877 0.9516207575798035
vt 0.6077132225036621 0.9209852218627930
f 215/772/215 230/773/230 224/774/224
vt 0.9173660278320312 0.4595305323600769
vt 0.8889443278312683 0.5046111941337585
vt 0.8922728300094604 0.4567897915840149
f 222/775/222 224/776/224 235/777/235
vt 0.3111829161643982 0.3529828190803528
vt 0.3399149179458618 0.3251230120658875
vt 0.3495377004146576 0.3785375952720642
f 202/778/202 235/779/235 229/780/229
vt 0.5266346335411072 0.8463842868804932
vt 0.5271279215812683 0.8152006864547729
vt 0.5558270215988159 0.8363320827484131
f 190/781/190 206/782/206 211/783/211
vt 0.3108266294002533 0.7024032473564148
vt 0.2726941108703613 0.6955879926681519
vt 0.2772902250289917 0.6479609608650208
f 231/784/231 218/785/218 249/786/249
vt 0.6689316034317017 0.9082564115524292
vt 0.6516234278678894 0.8679022789001465
vt 0.6724755764007568 0.8814051747322083
f 213/787/213 246/788/246 225/789/225
vt 0.3275727331638336 0.3195710778236389
f 202/778/202 222/790/222 235/779/235
vt 0.8140743374824524 0.7078068852424622
vt 0.8382624983787537 0.7124675512313843
vt 0.8089970946311951 0.7360845208168030
f 213/791/213 223/792/223 246/793/246
vt 0.8930565118789673 0.6259486079216003
f 219/767/219 227/794/227 230/768/230
vt 0.8846859931945801 0.8075350522994995
f 228/770/228 204/795/204 227/771/227
vt 0.5332673788070679 0.6018913388252258
vt 0.5791554450988770 0.6319515109062195
vt 0.5419766306877136 0.6344088912010193
f 234/796/234 249/797/249 199/798/199
vt 0.6928659677505493 0.6253885030746460
vt 0.7198358774185181 0.6184319853782654
f 217/799/217 232/800/232 238/759/238
vt 0.8499878644943237 0.7363590002059937
f 223/792/223 220/801/220 246/793/246
vt 0.8978590369224548 0.9637855291366577
vt 0.8709892630577087 0.9612295031547546
vt 0.9068155884742737 0.9338616728782654
f 214/802/214 247/803/247 193/804/193
vt 0.3951590955257416 0.3837909102439880
vt 0.3821877837181091 0.3276218473911285
vt 0.4135423898696899 0.3332652151584625
f 226/805/226 245/806/245 212/807/212
vt 0.8942336440086365 0.8923510909080505
vt 0.8592101335525513 0.9001991748809814
vt 0.8617414832115173 0.8477574586868286
f 227/808/227 239/809/239 233/810/233
vt 0.3720858693122864 0.3617039918899536
f 229/780/229 235/779/235 250/811/250
vt 0.9367824792861938 0.5248737335205078
vt 0.8457627892494202 0.5603623986244202
vt 0.8767206668853760 0.5131524801254272
f 231/812/231 249/813/249 243/814/243
f 226/805/226 229/780/229 250/811/250
vt 0.2518201172351837 0.6642545461654663
f 218/785/218 199/815/199 249/786/249
vt 0.5587925910949707 0.5848245024681091
vt 0.5915940403938293 0.5985014438629150
f 234/796/234 236/816/236 237/817/237
vt 0.5318247079849243 0.9328896999359131
f 193/733/193 247/818/247 206/734/206
f 234/796/234 237/817/237 249/797/249
vt 0.8179977536201477 0.4603635072708130
f 212/764/212 247/819/247 214/738/214
vt 0.7905011773109436 0.8472131490707397
vt 0.8347656130790710 0.8798087239265442
vt 0.7806147336959839 0.8856423497200012
f 211/820/211 240/821/240 236/822/236
vt 0.7280014753341675 0.6215230226516724
vt 0.7590950727462769 0.6448696851730347
f 232/823/232 252/824/252 238/759/238
vt 0.8233438134193420 0.8987576365470886
f 236/822/236 240/821/240 237/825/237
vt 0.8509781956672668 0.6351721286773682
f 227/794/227 233/826/233 230/768/230
vt 0.6731040477752686 0.8805618882179260
vt 0.6775452494621277 0.8488232493400574
f 225/827/225 246/788/246 252/828/252
vt 0.5702056288719177 0.9489144682884216
f 224/774/224 230/773/230 242/829/242
vt 0.0554645694792271 0.3079416453838348
vt 0.0318225547671318 0.3544301986694336
f 225/830/225 252/831/252 232/765/232
vt 0.5521225929260254 0.7873002290725708
f 211/783/211 206/782/206 240/832/240
f 204/760/204 238/759/238 252/824/252
vt 0.8539719581604004 0.4582960605621338
f 235/777/235 224/776/224 242/833/242
vt 0.8340169787406921 0.4609852433204651
f 212/764/212 245/834/245 247/819/247
vt 0.8268073797225952 0.8092797994613647
vt 0.7943457961082458 0.8064220547676086
vt 0.8071895837783813 0.7788503766059875
f 241/835/241 243/836/243 244/837/244
vt 0.8476105928421021 0.7741752862930298
vt 0.8116412162780762 0.7635061144828796
f 220/801/220 248/838/248 251/839/251
vt 0.5478680729866028 0.9502636790275574
f 206/734/206 247/818/247 245/840/245
vt 0.8283717632293701 0.5983136892318726
f 233/826/233 240/841/240 230/768/230
f 220/801/220 251/839/251 246/793/246
vt 0.7843937873840332 0.5835552811622620
vt 0.8256918787956238 0.5641962885856628
f 206/842/206 245/843/245 240/841/240
vt 0.9080063700675964 0.7766083478927612
f 204/795/204 239/844/239 227/771/227
vt 0.3673734664916992 0.3220013678073883
f 235/779/235 242/845/242 250/811/250
f 226/805/226 250/811/250 245/806/245
vt 0.6541633605957031 0.8356579542160034
f 246/788/246 251/846/251 252/828/252
vt 0.8838299512863159 0.7679725885391235
f 220/801/220 221/847/221 248/838/248
vt 0.8476835489273071 0.5714592337608337
f 230/768/230 240/841/240 242/848/242
vt 0.8441797494888306 0.5032463669776917
f 243/814/243 249/813/249 244/849/244
f 240/821/240 233/810/233 239/809/239
f 241/835/241 244/837/244 248/838/248
vt 0.6512373089790344 0.6361024379730225
vt 0.6022178530693054 0.6429281830787659
vt 0.6146385073661804 0.6103009581565857
f 204/850/204 252/851/252 239/852/239
f 240/841/240 245/843/245 242/848/242
f 250/811/250 242/845/242 245/806/245
f 240/821/240 239/809/239 237/825/237
f 237/817/237 239/852/239 249/797/249
f 249/797/249 239/852/239 252/851/252
vt 0.8259274363517761 0.4969363808631897
vt 0.8211563229560852 0.5279524922370911
f 251/853/251 244/849/244 252/854/252
f 252/854/252 244/849/244 249/813/249
f 244/837/244 251/839/251 248/838/248
# 500 faces, 854 coords texture

# End of File
