####
#
# OBJ File Generated by Meshlab
#
####
# Object cane.obj
#
# Vertices: 241
# Faces: 478
#
####
mtllib ./cane.obj.mtl

vn 0.2186271975894797 0.7094674516090167 0.6699687183604754
v 0.1195499971508980 0.8759980201721191 0.1191559359431267
vn 0.0208208935764285 0.4345485126251999 0.9004077301788925
v 0.0301150027662516 0.8587009906768799 0.1655259430408478
vn 0.1904225498813494 0.3861591005743932 0.9025632396349083
v 0.1605550050735474 0.8013370037078857 0.1850889474153519
vn 0.4728847516673614 0.5018355187322228 0.7242521134102812
v 0.2045180052518845 0.8435140848159790 0.1265879422426224
vn 0.2879562087040372 0.9118243952170475 0.2926730157630910
v 0.1217399984598160 0.9224810004234314 0.0699399337172508
vn 0.2845629870895851 0.8891531081481531 0.3583722319727513
v 0.1910890042781830 0.9009670019149780 0.0682719349861145
vn 0.3838370365536092 0.7514676733032957 0.5366241378748020
v 0.2495950013399124 0.8812410831451416 0.0707579329609871
vn 0.2828077195543940 0.9561356260095788 0.0763181396243003
v 0.1992190033197403 0.8984119892120361 0.0546879321336746
vn 0.4671390289094116 0.8677272713319221 0.1697954953949857
v 0.2499120086431503 0.8822879791259766 0.0689199343323708
vn 0.7715442506051241 0.5652850404332118 0.2918429242256856
v 0.2642309963703156 0.8633580803871155 0.0695939362049103
vn 0.6538049753287006 0.7566619451139255 0.0013247836986227
v 0.2524810135364532 0.8802409768104553 0.0348029322922230
vn 0.7162794961837352 0.5118517521941676 0.4742904881215044
v 0.3346999883651733 0.7651270031929016 0.0697989389300346
vn 0.6108432585432906 0.2828748495164074 0.7394946470416703
v 0.2768799960613251 0.6724479794502258 0.1645349562168121
vn 0.8138933125719388 0.5793286954655642 -0.0442259919147560
v 0.3079229891300201 0.8029549717903137 -0.0683590620756149
vn 0.8619494717237118 0.4335173053591241 0.2628799234429627
v 0.3618330061435699 0.7269909977912903 0.0697859451174736
vn 0.8368993045227787 0.5471994010221409 -0.0131289607471258
v 0.3607319891452789 0.7293450236320496 -0.0263670552521944
vn -0.2658591661503387 -0.2907048385650889 0.9191352460920494
v 0.0793329998850822 0.6888419985771179 0.1743419766426086
vn -0.5298462920494713 -0.2291528216806100 0.8165487683642911
v 0.1371099948883057 0.5869169831275940 0.1686379611492157
vn 0.2914034842716763 0.1535844434845318 0.9441905676683460
v 0.2422650009393692 0.7016069889068604 0.1752889454364777
vn 0.3222806494573618 0.1058262019767301 0.9407103687961144
v 0.2730199992656708 0.6555350422859192 0.1723859608173370
vn 0.2980869462964239 0.9545273479096381 0.0046598862931907
v 0.0732420012354851 0.9381639957427979 0.0273439288139343
vn 0.0733411581067234 0.9286842591648135 0.3635472752023679
v 0.0331530012190342 0.9499899744987488 0.0705239251255989
vn 0.2908422004525040 0.9137487024005297 -0.2836796138204046
v 0.1464049965143204 0.9146980047225952 -0.0706910640001297
vn 0.2916991507138973 0.9278274442031107 -0.2324819116755421
v 0.1982419937849045 0.8986250162124634 -0.0693360641598701
vn 0.3253408521434620 0.9455942715614318 -0.0021916926725749
v 0.2282410115003586 0.8892310261726379 -0.0023480670060962
vn -0.0206882786905971 0.9506600317174686 -0.3095440182264257
v 0.0322270020842552 0.9502419829368591 -0.0712890774011612
vn 0.2716029897608817 0.8692991302411047 -0.4129780116604385
v 0.1108819991350174 0.9262660145759583 -0.0699550658464432
vn 0.1154159152414208 0.7121743266866821 -0.6924499223173876
v 0.0297820027917624 0.8857250213623047 -0.1389890611171722
vn 0.1062029045127315 0.9943434157010730 0.0014542094012265
v 0.0312480013817549 0.9509599804878235 0.0075069284066558
vn 0.0499445470106569 0.3933829857511013 -0.9180170852143489
v 0.0335419997572899 0.8578649759292603 -0.1666090637445450
vn 0.3777385799696367 0.5959308952363591 -0.7086465503375529
v 0.1947599947452545 0.8332480788230896 -0.1413160562515259
vn 0.4965036649733974 0.8121052608543049 -0.3065438891264116
v 0.2504259943962097 0.8822399973869324 -0.0691160634160042
vn 0.7536339134052551 0.5434184309176603 -0.3697733542380637
v 0.2763540148735046 0.8466160893440247 -0.0704530701041222
vn 0.7347544192246047 0.5163557843151050 -0.4399007245211656
v 0.3348999917507172 0.7635769844055176 -0.0715920627117157
vn 0.3821796540892852 0.2325410796336565 -0.8943508026960157
v 0.2416940033435822 0.7016370892524719 -0.1762590557336807
vn 0.6325824352388629 0.2742040275238939 -0.7243283881755189
v 0.3313339948654175 0.7070310115814209 -0.1047910526394844
vn 0.0772604910492049 0.3765193859401360 -0.9231814385775413
v 0.1521179974079132 0.8066639900207520 -0.1841620653867722
vn 0.2150558776832836 0.2593746632066760 -0.9415284135703479
v 0.1622769981622696 0.8006129860877991 -0.1851700544357300
vn 0.3118029902034646 0.1667075311715398 -0.9354076621189653
v 0.1839290112257004 0.7721040844917297 -0.1830890625715256
vn -0.3652023505750412 -0.8574882104920516 -0.3624102813133255
v 0.0133910002186894 0.6213039755821228 -0.0706460475921631
vn -0.6882772944099298 -0.6675115267709921 0.2840822550382296
v 0.0426420010626316 0.6066049933433533 0.0703009516000748
vn -0.2266164166905049 -0.8577598675498416 0.4614033043956595
v 0.0084800003096461 0.6231819987297058 0.0696679577231407
vn -0.6721208594741929 -0.6218741810870444 -0.4019030394970786
v 0.0423099994659424 0.6073139905929565 -0.0716910436749458
vn -0.5278945972206526 -0.5693517445049481 0.6302109847141805
v 0.0517820008099079 0.6318560242652893 0.1015529558062553
vn -0.9209608649081749 -0.2476500599310735 -0.3008330652101298
v 0.0823410004377365 0.5311020016670227 -0.0708130374550819
vn -0.8989665893513304 -0.2474852198099491 0.3614002451654645
v 0.0819049999117851 0.5310829877853394 0.0680589675903320
vn -0.8235187180011674 -0.1098571712199770 0.5565503778035358
v 0.1138959974050522 0.4834980070590973 0.1062559634447098
vn -0.1666745749690301 -0.1369577599123478 -0.9764538688840783
v 0.0822200030088425 0.6894500255584717 -0.1760060489177704
vn -0.1743167660349424 -0.4950517446886135 -0.8511976475295729
v 0.0194579996168613 0.7187620401382446 -0.1665270626544952
vn -0.3537275663637847 -0.1661440095484090 -0.9204743216872118
v 0.1376090049743652 0.5850229859352112 -0.1694640517234802
vn 0.4138663413295188 0.1440511113604755 -0.8988681376210473
v 0.2684029936790466 0.6671280264854431 -0.1731670647859573
vn -0.4810550203220304 -0.5239040391563820 -0.7029300286505046
v 0.0780899971723557 0.6845390796661377 -0.1709440499544144
vn -0.4919002974499869 -0.0674099478341054 -0.8680380154703005
v 0.1513810008764267 0.5090299844741821 -0.1714910417795181
vn -0.3640749704032489 0.8554952114229170 0.3682083094639934
v -0.1565639972686768 0.9166100025177002 0.0701109319925308
vn -0.0877670896020577 0.7751516806681299 0.6256491108761827
v -0.0527339987456799 0.8924750089645386 0.1312359273433685
vn -0.1634816694890301 0.9370286345065509 0.3086277399325412
v -0.0470210053026676 0.9359269738197327 0.0711409300565720
vn -0.0963489747752049 0.4611936706161494 0.8820528744034394
v -0.1023179963231087 0.8588439822196960 0.1655319333076477
vn -0.0668068444775497 0.7693015740901128 0.6353832966276555
v -0.0161129999905825 0.9172319769859314 0.1054189354181290
vn -0.4014728251930008 0.8516564182786526 -0.3368989697762919
v -0.1597959995269775 0.9146569967269897 -0.0709310695528984
vn -0.1808488294574060 0.9834738878946889 0.0085330365750480
v -0.0846410095691681 0.9300919771194458 0.0488279275596142
vn -0.1797204516768100 0.9623385562884317 -0.2039731902230792
v -0.0892070010304451 0.9291880130767822 -0.0701520666480064
vn -0.1736482249717831 0.9847984634614608 0.0042755500342037
v -0.0130789997056127 0.9430580139160156 -0.0204300712794065
vn -0.5300481219416668 0.7732859967073532 0.3479622906615419
v -0.2441860139369965 0.8572480082511902 0.0703169330954552
vn -0.5629335085790749 0.8265020629361454 0.0004526379883198
v -0.2022659927606583 0.8863149881362915 0.0004879330808762
vn -0.6630145506453324 0.6484414264989512 -0.3740794327847670
v -0.3160670101642609 0.8072109818458557 -0.0715790614485741
vn -0.5373918013448384 0.4911429100858234 0.6855572140381709
v -0.2701239883899689 0.7808349728584290 0.1267799437046051
vn -0.4436668931639318 0.6228820444457502 0.6443428020994312
v -0.1749369949102402 0.8558940291404724 0.1171419322490692
vn -0.1733808939275183 0.3552453064576521 0.9185531219590426
v -0.1443710029125214 0.8219109773635864 0.1723299473524094
vn -0.3677569870594325 0.5701448174384113 0.7346357502988055
v -0.1132460013031960 0.8514389991760254 0.1666159331798553
vn -0.2672585934948097 0.2273392918555344 0.9364238840299836
v -0.2210720181465149 0.7515559792518616 0.1852099448442459
vn 0.1437354539971857 -0.1759834293909246 0.9738428784172694
v -0.0457979999482632 0.7197790145874023 0.1654679477214813
vn 0.4064296613381040 -0.3671926735636643 0.8366507460498450
v -0.0999969989061356 0.6671190261840820 0.1713919490575790
vn 0.5169391866745564 -0.6040333064123991 0.6065621501748629
v -0.0855249986052513 0.6499599814414978 0.1430029571056366
vn 0.3066677702772632 -0.6512960721963885 0.6940953140705738
v -0.0420980006456375 0.6831660866737366 0.1298979520797729
vn 0.3169049432414243 -0.8803692465789130 0.3528756815469532
v -0.0341809988021851 0.6222029924392700 0.0680399537086487
vn -0.1143679758752215 -0.4431861476395099 0.8891040460118574
v 0.0146479997783899 0.7187500000000000 0.1652419418096542
vn -0.0948872868672771 0.5854692636965870 -0.8051224404135953
v -0.0996090024709702 0.8611199855804443 -0.1648570597171783
vn -0.1718029985676588 0.9849713537553489 -0.0177528015962628
v -0.0342059992253780 0.9391970038414001 -0.0602920688688755
vn 0.1479012784321106 -0.1721290712574571 -0.9739080011305958
v -0.0498259998857975 0.7180110812187195 -0.1665300577878952
vn -0.5290454258691941 0.7735179140473510 -0.3489713082972836
v -0.2102230042219162 0.8806030154228210 -0.0705090686678886
vn -0.4371877701070344 0.6256650161281510 -0.6460728606451438
v -0.1894440054893494 0.8366220593452454 -0.1264130622148514
vn -0.2663816951736294 0.2308375201790299 -0.9358177342591983
v -0.2212100028991699 0.7522950768470764 -0.1860370635986328
vn -0.2425723406519245 0.4419970329456117 -0.8635955548854581
v -0.1402149945497513 0.8260790109634399 -0.1724160611629486
vn 0.4833815224891569 -0.3995995525435309 -0.7788854224615291
v -0.1015060022473335 0.6652920246124268 -0.1723960489034653
vn 0.8031577664281501 -0.5204749217409670 -0.2899024975140423
v -0.0844229981303215 0.5853189826011658 -0.0693650469183922
vn 0.4179561325171517 -0.8374463003238777 -0.3521311763606775
v -0.0340970009565353 0.6223160028457642 -0.0694050416350365
vn 0.7217367373445375 -0.6033695635114701 0.3391773161566679
v -0.0847010016441345 0.5851830244064331 0.0694809556007385
vn 0.2487742080069266 -0.6688908578478753 -0.7004972617491519
v -0.0398820005357265 0.6722239851951599 -0.1195830628275871
vn -0.0649333974201578 -0.9222745388023678 -0.3810424241162074
v 0.0058720000088215 0.6225500106811523 -0.0693890452384949
vn -0.8687740387297248 0.3878904348955688 0.3078517177892128
v -0.3646720051765442 0.7000560164451599 0.0697109475731850
vn -0.8815687047722449 0.1442177338984376 0.4494862222531252
v -0.4039849936962128 0.6121640205383301 0.0695999562740326
vn -0.6585793868840131 0.2678527676453639 0.7032269093515948
v -0.3105950355529785 0.7265620231628418 0.1079469546675682
vn -0.3213137783818910 -0.1251349073949766 0.9386685840983513
v -0.3055330216884613 0.5349940061569214 0.1655479520559311
vn -0.3517816690082953 0.0297176820525216 0.9356102376113482
v -0.2998670339584351 0.5777270197868347 0.1726809591054916
vn -0.7968521021536977 0.5101856535311046 0.3236314666781842
v -0.3159869909286499 0.8072000145912170 0.0713949427008629
vn -0.3479829777222888 0.0905354905961000 0.9331190557255020
v -0.2558590173721313 0.6757810115814209 0.1796229481697083
vn 0.0396230515426094 -0.0860090297383836 0.9955061328740841
v -0.2119140028953552 0.6123049855232239 0.1719149500131607
vn 0.4841665484784490 -0.2788637441399271 0.8293477952817665
v -0.1645729988813400 0.5243480205535889 0.1627149581909180
vn 0.4838655812319824 -0.2697254342367582 0.8325396623734079
v -0.1451310068368912 0.5709030032157898 0.1665239632129669
vn 0.8926919578556815 -0.4105939663897625 0.1857785325168462
v -0.1085830032825470 0.5322420001029968 0.0687519609928131
vn -0.9005250891069749 0.2740113690542814 -0.3375978873125149
v -0.4052020013332367 0.6093750000000000 -0.0693360418081284
vn -0.9113306264976060 0.4116691959372000 -0.0022276274150169
v -0.3696939945220947 0.6890370249748230 -0.0206940528005362
vn -0.8669010387778857 0.3888866545953037 -0.3118489359345249
v -0.3472500145435333 0.7378630042076111 -0.0715380534529686
vn -0.6558665950563728 0.2698609413808372 -0.7049922565576223
v -0.3109260201454163 0.7148799896240234 -0.1129300519824028
vn -0.3587960434780182 -0.0088080568938352 -0.9333744250397453
v -0.2998049855232239 0.5771480202674866 -0.1736150383949280
vn -0.5635035743868295 0.4590280401845364 -0.6868456740619473
v -0.2712500095367432 0.7820129990577698 -0.1257070600986481
vn 0.4014396461539714 -0.2363114045057455 -0.8848746411759668
v -0.1166170015931129 0.6314319968223572 -0.1704450398683548
vn 0.5716985080573997 -0.3008263095402491 -0.7633245360744914
v -0.1651140004396439 0.5286049842834473 -0.1650750488042831
vn -0.8581703224328321 -0.2446541558861173 0.4513181158597343
v -0.4049190282821655 0.4253830015659332 0.0611149705946445
vn -0.3002607111075775 -0.3265789257111254 0.8962085196239428
v -0.3203499913215637 0.4085800051689148 0.1441379636526108
vn 0.4385877969945376 -0.4074734669159487 0.8010031948044748
v -0.1939599961042404 0.3942309916019440 0.1374069750308990
vn 0.4954998204501287 -0.2717938987226001 0.8249896996636136
v -0.1754730045795441 0.4772860407829285 0.1538769751787186
vn 0.9023706473521682 -0.3065404592711149 0.3029193979049256
v -0.1234409958124161 0.5001950263977051 0.0682219639420509
vn -0.3708685298505887 -0.7556060819508323 0.5399222004005531
v -0.3146770000457764 0.3168169856071472 0.0961609780788422
vn 0.0770043646679658 -0.5579698568083404 0.8262808037921267
v -0.2355470061302185 0.3689970076084137 0.1244609728455544
vn 0.4271533258242815 -0.8086352942225586 0.4045355326480618
v -0.2085230052471161 0.2933950126171112 0.0531669780611992
vn 0.8480043975445876 -0.3826425264892247 0.3667059294134526
v -0.1600410044193268 0.3857420086860657 0.0644529685378075
vn 0.9130649591646813 -0.4078098647039179 -0.0018693837943700
v -0.1420529931783676 0.3749069869518280 -0.0004730283399113
vn 0.8455927998088398 -0.3856758962984738 -0.3690893115843591
v -0.1616819947957993 0.3846729993820190 -0.0680810287594795
vn 0.9143101336547307 -0.3253383657964481 -0.2412300297167935
v -0.1232539936900139 0.4999189972877502 -0.0684380382299423
vn -0.8928505703163295 -0.2254113315145141 -0.3898815085518405
v -0.4048160016536713 0.4244729876518250 -0.0623970329761505
vn -0.7859534552208836 -0.5997759234454145 0.1501532812880049
v -0.3540520071983337 0.3229599893093109 0.0376459732651711
vn -0.6742014442880496 -0.7266359209879346 -0.1321084813701378
v -0.3535409867763519 0.3218399882316589 -0.0374640263617039
vn -0.3369051852566645 -0.7342665563949654 -0.5893619603495390
v -0.3132449984550476 0.3166309893131256 -0.0971860215067863
vn -0.5226112419895131 -0.8458900767533432 0.1065244938800537
v -0.3515619933605194 0.3203249871730804 0.0341799780726433
vn -0.3707132739392869 -0.2894117369222484 -0.8825035496001490
v -0.3199250102043152 0.4088119864463806 -0.1452480256557465
vn -0.2504188057165639 -0.9681375657070039 -0.0002749734656060
v -0.3017579913139343 0.2948800027370453 -0.0000000222628209
vn 0.4659536035395968 -0.8207169232419935 -0.3306220973447784
v -0.2097660005092621 0.2930969893932343 -0.0551500208675861
vn 0.3862475980544912 -0.3799452536477798 -0.8405084159172116
v -0.1935530006885529 0.3949100077152252 -0.1381660252809525
vn -0.3642843896308419 -0.1130327211701989 -0.9244027733710803
v -0.3130440115928650 0.4723910391330719 -0.1559620350599289
vn 0.7297064042387689 0.0788231883217769 0.6792020822963634
v 0.3690919876098633 0.5202180147171021 0.1106689646840096
vn 0.4876404567291446 -0.0245217578021614 0.8727001021859019
v 0.3099429905414581 0.4866470396518707 0.1774789839982986
vn 0.4102298524667418 -0.0379353873467282 0.9111928305973269
v 0.3076170086860657 0.4257810115814209 0.1708019673824310
vn 0.7495279130111072 -0.0498786489409598 0.6600909240377711
v 0.3508999943733215 0.4764949679374695 0.1262309700250626
vn 0.7196170675741735 0.0002389035698216 0.6943710960149705
v 0.3634720146656036 0.3632810115814209 0.1132279708981514
vn 0.9229202540498787 0.2106532035597787 0.3222474708892373
v 0.3855960071086884 0.6240230202674866 0.0693359524011612
vn 0.9049331800886704 0.0005149495357661 0.4255533743275708
v 0.4038119912147522 0.2919920086860657 0.0713099762797356
vn 0.9334766189220890 0.0498025361767835 0.3551634965986020
v 0.4042290151119232 0.5419920086860657 0.0693359598517418
vn 0.9001446363376991 0.1049415935298416 -0.4227610384364776
v 0.4039140045642853 0.5405210256576538 -0.0715910345315933
vn 0.9280460205609461 0.0003067690831319 -0.3724654206952931
v 0.4041190147399902 0.4326820075511932 -0.0716430321335793
vn -0.9483516076018405 0.0129897114703166 0.3169550374342121
v 0.1022439971566200 0.3347859978675842 0.0681509748101234
vn -0.4810998843191075 -0.0257655724239084 0.8762870743003172
v 0.1697880029678345 0.4018819928169250 0.1724099665880203
vn 0.3547628225089026 0.1108209230894054 -0.9283652636603380
v 0.2858470082283020 0.5955460071563721 -0.1754040569067001
vn 0.6889022815949565 0.1688925263796151 -0.7049035117988661
v 0.3496069908142090 0.6074180006980896 -0.1093750447034836
vn 0.3265663346659044 0.0282102214120239 -0.9447532018843658
v 0.3098649978637695 0.4893699884414673 -0.1783710271120071
vn 0.8667115325831478 0.1979860116213062 -0.4578347501988671
v 0.3776020109653473 0.6583129763603210 -0.0707700625061989
vn 0.8933390977533532 0.3665907196942592 -0.2599163339601229
v 0.3627890050411224 0.7252489924430847 -0.0694670602679253
vn -0.9728811227797047 0.0729440705379577 -0.2195028098049191
v 0.1021429970860481 0.3346450030803680 -0.0682920217514038
vn -0.5245089163099876 -0.0218345846042511 -0.8511249306808502
v 0.1704480051994324 0.3991209864616394 -0.1735810339450836
vn 0.5372778581965018 -0.0388571859126566 -0.8425097163800125
v 0.3086480200290680 0.4329279959201813 -0.1713900268077850
vn 0.7218564690793293 -0.0003216157343833 -0.6920427260015399
v 0.3704679906368256 0.2929689884185791 -0.1067880243062973
vn -0.9568012403629010 0.0003459292394295 0.2907426125853853
v 0.0992650091648102 0.1501719951629639 0.0683019831776619
vn -0.9207188663668396 0.0000341719655766 0.3902265597680896
v 0.0996270030736923 -0.0779829919338226 0.0693220049142838
vn -0.4086161157408491 0.0001022256659436 0.9127063380445949
v 0.1696790009737015 0.2375690191984177 0.1723509877920151
vn -0.3892688939280058 0.0004602691320357 0.9211240504798434
v 0.1708980053663254 -0.0390619859099388 0.1730210036039352
vn 0.3965081126614032 0.0001924426253913 0.9180311974870614
v 0.3081040084362030 0.2949529886245728 0.1706459820270538
vn 0.4516424350641103 0.0003777262385099 0.8921989510037823
v 0.3080559968948364 0.0264460127800703 0.1706680059432983
vn 0.5193945267577074 0.0000159419365034 0.8545345664863369
v 0.3079920113086700 0.1766110211610794 0.1706949919462204
vn 0.7200287767486730 -0.0001395609119570 0.6939441916873154
v 0.3650310039520264 0.0732420086860657 0.1116089895367622
vn 0.7203582647234197 -0.0000131096348070 0.6936021700317849
v 0.3901610374450684 0.2021380066871643 0.0855029821395874
vn 0.8852399944346996 0.0000150531530662 0.4651345526045723
v 0.4039329886436462 0.0066180056892335 0.0711529999971390
vn -0.9707461078917350 0.1099015374983405 0.2134798493266959
v 0.0992859974503517 0.3199770152568817 0.0673129782080650
vn -0.9594937600593564 0.0600668790802069 -0.2752520562043489
v 0.0992909967899323 0.3192729949951172 -0.0682090222835541
vn -0.8474238162442849 0.0535928091909372 0.5282051556592346
v 0.1340399980545044 0.3565239906311035 0.1195939704775810
vn 0.3976154728492109 -0.0003706721024755 -0.9175520684697358
v 0.3079310357570648 0.1991059780120850 -0.1717010140419006
vn 0.7213960752707932 -0.0000317335007845 -0.6925227083474453
v 0.3738920092582703 0.1583499908447266 -0.1032060161232948
vn 0.4520975326664201 -0.0000113086189627 -0.8919685088774437
v 0.3083429932594299 0.0099189868196845 -0.1714449971914291
vn 0.9053771242009937 -0.0001000353805668 -0.4246083524454753
v 0.4040990173816681 0.0467129945755005 -0.0715970024466515
vn -0.9451895009761118 -0.0005044539476479 -0.3265219024364885
v 0.0997560098767281 -0.0174360051751137 -0.0695580020546913
vn -0.8273568580354729 0.0005748578995922 -0.5616763293927078
v 0.1416140049695969 0.2392580062150955 -0.1318360120058060
vn -0.4599022023916809 -0.0016027155215175 -0.8879681275463880
v 0.1703290045261383 0.1375319957733154 -0.1732660233974457
vn -0.3921210964936512 -0.0001339290168764 -0.9199135979795250
v 0.1709849983453751 -0.0229150131344795 -0.1732980012893677
vn -0.8261508934316631 0.0002319523529509 0.5634488863066203
v 0.1252640038728714 -0.2034059911966324 0.1071990132331848
vn 0.3985266096495289 -0.0000066298785884 0.9171567703273508
v 0.3080540001392365 -0.1828789860010147 0.1706960350275040
vn 0.4730093300576839 0.0000511676945040 0.8810574164379118
v 0.3080400228500366 -0.2736519873142242 0.1706890165805817
vn 0.7202218274590492 -0.0001571707448190 0.6937438248726289
v 0.3538109958171844 -0.1328569799661636 0.1233170181512833
vn 0.8696767442196296 -0.0000119182846122 0.4936216774225980
v 0.4040040075778961 -0.1572269946336746 0.0710500180721283
vn 0.9279413812235835 -0.0000893258512254 -0.3727261528706570
v 0.4040729999542236 -0.1161340102553368 -0.0715949907898903
vn 0.9404415253303349 -0.0001115592484902 0.3399554750094297
v 0.4039250314235687 -0.3976039886474609 0.0712040290236473
vn -0.8275650026361485 0.0003601035375084 -0.5613697860922636
v 0.1179910078644753 -0.2705079913139343 -0.0967019796371460
vn 0.3979762026768524 -0.0000228868112228 -0.9173957388058367
v 0.3080669939517975 -0.1538340300321579 -0.1716729849576950
vn 0.3959371245310566 -0.0004443938241734 -0.9182775157501176
v 0.3079810142517090 -0.2724650204181671 -0.1716259866952896
vn 0.8949207000267988 0.0002479913693247 -0.4462251440291380
v 0.4041100144386292 -0.2861109972000122 -0.0716419741511345
vn -0.9419620688026515 -0.0004963480817915 0.3357189517671149
v 0.0991709977388382 -0.3884100019931793 0.0681190267205238
vn -0.4460515452381532 0.0353169033175848 0.8943102008423655
v 0.1708980053663254 -0.5361329913139343 0.1730740517377853
vn -0.5527979412487796 -0.0004669495494071 0.8333151973348554
v 0.1700620055198669 -0.2792969942092896 0.1726230084896088
vn 0.4715648939085731 -0.0001753145199544 0.8818313444745630
v 0.3079439997673035 -0.4980469942092896 0.1706930398941040
vn 0.7198972150397802 0.0004948721554279 0.6940805103729094
v 0.3743869960308075 -0.3959960043430328 0.1019200310111046
vn 0.4492640001975966 0.0000303214642020 -0.8933990470148615
v 0.3081119954586029 -0.5001519918441772 -0.1716479510068893
vn 0.8952098087139397 0.0001480023275902 -0.4456448995306267
v 0.4041239917278290 -0.5126100182533264 -0.0716419592499733
vn 0.7206931015881417 0.0003466606715889 0.6932541620139350
v 0.3932879865169525 -0.2373050004243851 0.0822710171341896
vn 0.7195715963690832 -0.0009870667285784 0.6944175569483555
v 0.3502730131149292 -0.5521519780158997 0.1270240396261215
vn -0.9436303955318379 0.0763138790222104 -0.3220836358727505
v 0.0991410017013550 -0.5454300045967102 -0.0681489557027817
vn -0.4653190160587192 -0.0004265284435178 -0.8851429440308680
v 0.1695179939270020 -0.3907530009746552 -0.1725059747695923
vn -0.4576990847642056 0.0181926856191933 0.8889210167365658
v 0.1611970067024231 -0.6976130008697510 0.1774200648069382
vn 0.3787744776465035 -0.2650600524771430 0.8867203976814972
v 0.3046979904174805 -0.8179120421409607 0.1641900539398193
vn 0.3988083746562483 -0.0084227167965644 0.9169956042129136
v 0.3066330254077911 -0.6197800040245056 0.1711590439081192
vn 0.7031517404788969 -0.0195286847515060 0.7107715950524289
v 0.3796080052852631 -0.7333980202674866 0.0964140594005585
vn 0.8640634821829193 -0.1428184357033824 0.4826978280261544
v 0.4040209949016571 -0.7746790051460266 0.0706360563635826
vn 0.9255839127781933 -0.1890238209436191 -0.3279701442541444
v 0.4039309918880463 -0.7747579813003540 -0.0717559382319450
vn -0.9564095898270173 0.1033476935790066 0.2731299154593222
v 0.0736489966511726 -0.6911470293998718 0.0709080547094345
vn -0.9323418056690370 0.1003912564995855 0.3473619913292673
v 0.0993229970335960 -0.5429690480232239 0.0683590471744537
vn -0.7954424439195199 0.1065183318485791 0.5965946390905112
v 0.1265189945697784 -0.6108400225639343 0.1283520460128784
vn 0.3573525553575397 -0.0104113395769164 -0.9339115349901460
v 0.3081679940223694 -0.6234030723571777 -0.1715819537639618
vn 0.7216323768226542 -0.0000835960993469 -0.6922764662567831
v 0.3757059872150421 -0.5800030231475830 -0.1013289541006088
vn 0.9285967796845264 -0.0006756073244460 -0.3710896984750054
v 0.4041050076484680 -0.6812440156936646 -0.0716249495744705
vn -0.9174555631567485 0.0971928183081603 -0.3857834181273869
v 0.0736249983310699 -0.6953579783439636 -0.0730459466576576
vn -0.7960587481043675 0.1104460896382824 -0.5950564098050870
v 0.1309690028429031 -0.6048539876937866 -0.1338349580764771
vn -0.4570455611610051 0.0190101751177025 -0.8892401072067184
v 0.1612300127744675 -0.6949480175971985 -0.1782699376344681
vn -0.4462978634968591 0.0488653796014787 -0.8935493224856378
v 0.1694670021533966 -0.5383989810943604 -0.1724029481410980
vn 0.0324243883489675 -0.1994160145627971 -0.9793783294396938
v 0.2717660069465637 -0.8082260489463806 -0.1684579402208328
vn 0.7649855137944940 -0.5705696919652065 0.2987430171490263
v 0.3482410013675690 -0.9086670875549316 0.0536260716617107
vn 0.7196966812432789 -0.2428768995208631 0.6504210164858933
v 0.3375979959964752 -0.8043969869613647 0.1335190534591675
vn 0.8653685731093130 -0.3990433482200214 0.3031528309551247
v 0.3721370100975037 -0.8525390028953552 0.0595700591802597
vn 0.2943832074965321 -0.5302934295497425 0.7950644035047891
v 0.2818039953708649 -0.9039300084114075 0.1157810688018799
vn 0.1870220108290446 -0.8071233843790775 0.5599773297678439
v 0.2698930203914642 -0.9508360028266907 0.0886390730738640
vn 0.1826925249029000 -0.9831692022228978 0.0013270813818194
v 0.2705079913139343 -0.9522090554237366 0.0058590723201632
vn 0.6779456060047916 -0.6472829863365497 -0.3484458220412950
v 0.3473910093307495 -0.9087560772895813 -0.0571619346737862
vn 0.8624176599454794 -0.3977460647066791 -0.3131035736374047
v 0.3774380087852478 -0.8384349942207336 -0.0648129433393478
vn -0.9105919937802697 -0.0360502101648333 0.4117312269070014
v 0.0707000046968460 -0.7487450242042542 0.0708510577678680
vn -0.8887274366130999 -0.3479014904553158 0.2985432905795715
v 0.0835039988160133 -0.8589869737625122 0.0669920668005943
vn -0.4238101223018431 -0.2775378405499867 0.8621819571861540
v 0.1645919978618622 -0.7749850153923035 0.1774020642042160
vn -0.6954448187910872 -0.5422624657746732 0.4714954106124503
v 0.1276610046625137 -0.9049959778785706 0.0802510678768158
vn -0.0236338970708405 -0.4768694439335115 0.8786563448537708
v 0.2163090109825134 -0.9014679789543152 0.1167610660195351
vn -0.7795053183370262 -0.6156689263990298 0.1154263044152307
v 0.1264680027961731 -0.9187220335006714 0.0471460707485676
vn -0.3717079161896578 -0.6585569402402226 0.6543210079948361
v 0.1670169979333878 -0.9459959864616394 0.0913850739598274
vn -0.5146472496134397 -0.8420317816030956 0.1616189569191645
v 0.1518689990043640 -0.9516830444335938 0.0373050719499588
vn -0.1720067051161292 -0.9578048251395170 0.2302685613247110
v 0.1679690033197403 -0.9475849866867065 0.0888670757412910
vn -0.5603179064972839 -0.8205936310717887 -0.1125608115772005
v 0.1514209955930710 -0.9516840577125549 -0.0366839282214642
vn -0.9372095495620159 -0.0467534856373453 -0.3456188244157454
v 0.0707779973745346 -0.7503640055656433 -0.0718069374561310
vn -0.8514365308385288 -0.4347725213336388 -0.2933064756305966
v 0.0835160017013550 -0.8589159846305847 -0.0679439306259155
vn -0.6468783447596431 -0.2882685701268800 -0.7060096589693576
v 0.1344330012798309 -0.8071680068969727 -0.1375669389963150
vn -0.3843122062491924 -0.2593091799119568 -0.8860377403594424
v 0.1654250025749207 -0.7758139967918396 -0.1782279461622238
vn -0.3218670439737083 -0.4309682697672207 -0.8430112433754814
v 0.1674380004405975 -0.8554790019989014 -0.1383159458637238
vn -0.6744389615887135 -0.5048296567857365 -0.5387755606193856
v 0.1361590176820755 -0.9143780469894409 -0.0831519365310669
vn -0.3436142429884829 -0.4959440049443765 -0.7974765175070574
v 0.1674190014600754 -0.9430339932441711 -0.0934979319572449
vn -0.1929031026579739 -0.7942690272447461 -0.5761294171838579
v 0.1667020022869110 -0.9468659758567810 -0.0902009233832359
vn 0.0030644398840383 -0.5010481623785979 -0.8654139750346233
v 0.2216800153255463 -0.8935549855232239 -0.1220699399709702
vn 0.4283289103167571 -0.3557838075745492 -0.8306336297397400
v 0.3051680028438568 -0.8190640211105347 -0.1645179390907288
vn 0.2290280728573923 -0.5328791591204354 -0.8146078465239127
v 0.2904889881610870 -0.8726900219917297 -0.1342989355325699
vn 0.2876676921806209 -0.8469120583003407 -0.4471993564183160
v 0.2698799967765808 -0.9516980051994324 -0.0883389338850975
# 241 vertices, 0 vertices normals


usemtl material_0
vt 0.3833419978618622 0.6130229830741882
vt 0.3299109935760498 0.6426129937171936
vt 0.2809160053730011 0.5642039775848389
f 121/1/121 109/2/109 91/3/91
vt 0.6229040026664734 0.8656820058822632
vt 0.7138890027999878 0.8656820058822632
vt 0.6240969896316528 0.9340059757232666
f 101/4/101 121/5/121 91/6/91
vt 0.5129979848861694 0.0893020033836365
vt 0.5112289786338806 0.1660209894180298
vt 0.4580610096454620 0.1660209894180298
f 101/7/101 91/8/91 90/9/90
vt 0.4648059904575348 0.1161069869995117
f 101/7/101 90/9/90 102/10/102
vt 0.4351649880409241 0.0879949927330017
f 102/10/102 103/11/103 101/7/101
vt 0.3677639961242676 0.6861969828605652
f 109/2/109 121/1/121 122/12/122
vt 0.3451370000839233 0.7129110097885132
f 114/13/114 109/2/109 122/12/122
vt 0.4004279971122742 0.6685079932212830
f 121/1/121 123/14/123 122/12/122
vt 0.4583419859409332 0.5866630077362061
vt 0.3821719884872437 0.5950480103492737
vt 0.3809809982776642 0.5488439798355103
f 101/15/101 103/16/103 104/17/104
vt 0.5127800107002258 0.6684060096740723
vt 0.4982939958572388 0.7129880189895630
vt 0.4946280121803284 0.6387959718704224
f 90/18/90 91/19/91 92/20/92
vt 0.4356479942798615 0.6625620126724243
f 121/1/121 124/21/124 123/14/123
vt 0.7765399813652039 0.0230619907379150
vt 0.8799200057983398 0.0362570285797119
vt 0.8065950274467468 0.1056360006332397
f 91/22/91 109/23/109 93/24/93
vt 0.3701359927654266 0.6869210004806519
f 122/12/122 123/14/123 125/25/125
vt 0.2980870008468628 0.6925169825553894
f 110/26/110 109/2/109 114/13/114
vt 0.4219850003719330 0.7047340273857117
vt 0.4304789900779724 0.6852309703826904
f 93/27/93 94/28/94 91/19/91
vt 0.8784859776496887 0.1029589772224426
f 93/24/93 109/23/109 110/29/110
vt 0.4424880146980286 0.6115059852600098
f 121/1/121 126/30/126 124/21/124
vt 0.3930740058422089 0.1668760180473328
f 102/10/102 95/31/95 103/11/103
f 102/10/102 90/9/90 95/31/95
f 122/12/122 125/25/125 114/13/114
vt 0.5297539830207825 0.6136739850044250
f 90/18/90 92/20/92 95/32/95
vt 0.4115110039710999 0.8766940236091614
vt 0.4050090014934540 0.9510179758071899
vt 0.3209969997406006 0.8859379887580872
f 101/33/101 105/34/105 121/35/121
vt 0.3411450088024139 0.5910030007362366
f 65/36/65 104/17/104 103/16/103
vt 0.4616079926490784 0.5170429944992065
f 101/15/101 104/17/104 105/37/105
vt 0.3931779861450195 0.0879240036010742
f 95/31/95 65/38/65 103/11/103
vt 0.3525300025939941 0.9468809962272644
f 121/35/121 105/34/105 130/39/130
vt 0.3207150101661682 0.9447720050811768
f 121/35/121 130/39/130 126/40/126
vt 0.6814159750938416 0.2002599835395813
vt 0.6931539773941040 0.1599720120429993
vt 0.7271609902381897 0.1934249997138977
f 125/41/125 123/42/123 127/43/127
f 91/19/91 94/28/94 92/20/92
vt 0.7256309986114502 0.1261730194091797
f 123/42/123 124/44/124 127/43/127
vt 0.3941429853439331 0.7086769938468933
f 125/25/125 127/45/127 114/13/114
vt 0.4935860037803650 0.6045989990234375
f 95/32/95 92/20/92 66/46/66
vt 0.5278940200805664 0.5710999965667725
f 63/47/63 95/32/95 66/46/66
vt 0.6874920129776001 0.6940529942512512
vt 0.6171360015869141 0.6885370016098022
vt 0.6750339865684509 0.6647040247917175
f 130/48/130 129/49/129 126/50/126
vt 0.3339950144290924 0.5462380051612854
f 104/17/104 65/36/65 106/51/106
vt 0.9439259767532349 0.2876449823379517
vt 0.9683229923248291 0.3627309799194336
vt 0.9221810102462769 0.3771190047264099
f 65/52/65 95/53/95 63/54/63
vt 0.6470689773559570 0.6217859983444214
f 124/55/124 126/50/126 129/49/129
vt 0.7260910272598267 0.2614760398864746
vt 0.7880960106849670 0.2332839965820312
f 114/56/114 127/43/127 116/57/116
vt 0.8789179921150208 0.8000929951667786
vt 0.9574270248413086 0.8069620132446289
vt 0.8780679702758789 0.8244320154190063
f 93/58/93 98/59/98 94/60/94
vt 0.4444060027599335 0.6346790194511414
f 94/28/94 96/61/96 92/20/92
vt 0.7970479726791382 0.1545959711074829
f 124/44/124 128/62/128 127/43/127
vt 0.0203300006687641 0.0980340242385864
vt 0.0203300006687641 0.0000450015068054
vt 0.0689269974827766 0.0596089959144592
f 82/63/82 105/64/105 104/65/104
vt 0.8143609762191772 0.5305510163307190
vt 0.8289160132408142 0.4532319903373718
vt 0.8825399875640869 0.5057359933853149
f 110/66/110 114/67/114 115/68/115
vt 0.3256169855594635 0.5173320174217224
f 104/17/104 106/51/106 82/69/82
vt 0.6136639714241028 0.3178249597549438
vt 0.5734400153160095 0.3500210046768188
vt 0.5269050002098083 0.2694200277328491
f 63/70/63 64/71/64 65/72/65
vt 0.6055529713630676 0.9143199920654297
vt 0.5412120223045349 0.8412849903106689
vt 0.5991860032081604 0.8415409922599792
f 105/73/105 107/74/107 108/75/108
vt 0.7072029709815979 0.7428659796714783
f 105/76/105 129/49/129 130/48/130
f 127/43/127 128/62/128 116/57/116
vt 0.1913560032844543 0.8903899788856506
vt 0.1469559967517853 0.9024639725685120
vt 0.1456380039453506 0.8647130131721497
f 94/77/94 97/78/97 96/79/96
vt 0.8488209843635559 0.5315330028533936
vt 0.7667989730834961 0.5733219981193542
vt 0.7729179859161377 0.5315330028533936
f 65/80/65 64/81/64 80/82/80
vt 0.9147509932518005 0.4309149980545044
f 115/68/115 114/67/114 116/83/116
vt 0.5075759887695312 0.9158509969711304
f 82/84/82 107/74/107 105/73/105
vt 0.2809979915618896 0.5625650286674500
f 106/51/106 65/36/65 81/85/81
vt 0.4549129903316498 0.5953739881515503
f 92/20/92 96/61/96 70/86/70
vt 0.6860650181770325 0.9596160054206848
vt 0.7099869847297668 0.8859890103340149
vt 0.7757930159568787 0.9624800086021423
f 128/87/128 124/88/124 129/89/129
f 92/20/92 70/86/70 66/46/66
vt 0.6375489830970764 0.7539269924163818
f 105/76/105 108/90/108 129/49/129
vt 0.4310280084609985 0.7069699764251709
vt 0.4896369874477386 0.7552019953727722
vt 0.4582239985466003 0.7855370044708252
f 65/91/65 80/92/80 81/93/81
vt 0.8824800252914429 0.7282400131225586
vt 0.9534109830856323 0.7313879728317261
f 110/94/110 111/95/111 93/58/93
vt 0.6555730104446411 0.6321539878845215
vt 0.7147589921951294 0.6340579986572266
vt 0.7196220159530640 0.6896380186080933
f 98/96/98 97/97/97 94/98/94
vt 0.9109990000724792 0.5312020182609558
f 115/68/115 116/83/116 111/99/111
vt 0.1100009977817535 0.8450850248336792
f 96/79/96 97/78/97 70/100/70
vt 0.9972400069236755 0.7665939927101135
vt 0.9972400069236755 0.8166959881782532
vt 0.9565740227699280 0.7796090245246887
f 106/101/106 81/102/81 82/103/82
vt 0.7071200013160706 0.4832710027694702
vt 0.6688039898872375 0.5447610020637512
vt 0.6504399776458740 0.4984580278396606
f 66/104/66 67/105/67 63/106/63
f 115/68/115 111/99/111 110/66/110
vt 0.4960069954395294 0.5454440116882324
f 66/46/66 70/86/70 67/107/67
vt 0.5223019719123840 0.8416010141372681
f 82/84/82 84/108/84 107/74/107
vt 0.6229270100593567 0.5551970005035400
f 63/106/63 67/105/67 54/109/54
vt 0.6751949787139893 0.6096360087394714
f 98/96/98 99/110/99 97/97/97
vt 0.6194220185279846 0.9811409711837769
vt 0.5491639971733093 0.9890109896659851
vt 0.5491639971733093 0.9408059716224670
f 128/111/128 119/112/119 118/113/118
vt 0.9558190107345581 0.7796360254287720
f 98/59/98 93/58/93 112/114/112
vt 0.5168730020523071 0.7785260081291199
f 81/93/81 80/92/80 59/115/59
f 111/95/111 112/114/112 93/58/93
vt 0.6220859885215759 0.9077200293540955
f 116/116/116 128/111/128 118/113/118
vt 0.7968350052833557 0.3740969896316528
vt 0.7442470192909241 0.3357459902763367
vt 0.7809960246086121 0.3253489732742310
f 128/117/128 129/118/129 119/119/119
vt 0.0873150005936623 0.9136070013046265
f 97/78/97 72/120/72 70/100/70
vt 0.6163229942321777 0.3808259963989258
f 64/71/64 63/70/63 54/121/54
vt 0.3950040042400360 0.7931230068206787
vt 0.4516209959983826 0.8251789808273315
f 82/122/82 81/93/81 83/123/83
vt 0.3839040100574493 0.2698550224304199
vt 0.3309069871902466 0.3292349576950073
vt 0.2852950096130371 0.2881659865379333
f 116/124/116 117/125/117 111/126/111
vt 0.9426630139350891 0.2874959707260132
vt 0.9270420074462891 0.3506549596786499
vt 0.8471660017967224 0.3277510404586792
f 82/127/82 83/128/83 79/129/79
vt 0.9149609804153442 0.5246229767799377
vt 0.9149609804153442 0.4416459798812866
vt 0.9501150250434875 0.4969199895858765
f 67/130/67 70/131/70 68/132/68
vt 0.8592659831047058 0.1892880201339722
vt 0.7997900247573853 0.1074249744415283
vt 0.8423550128936768 0.1054710149765015
f 82/133/82 79/134/79 84/135/84
vt 0.5322729945182800 0.3822909593582153
f 54/121/54 59/136/59 64/71/64
vt 0.7370640039443970 0.5309849977493286
f 64/81/64 59/137/59 80/82/80
vt 0.7648559808731079 0.2678340077400208
f 119/119/119 129/118/129 120/138/120
vt 0.7117270231246948 0.2754549980163574
f 129/118/129 108/139/108 120/138/120
vt 0.7142999768257141 0.5604919791221619
f 97/97/97 99/110/99 72/140/72
vt 0.2331169992685318 0.3281760215759277
vt 0.2698409855365753 0.3969849944114685
f 112/141/112 111/126/111 113/142/113
vt 0.3733969926834106 0.3588100075721741
f 116/124/116 118/143/118 117/125/117
f 111/126/111 117/125/117 113/142/113
vt 0.7390310168266296 0.4591150283813477
vt 0.7963740229606628 0.4639120101928711
vt 0.7969440221786499 0.4965690374374390
f 113/144/113 117/145/117 118/146/118
vt 0.7919589877128601 0.5302199721336365
vt 0.7341089844703674 0.5243409872055054
f 119/147/119 120/148/120 118/146/118
vt 0.7054809927940369 0.5666139721870422
vt 0.6897500157356262 0.5870479941368103
f 67/105/67 68/149/68 69/150/69
f 69/150/69 54/109/54 67/105/67
vt 0.0305979996919632 0.6213229894638062
vt 0.0305979996919632 0.6786249876022339
vt 0.0036520001012832 0.6261389851570129
f 112/151/112 113/152/113 98/153/98
f 59/115/59 83/123/83 81/93/81
vt 0.1118659973144531 0.5518779754638672
vt 0.1118659973144531 0.5248439908027649
vt 0.1132669970393181 0.5600320100784302
f 69/154/69 68/155/68 57/156/57
vt 0.9837120175361633 0.5564159750938416
vt 0.9831910133361816 0.5862799882888794
vt 0.9182080030441284 0.5381180047988892
f 99/157/99 98/158/98 87/159/87
vt 0.9819419980049133 0.4936369657516479
f 99/157/99 87/159/87 72/160/72
f 118/146/118 120/148/120 113/144/113
vt 0.6055070161819458 0.4249230027198792
f 59/136/59 54/121/54 60/161/60
vt 0.7259889841079712 0.5759500265121460
vt 0.6893039941787720 0.5213479995727539
f 108/162/108 85/163/85 120/148/120
vt 0.7407839894294739 0.4084819555282593
vt 0.7221930027008057 0.4575690031051636
f 98/164/98 113/144/113 100/165/100
vt 0.6945149898529053 0.4549579620361328
f 87/166/87 98/164/98 100/165/100
vt 0.2470369935035706 0.4669910073280334
vt 0.1503369957208633 0.4035559892654419
vt 0.2470369935035706 0.4083859920501709
f 59/167/59 60/168/60 61/169/61
f 120/148/120 85/163/85 100/165/100
vt 0.9185330271720886 0.3814190030097961
f 79/129/79 83/128/83 77/170/77
f 120/148/120 100/165/100 113/144/113
vt 0.1369300037622452 0.9953039884567261
vt 0.0791400000452995 0.9906820058822632
vt 0.1002549976110458 0.9356759786605835
f 108/171/108 107/172/107 85/173/85
vt 0.4793249964714050 0.8410320281982422
vt 0.5422040224075317 0.8126170039176941
f 77/174/77 59/115/59 61/175/61
vt 0.6858699917793274 0.5939189791679382
f 54/109/54 69/150/69 57/176/57
f 83/123/83 59/115/59 77/174/77
vt 0.0602679997682571 0.9894379973411560
f 107/172/107 84/177/84 85/173/85
vt 0.1323679983615875 0.4628610014915466
vt 0.1325230002403259 0.3724089860916138
f 60/168/60 54/178/54 56/179/56
vt 0.1106550022959709 0.4593499898910522
vt 0.2006199955940247 0.5259649753570557
f 70/180/70 71/181/71 68/155/68
vt 0.4808639883995056 0.0540909767150879
vt 0.3924660086631775 0.0584579706192017
vt 0.4663729965686798 0.0230150222778320
f 100/182/100 85/183/85 87/184/87
vt 0.2012290060520172 0.4786230325698853
f 72/185/72 71/181/71 70/180/70
vt 0.9790070056915283 0.2410979866981506
vt 0.9384809732437134 0.1747789978981018
vt 0.9742010235786438 0.2202799916267395
f 72/186/72 87/187/87 73/188/73
vt 0.1660950034856796 0.7665899991989136
vt 0.2322629988193512 0.7442950010299683
vt 0.2262089997529984 0.7861220240592957
f 54/189/54 55/190/55 56/191/56
f 68/155/68 71/181/71 57/156/57
vt 0.6549440026283264 0.6210359930992126
f 57/176/57 55/192/55 54/109/54
vt 0.2072889953851700 0.3450310230255127
f 61/169/61 60/168/60 62/193/62
vt 0.9739180207252502 0.1641960144042969
f 87/187/87 75/194/75 73/188/73
vt 0.3764269948005676 0.0252559781074524
f 87/184/87 85/183/85 86/195/86
vt 0.2104160040616989 0.7117140293121338
vt 0.2840160131454468 0.7273920178413391
f 57/196/57 2/197/2 55/190/55
vt 0.1867009997367859 0.9295809864997864
vt 0.1147900000214577 0.9531800150871277
vt 0.1671269983053207 0.8994399905204773
f 85/198/85 84/199/84 86/200/86
vt 0.8712130188941956 0.8702989816665649
vt 0.9079399704933167 0.8767750263214111
vt 0.8621320128440857 0.8925250172615051
f 73/201/73 74/202/74 72/203/72
vt 0.1701920032501221 0.6200479865074158
f 57/156/57 71/181/71 2/204/2
vt 0.5023400187492371 0.9165480136871338
vt 0.5900319814682007 0.9165480136871338
vt 0.5179359912872314 0.9490460157394409
f 87/205/87 86/206/86 75/207/75
vt 0.0904140025377274 0.9182310104370117
vt 0.1271740049123764 0.9079800248146057
f 79/208/79 88/209/88 84/199/84
vt 0.9090149998664856 0.9107109904289246
f 71/210/71 72/203/72 74/202/74
vt 0.9077180027961731 0.8189200162887573
f 73/201/73 75/211/75 74/202/74
f 60/168/60 56/179/56 62/193/62
f 84/199/84 88/209/88 86/200/86
vt 0.0895939990878105 0.9479699730873108
vt 0.0038379998877645 0.8579459786415100
vt 0.0823590010404587 0.8652750253677368
f 26/212/26 77/213/77 61/214/61
vt 0.2483640015125275 0.7685199975967407
f 56/191/56 55/190/55 58/215/58
vt 0.9434819817543030 0.6103950142860413
vt 0.9833480119705200 0.6103950142860413
vt 0.9489179849624634 0.6481680274009705
f 79/216/79 49/217/49 88/218/88
vt 0.0772010013461113 0.1912879943847656
vt 0.0153540000319481 0.1877449750900269
vt 0.0428379997611046 0.1745280027389526
f 61/219/61 62/220/62 78/221/78
vt 0.2992070019245148 0.9132249951362610
vt 0.2825550138950348 0.9361439943313599
vt 0.2540740072727203 0.8770279884338379
f 75/222/75 42/223/42 74/224/74
vt 0.0104999998584390 0.1418719887733459
f 62/220/62 26/225/26 78/221/78
f 61/219/61 78/221/78 26/225/26
vt 0.9519379734992981 0.6889129877090454
vt 0.9749349951744080 0.6889979839324951
f 86/226/86 88/218/88 89/227/89
vt 0.8676139712333679 0.2022849917411804
vt 0.8282009959220886 0.2097100019454956
vt 0.8024539947509766 0.1199190020561218
f 71/228/71 76/229/76 2/230/2
vt 0.4686020016670227 0.9574990272521973
vt 0.5476840138435364 0.9575160145759583
vt 0.5476840138435364 0.9805139899253845
f 75/231/75 86/232/86 89/233/89
vt 0.4676739871501923 0.9820520281791687
f 75/231/75 89/233/89 42/234/42
vt 0.2055449932813644 0.8900370001792908
vt 0.2271980047225952 0.8562790155410767
f 74/224/74 76/235/76 71/236/71
vt 0.1337410062551498 0.3062310218811035
f 22/237/22 62/193/62 56/179/56
vt 0.1849749982357025 0.3081730008125305
vt 0.2490539997816086 0.3081910014152527
f 62/193/62 29/238/29 26/239/26
f 88/218/88 49/217/49 89/227/89
vt 0.7622709870338440 0.0007510185241699
vt 0.7022839784622192 0.0833169817924500
vt 0.6528819799423218 0.0084310173988342
f 79/240/79 77/241/77 30/242/30
vt 0.2700040042400360 0.8009999990463257
f 56/191/56 58/215/58 22/243/22
f 22/237/22 29/238/29 62/193/62
f 42/223/42 76/235/76 74/224/74
vt 0.0266379993408918 0.9454259872436523
f 26/212/26 28/244/28 77/213/77
vt 0.9552999734878540 0.8085920214653015
vt 0.9263510107994080 0.8976870179176331
vt 0.9165220260620117 0.8178449869155884
f 79/245/79 30/246/30 49/247/49
vt 0.5484129786491394 0.9848979711532593
f 89/233/89 40/248/40 42/234/42
vt 0.0001829999964684 0.9475839734077454
f 77/213/77 28/244/28 30/249/30
f 58/215/58 55/190/55 2/197/2
vt 0.9793800115585327 0.6890339851379395
f 89/227/89 49/217/49 40/250/40
vt 0.2734270095825195 0.0094299912452698
vt 0.1843869984149933 0.0336419939994812
vt 0.1838870048522949 0.0094299912452698
f 40/251/40 41/252/41 42/253/42
f 22/243/22 58/215/58 2/197/2
vt 0.1880789995193481 0.9343829751014709
f 76/235/76 42/223/42 17/254/17
vt 0.2748570144176483 0.0298770070075989
f 40/251/40 43/255/43 41/252/41
vt 0.2498649954795837 0.1800180077552795
vt 0.3157419860363007 0.1707590222358704
vt 0.2725679874420166 0.2522070407867432
f 26/256/26 27/257/27 28/258/28
vt 0.2808580100536346 0.4570089578628540
vt 0.3257789909839630 0.4330899715423584
vt 0.3519310057163239 0.5306890010833740
f 49/259/49 52/260/52 40/261/40
vt 0.7182999849319458 0.6653159856796265
vt 0.7411739826202393 0.6573629975318909
vt 0.7484170198440552 0.6826210021972656
f 42/262/42 41/263/41 44/264/44
vt 0.7692880034446716 0.7404850125312805
f 17/265/17 42/262/42 44/264/44
vt 0.9622139930725098 0.0053640007972717
vt 0.9947710037231445 0.0501739978790283
vt 0.9517790079116821 0.0812990069389343
f 27/266/27 26/267/26 29/268/29
vt 0.9442930221557617 0.7025079727172852
vt 0.8893939852714539 0.7025079727172852
vt 0.9428700208663940 0.6119710206985474
f 43/269/43 45/270/45 41/271/41
vt 0.3728469908237457 0.5188289880752563
f 40/261/40 52/260/52 43/272/43
vt 0.0304400008171797 0.6795430183410645
vt 0.0304400008171797 0.7153710126876831
vt 0.0058860001154244 0.6916409730911255
f 29/273/29 22/274/22 21/275/21
vt 0.5672129988670349 0.5578830242156982
vt 0.5739380121231079 0.6003419756889343
vt 0.5198640227317810 0.5618820190429688
f 21/276/21 22/277/22 5/278/5
vt 0.2350360006093979 0.8289459943771362
vt 0.2199559956789017 0.8648790121078491
vt 0.1429760009050369 0.8289819955825806
f 29/279/29 21/280/21 27/281/27
vt 0.3238849937915802 0.4272769689559937
f 49/259/49 48/282/48 52/260/52
vt 0.7888460159301758 0.2365940213203430
f 76/229/76 17/283/17 2/230/2
vt 0.7893990278244019 0.7613490223884583
vt 0.7893990278244019 0.7250360250473022
vt 0.8792210221290588 0.7624539732933044
f 220/284/220 201/285/201 230/286/230
vt 0.8800359964370728 0.7277740240097046
f 230/286/230 201/285/201 207/287/207
vt 0.8230360150337219 0.6892660260200500
f 44/264/44 41/263/41 18/288/18
vt 0.0144570004194975 0.4619740247726440
vt 0.0209459997713566 0.3877999782562256
vt 0.1102799996733665 0.4480310082435608
f 220/289/220 221/290/221 222/291/222
vt 0.8886079788208008 0.6139529943466187
f 46/292/46 41/271/41 45/270/45
vt 0.7917619943618774 0.8312309980392456
f 220/284/220 230/286/230 221/293/221
vt 0.9963650107383728 0.8673340082168579
vt 0.9963650107383728 0.9214569926261902
vt 0.9392859935760498 0.8708220124244690
f 207/294/207 201/295/201 193/296/193
vt 0.8767229914665222 0.8312690258026123
f 221/293/221 230/286/230 231/297/231
vt 0.2858479917049408 0.2811900377273560
f 27/257/27 30/298/30 28/258/28
vt 0.3294939994812012 0.7635520100593567
f 22/243/22 2/197/2 1/299/1
vt 0.4124310016632080 0.4289640188217163
f 43/272/43 52/260/52 50/300/50
vt 0.5217120051383972 0.7799109816551208
vt 0.5665069818496704 0.7181220054626465
vt 0.6225529909133911 0.7588419914245605
f 201/301/201 202/302/202 193/303/193
vt 0.7145559787750244 0.8668439984321594
vt 0.6872100234031677 0.9510080218315125
vt 0.6632329821586609 0.9089040160179138
f 22/304/22 1/305/1 5/306/5
vt 0.7804870009422302 0.6199089884757996
f 41/263/41 46/307/46 18/288/18
f 52/260/52 48/282/48 50/300/50
vt 0.4371379911899567 0.5150759816169739
f 43/272/43 50/300/50 45/308/45
vt 0.9234610199928284 0.5438899993896484
vt 0.9234610199928284 0.6118190288543701
vt 0.8269289731979370 0.5438629984855652
f 46/309/46 45/310/45 141/311/141
vt 0.4293479919433594 0.7099239826202393
vt 0.3870710134506226 0.7479029893875122
vt 0.3531369864940643 0.7139679789543152
f 201/312/201 203/313/203 202/314/202
vt 0.1402080059051514 0.0043950080871582
vt 0.1030400022864342 0.0611270070075989
vt 0.0713730007410049 0.0062779784202576
f 230/315/230 232/316/232 231/317/231
vt 0.1221700012683868 0.0936850309371948
f 230/315/230 233/318/233 232/316/232
vt 0.5634629726409912 0.3551299571990967
vt 0.4753339886665344 0.4019290208816528
vt 0.4554600119590759 0.3502930402755737
f 45/319/45 148/320/148 141/321/141
vt 0.9572190046310425 0.0303000211715698
vt 0.8869559764862061 0.0895119905471802
vt 0.8803520202636719 0.0303000211715698
f 232/322/232 235/323/235 231/324/231
vt 0.2720310091972351 0.5403900146484375
vt 0.2589609920978546 0.6076319813728333
vt 0.2004549950361252 0.5310289859771729
f 1/325/1 2/326/2 3/327/3
vt 0.0642570033669472 0.6641100049018860
vt 0.0986080020666122 0.5827460289001465
vt 0.1139909997582436 0.6143749952316284
f 30/328/30 48/329/48 49/330/49
vt 0.0410900004208088 0.1619740128517151
vt 0.0640340000391006 0.1509979963302612
vt 0.0864320024847984 0.1914049983024597
f 225/331/225 223/332/223 221/333/221
f 18/288/18 17/265/17 44/264/44
vt 0.3758209943771362 0.3451899886131287
vt 0.4487800002098083 0.3516750335693359
vt 0.4685679972171783 0.4011119604110718
f 152/334/152 162/335/162 163/336/163
vt 0.1688629984855652 0.6994439959526062
vt 0.1364530026912689 0.5864179730415344
vt 0.2291339933872223 0.7130119800567627
f 184/337/184 169/338/169 193/339/193
vt 0.6115530133247375 0.6539239883422852
f 202/302/202 184/340/184 193/303/193
vt 0.5140209794044495 0.8769879937171936
vt 0.4033069908618927 0.8753309845924377
vt 0.4592750072479248 0.8310499787330627
f 163/341/163 169/342/169 152/343/152
vt 0.3842670023441315 0.8292909860610962
f 169/342/169 153/344/153 152/343/152
vt 0.1138869971036911 0.6253730058670044
f 169/338/169 184/337/184 153/345/153
vt 0.2961719930171967 0.1727290153503418
vt 0.1930560022592545 0.1727290153503418
vt 0.2810269892215729 0.1164939999580383
f 221/346/221 231/347/231 225/348/225
f 162/335/162 148/320/148 163/336/163
f 141/321/141 148/320/148 162/335/162
vt 0.4117859899997711 0.2368910312652588
f 30/298/30 27/257/27 31/349/31
vt 0.5686330199241638 0.0607780218124390
vt 0.4763900041580200 0.0612069964408875
vt 0.5313550233840942 0.0472099781036377
f 153/350/153 184/351/184 173/352/173
vt 0.7989749908447266 0.1320810317993164
vt 0.7418180108070374 0.1302629709243774
vt 0.7635110020637512 0.1023229956626892
f 207/353/207 193/354/193 208/355/208
vt 0.1068079993128777 0.4998419880867004
f 220/289/220 222/291/222 195/356/195
vt 0.5218380093574524 0.2490990161895752
vt 0.4470430016517639 0.2615569829940796
vt 0.3650330007076263 0.2543820142745972
f 169/357/169 180/358/180 193/359/193
vt 0.0142660001292825 0.5006430149078369
f 201/360/201 220/289/220 195/356/195
vt 0.6966779828071594 0.7563430070877075
vt 0.6750059723854065 0.8297709822654724
vt 0.6569409966468811 0.8050990104675293
f 152/361/152 164/362/164 162/363/162
vt 0.3458169996738434 0.1677309870719910
f 31/349/31 27/257/27 23/364/23
vt 0.5082730054855347 0.2259259819984436
vt 0.5919129848480225 0.2301629781723022
vt 0.5492140054702759 0.2802560329437256
f 2/365/2 17/366/17 3/367/3
vt 0.2169740051031113 0.0848829746246338
f 225/348/225 231/347/231 229/368/229
vt 0.2619780004024506 0.0635240077972412
vt 0.1828339993953705 0.0347179770469666
vt 0.2894020080566406 0.0308340191841125
f 37/369/37 30/370/30 31/371/31
vt 0.6453340053558350 0.2451360225677490
vt 0.6044840216636658 0.3064329624176025
f 18/372/18 19/373/19 17/366/17
vt 0.6545289754867554 0.8098180294036865
f 162/363/162 164/362/164 141/374/141
vt 0.8234750032424927 0.6108390092849731
f 47/375/47 18/288/18 46/307/46
vt 0.1602129936218262 0.1001610159873962
vt 0.1418650001287460 0.1566320061683655
vt 0.0411360003054142 0.0831189751625061
f 169/376/169 172/377/172 180/378/180
vt 0.0492860004305840 0.3545719981193542
f 221/290/221 223/379/223 222/291/222
vt 0.5069829821586609 0.9157969951629639
vt 0.4151760041713715 0.8859670162200928
vt 0.4904820024967194 0.8864129781723022
f 46/380/46 141/381/141 47/382/47
vt 0.1804659962654114 0.1144949793815613
f 231/347/231 235/383/235 229/368/229
vt 0.5247709751129150 0.7863339781761169
vt 0.6388099789619446 0.7557780146598816
vt 0.6604909896850586 0.7906680107116699
f 222/384/222 223/385/223 226/386/226
vt 0.1631129980087280 0.1962590217590332
vt 0.2480619996786118 0.2190200090408325
vt 0.1373749971389771 0.2219759821891785
f 170/387/170 169/388/169 163/389/163
vt 0.4299739897251129 0.7799569964408875
f 201/312/201 195/390/195 203/313/203
vt 0.4730719923973083 0.4768129587173462
f 148/320/148 149/391/149 163/336/163
vt 0.0338810011744499 0.6059979796409607
f 30/328/30 37/392/37 48/329/48
vt 0.1204390004277229 0.8491250276565552
f 27/281/27 21/280/21 23/393/23
vt 0.9670720100402832 0.0821080207824707
vt 0.9677119851112366 0.1649079918861389
vt 0.9134500026702881 0.1071119904518127
f 148/394/148 45/395/45 149/396/149
vt 0.7964720129966736 0.0806850194931030
f 207/353/207 208/355/208 209/397/209
vt 0.4690130054950714 0.4279199838638306
f 50/300/50 53/398/53 45/308/45
vt 0.1748059988021851 0.0069090127944946
vt 0.1731519997119904 0.0931040048599243
f 207/399/207 209/400/209 230/315/230
vt 0.7222229838371277 0.8160009980201721
f 152/361/152 154/401/154 164/362/164
vt 0.0328369997441769 0.5364009737968445
vt 0.1106259971857071 0.5244150161743164
f 48/329/48 35/402/35 50/403/50
vt 0.4123310148715973 0.2900810241699219
f 193/359/193 180/358/180 194/404/194
vt 0.8684030175209045 0.8712090253829956
vt 0.7973449826240540 0.8712090253829956
vt 0.8954420089721680 0.8319560289382935
f 152/405/152 153/406/153 154/407/154
vt 0.3478159904479980 0.7782009840011597
f 203/313/203 185/408/185 202/314/202
vt 0.9168999791145325 0.1537690162658691
f 45/395/45 53/409/53 149/396/149
vt 0.2985750138759613 0.9022060036659241
vt 0.2539840042591095 0.8647890090942383
vt 0.3459120094776154 0.8650799989700317
f 47/410/47 142/411/142 18/412/18
vt 0.2735159993171692 0.0846920013427734
f 225/348/225 229/368/229 227/413/227
f 230/315/230 209/400/209 233/318/233
vt 0.0318310000002384 0.6003909707069397
f 48/329/48 37/392/37 38/414/38
vt 0.0163180008530617 0.1444730162620544
f 225/331/225 227/415/227 223/332/223
vt 0.9639359712600708 0.3450039625167847
vt 0.9451109766960144 0.2870659828186035
vt 0.9848319888114929 0.3057320117950439
f 173/416/173 155/417/155 153/418/153
vt 0.9514009952545166 0.0746350288391113
vt 0.8932570219039917 0.1222689747810364
f 232/322/232 234/419/234 236/420/236
vt 0.2747479975223541 0.7115650177001953
f 202/314/202 185/408/185 184/421/184
vt 0.8092859983444214 0.8319650292396545
f 153/406/153 155/422/155 154/407/154
vt 0.1961819976568222 0.1789309978485107
f 169/388/169 170/387/170 171/423/171
f 236/420/236 235/323/235 232/322/232
vt 0.2385759949684143 0.4891870021820068
f 3/327/3 4/424/4 1/325/1
vt 0.4786269962787628 0.5196130275726318
f 21/276/21 5/278/5 8/425/8
vt 0.6923000216484070 0.8603519797325134
f 141/374/141 164/362/164 142/426/142
vt 0.5215770006179810 0.2865279912948608
f 180/358/180 172/427/172 194/404/194
f 154/401/154 142/426/142 164/362/164
vt 0.5625069737434387 0.4689069986343384
f 21/276/21 8/425/8 23/428/23
vt 0.7375400066375732 0.0831220149993896
f 193/354/193 210/429/210 208/355/208
vt 0.5087890028953552 0.0236629843711853
f 184/351/184 186/430/186 173/352/173
vt 0.1745080053806305 0.0805140137672424
f 229/368/229 235/383/235 237/431/237
vt 0.0690959990024567 0.0754519701004028
f 232/316/232 233/318/233 234/432/234
vt 0.2489289939403534 0.1776089668273926
f 169/388/169 171/423/171 172/433/172
f 208/355/208 210/429/210 209/397/209
vt 0.4043549895286560 0.9948469996452332
vt 0.4378870129585266 0.9948469996452332
vt 0.4056609869003296 0.9984070062637329
f 237/434/237 235/435/235 236/436/236
vt 0.1101789996027946 0.1807689666748047
f 163/389/163 149/437/149 170/387/170
f 3/367/3 17/366/17 19/373/19
vt 0.6249480247497559 0.8648300170898438
f 141/374/141 142/426/142 47/438/47
f 203/313/203 195/390/195 185/408/185
vt 0.0437299981713295 0.1152889728546143
f 223/332/223 227/415/227 226/439/226
vt 0.0415199995040894 0.1154680252075195
f 227/415/227 228/440/228 226/439/226
vt 0.4780350029468536 0.5310689806938171
f 6/441/6 8/425/8 5/278/5
vt 0.6820840239524841 0.0850020051002502
f 193/354/193 194/442/194 210/429/210
vt 0.0581069998443127 0.9899950027465820
vt 0.0098940003663301 0.9549670219421387
vt 0.0881860032677650 0.9487699866294861
f 184/443/184 185/444/185 186/445/186
f 171/423/171 170/387/170 149/437/149
vt 0.3153730034828186 0.5269050002098083
vt 0.2938520014286041 0.4832490086555481
f 5/446/5 1/325/1 6/447/6
vt 0.5801749825477600 0.0233799815177917
f 173/352/173 186/430/186 155/448/155
vt 0.5301719903945923 0.4473999738693237
f 8/425/8 24/449/24 23/428/23
vt 0.8244529962539673 0.6141059994697571
vt 0.8884180188179016 0.6665329933166504
vt 0.8244529962539673 0.6465010046958923
f 50/450/50 145/451/145 53/452/53
vt 0.0325819998979568 0.5823670029640198
f 38/414/38 39/453/39 48/329/48
vt 0.2690370082855225 0.0665190219879150
f 38/454/38 37/369/37 31/371/31
vt 0.1376120001077652 0.6597350239753723
vt 0.1709679961204529 0.7083479762077332
vt 0.1101659983396530 0.7147390246391296
f 209/455/209 210/456/210 204/457/204
vt 0.3035109937191010 0.8630089759826660
vt 0.3351610004901886 0.8234260082244873
vt 0.3765450119972229 0.8648099899291992
f 234/458/234 238/459/238 236/460/236
vt 0.3802970051765442 0.8653600215911865
f 238/459/238 237/461/237 236/460/236
vt 0.8864470124244690 0.6209110021591187
f 50/450/50 143/462/143 145/451/145
vt 0.8823770284652710 0.9311439990997314
vt 0.9501399993896484 0.8819119930267334
vt 0.9583079814910889 0.9624059796333313
f 195/463/195 197/464/197 185/465/185
vt 0.8240889906883240 0.6932839751243591
f 149/466/149 53/452/53 145/451/145
vt 0.8583400249481201 0.3903310298919678
vt 0.9192630052566528 0.3956620097160339
vt 0.8547090291976929 0.4301149845123291
f 3/467/3 19/468/19 4/469/4
vt 0.2884410023689270 0.0791820287704468
f 38/454/38 31/371/31 39/470/39
f 35/402/35 48/329/48 39/453/39
vt 0.2732250094413757 0.4473420381546021
f 1/325/1 7/471/7 6/447/6
vt 0.3892830014228821 0.1614670157432556
f 23/364/23 24/472/24 31/349/31
vt 0.6291649937629700 0.3153300285339355
f 19/373/19 18/372/18 20/473/20
vt 0.3093290030956268 0.9976710081100464
vt 0.3463079929351807 0.9477900266647339
vt 0.3705550134181976 0.9728980064392090
f 31/474/31 24/475/24 32/476/32
vt 0.7809320092201233 0.7706450223922729
vt 0.7136539816856384 0.8427919745445251
vt 0.7569270133972168 0.7245990037918091
f 222/477/222 196/478/196 195/479/195
vt 0.7139310240745544 0.2846089601516724
vt 0.7128450274467468 0.4203940033912659
vt 0.6776630282402039 0.3842539787292480
f 222/480/222 226/481/226 224/482/224
vt 0.3826960027217865 0.9997990131378174
vt 0.3773230016231537 0.9904929995536804
vt 0.4187330007553101 0.9903399944305420
f 8/483/8 6/484/6 7/485/7
vt 0.4416300058364868 0.5060880184173584
f 8/425/8 9/486/9 24/449/24
vt 0.7121970057487488 0.4225150346755981
vt 0.6399009823799133 0.4247829914093018
f 228/487/228 216/488/216 226/481/226
vt 0.4280729889869690 0.9999129772186279
vt 0.3908160030841827 0.9999129772186279
vt 0.3911960124969482 0.9985309839248657
f 8/489/8 7/490/7 9/491/9
f 1/325/1 4/424/4 7/471/7
vt 0.4842390120029449 0.4737069606781006
f 24/449/24 9/486/9 25/492/25
vt 0.0335640013217926 0.5144060254096985
f 50/403/50 35/402/35 51/493/51
vt 0.4381720125675201 0.9627370238304138
vt 0.4690119922161102 0.9843310117721558
vt 0.3965829908847809 0.9823139905929565
f 39/494/39 31/495/31 35/496/35
vt 0.8684089779853821 0.9038649797439575
vt 0.8846269845962524 0.9537780284881592
vt 0.7949839830398560 0.9506379961967468
f 227/497/227 229/498/229 217/499/217
vt 0.7969849705696106 0.8695889711380005
f 224/500/224 196/478/196 222/477/222
vt 0.2373120039701462 0.8629130125045776
f 234/458/234 233/501/233 238/459/238
vt 0.5954220294952393 0.6078220009803772
vt 0.6355860233306885 0.5947719812393188
vt 0.6211969852447510 0.6766120195388794
f 186/502/186 175/503/175 155/504/155
vt 0.0786089971661568 0.6513559818267822
f 204/457/204 211/505/211 209/455/209
vt 0.5634559988975525 0.4679009914398193
vt 0.5496979951858521 0.4255579710006714
vt 0.6247839927673340 0.4698749780654907
f 233/506/233 209/507/209 211/508/211
vt 0.9367510080337524 0.8696110248565674
vt 0.9516329765319824 0.8247960209846497
vt 0.9713960289955139 0.8653579950332642
f 24/509/24 25/510/25 32/511/32
vt 0.2047339975833893 0.7523800134658813
vt 0.1383820027112961 0.7514730095863342
f 210/456/210 194/512/194 189/513/189
vt 0.3787879943847656 0.9997969865798950
f 31/474/31 32/476/32 33/514/33
f 226/481/226 216/488/216 224/482/224
vt 0.5683580040931702 0.5340960025787354
f 185/515/185 175/503/175 186/502/186
vt 0.8535630106925964 0.3769819736480713
vt 0.7401840090751648 0.4483219981193542
vt 0.7616339921951294 0.3769819736480713
f 142/516/142 20/517/20 18/518/18
vt 0.8463879823684692 0.8723769783973694
f 227/497/227 217/499/217 228/519/228
vt 0.9033229947090149 0.3724759817123413
vt 0.8065890073776245 0.3724759817123413
vt 0.8483579754829407 0.3322460055351257
f 154/520/154 133/521/133 142/522/142
vt 0.4127100110054016 0.8865200281143188
vt 0.5016639828681946 0.9166799783706665
vt 0.4909250140190125 0.9567599892616272
f 217/523/217 229/524/229 237/525/237
vt 0.4538289904594421 0.4848200082778931
f 9/486/9 11/526/11 25/492/25
vt 0.4473040103912354 0.1675649881362915
vt 0.5333160161972046 0.1662610173225403
vt 0.4682550132274628 0.2124969959259033
f 171/527/171 149/528/149 165/529/165
vt 0.0745230019092560 0.6802340149879456
vt 0.0313419997692108 0.6625239849090576
vt 0.0313419997692108 0.6217780113220215
f 154/530/154 156/531/156 133/532/133
vt 0.8188340067863464 0.8793420195579529
vt 0.7303220033645630 0.9081010222434998
vt 0.7068539857864380 0.8417689800262451
f 35/533/35 31/534/31 33/535/33
vt 0.8845980167388916 0.5900580286979675
f 50/450/50 51/536/51 143/462/143
vt 0.6125040054321289 0.5286890268325806
f 233/506/233 211/508/211 238/537/238
vt 0.9652150273323059 0.7993040084838867
f 25/510/25 11/538/11 32/511/32
vt 0.4141930043697357 0.9564729928970337
f 217/523/217 237/525/237 241/539/241
vt 0.0316689983010292 0.7461479902267456
vt 0.0315140001475811 0.6993799805641174
f 154/530/154 157/540/157 158/541/158
vt 0.0744680017232895 0.7663900256156921
f 155/542/155 157/540/157 154/530/154
vt 0.7775419950485229 0.8945630192756653
f 228/519/228 217/499/217 216/543/216
vt 0.9400939941406250 0.4027429819107056
f 19/468/19 13/544/13 4/469/4
vt 0.0020830000285059 0.2470340132713318
vt 0.0518870018422604 0.2632160186767578
vt 0.0063860001973808 0.3362560272216797
f 149/545/149 150/546/150 165/547/165
f 154/530/154 158/541/158 156/531/156
vt 0.8836590051651001 0.6899060010910034
f 149/466/149 145/451/145 150/548/150
vt 0.2615509927272797 0.4371379613876343
vt 0.2744010090827942 0.4465219974517822
f 7/471/7 10/549/10 9/550/9
vt 0.3869349956512451 0.1278190016746521
vt 0.3356400132179260 0.1674849987030029
vt 0.2767910063266754 0.0893909931182861
f 33/551/33 34/552/34 35/553/35
vt 0.2867220044136047 0.4271370172500610
f 9/550/9 10/549/10 11/554/11
f 4/424/4 10/549/10 7/471/7
vt 0.0893739983439445 0.1914780139923096
vt 0.0562030002474785 0.1340240240097046
vt 0.1137799993157387 0.1774889826774597
f 32/555/32 11/556/11 33/557/33
vt 0.6312190294265747 0.3863959908485413
vt 0.6145589947700500 0.3164839744567871
f 224/482/224 215/558/215 196/559/196
vt 0.0140169998630881 0.3264759778976440
vt 0.0793920010328293 0.2388769984245300
vt 0.0680000036954880 0.3227009773254395
f 194/560/194 172/561/172 182/562/182
f 224/482/224 216/488/216 215/558/215
vt 0.3184340000152588 0.7718999981880188
f 238/459/238 240/563/240 237/461/237
vt 0.4060519933700562 0.2136039733886719
vt 0.3945510089397430 0.1686040163040161
f 171/527/171 167/564/167 172/565/172
vt 0.3859370052814484 0.7888349890708923
f 237/461/237 240/563/240 241/566/241
f 210/456/210 189/513/189 204/457/204
vt 0.7025430202484131 0.2035679817199707
vt 0.6771069765090942 0.2650989890098572
vt 0.6146559715270996 0.2197250127792358
f 172/567/172 167/568/167 181/569/181
vt 0.9454979896545410 0.3955379724502563
f 19/468/19 20/570/20 13/544/13
vt 0.6441799998283386 0.4710179567337036
f 238/537/238 211/508/211 239/571/239
vt 0.0277810003608465 0.3771060109138489
f 194/560/194 182/562/182 189/572/189
vt 0.0557690002024174 0.1082350015640259
f 11/556/11 10/573/10 33/557/33
vt 0.6454240083694458 0.5057889819145203
f 238/537/238 239/571/239 240/574/240
vt 0.5693820118904114 0.1868990063667297
f 172/567/172 181/569/181 182/575/182
vt 0.5901989936828613 0.1230769753456116
vt 0.6696649789810181 0.1980999708175659
vt 0.5901989936828613 0.1802710294723511
f 4/576/4 12/577/12 10/578/10
vt 0.6179929971694946 0.0002300143241882
vt 0.6548839807510376 0.0008739829063416
vt 0.6303570270538330 0.0595329999923706
f 215/579/215 216/580/216 212/581/212
vt 0.8540040254592896 0.4454089999198914
vt 0.8247129917144775 0.4517680406570435
f 142/516/142 133/582/133 132/583/132
vt 0.6380379796028137 0.9864900112152100
vt 0.6596090197563171 0.9200999736785889
vt 0.6992740035057068 0.9822469949722290
f 195/584/195 196/585/196 197/586/197
vt 0.1836339980363846 0.9316949844360352
vt 0.2245409935712814 0.9879980087280273
vt 0.1485780030488968 0.9920200109481812
f 241/587/241 240/588/240 218/589/218
vt 0.9572749733924866 0.2077729701995850
vt 0.9212059974670410 0.2633140087127686
vt 0.9083189964294434 0.1947649717330933
f 155/590/155 174/591/174 157/592/157
f 171/527/171 165/529/165 167/564/167
vt 0.7175340056419373 0.1132649779319763
f 13/593/13 12/577/12 4/576/4
vt 0.0005409999866970 0.1383590102195740
vt 0.0005409999866970 0.0930889844894409
vt 0.0513539984822273 0.1078029870986938
f 197/594/197 187/595/187 185/596/185
vt 0.9271230101585388 0.6090019941329956
vt 0.9244409799575806 0.5871580243110657
vt 0.9779980182647705 0.6087239980697632
f 51/597/51 35/598/35 36/599/36
vt 0.1423790007829666 0.1583570241928101
f 33/557/33 10/573/10 14/600/14
vt 0.2943179905414581 0.1605039834976196
f 35/553/35 34/552/34 36/601/36
f 142/516/142 132/583/132 20/517/20
vt 0.6117050051689148 0.5304459929466248
f 185/515/185 187/602/187 175/503/175
vt 0.9267979860305786 0.2930400371551514
f 174/591/174 155/590/155 175/603/175
vt 0.6184189915657043 0.3664839863777161
f 211/508/211 204/604/204 239/571/239
vt 0.4228779971599579 0.2945610284805298
vt 0.4781819880008698 0.3264909982681274
vt 0.4172410070896149 0.2984850406646729
f 20/605/20 131/606/131 13/607/13
vt 0.5506169795989990 0.0001450181007385
f 196/608/196 215/579/215 212/581/212
vt 0.3147940039634705 0.1009470224380493
vt 0.3752340078353882 0.0235880017280579
vt 0.3916319906711578 0.1279429793357849
f 12/609/12 14/610/14 10/611/10
vt 0.1175149977207184 0.8411340117454529
vt 0.0976679995656013 0.8146820068359375
vt 0.1591629981994629 0.8188819885253906
f 143/612/143 51/613/51 144/614/144
vt 0.3206720054149628 0.9807419776916504
vt 0.2543149888515472 0.9591810107231140
vt 0.3187589943408966 0.9107990264892578
f 241/615/241 218/616/218 217/617/217
vt 0.3902249932289124 0.4203189611434937
vt 0.3559600114822388 0.4263609647750854
vt 0.4112760126590729 0.3680920004844666
f 240/618/240 239/619/239 218/620/218
vt 0.1694580018520355 0.1442549824714661
f 14/600/14 34/621/34 33/557/33
vt 0.1205449998378754 0.7662720084190369
f 36/622/36 144/614/144 51/613/51
vt 0.5102170109748840 0.6821669936180115
vt 0.5387110114097595 0.6009680032730103
vt 0.5528889894485474 0.6604239940643311
f 165/623/165 150/624/150 151/625/151
vt 0.0011670000385493 0.5412960052490234
vt 0.0325639992952347 0.5184839963912964
vt 0.0282809995114803 0.5780379772186279
f 143/626/143 144/627/144 145/628/145
vt 0.5627290010452271 0.0887899994850159
vt 0.5813249945640564 0.1560159921646118
vt 0.5557289719581604 0.1457999944686890
f 157/629/157 174/630/174 176/631/176
vt 0.8650739789009094 0.1765480041503906
vt 0.8439810276031494 0.1075569987297058
vt 0.9140040278434753 0.1304529905319214
f 217/632/217 218/633/218 212/634/212
vt 0.9173060059547424 0.1939480304718018
f 217/632/217 212/634/212 216/635/216
vt 0.4852330088615417 0.2928360104560852
f 132/636/132 131/606/131 20/605/20
vt 0.2850680053234100 0.0904359817504883
f 14/610/14 12/609/12 15/637/15
vt 0.1267649978399277 0.2104460000991821
vt 0.1054610013961792 0.2352679967880249
vt 0.0686049982905388 0.2352679967880249
f 135/638/135 156/639/156 158/640/158
vt 0.2718470096588135 0.6241120100021362
vt 0.2003899961709976 0.6273850202560425
vt 0.2003899961709976 0.5435630083084106
f 196/641/196 198/642/198 197/643/197
vt 0.1462070047855377 0.2354469895362854
f 133/644/133 156/639/156 135/638/135
vt 0.2647880017757416 0.7050099968910217
vt 0.2488870024681091 0.6352239847183228
f 212/645/212 213/646/213 196/641/196
vt 0.5893880128860474 0.1851680278778076
f 175/647/175 176/631/176 174/630/174
vt 0.7449629902839661 0.6512489914894104
vt 0.7281640172004700 0.6119220256805420
vt 0.7684199810028076 0.5867670178413391
f 187/648/187 188/649/188 175/650/175
vt 0.1777549982070923 0.1053569912910461
f 14/600/14 16/651/16 34/621/34
vt 0.0218369998037815 0.2352030277252197
vt 0.0364359989762306 0.2096599936485291
f 157/652/157 159/653/159 158/640/158
vt 0.0416590012609959 0.8541839718818665
vt 0.0489820018410683 0.8248140215873718
vt 0.0924279987812042 0.8654569983482361
f 187/654/187 192/655/192 188/656/188
vt 0.1956530064344406 0.7972800135612488
vt 0.2256329953670502 0.8281409740447998
f 144/614/144 139/657/139 145/658/145
vt 0.5072339773178101 0.2907400131225586
vt 0.4925200045108795 0.3156430125236511
f 132/636/132 133/659/133 134/660/134
vt 0.0157379992306232 0.8170689940452576
vt 0.0239780005067587 0.7602699995040894
f 197/661/197 198/662/198 192/655/192
f 132/636/132 134/660/134 131/606/131
vt 0.8702049851417542 0.9540780186653137
vt 0.8079259991645813 0.9743139743804932
vt 0.8018239736557007 0.9530339837074280
f 13/663/13 15/664/15 12/665/12
vt 0.8905699849128723 0.9771159887313843
vt 0.8905699849128723 0.9357020258903503
vt 0.9578989744186401 0.9704689979553223
f 182/666/182 183/667/183 189/668/189
vt 0.2609300017356873 0.3054139614105225
vt 0.2050080001354218 0.3051990270614624
vt 0.1874739974737167 0.2397599816322327
f 182/669/182 181/670/181 178/671/178
f 187/654/187 197/661/197 192/655/192
vt 0.2482990026473999 0.4263510107994080
vt 0.3326329886913300 0.3515319824218750
f 239/619/239 204/672/204 200/673/200
vt 0.1521250009536743 0.7641230225563049
f 36/622/36 146/674/146 144/614/144
f 196/641/196 213/646/213 198/642/198
vt 0.8697900176048279 0.0274509787559509
vt 0.9010109901428223 0.0012540221214294
vt 0.9574030041694641 0.0293639898300171
f 212/675/212 214/676/214 213/677/213
vt 0.1278160065412521 0.3047510385513306
f 167/678/167 178/671/178 181/670/181
vt 0.5383509993553162 0.7078210115432739
vt 0.4875279963016510 0.7479919791221619
f 165/623/165 166/679/166 167/680/167
vt 0.3699519932270050 0.3592649698257446
f 239/619/239 219/681/219 218/620/218
vt 0.1107079982757568 0.2394739985466003
f 168/682/168 178/671/178 167/678/167
vt 0.0765900015830994 0.1984130144119263
f 158/640/158 160/683/160 135/638/135
vt 0.3082660138607025 0.0299320220947266
f 14/610/14 15/637/15 16/684/16
vt 0.5338699817657471 0.3159530162811279
f 135/685/135 134/660/134 133/659/133
f 158/640/158 159/653/159 160/683/160
vt 0.7933340072631836 0.2830780148506165
vt 0.7756609916687012 0.2918599843978882
vt 0.7672200202941895 0.2719730138778687
f 16/686/16 147/687/147 34/688/34
vt 0.5400660037994385 0.7519119977951050
f 167/680/167 166/679/166 168/689/168
vt 0.2675999999046326 0.2400549650192261
f 182/669/182 178/671/178 183/690/183
f 239/619/239 200/673/200 219/681/219
vt 0.6238700151443481 0.1196479797363281
vt 0.5725979804992676 0.1196479797363281
vt 0.6058440208435059 0.0790960192680359
f 204/691/204 189/692/189 205/693/205
vt 0.8054029941558838 0.5552260279655457
vt 0.8273929953575134 0.5459849834442139
vt 0.8664289712905884 0.5959489941596985
f 150/694/150 145/695/145 139/696/139
vt 0.4430089890956879 0.3470389842987061
f 13/607/13 131/606/131 136/697/136
vt 0.8235189914703369 0.6102160215377808
vt 0.7614899873733521 0.6092799901962280
f 150/694/150 140/698/140 151/699/151
vt 0.9331030249595642 0.2859129905700684
vt 0.9571989774703979 0.2117519974708557
vt 0.9750450253486633 0.2786719799041748
f 189/700/189 183/701/183 190/702/190
vt 0.1074030026793480 0.7322959899902344
vt 0.1244679987430573 0.7421010136604309
f 34/703/34 147/704/147 36/622/36
f 151/625/151 166/679/166 165/623/165
vt 0.8538770079612732 0.3092229962348938
vt 0.8339099884033203 0.2621810436248779
vt 0.9241380095481873 0.2870669960975647
f 218/705/218 219/706/219 212/707/212
vt 0.6868730187416077 0.0621470212936401
f 204/691/204 205/693/205 200/708/200
vt 0.7369340062141418 0.5634739995002747
vt 0.7408540248870850 0.5388420224189758
f 175/650/175 191/709/191 177/710/177
vt 0.8347929716110229 0.2689610123634338
f 147/687/147 16/686/16 15/711/15
vt 0.5778210163116455 0.0619810223579407
f 190/712/190 205/693/205 189/692/189
vt 0.0262189991772175 0.7401480078697205
f 198/662/198 199/713/199 192/655/192
vt 0.5346199870109558 0.1600620150566101
f 175/647/175 177/714/177 176/631/176
f 36/622/36 147/704/147 146/674/146
vt 0.5322179794311523 0.0810490250587463
vt 0.5201089978218079 0.1074299812316895
f 159/715/159 157/629/157 161/716/161
vt 0.7157520055770874 0.6079260110855103
f 175/650/175 179/717/179 191/709/191
vt 0.8513579964637756 0.3141349554061890
f 147/687/147 15/711/15 136/718/136
f 176/631/176 161/716/161 157/629/157
f 175/650/175 188/649/188 179/717/179
vt 0.1045800000429153 0.1923069953918457
f 135/638/135 160/683/160 137/719/137
vt 0.6369119882583618 0.9261389970779419
vt 0.6625170111656189 0.9068449735641479
vt 0.6393309831619263 0.9753559827804565
f 159/720/159 161/721/161 160/722/160
f 161/716/161 176/631/176 177/714/177
vt 0.7218279838562012 0.6604319810867310
f 192/723/192 179/717/179 188/649/188
f 139/696/139 140/698/140 150/694/150
vt 0.7859770059585571 0.3213260173797607
f 136/718/136 146/724/146 147/687/147
vt 0.4048939943313599 0.3468710184097290
f 15/725/15 13/607/13 136/697/136
vt 0.1051750034093857 0.8560240268707275
f 179/726/179 192/655/192 199/713/199
f 144/614/144 146/674/146 139/657/139
f 151/625/151 168/689/168 166/679/166
vt 0.6479719877243042 0.0620310306549072
f 200/708/200 205/693/205 206/727/206
vt 0.8158720135688782 0.2197639942169189
f 212/707/212 219/706/219 200/728/200
vt 0.9158589839935303 0.2471610307693481
f 214/729/214 212/707/212 200/728/200
vt 0.2376060038805008 0.6854349970817566
vt 0.2013839930295944 0.6569390296936035
f 213/646/213 214/730/214 199/731/199
vt 0.5624120235443115 0.3329200148582458
f 134/660/134 135/685/135 137/732/137
vt 0.4733490049839020 0.3470129966735840
f 134/660/134 138/733/138 131/606/131
f 138/733/138 136/697/136 131/606/131
vt 0.8047659993171692 0.3729699850082397
f 146/724/146 136/718/136 139/734/139
f 205/693/205 190/712/190 206/727/206
f 198/642/198 213/646/213 199/731/199
vt 0.5866810083389282 0.6177319884300232
f 151/625/151 140/735/140 168/689/168
vt 0.9062569737434387 0.1915559768676758
f 214/729/214 200/728/200 199/736/199
f 191/709/191 179/717/179 177/710/177
vt 0.9873710274696350 0.9307439923286438
vt 0.9571970105171204 0.9339159727096558
vt 0.9513940215110779 0.8834159970283508
f 136/737/136 138/738/138 139/739/139
vt 0.0157030001282692 0.1921600103378296
f 160/683/160 161/740/161 137/719/137
f 134/660/134 137/732/137 138/733/138
vt 0.9632670283317566 0.5053520202636719
vt 0.9155240058898926 0.4396399855613708
vt 0.9646000266075134 0.4411959648132324
f 138/741/138 140/742/140 139/743/139
vt 0.3113079965114594 0.6462609767913818
vt 0.2731629908084869 0.7123289704322815
vt 0.2859759926795959 0.5808439850807190
f 190/744/190 179/745/179 206/746/206
vt 0.1310929954051971 0.3067749738693237
vt 0.1316719949245453 0.4488210082054138
vt 0.0788569971919060 0.3972519636154175
f 168/747/168 140/748/140 137/749/137
vt 0.5522760152816772 0.1694210171699524
vt 0.5940600037574768 0.2162140011787415
vt 0.5394729971885681 0.2171999812126160
f 178/750/178 161/751/161 177/752/177
vt 0.6186299920082092 0.7914159893989563
vt 0.6367400288581848 0.8411729931831360
vt 0.4867680072784424 0.8391029834747314
f 199/753/199 200/754/200 179/755/179
vt 0.9822710156440735 0.3684669733047485
vt 0.9822710156440735 0.4452329874038696
vt 0.9149789810180664 0.4263310432434082
f 178/756/178 168/757/168 161/758/161
vt 0.7147930264472961 0.2839599847793579
vt 0.7584819793701172 0.3700159788131714
vt 0.7147930264472961 0.3359349966049194
f 178/759/178 179/760/179 183/761/183
vt 0.0785000026226044 0.2922270298004150
f 168/747/168 137/749/137 161/762/161
vt 0.9830679893493652 0.7700099945068359
vt 0.9405459761619568 0.7114850282669067
vt 0.9971809983253479 0.6809499859809875
f 137/763/137 140/764/140 138/765/138
vt 0.2719829976558685 0.5445470213890076
f 206/746/206 179/745/179 200/766/200
vt 0.4593909978866577 0.2187479734420776
f 177/752/177 179/767/179 178/750/178
vt 0.7148119807243347 0.4051949977874756
f 190/768/190 183/761/183 179/760/179
# 478 faces, 768 coords texture

# End of File
