####
#
# OBJ File Generated by Meshlab
#
####
# Object gummy.obj
#
# Vertices: 252
# Faces: 500
#
####
mtllib ./gummy.obj.mtl

vn -0.1600611407326248 0.6067691769750182 0.7785959138734482
v -0.0613160021603107 0.5827090740203857 0.4356200098991394
vn 0.2878289609609448 0.5508372695470092 0.7834109979507170
v 0.0646449998021126 0.5820361375808716 0.4341570138931274
vn 0.1543272739269335 0.6327080427790867 0.7588567882841524
v 0.1100100055336952 0.7194330096244812 0.3434209823608398
vn 0.3453832542023387 0.4868667955330306 0.8022911760227709
v 0.0761720091104507 0.5036050677299500 0.5231459140777588
vn 0.6255418029673890 0.1241319137076284 0.7702523747055833
v 0.1705000102519989 0.4389790296554565 0.4409139752388000
vn 0.6087311963355438 -0.0968424354340511 0.7874438858147921
v 0.1131590008735657 0.3850140571594238 0.5158569812774658
vn 0.3949813458122301 -0.4792603972164973 0.7837724211276158
v 0.0941670015454292 0.1965120434761047 0.4479180276393890
vn 0.5315697281649493 0.3273907260596800 0.7811843166556517
v 0.2727380394935608 0.5473759770393372 0.3784799873828888
vn 0.6180680178586481 -0.2051412197834635 0.7588866880147750
v 0.2755039983006825 0.3214570776216377 0.3858696187937420
vn 0.9032509167928346 -0.0705469309621428 0.4232740387086437
v 0.4275080263614655 0.4285050332546234 0.2043739706277847
vn 0.8482023173734530 0.2368063440457945 0.4737885437850613
v 0.4615160226821899 0.5805799961090088 0.1382899731397629
vn 0.1439232849693766 -0.2376446368038459 0.9606305817753210
v 0.1002770066261292 0.1055610328912735 0.3470360040664673
vn 0.2508024240901532 0.1036698935496266 0.9624711409917245
v 0.1946980208158493 0.1336680501699448 0.3134720027446747
vn -0.1207056865367108 0.2267610101192492 0.9664417113967086
v 0.1284730136394501 0.0238300282508135 0.3517940044403076
vn -0.1305801083279520 0.4125002577682136 0.9015499834452985
v 0.2739750444889069 0.0284460335969925 0.4324209988117218
vn 0.2412057541428618 0.6804134254941266 0.6919951983762039
v 0.3410110175609589 0.1104600355029106 0.3526880145072937
vn 0.7675576593186366 0.2233615238747806 0.6008035196914473
v 0.3671810030937195 0.2077680081129074 0.2282730042934418
vn 0.7223295117034599 0.5491656804721070 0.4203059979513126
v 0.4887290000915527 0.0858760327100754 0.2646479904651642
vn 0.5861709764143157 0.2113559064970200 0.7821331518343348
v 0.4346149861812592 0.0050480286590755 0.3824349939823151
vn 0.9952038529803621 -0.0963912413153462 0.0166739200768269
v 0.4869540333747864 0.3911160230636597 -0.0334910340607166
vn 0.9197022281700981 0.3843950861829571 0.0799263987513122
v 0.4333980381488800 0.1945820003747940 0.0741999819874763
vn 0.9770961225629207 -0.1638124637499461 0.1358257854484138
v 0.4682410061359406 0.5625230073928833 0.0216719582676888
vn 0.9003246414993525 0.0049256958866374 0.4351910815137353
v 0.5328080058097839 -0.0470229797065258 0.2711650431156158
vn -0.0133674350840424 -0.1356133552342638 -0.9906716557777250
v -0.0001500000216765 0.1175949722528458 -0.3962500393390656
vn 0.3661171525393497 0.0129484702024402 -0.9304786766691083
v 0.2056460082530975 0.1313779801130295 -0.3460980057716370
vn 0.1228346602154136 0.2329825707953241 -0.9646920586152690
v 0.1316969990730286 -0.1540270447731018 -0.4437220394611359
vn 0.5130903031686647 0.2238506304864026 -0.8286309407843324
v 0.2697319984436035 -0.0416780337691307 -0.3876569867134094
vn 0.8405400170755284 0.0454249248619099 -0.5398416952181075
v 0.4039220213890076 0.1598329991102219 -0.2052260190248489
vn 0.4416422544490411 -0.2474823100565810 -0.8623831081916126
v 0.2348469942808151 0.2546019554138184 -0.3989370167255402
vn 0.8303385861018282 0.1213341806068404 -0.5438895559273805
v 0.4654920399188995 -0.0415910184383392 -0.1777170151472092
vn 0.8911467363850505 0.3566017384507841 -0.2805221815902477
v 0.5210189819335938 0.0484779998660088 -0.0426950044929981
vn 0.9437207878985523 -0.1396784208235631 -0.2998016231516625
v 0.5530720353126526 -0.0842910036444664 -0.0333859957754612
vn -0.0015197863421609 0.8718966410525364 0.4896875918080617
v -0.0045910002663732 0.8485690355300903 0.1979419440031052
vn -0.2323949562825558 0.6426124021394444 0.7300971749780997
v -0.1128410100936890 0.7173870801925659 0.3442799448966980
vn 0.0206501436283201 0.9984974044562157 0.0507592835088322
v 0.0041519999504089 0.9032289981842041 -0.0205440688878298
vn -0.2525566472030458 0.8838877068123445 0.3936466203329722
v -0.1796060204505920 0.8439200520515442 0.1738519519567490
vn 0.2669746823914584 0.8445283533194884 0.4642158758610622
v 0.1811840087175369 0.8434050083160400 0.1735089570283890
vn -0.0836115293574570 0.9917169174616669 0.0975021424320333
v 0.1905480027198792 0.8783550262451172 -0.0210760682821274
vn 0.5256434048072265 0.6094291710730870 0.5935445193309733
v 0.2930390238761902 0.7183679938316345 0.2387169450521469
vn 0.1031689964326974 0.8480551352763352 0.5197678767551018
v 0.2549439966678619 0.8433049917221069 0.0843559429049492
vn -0.2408490726941585 0.9660318596557301 0.0936705413268002
v 0.3105759918689728 0.9488660693168640 -0.0665090754628181
vn 0.4245455454729668 0.5193715770260980 0.7416294524872141
v 0.3431000411510468 0.7644410133361816 0.1339919418096542
vn 0.0975393039475474 0.8029167172118188 0.5880568249814161
v 0.3246770203113556 0.8980540037155151 0.0375459380447865
vn 0.1203505799798113 0.8573571182371700 -0.5004543033150763
v -0.2219650149345398 0.8433110117912292 -0.2033980786800385
vn -0.0226189963115245 0.9538559263000617 -0.2994115109145117
v 0.0010010001715273 0.8724709749221802 -0.1987160742282867
vn 0.0013120743449308 0.8120986251572180 -0.5835187241885814
v 0.0006239999784157 0.8263499736785889 -0.2828730642795563
vn 0.1550323009867483 0.9862149540833260 0.0578364071600003
v -0.1889590173959732 0.8793940544128418 -0.0250640697777271
vn -0.1566735304998693 0.9103068806745135 -0.3831380793360840
v 0.2143040001392365 0.8463790416717529 -0.1960880607366562
vn 0.0737343812849293 0.6319402062643351 -0.7715016634610182
v 0.2569409906864166 0.7983750700950623 -0.2676120698451996
vn 0.4818677055259870 0.6318006643896430 0.6071502572246233
v 0.4268480241298676 0.8773170113563538 0.0229979325085878
vn 0.8112383930597475 0.0980983095139768 0.5764277849794704
v 0.4505420327186584 0.6620219945907593 0.1051939502358437
vn 0.7015484597697546 0.2372284971507407 0.6719764867421225
v 0.4911099970340729 0.7774790525436401 0.0451959408819675
vn 0.8985246775048671 -0.3332555605638058 -0.2856468716231247
v 0.4545540213584900 0.5697960853576660 -0.1951020509004593
vn 0.9128796045229036 -0.3764687088316002 0.1578674726369399
v 0.5296650528907776 0.6246250867843628 -0.0378690510988235
vn 0.9514731193381796 0.2988780890530142 0.0732856811450424
v 0.5699459910392761 0.7709559798240662 -0.0669900700449944
vn -0.1196070686156207 0.7008043777753840 -0.7032548423068520
v 0.3129180371761322 0.8986110687255859 -0.2167860865592957
vn 0.3179049392135085 0.2800838486283345 -0.9058087476731475
v 0.3578949868679047 0.6757000088691711 -0.3051050901412964
vn 0.1741969557461135 0.2792426940272895 -0.9442875295381001
v 0.3499640226364136 0.7897340655326843 -0.2655380666255951
vn 0.4686552765953481 0.8832524837032574 0.0150758665211977
v 0.4922370016574860 0.9064890742301941 -0.0944040715694427
vn 0.4802462199708178 0.5164197658548914 -0.7089952000106347
v 0.4253150224685669 0.8664580583572388 -0.2288890630006790
vn 0.7584715538582745 -0.0087986400070861 -0.6516467493372774
v 0.5118830204010010 0.7348890304565430 -0.2186690568923950
vn 0.6481454296121577 -0.0476333363832608 -0.7600253728250596
v 0.4396340250968933 0.6754760742187500 -0.2551120519638062
vn 0.7827419277919059 -0.0733311837393054 -0.6180110128209716
v 0.4231400191783905 0.5275330543518066 -0.2608100175857544
vn 0.8138236121737062 -0.4057734293807084 -0.4159796296420780
v 0.5063329935073853 0.6143370270729065 -0.1538520455360413
vn -0.2617970892935594 0.3260431074368145 -0.9083821751500665
v -0.1745229959487915 0.6797630190849304 -0.3737430870532990
vn 0.0032886161515578 0.5234135804334941 -0.8520724199395249
v -0.0001400000037393 0.7146650552749634 -0.3899380564689636
vn -0.0012763311424904 0.1859568110432824 -0.9825570901507086
v -0.0006970000104047 0.5207679867744446 -0.4520410299301147
vn -0.3875585701749727 0.0984232000669205 -0.9165758170345308
v -0.2475019991397858 0.5233070254325867 -0.4028520584106445
vn 0.0004814362714112 -0.1372223918104162 -0.9905401472958807
v -0.0015699999639764 0.2453969717025757 -0.4459870159626007
vn -0.1623203777355332 0.4726419095676427 -0.8661764948854512
v -0.3241060078144073 0.7662400603294373 -0.2925180792808533
vn 0.2351674677047576 0.3995409132163167 -0.8860379906074024
v 0.1695440113544464 0.6789430379867554 -0.3754640519618988
vn 0.3720873485838270 0.0953488820956835 -0.9232873852203121
v 0.2452140152454376 0.5274659395217896 -0.4029620587825775
vn -0.5167279937614414 0.3456041184868414 0.7832943085125852
v -0.1466070115566254 0.5232680439949036 0.4305319786071777
vn -0.5514685066210093 0.3267693072602724 0.7675313062265510
v -0.2731390297412872 0.5449060797691345 0.3796409964561462
vn -0.5151206831601459 -0.2529765862736032 0.8189343860029195
v -0.1657090187072754 0.3247230350971222 0.4311859905719757
vn -0.5878677875336151 -0.0800907087133973 0.8049825729530534
v -0.1301256687456902 0.3977457723685890 0.4955045366185210
vn -0.3313295424821370 -0.5192524155155369 0.7877802125338375
v -0.0932620018720627 0.1961880326271057 0.4482310116291046
vn -0.3772802502283282 0.4312998751802689 0.8195364729266993
v -0.0751380026340485 0.5028660893440247 0.5250119566917419
vn -0.0285358506423251 -0.1461264709344129 0.9888542661688694
v 0.0021220000926405 0.3885730206966400 0.5604150891304016
vn -0.9066884210398388 -0.0370676204921393 0.4201691310214670
v -0.4262979924678802 0.4267800152301788 0.2073639780282974
vn -0.6214379675471376 -0.0724805299586262 0.7801034708728063
v -0.2924489974975586 0.3909240365028381 0.3835589587688446
vn -0.7234195745963085 0.1791061954637992 0.6667721423675254
v -0.3654139935970306 0.2074820250272751 0.2314590066671371
vn -0.5457028709337645 -0.3414686005105136 0.7652500058935239
v -0.2522870004177094 0.2648460268974304 0.3794939815998077
vn -0.2410434851272883 0.0811209141292960 0.9671181083862085
v -0.1939650177955627 0.1329870223999023 0.3134239912033081
vn -0.2044774352542128 -0.3330700737785720 0.9204636355799156
v -0.1021070107817650 0.1044660285115242 0.3462580144405365
vn 0.1182426541119246 0.2261760403915639 0.9668831746914212
v -0.1275260150432587 0.0206590257585049 0.3521870374679565
vn 0.0289717224849244 0.1141271674721110 0.9930436188511809
v 0.0005980000132695 -0.0796039700508118 0.4035200178623199
vn -0.9025681299399145 0.4255362792935953 0.0654953877897439
v -0.5445590019226074 0.0594090111553669 0.1065090000629425
vn -0.9027595900466938 0.0345481135106820 0.4287558167903713
v -0.5349029898643494 -0.0447729825973511 0.2686030268669128
vn -0.7031791077402718 0.5655822349343753 0.4308780314244767
v -0.4873130321502686 0.0859180316329002 0.2699960172176361
vn -0.5243389136588070 0.2257537163254348 0.8210383445298748
v -0.4369980096817017 0.0032280290033668 0.3820130228996277
vn -0.2328752350861381 0.6778077172886500 0.6973849892760281
v -0.3410920202732086 0.1135700345039368 0.3500840365886688
vn -0.9417419998610143 0.3192797131044999 0.1057472008976393
v -0.4339579939842224 0.1941690146923065 0.0733559876680374
vn 0.0839667160901766 0.4239787768627531 0.9017713609108440
v -0.2731760442256927 0.0268830358982086 0.4330720007419586
vn -0.9995927296357758 0.0158801088218466 0.0237106938554139
v -0.5751690268516541 -0.0674989968538284 0.1244690120220184
vn -0.8978763922324899 0.3434884008770211 -0.2753791980787847
v -0.5231580138206482 0.0455739945173264 -0.0420540086925030
vn -0.8116743718482536 0.1542529578952438 -0.5633744217350579
v -0.4680370092391968 -0.0456130169332027 -0.1773020029067993
vn -0.8401412165248265 0.0465116425411302 -0.5403696914190419
v -0.4036550223827362 0.1597249954938889 -0.2068240344524384
vn -0.1168720942783926 0.8501271658766004 0.5134439749550107
v -0.2575399875640869 0.8430780172348022 0.0822929367423058
vn -0.4277517869340462 0.5539226478145785 0.7142815334395932
v -0.3478940427303314 0.7601600885391235 0.1346249431371689
vn -0.9481102551163464 0.2458897750629228 0.2015568472236105
v -0.5710099935531616 0.7710340619087219 -0.0688640698790550
vn -0.4841101511336867 0.6272164503130336 0.6101121913435567
v -0.4288070201873779 0.8768929839134216 0.0230059325695038
vn -0.5822712397870851 0.8129934554640982 -0.0013581934164973
v -0.4912060201168060 0.9086719751358032 -0.0943080708384514
vn -0.7116886258331012 0.2399227724570527 0.6602547713695930
v -0.4924420714378357 0.7753210067749023 0.0456919446587563
vn -0.8314520088738541 0.0619608771424468 0.5521307876249715
v -0.4600191206240809 0.6326813199135398 0.1056986571426386
vn -0.0245324651606300 0.8107805231251871 0.5848359611668817
v -0.3245609998703003 0.8955950140953064 0.0405999347567558
vn 0.0423371273990443 0.9988602159031279 -0.0220417043250655
v -0.3171429932117462 0.9506220817565918 -0.0692510828375816
vn -0.9245174596467597 -0.3511619824225868 0.1481645332370090
v -0.5298349857330322 0.6261079907417297 -0.0327310524880886
vn -0.9945201824588409 -0.0949395922834925 -0.0437730567710101
v -0.4877690374851227 0.3949790298938751 -0.0325670279562473
vn -0.9587434781955240 -0.2318107889267310 0.1645439186196670
v -0.4692110419273376 0.5628989934921265 0.0198699571192265
vn -0.3442662457576902 0.6671051187415850 -0.6606447703423387
v -0.4206959903240204 0.8686010241508484 -0.2280430793762207
vn -0.7836761249448402 0.0306848228542844 -0.6204112932868329
v -0.5110160708427429 0.7365110516548157 -0.2205230593681335
vn -0.4761161555503292 0.1480411792499264 -0.8668317112740315
v -0.3464500308036804 0.6113190650939941 -0.3185080587863922
vn 0.2630460063098565 0.7781193628652262 -0.5703832533469487
v -0.3138970136642456 0.8992630839347839 -0.2168140858411789
vn -0.7893097900721877 -0.1221942395226260 -0.6017130737516727
v -0.4232230186462402 0.5261830687522888 -0.2606490254402161
vn -0.9289211635920117 -0.3061659414692502 -0.2082495813083687
v -0.4663829055822618 0.5798308397736834 -0.1787739462471394
vn -0.4411620809622409 -0.2468939813207861 -0.8627974155667346
v -0.2347390055656433 0.2546510100364685 -0.3998700678348541
vn -0.4276021061711172 0.2308898663064962 -0.8739830138137656
v -0.2726339995861053 -0.0521610304713249 -0.3899820148944855
vn -0.4136240688194056 -0.0532922848267927 -0.9088867157524196
v -0.2044420093297958 0.1299869716167450 -0.3474230170249939
vn -0.1230217064733638 0.0325799463689683 0.9918690472189242
v -0.1331889927387238 -0.1858169883489609 0.3777760267257690
vn 0.0016577802381484 0.1082888777355555 0.9941180869109343
v 0.0003119999892078 -0.1941459774971008 0.3991490006446838
vn -0.0187083626979997 0.1153330007019772 0.9931506915439560
v -0.0013690000632778 -0.3327249586582184 0.4352140426635742
vn 0.1310255621052868 0.0535905609954955 0.9899294691275645
v 0.1321610212326050 -0.1839019656181335 0.3773970305919647
vn 0.0948362390371627 0.2773970688972733 0.9560632583320455
v 0.1686100214719772 -0.4095539748668671 0.3920110166072845
vn -0.3994222476497064 -0.0859647820008393 0.9127277383415082
v 0.1938289999961853 -0.0659819766879082 0.4096890091896057
vn 0.1854611224168283 -0.1694799525863177 0.9679259877404005
v 0.2157530039548874 -0.2583959698677063 0.3441310226917267
vn 0.0650317015239280 -0.0605975254169208 0.9960415742880657
v 0.2895760238170624 -0.0770209655165672 0.4501060247421265
vn -0.0381193732721364 -0.5354382060643496 0.8437137197343246
v 0.2838039994239807 -0.1977859884500504 0.4147970676422119
vn 0.3160816247973605 0.6396770514103055 0.7006466130400389
v 0.3281419873237610 -0.3588659763336182 0.3207840323448181
vn -0.2883050210548199 0.6123373112921316 0.7361543534029417
v 0.2429129928350449 -0.4374679923057556 0.4687350690364838
vn 0.6148883545428956 -0.4526512708331251 0.6457701901301169
v 0.3589400053024292 -0.2787419557571411 0.2807760238647461
vn 0.2610389464373502 0.7656548572991689 0.5879041656061532
v 0.4095780253410339 -0.4127520024776459 0.4409460723400116
vn 0.5391216945308356 -0.3973358501265682 0.7426116217043722
v 0.4282880425453186 -0.1697099804878235 0.3744930028915405
vn 0.7066209986964307 0.5771135454184592 0.4094224223168476
v 0.4378982568959807 -0.3687248406220894 0.2136470587036578
vn 0.9655759581888478 -0.1872937736149783 0.1805106958956996
v 0.4895940124988556 -0.2643080055713654 0.0761870220303535
vn 0.7717262826224867 -0.3835119572550707 0.5073037781764125
v 0.4953110218048096 -0.1495119929313660 0.2946569919586182
vn 0.7493546747082762 0.5709878225296900 0.3353214547500005
v 0.5276859998703003 -0.4649940133094788 0.4158620536327362
vn 0.8682407249913321 -0.4585553670665830 0.1894334152174781
v 0.5251790285110474 -0.2121869921684265 0.1497660279273987
vn 0.9177524341035010 0.3948873242734315 0.0423611948045457
v 0.5307970643043518 -0.4322260320186615 0.0407230332493782
vn 0.9387259392275377 0.3422463036600448 -0.0407563326663940
v 0.5932009816169739 -0.5110359787940979 0.2179230600595474
vn 0.9324639383367340 0.1069773512351503 -0.3450606468785724
v 0.4900290369987488 -0.4862060546875000 -0.2289799749851227
vn 0.9721434674198088 -0.0680284194484324 -0.2242971531258015
v 0.4782829880714417 -0.1881820261478424 -0.1316779851913452
vn 0.9221326370312793 -0.1064360237134084 -0.3719445826703457
v 0.4898050129413605 -0.1372150182723999 -0.1348759979009628
vn 0.9756624118562974 0.2109372808144951 0.0599026013904193
v 0.5721495704984579 -0.0193625813823776 0.1251764793380418
vn -0.4795844538825793 0.0543449651712091 0.8758112675426643
v 0.1899610161781311 -0.6400629878044128 0.5163451433181763
vn 0.1451753341946809 -0.1037656655374394 0.9839495967767022
v 0.4005660116672516 -0.6636769175529480 0.5461010336875916
vn -0.0493085608966612 -0.7487366037927284 0.6610311369090196
v 0.3115229904651642 -0.8693869709968567 0.4816830754280090
vn 0.3370233285170241 -0.4336333361179566 0.8356897784719622
v 0.4378760159015656 -0.8302080035209656 0.4916540980339050
vn 0.0679689366507691 0.3642939201656891 0.9288003894168425
v 0.3630266418246247 -0.5084984172783557 0.5177589101548428
vn 0.8024705208348241 -0.3589086425884607 0.4766819164457519
v 0.5678980350494385 -0.7639279365539551 0.4246370494365692
vn 0.5456656267977911 0.2233531220008337 0.8076895484181125
v 0.5078333690416436 -0.5819901711577550 0.4955213181331352
vn 0.8917060313133338 0.1193608810386824 0.4365928696132054
v 0.5883240103721619 -0.6318229436874390 0.3998870551586151
vn 0.9943243210221296 -0.0075621279182765 0.1061223767413297
v 0.6167630553245544 -0.6466040015220642 0.2983300685882568
vn 0.3911115652042566 -0.9122904295176218 -0.1214821623697473
v 0.4410980343818665 -0.9174240231513977 0.1373270899057388
vn 0.8165746219241589 -0.5666301613334086 -0.1101641824582389
v 0.5522490739822388 -0.8158720731735229 0.1237540617585182
vn 0.4374486019388709 -0.8865579871645440 0.1505113153768827
v 0.4435999989509583 -0.9173889756202698 0.3379620611667633
vn 0.3995882125202561 -0.7811047803999858 0.4797963968717947
v 0.4545760154724121 -0.8931009769439697 0.4285660982131958
vn 0.9718926527286225 -0.0944672192923142 -0.2156400149584929
v 0.5981749892234802 -0.6678640842437744 0.0714710503816605
vn 0.2704097220597617 0.0463490261805672 0.9616290084994709
v -0.1167519986629486 -0.5794510245323181 0.4231530725955963
vn -0.3672526963487684 -0.3982389537941330 0.8405540986191868
v 0.1075210049748421 -0.7564920186996460 0.3886320590972900
vn -0.4528801537714027 0.1250900239257941 0.8827525430347029
v 0.1156010106205940 -0.5794459581375122 0.4233530163764954
vn -0.4944824489602889 -0.4814805631811540 0.7236460287661323
v 0.2129450142383575 -0.8213469982147217 0.4869021177291870
vn -0.3746387174115265 -0.8920242119677182 0.2528609038179245
v 0.2175389975309372 -0.9260420799255371 0.3298900723457336
vn 0.0426552200177738 -0.9841915873978753 0.1718937215272440
v 0.3150849938392639 -0.9395460486412048 0.3294100761413574
vn -0.3469089733536216 -0.8161679931976106 0.4620865406896432
v 0.1387460082769394 -0.8681910634040833 0.2989400923252106
vn 0.2958262863378235 -0.8046924223333121 0.5147396562835611
v -0.1379870176315308 -0.8677380681037903 0.2988400459289551
vn 0.0064751591972339 -0.9625542897849045 0.2710116446392082
v -0.0014250000240281 -0.9071320295333862 0.2237920910120010
vn -0.1463157059966252 -0.9853482683729134 0.0876384857993920
v 0.1556040048599243 -0.9027600288391113 0.1800540685653687
vn -0.0134043630059292 -0.9854706702112513 -0.1693159213003678
v 0.3091349899768829 -0.9400170445442200 0.1191410794854164
vn 0.2506743347195557 0.0328702122700403 -0.9675132697065351
v 0.2105350196361542 -0.5836370587348938 -0.4995230138301849
vn 0.5892124797368502 0.1713054106701177 -0.7896094667603056
v 0.3088389933109283 -0.2178640365600586 -0.4011510014533997
vn 0.6907389327090200 0.0710535040140665 -0.7196048404557372
v 0.3825950026512146 -0.5022010803222656 -0.4001660048961639
vn 0.8587588648046882 0.1005229805333984 -0.5024224741231678
v 0.4283300042152405 -0.3291020393371582 -0.2975679934024811
vn 0.7897988037693378 -0.1076723009819074 -0.6038414735390280
v 0.4538150131702423 -0.5769840478897095 -0.3194279968738556
vn -0.0072260729803776 0.1715964814117547 -0.9851408180744454
v -0.0006419999990612 -0.3313710391521454 -0.5090600848197937
vn 0.1921201870209135 0.2359591429960361 -0.9525823411000360
v 0.0710899978876114 -0.6446611285209656 -0.4996709823608398
vn 0.6296364274078334 -0.4000548250215532 -0.6659685474991101
v 0.1351610124111176 -0.7649210691452026 -0.4486879408359528
vn 0.5790908371376928 -0.4470427942034791 -0.6817672201667605
v 0.0994279980659485 -0.7924041152000427 -0.5053479671478271
vn 0.4063001760341263 -0.2768663033026845 -0.8707842540205604
v 0.2699980139732361 -0.6898230314254761 -0.4605539739131927
vn 0.2853523781402559 -0.6559439223134966 -0.6987929529336182
v 0.2536340057849884 -0.8044070601463318 -0.4076599478721619
vn 0.6095911640587945 -0.4150471483584140 -0.6753772851828765
v 0.3214190006256104 -0.7416921257972717 -0.3985659480094910
vn 0.7978872720950378 -0.4305396715436516 -0.4219140816040909
v 0.4403210282325745 -0.7683309912681580 -0.2673139572143555
vn 0.0148912070004835 -0.9962932786909289 0.0847228115052122
v -0.0024540002923459 -0.9515340328216553 0.0080640725791454
vn 0.0974432626942638 -0.9944380801036278 -0.0399714322398808
v 0.3109610080718994 -0.9139010310173035 0.0350040718913078
vn 0.1864840620758560 -0.9801805805593352 -0.0668559951392038
v 0.2728940248489380 -0.9302620887756348 -0.0452139340341091
vn 0.4614057627030633 -0.8572032908127678 -0.2287077619237393
v 0.4652400314807892 -0.8628150224685669 0.0153700662776828
vn 0.4432301124614824 -0.8012464086092739 -0.4019343977543126
v 0.3131590187549591 -0.8726360797882080 -0.2719289362430573
vn -0.0500648718998410 -0.9566766890008609 -0.2868156573899034
v -0.1596989929676056 -0.9171910285949707 -0.2533119320869446
vn 0.1194639128453710 -0.9245723973978592 -0.3617931114568779
v 0.1630300134420395 -0.9162780046463013 -0.2555999755859375
vn 0.4464272884765824 -0.8572015112141330 -0.2567260120744543
v 0.0616470016539097 -0.8608300685882568 -0.4405909776687622
vn 0.2826847362291280 -0.9015615032971306 -0.3275304499976858
v 0.0776620060205460 -0.8530450463294983 -0.3767619729042053
vn -0.5663024429059133 -0.3653333116220907 0.7388051939300585
v -0.4299230277538300 -0.1681299805641174 0.3744759857654572
vn -0.0453734759368175 -0.5503406072767821 0.8337064613301456
v -0.2837410271167755 -0.1969059854745865 0.4155150353908539
vn -0.1533169509700569 -0.1962238776478911 0.9684988912673420
v -0.2114820182323456 -0.2534769773483276 0.3451950252056122
vn 0.1081915899192330 -0.1030892552832446 0.9887705422978046
v -0.2496810064222192 -0.0699983522072273 0.4390207294926762
vn -0.1354770784388590 0.3333047802062722 0.9330347714363705
v -0.1693899929523468 -0.4080159962177277 0.3910980224609375
vn -0.8357709958337988 -0.5080247027082603 0.2083212518231497
v -0.5238690376281738 -0.2158560007810593 0.1515940278768539
vn -0.7268897191395561 0.5773702530143149 0.3718533677989257
v -0.5293999910354614 -0.4661070108413696 0.4166590273380280
vn -0.2518594408480185 0.7801140110065676 0.5727031970287648
v -0.4070370197296143 -0.4122560024261475 0.4409470260143280
vn -0.7121605413767350 0.5718263326051107 0.4072370423296302
v -0.4394670426845551 -0.3702000081539154 0.2083730399608612
vn -0.5973267469045376 -0.4210177063455370 0.6826015297199279
v -0.3584490418434143 -0.2788389921188354 0.2827280163764954
vn -0.3231359235959396 0.6369736282505829 0.6998912571214810
v -0.3298190236091614 -0.3587789833545685 0.3206260502338409
vn 0.2916126684803373 0.6177354512157387 0.7303183989829810
v -0.2435829937458038 -0.4369039833545685 0.4682010412216187
vn -0.9329166394231914 0.3600923260559442 -0.0002461766824386
v -0.5945990085601807 -0.5114809870719910 0.2204210609197617
vn -0.9261507691935721 0.3771530206620587 0.0005930663027235
v -0.5316259860992432 -0.4321509897708893 0.0416710339486599
vn -0.9644206427151176 -0.1906008755523600 0.1832051586163259
v -0.4910590350627899 -0.2639119923114777 0.0742300227284431
vn -0.9898391697062889 -0.0338525227126103 -0.1381029500812962
v -0.4819549918174744 -0.2207840085029602 -0.0757049918174744
vn -0.9580423012340186 0.2324924030417421 -0.1676372022377556
v -0.5117300152778625 -0.5117189884185791 -0.1479489505290985
vn -0.9558626893585773 -0.1716039718346022 -0.2384923393796479
v -0.5523629784584045 -0.0868020057678223 -0.0393779948353767
vn -0.9339194167177695 0.0748056816967644 -0.3495692106914220
v -0.4899780154228210 -0.4821460545063019 -0.2319529652595520
vn -0.8702791610575963 0.0715527595734878 -0.4873339557493454
v -0.4497599899768829 -0.2672180235385895 -0.2504709661006927
vn -0.4238294017241826 0.3447184489592453 0.8375785510513349
v -0.4888380169868469 -0.5434689521789551 0.4910150170326233
vn -0.1307366026553186 -0.0624607457872361 0.9894476216363591
v -0.4037430286407471 -0.6615809202194214 0.5454770326614380
vn -0.0535216238872714 0.3792393197850988 0.9237494108823047
v -0.3566728360379448 -0.5008816449723973 0.5158673910755481
vn 0.4787299208815882 0.0564373546125036 0.8761463849477730
v -0.1918310075998306 -0.6382139921188354 0.5171540975570679
vn -0.8335352444118108 -0.4352077555148513 0.3403133935992944
v -0.5675349831581116 -0.7665399312973022 0.4252510666847229
vn -0.6979245793482826 -0.0179208500208709 0.7159470124779154
v -0.5470157715452331 -0.6220310597376982 0.4698871783210629
vn -0.5167346925826052 -0.8523114336789419 0.0809350202428289
v -0.4425870180130005 -0.9228339791297913 0.3235150575637817
vn -0.4005413748642362 -0.7159394678137547 0.5718367646876379
v -0.4542980194091797 -0.8922039866447449 0.4312920868396759
vn -0.3822293848182466 -0.3981487353799963 0.8338934475679579
v -0.4365569949150085 -0.8298270106315613 0.4927631020545959
vn 0.0777651793380430 -0.6835817739205307 0.7257193226352614
v -0.3122639954090118 -0.8674329519271851 0.4834861159324646
vn 0.4914879708472230 -0.4805552883240520 0.7262962132465419
v -0.2149050086736679 -0.8231519460678101 0.4865590929985046
vn 0.5084054451561220 -0.3695717504245332 0.7777792904312586
v -0.1072790026664734 -0.7562960386276245 0.3882750868797302
vn 0.3726995456333350 -0.8927756999239207 0.2530742940522789
v -0.2143160104751587 -0.9243310093879700 0.3285080790519714
vn 0.0726251261032835 -0.9966705143775597 0.0370604483088493
v -0.1755540072917938 -0.9150450229644775 0.1293540745973587
vn -0.0182567729156806 -0.9813309715261158 0.1914581274490978
v -0.3096140027046204 -0.9393260478973389 0.3365520834922791
vn 0.0298518382183709 -0.9701131770717669 -0.2408096580843611
v -0.3084260225296021 -0.9404780864715576 0.1219760775566101
vn -0.9810104956816067 0.0333456496404892 -0.1910666768763783
v -0.6006230115890503 -0.6642339825630188 0.0759510546922684
vn -0.9889480316252951 -0.0064276691317029 0.1481231778419156
v -0.6179610490798950 -0.6476650238037109 0.2978380918502808
vn -0.8206422126039071 -0.5624347649463864 -0.1010618329156295
v -0.5531939864158630 -0.8163570165634155 0.1254790574312210
vn -0.8642259153005801 -0.3840291456569650 -0.3250156651745514
v -0.5335509777069092 -0.7580810189247131 -0.0516659431159496
vn -0.4570581550589857 -0.8401671044232166 -0.2919196456889874
v -0.4683200418949127 -0.8633459806442261 0.0205080658197403
vn -0.3785709673636202 -0.9165748822997247 -0.1287420203609477
v -0.4408259987831116 -0.9177089929580688 0.1382180750370026
vn -0.7661987231913039 -0.4133398704435953 -0.4920260847573913
v -0.4416240155696869 -0.7658650875091553 -0.2687699794769287
vn -0.7066587521599242 0.0063362057019146 -0.7075261553420353
v -0.3803670406341553 -0.4952080547809601 -0.4027999937534332
vn -0.5957790261968131 0.1709232789098299 -0.7847500141259569
v -0.3141220211982727 -0.2345200330018997 -0.4019419848918915
vn -0.2405148047944612 -0.0293569671584802 -0.9702014209193565
v -0.2088209986686707 -0.5829800367355347 -0.5005189180374146
vn -0.4550395135174972 -0.3688146437978295 -0.8105028066934991
v -0.3040170371532440 -0.7438971400260925 -0.4148079752922058
vn -0.4965040263691562 0.1357543221237975 -0.8573532036587515
v -0.1070750057697296 -0.6776620745658875 -0.4896489381790161
vn -0.2291140306341204 0.5802501314007501 -0.7815475327681608
v -0.0600270032882690 -0.6655090451240540 -0.5325710177421570
vn -0.6415117647843778 0.0607114769833811 -0.7647069845409610
v -0.0854109972715378 -0.7136651277542114 -0.5354799628257751
vn 0.5080415610360725 0.2457242020450795 -0.8255382418697147
v 0.0709068641514588 -0.6898591110820776 -0.5412422515299240
vn -0.4435242682097441 -0.8009391292641185 -0.4022222454348425
v -0.3180900216102600 -0.8716459870338440 -0.2696909308433533
vn -0.2086875562159496 -0.9777123628117287 -0.0229791097678136
v -0.2650730311870575 -0.9319760799407959 -0.0522969327867031
vn -0.2519783212137715 -0.6734108877081116 -0.6949997855787170
v -0.2508049905300140 -0.8043401241302490 -0.4095229804515839
vn -0.6384499270045307 -0.4067375634763354 -0.6534112374035539
v -0.1361080110073090 -0.7645940780639648 -0.4491459727287292
vn -0.3108228821310181 -0.8554350602475485 -0.4142704353958177
v -0.0810069963335991 -0.8515440225601196 -0.3787119388580322
vn -0.5761188325146384 -0.4751331877213303 -0.6650831111580994
v -0.1016959995031357 -0.7936630845069885 -0.5027299523353577
vn -0.4623087499736079 -0.8499410052942715 -0.2527269420089658
v -0.0668999999761581 -0.8590751290321350 -0.4408089816570282
vn 0.0182266106546078 -0.9850964964025963 -0.1710341586916916
v -0.0007140000234358 -0.8755620718002319 -0.3608899712562561
vn -0.0296727916482289 -0.2048181008498975 -0.9783501781060000
v -0.0002470000181347 -0.7629280686378479 -0.5554310083389282
vn -0.0067157440333570 -0.7854262099056163 -0.6189188699461159
v 0.0005389999714680 -0.8265100717544556 -0.5173659920692444
# 252 vertices, 0 vertices normals


usemtl material_0
vt 0.6974160075187683 0.2457770109176636
vt 0.7457739710807800 0.2686060070991516
vt 0.7162950038909912 0.2925059795379639
f 228/1/228 229/2/229 204/3/204
vt 0.7562360167503357 0.3237769603729248
f 204/3/204 229/2/229 198/4/198
vt 0.7215440273284912 0.2138960361480713
vt 0.7849709987640381 0.2498199939727783
f 229/2/229 230/5/230 216/6/216
f 228/1/228 230/5/230 229/2/229
vt 0.7672920227050781 0.2832009792327881
f 229/2/229 216/6/216 217/7/217
f 229/2/229 217/7/217 198/4/198
vt 0.6767749786376953 0.2100999951362610
f 230/5/230 228/1/228 231/8/231
vt 0.7331609725952148 0.2093390226364136
vt 0.6872400045394897 0.2093390226364136
vt 0.7338410019874573 0.1654210090637207
f 95/9/95 209/10/209 197/11/197
vt 0.9261590242385864 0.8611119985580444
vt 0.8777920007705688 0.8949790000915527
vt 0.9301549792289734 0.8039510250091553
f 204/12/204 198/13/198 205/14/205
vt 0.6671900153160095 0.2959719896316528
f 204/3/204 205/15/205 228/1/228
vt 0.5942010283470154 0.9901369810104370
vt 0.5696700215339661 0.9563729763031006
vt 0.6218730211257935 0.9665920138359070
f 95/16/95 89/17/89 88/18/88
vt 0.5174220204353333 0.9288820028305054
vt 0.5131170153617859 0.9780849814414978
vt 0.4664050042629242 0.9318569898605347
f 101/19/101 103/20/103 112/21/112
vt 0.7145980000495911 0.0794820189476013
vt 0.7211909890174866 0.1364229917526245
vt 0.6889200210571289 0.1175519824028015
f 95/22/95 96/23/96 209/24/209
vt 0.5654489994049072 0.9222319722175598
vt 0.5654489994049072 0.9733359813690186
vt 0.5180960297584534 0.9258980154991150
f 101/25/101 112/26/112 108/27/108
vt 0.6310799717903137 0.2621110081672668
f 228/1/228 205/15/205 208/28/208
vt 0.6942459940910339 0.9787219762802124
vt 0.6529020071029663 0.9860119819641113
vt 0.6764060258865356 0.9455590248107910
f 101/29/101 108/30/108 104/31/104
vt 0.8808190226554871 0.5955269932746887
vt 0.9500520229339600 0.5955269932746887
vt 0.9263989925384521 0.6209779977798462
f 216/32/216 218/33/218 219/34/219
vt 0.6818569898605347 0.1630039811134338
f 209/24/209 96/23/96 97/35/97
vt 0.7747169733047485 0.2054749727249146
f 95/9/95 197/11/197 89/36/89
vt 0.5933859944343567 0.8569139838218689
vt 0.4934740066528320 0.8465309739112854
vt 0.5563259720802307 0.7927250266075134
f 216/37/216 230/38/230 218/39/218
vt 0.8188639879226685 0.7433800101280212
vt 0.8215010166168213 0.7868189811706543
vt 0.7722049951553345 0.7937470078468323
f 95/40/95 88/41/88 96/42/96
vt 0.6077950000762939 0.2499520182609558
f 228/1/228 208/28/208 210/43/210
vt 0.5222290158271790 0.9636549949645996
f 108/27/108 112/26/112 116/44/116
vt 0.7100250124931335 0.1533709764480591
f 209/10/209 206/45/206 197/11/197
vt 0.1188789978623390 0.7864180207252502
vt 0.1786739975214005 0.7163140177726746
vt 0.1964550018310547 0.7864180207252502
f 197/46/197 192/47/192 89/48/89
vt 0.1327279955148697 0.6452490091323853
vt 0.1295270025730133 0.5987499952316284
vt 0.1733759939670563 0.5923629999160767
f 88/49/88 89/50/89 90/51/90
vt 0.4059900045394897 0.2184469699859619
vt 0.3783279955387115 0.1778640151023865
vt 0.4117169976234436 0.1498460173606873
f 205/52/205 206/53/206 207/54/207
vt 0.9240040183067322 0.6213150024414062
vt 0.8355479836463928 0.6213150024414062
vt 0.8782330155372620 0.5962089896202087
f 219/55/219 217/56/217 216/57/216
vt 0.0513469763100147 0.7148785591125488
vt 0.0443499982357025 0.6854130029678345
vt 0.0763840004801750 0.6703950166702271
f 217/58/217 212/59/212 198/60/198
f 228/1/228 210/43/210 231/8/231
vt 0.8177109956741333 0.8453029990196228
vt 0.8781089782714844 0.7988489866256714
f 93/61/93 88/41/88 90/62/90
vt 0.2942019999027252 0.0419290065765381
vt 0.2741790115833282 0.0608639717102051
vt 0.2057490050792694 0.0425279736518860
f 219/63/219 220/64/220 217/65/217
vt 0.6702449917793274 0.1699309945106506
f 209/10/209 207/66/207 206/45/206
vt 0.2586750090122223 0.6092950105667114
vt 0.2830390036106110 0.5492519736289978
vt 0.3103739917278290 0.5999339818954468
f 231/67/231 210/68/210 234/69/234
vt 0.4635570049285889 0.2159650325775146
f 208/70/208 205/52/205 207/54/207
vt 0.2617349922657013 0.6384919881820679
f 231/67/231 234/69/234 232/71/232
vt 0.8789529800415039 0.8262919783592224
f 205/14/205 198/13/198 200/72/200
vt 0.3501270115375519 0.2189769744873047
f 206/53/206 205/52/205 200/73/200
vt 0.4325950145721436 0.8578100204467773
vt 0.4566279947757721 0.8170390129089355
f 231/74/231 232/75/232 230/38/230
vt 0.6399589776992798 0.9447060227394104
f 108/30/108 105/76/105 104/31/104
vt 0.2615779936313629 0.9519940018653870
vt 0.3417240083217621 0.9268850088119507
vt 0.3446370065212250 0.9519940018653870
f 207/77/207 210/78/210 208/79/208
vt 0.3547649979591370 0.9337090253829956
vt 0.3898769915103912 0.8911349773406982
vt 0.3992959856987000 0.9391769766807556
f 89/80/89 192/81/192 91/82/91
f 96/42/96 88/41/88 93/61/93
vt 0.4952290058135986 0.7964199781417847
f 230/38/230 233/83/233 218/39/218
vt 0.7163900136947632 0.7828860282897949
vt 0.7243689894676208 0.8541749715805054
f 97/84/97 96/42/96 98/85/98
vt 0.0525069981813431 0.6359549760818481
f 198/60/198 212/59/212 199/86/199
vt 0.2241159975528717 0.0843819975852966
vt 0.1835509985685349 0.0588399767875671
f 217/65/217 213/87/213 212/88/212
vt 0.9692597985267639 0.8192134499549866
vt 0.9608229994773865 0.7585669755935669
vt 0.9887440204620361 0.7727530002593994
f 116/89/116 110/90/110 108/91/108
vt 0.1391630023717880 0.5441650152206421
f 89/50/89 91/92/91 90/51/90
vt 0.4652580022811890 0.9809499979019165
f 103/20/103 111/93/111 112/21/112
vt 0.2846170067787170 0.9068959951400757
f 210/78/210 207/77/207 211/94/211
vt 0.6200870275497437 0.1629409790039062
f 211/95/211 207/66/207 209/10/209
vt 0.8778510093688965 0.5394110083580017
vt 0.8991134166717529 0.4840744435787201
vt 0.9311410188674927 0.5494430065155029
f 110/96/110 116/97/116 109/98/109
vt 0.0143579998984933 0.4640879631042480
vt 0.0788670033216476 0.4845080375671387
vt 0.0210289992392063 0.5115529894828796
f 109/99/109 80/100/80 110/101/110
vt 0.7256039977073669 0.1592140197753906
vt 0.7880740165710449 0.1481750011444092
vt 0.7841979861259460 0.1924769878387451
f 234/102/234 210/103/210 235/104/235
vt 0.6266909837722778 0.9771050214767456
f 108/30/108 110/105/110 105/76/105
vt 0.0196289997547865 0.9220089912414551
vt 0.0230749994516373 0.8713430166244507
vt 0.1083400025963783 0.8974109888076782
f 198/106/198 199/107/199 200/108/200
vt 0.0795840024948120 0.2359129786491394
vt 0.0333999991416931 0.3040310144424438
vt 0.0148759996518493 0.2508519887924194
f 101/109/101 102/110/102 103/111/103
f 230/38/230 232/75/232 233/83/233
vt 0.0824820026755333 0.2931219935417175
f 101/109/101 104/112/104 102/110/102
vt 0.7163479924201965 0.7255179882049561
vt 0.7597129940986633 0.6699100136756897
vt 0.7695419788360596 0.7348970174789429
f 109/113/109 98/114/98 93/115/93
vt 0.9285560250282288 0.4664310216903687
f 116/97/116 115/116/115 109/98/109
f 96/42/96 93/61/93 98/85/98
vt 0.0550870001316071 0.4157329797744751
f 93/117/93 80/100/80 109/99/109
vt 0.1664779931306839 0.4610599875450134
vt 0.1381150037050247 0.5052419900894165
vt 0.1262640058994293 0.4617647230625153
f 199/118/199 212/119/212 214/120/214
vt 0.3258320093154907 0.6305990219116211
f 232/71/232 234/69/234 243/121/243
vt 0.1807260066270828 0.5307530164718628
f 90/51/90 91/92/91 92/122/92
vt 0.6743239760398865 0.6789559721946716
f 109/113/109 115/123/115 98/114/98
f 217/65/217 220/64/220 213/87/213
vt 0.1199190020561218 0.7040929794311523
f 192/47/192 197/46/197 201/124/201
vt 0.0444911420345306 0.5318600535392761
f 110/101/110 80/100/80 105/125/105
vt 0.8589770197868347 0.4525949954986572
f 116/97/116 112/126/112 115/116/115
vt 0.6175760030746460 0.1572059988975525
f 209/24/209 97/35/97 211/127/211
vt 0.2266640067100525 0.5624930262565613
vt 0.2596729993820190 0.6045799851417542
f 90/51/90 82/128/82 93/129/93
vt 0.1272040009498596 0.3259140253067017
vt 0.0785420015454292 0.3632420301437378
f 104/112/104 105/130/105 100/131/100
f 90/51/90 92/122/92 82/128/82
vt 0.4399900138378143 0.9069420099258423
f 91/82/91 192/81/192 195/132/195
vt 0.1727660000324249 0.0891159772872925
f 212/88/212 213/87/213 214/133/214
vt 0.0000799999979790 0.1185899972915649
vt 0.0245570000261068 0.0556679964065552
vt 0.0387200005352497 0.0980449914932251
f 232/134/232 227/135/227 233/136/233
vt 0.3282299935817719 0.0651550292968750
vt 0.3857010006904602 0.1133790016174316
vt 0.2976669967174530 0.1128609776496887
f 82/137/82 80/138/80 93/139/93
vt 0.7276470065116882 0.6153100132942200
f 115/123/115 117/140/117 98/114/98
vt 0.8351489901542664 0.1574349999427795
f 235/104/235 210/103/210 211/141/211
vt 0.9297999739646912 0.4760479927062988
vt 0.9565979838371277 0.4727579951286316
vt 0.9324290156364441 0.5374310016632080
f 197/142/197 206/143/206 201/144/201
f 104/112/104 100/131/100 102/110/102
vt 0.5584899783134460 0.2849220037460327
vt 0.5951460003852844 0.2751010060310364
vt 0.5760380029678345 0.3373540043830872
f 220/145/220 219/146/219 221/147/221
vt 0.8681820034980774 0.5503649711608887
vt 0.9356510043144226 0.5722870230674744
vt 0.8677110075950623 0.5897269845008850
f 115/148/115 112/149/112 113/150/113
vt 0.3796829879283905 0.9399409890174866
vt 0.4323399960994720 0.9399409890174866
vt 0.3913480043411255 0.9839770197868347
f 103/151/103 107/152/107 111/153/111
vt 0.7717239856719971 0.7921180129051208
vt 0.7760459780693054 0.7423920035362244
vt 0.8116009831428528 0.7340790033340454
f 112/154/112 70/155/70 113/156/113
vt 0.2997719943523407 0.4300810098648071
vt 0.2369460016489029 0.4327459931373596
vt 0.2411939948797226 0.3841910362243652
f 235/157/235 238/158/238 234/159/234
vt 0.2953949868679047 0.0949530005455017
f 220/64/220 221/160/221 213/87/213
vt 0.3138250112533569 0.2024829983711243
f 200/73/200 201/161/201 206/53/206
vt 0.6429899930953979 0.2752100229263306
vt 0.6453369855880737 0.3323370218276978
f 218/162/218 226/163/226 219/146/219
vt 0.0754289999604225 0.8486809730529785
f 200/108/200 199/107/199 202/164/202
vt 0.0987479984760284 0.0860810279846191
vt 0.0940539985895157 0.0418779850006104
f 218/165/218 233/136/233 226/166/226
vt 0.0128870001062751 0.3432409763336182
f 100/131/100 106/167/106 102/110/102
vt 0.8841770291328430 0.1427509784698486
vt 0.8830220103263855 0.2059010267257690
f 97/168/97 118/169/118 211/141/211
vt 0.9017699956893921 0.3654940128326416
vt 0.9561809897422791 0.3800050020217896
vt 0.9698550105094910 0.4220910072326660
f 103/170/103 102/171/102 106/172/106
vt 0.8422459959983826 0.2018970251083374
f 235/104/235 211/141/211 236/173/236
vt 0.7334020137786865 0.7755020260810852
f 112/154/112 111/174/111 70/155/70
vt 0.1669760048389435 0.6597539782524109
f 192/47/192 201/124/201 193/175/193
vt 0.3826310038566589 0.2712309956550598
vt 0.3287819921970367 0.2240679860115051
vt 0.3956460058689117 0.2226589918136597
f 98/176/98 118/177/118 97/178/97
vt 0.7082750201225281 0.7593160271644592
f 111/174/111 114/179/114 70/155/70
vt 0.1536370068788528 0.4851629734039307
f 92/122/92 91/92/91 94/180/94
vt 0.7596529722213745 0.6130440235137939
f 98/114/98 117/140/117 119/181/119
vt 0.3257769942283630 0.2700619697570801
f 118/177/118 98/176/98 119/182/119
vt 0.4299719929695129 0.8728460073471069
f 195/132/195 192/81/192 193/183/193
vt 0.8389310240745544 0.1553390026092529
vt 0.7809060215950012 0.1458050012588501
vt 0.8011479973793030 0.1175559759140015
f 200/184/200 202/185/202 201/186/201
vt 0.2900319993495941 0.1275150179862976
f 213/87/213 221/160/221 222/187/222
vt 0.9214739799499512 0.4373589754104614
f 103/170/103 106/172/106 107/188/107
vt 0.8500540256500244 0.7543410062789917
vt 0.8475900292396545 0.6938340067863464
f 115/189/115 113/156/113 68/190/68
vt 0.2964119911193848 0.6675390005111694
vt 0.2743310034275055 0.7022190093994141
f 232/71/232 244/191/244 225/192/225
f 233/136/233 227/135/227 226/166/226
vt 0.8747940063476562 0.0237569808959961
vt 0.9201079607009888 0.0070133777335286
vt 0.9299730062484741 0.0956959724426270
f 100/193/100 105/194/105 74/195/74
vt 0.4485970139503479 0.9361019730567932
f 94/196/94 91/82/91 195/132/195
vt 0.3352870047092438 0.6001260280609131
f 238/197/238 243/121/243 234/69/234
vt 0.4238690137863159 0.9846640229225159
f 111/153/111 107/152/107 114/198/114
f 232/71/232 243/121/243 244/191/244
f 219/146/219 226/163/226 221/147/221
vt 0.4318819940090179 0.2980560064315796
vt 0.3862740099430084 0.3542709946632385
vt 0.3039999902248383 0.2827509641647339
f 105/199/105 80/200/80 74/201/74
vt 0.0261969994753599 0.3799810409545898
f 100/131/100 99/202/99 106/167/106
f 211/141/211 118/169/118 236/173/236
vt 0.4068669974803925 0.0430139899253845
f 80/138/80 82/137/82 81/203/81
vt 0.0174880009144545 0.8089780211448669
f 202/164/202 199/107/199 203/204/203
vt 0.0158089995384216 0.6984819769859314
vt 0.0480419993400574 0.7352210283279419
vt 0.0026380000635982 0.7604669928550720
f 82/205/82 92/206/92 84/207/84
vt 0.5417209863662720 0.0180389881134033
vt 0.6462560296058655 0.0180389881134033
vt 0.6062200069427490 0.0379970073699951
f 232/208/232 225/209/225 227/210/227
vt 0.1344850063323975 0.4174100160598755
f 199/118/199 214/120/214 203/211/203
vt 0.2922120094299316 0.3470140099525452
f 80/200/80 81/212/81 74/201/74
vt 0.0849450007081032 0.4970309734344482
vt 0.0637810006737709 0.4308570027351379
f 213/213/213 215/214/215 214/120/214
vt 0.6665250062942505 0.6272050142288208
f 115/123/115 68/215/68 117/140/117
vt 0.1267219930887222 0.6440460085868835
f 194/216/194 193/175/193 201/124/201
vt 0.2361380010843277 0.1496149897575378
f 213/87/213 222/187/222 215/217/215
vt 0.6492279767990112 0.3732650279998779
f 226/163/226 224/218/224 221/147/221
vt 0.7674760222434998 0.2366560101509094
f 236/173/236 237/219/237 235/104/235
vt 0.3278720080852509 0.4456549882888794
vt 0.2635119855403900 0.3947700262069702
f 81/212/81 82/220/82 83/221/83
vt 0.2680270075798035 0.4714809656143188
f 238/158/238 235/157/235 237/222/237
vt 0.7738699913024902 0.0901060104370117
vt 0.8150789737701416 0.0418630242347717
vt 0.8240450024604797 0.0667089819908142
f 243/223/243 238/224/238 245/225/245
vt 0.7364659905433655 0.3317019939422607
f 226/163/226 227/226/227 224/218/224
vt 0.9888690114021301 0.5144699811935425
vt 0.9446949958801270 0.5082610249519348
vt 0.9997779726982117 0.4702780246734619
f 107/227/107 47/228/47 114/229/114
vt 0.8512290120124817 0.9426749944686890
vt 0.8351640105247498 0.9921190142631531
vt 0.7850419878959656 0.9524779915809631
f 84/230/84 83/231/83 82/232/82
vt 0.9547910094261169 0.2060109972953796
vt 0.9907479882240295 0.2418010234832764
vt 0.9328380227088928 0.2651979923248291
f 107/233/107 106/234/106 47/235/47
vt 0.2436749935150146 0.3118469715118408
vt 0.2463770061731339 0.2751799821853638
f 76/236/76 73/237/73 81/212/81
f 73/237/73 74/201/74 81/212/81
vt 0.9852529764175415 0.2804889678955078
f 106/234/106 99/238/99 47/235/47
f 214/120/214 215/214/215 203/211/203
vt 0.2066120058298111 0.0190910100936890
vt 0.2327910065650940 0.0329239964485168
vt 0.1686655282974243 0.0369087569415569
f 193/239/193 194/240/194 195/241/195
vt 0.7898300290107727 0.6704310178756714
f 113/156/113 70/155/70 65/242/65
vt 0.8658379912376404 0.0666800141334534
f 245/225/245 238/224/238 246/243/246
vt 0.7169610261917114 0.7268599867820740
f 114/179/114 44/244/44 70/155/70
vt 0.1334850043058395 0.0179830193519592
vt 0.1357930004596710 0.0592219829559326
f 94/245/94 195/241/195 86/246/86
f 113/156/113 65/242/65 68/190/68
vt 0.0513169988989830 0.7850720286369324
f 203/204/203 196/247/196 202/164/202
vt 0.7436800003051758 0.0988640189170837
f 201/186/201 202/185/202 194/248/194
vt 0.3403950035572052 0.6620290279388428
f 244/191/244 243/121/243 188/249/188
vt 0.5700539946556091 0.3824009895324707
f 221/147/221 224/218/224 222/250/222
vt 0.0533990003168583 0.7824450135231018
f 94/251/94 84/207/84 92/206/92
vt 0.2376890033483505 0.4860669970512390
f 237/222/237 239/252/239 238/158/238
vt 0.2298599928617477 0.3586629629135132
f 81/212/81 75/253/75 76/236/76
vt 0.7340019941329956 0.3891890048980713
f 227/226/227 225/254/225 224/218/224
vt 0.5390449762344360 0.7460640072822571
vt 0.4938600063323975 0.7708650231361389
vt 0.4607779979705811 0.7377830147743225
f 47/255/47 99/256/99 36/257/36
vt 0.9697189927101135 0.4605690240859985
f 44/258/44 114/229/114 47/228/47
vt 0.0027719999197870 0.8053380250930786
f 94/251/94 86/259/86 84/207/84
vt 0.3575949966907501 0.6297500133514404
f 243/121/243 245/260/245 188/249/188
f 83/221/83 75/253/75 81/212/81
vt 0.6565129756927490 0.1287270188331604
vt 0.6293839812278748 0.1183130145072937
vt 0.6911039948463440 0.1117029786109924
f 73/261/73 1/262/1 74/263/74
vt 0.4628700017929077 0.8124719858169556
f 100/264/100 36/257/36 99/256/99
vt 0.9436439871788025 0.9446200132369995
vt 0.9891120195388794 0.9776530265808105
vt 0.9583050012588501 0.9804949760437012
f 195/265/195 194/266/194 120/267/120
vt 0.5862129926681519 0.4959980249404907
vt 0.5472949743270874 0.5708249807357788
vt 0.5242869853973389 0.5161190032958984
f 222/268/222 166/269/166 223/270/223
vt 0.0781000033020973 0.3885719776153564
f 203/211/203 215/214/215 159/271/159
vt 0.1365440040826797 0.3816660046577454
f 203/211/203 159/271/159 196/272/196
vt 0.7132850289344788 0.1532149910926819
f 202/185/202 196/273/196 194/248/194
vt 0.8873630166053772 0.0419359803199768
f 238/224/238 239/274/239 246/243/246
f 236/173/236 118/169/118 237/219/237
vt 0.5358840227127075 0.4381309747695923
f 215/275/215 222/268/222 223/270/223
vt 0.2646209895610809 0.9220510125160217
vt 0.2319380044937134 0.9200800061225891
vt 0.2426519989967346 0.8835409879684448
f 84/276/84 85/277/85 77/278/77
vt 0.8484730124473572 0.6271380186080933
f 65/242/65 67/279/67 68/190/68
vt 0.3327629864215851 0.8077509999275208
vt 0.3750950098037720 0.7253389954566956
f 100/264/100 74/280/74 34/281/34
vt 0.5876939892768860 0.5721859931945801
f 222/268/222 224/282/224 166/269/166
f 100/264/100 34/281/34 36/257/36
vt 0.3065769970417023 0.8874210119247437
vt 0.2948719859123230 0.8683140277862549
f 83/283/83 77/278/77 75/284/75
vt 0.5469400286674500 0.6438869833946228
f 224/282/224 225/285/225 166/269/166
vt 0.9384890198707581 0.3393490314483643
vt 0.9858229756355286 0.3352069854736328
vt 0.9313910007476807 0.3694609999656677
f 194/286/194 196/287/196 120/288/120
f 84/276/84 77/278/77 83/283/83
vt 0.1553580015897751 0.0966370105743408
f 195/241/195 120/289/120 86/246/86
vt 0.4194200038909912 0.0291550159454346
vt 0.4569019973278046 0.0091180205345154
vt 0.4504550099372864 0.0357519984245300
f 84/290/84 86/291/86 85/292/85
vt 0.8660539984703064 0.1075040102005005
vt 0.8216400146484375 0.1364350318908691
f 245/225/245 247/293/247 188/294/188
vt 0.7216629981994629 0.5605689883232117
f 117/140/117 68/215/68 69/295/69
vt 0.2777349948883057 0.2781050205230713
f 119/182/119 24/296/24 118/177/118
vt 0.4841350018978119 0.4548000097274780
f 215/275/215 223/270/223 159/297/159
vt 0.3162080049514771 0.7201910018920898
f 183/298/183 244/191/244 188/249/188
f 246/243/246 247/293/247 245/225/245
vt 0.7206850051879883 0.8784809708595276
vt 0.7201340198516846 0.9213410019874573
vt 0.6790854334831238 0.8568465709686279
f 75/299/75 77/300/77 76/301/76
vt 0.6381800174713135 0.0714769959449768
f 74/263/74 1/262/1 34/302/34
vt 0.6911849975585938 0.8180019855499268
vt 0.7185040116310120 0.8114110231399536
f 76/301/76 78/303/78 73/304/73
vt 0.6948559880256653 0.9445059895515442
vt 0.7536649703979492 0.9912099838256836
vt 0.6948559880256653 0.9913070201873779
f 246/305/246 241/306/241 248/307/248
vt 0.7648879885673523 0.5646150112152100
f 117/140/117 24/308/24 119/181/119
vt 0.7615879774093628 0.9504020214080811
f 246/305/246 239/309/239 241/306/241
vt 0.9250349998474121 0.1931930184364319
vt 0.8834220170974731 0.2348070144653320
vt 0.8852369785308838 0.1467519998550415
f 196/310/196 159/311/159 122/312/122
vt 0.9865919947624207 0.3891940116882324
f 196/287/196 122/313/122 120/288/120
vt 0.4435850083827972 0.6712020039558411
f 34/281/34 33/314/33 36/257/36
f 225/192/225 244/191/244 183/298/183
vt 0.3789890110492706 0.9378010034561157
vt 0.3762339949607849 0.9692850112915039
vt 0.3561109900474548 0.9365450143814087
f 248/315/248 249/316/249 246/317/246
vt 0.4644669890403748 0.9300699830055237
vt 0.4518010020256042 0.9392719864845276
vt 0.4499500095844269 0.9262400269508362
f 239/318/239 240/319/240 241/320/241
vt 0.5434470176696777 0.6704620122909546
f 47/255/47 36/257/36 35/321/35
vt 0.8728309869766235 0.2973920106887817
vt 0.8273090124130249 0.2756589651107788
f 118/169/118 26/322/26 175/323/175
vt 0.7131220102310181 0.7821739912033081
f 73/304/73 78/303/78 1/324/1
vt 0.1286820024251938 0.2801040410995483
vt 0.1545020043849945 0.3413940072059631
vt 0.1275130063295364 0.3501629829406738
f 44/325/44 45/326/45 46/327/46
vt 0.2358199954032898 0.3674870133399963
vt 0.2358399927616119 0.4479880332946777
vt 0.1798499971628189 0.4144510030746460
f 225/328/225 167/329/167 166/330/166
vt 0.3093230128288269 0.7571709752082825
vt 0.3108539879322052 0.8032940030097961
vt 0.2776480019092560 0.7676039934158325
f 65/331/65 66/332/66 67/333/67
vt 0.9285799860954285 0.4656130075454712
vt 0.8900650143623352 0.4415459632873535
vt 0.9010450243949890 0.3734090328216553
f 70/334/70 44/335/44 46/336/46
vt 0.3568629920482635 0.9773619771003723
f 246/317/246 249/316/249 247/337/247
vt 0.9901970028877258 0.0864570140838623
vt 0.9308429956436157 0.0864570140838623
vt 0.9610260128974915 0.0475220084190369
f 86/338/86 120/339/120 87/340/87
vt 0.9302179813385010 0.8244420289993286
vt 0.9826710224151611 0.8414850234985352
vt 0.9641720056533813 0.8989409804344177
f 68/341/68 67/342/67 69/343/69
vt 0.1825309991836548 0.2706090211868286
f 44/325/44 47/344/47 45/326/45
vt 0.9902120232582092 0.0490310192108154
vt 0.9902120232582092 0.0834199786186218
vt 0.9731090068817139 0.0611950159072876
f 249/345/249 250/346/250 247/347/247
vt 0.2297880053520203 0.5291669964790344
f 239/252/239 237/222/237 176/348/176
vt 0.7705590128898621 0.6279950141906738
f 70/155/70 66/349/66 65/242/65
vt 0.5047649741172791 0.0680400133132935
f 85/292/85 86/291/86 12/350/12
vt 0.6434689760208130 0.8752290010452271
f 77/300/77 79/351/79 76/301/76
vt 0.2049340009689331 0.3236210346221924
f 47/344/47 35/352/35 45/326/45
vt 0.6401110291481018 0.8447960019111633
f 78/353/78 76/301/76 79/351/79
f 118/169/118 175/323/175 237/219/237
vt 0.4345729947090149 0.3570959568023682
vt 0.4404230117797852 0.4239569902420044
vt 0.3784640133380890 0.3747110366821289
f 241/354/241 251/355/251 248/356/248
vt 0.1278389990329742 0.1950129866600037
vt 0.0198940001428127 0.2357130050659180
vt 0.0749600008130074 0.1680690050125122
f 166/357/166 160/358/160 223/359/223
vt 0.0017549999756739 0.8698459863662720
vt 0.0017549999756739 0.8260279893875122
vt 0.0114909997209907 0.8575869798660278
f 239/360/239 176/361/176 240/362/240
vt 0.7584279775619507 0.0384989976882935
vt 0.7250159978866577 0.0427740216255188
vt 0.7250159978866577 0.0005270242691040
f 1/363/1 78/364/78 4/365/4
vt 0.3915390074253082 0.8229209780693054
vt 0.3275839984416962 0.8327329754829407
f 70/366/70 46/367/46 66/332/66
vt 0.7368460297584534 0.4877070188522339
vt 0.7798600196838379 0.5105429887771606
vt 0.7586349844932556 0.5458670258522034
f 120/368/120 121/369/121 87/370/87
vt 0.3066349923610687 0.5402659773826599
vt 0.2314070016145706 0.5658850073814392
f 237/222/237 175/371/175 170/372/170
vt 0.9008529782295227 0.0964310169219971
vt 0.9697530269622803 0.1101139783859253
vt 0.9697530269622803 0.1817139983177185
f 250/373/250 249/374/249 252/375/252
vt 0.6012719869613647 0.8827130198478699
f 78/353/78 79/351/79 4/376/4
f 176/348/176 237/222/237 170/372/170
vt 0.2314549982547760 0.2245820164680481
f 118/177/118 24/296/24 26/377/26
vt 0.2313500046730042 0.5143259763717651
f 166/330/166 167/329/167 165/378/165
f 117/140/117 69/295/69 24/308/24
vt 0.1800850033760071 0.8518159985542297
vt 0.2013230025768280 0.7884799838066101
f 77/278/77 7/379/7 79/380/79
vt 0.3956170082092285 0.4451069831848145
f 248/356/248 251/355/251 252/381/252
vt 0.8853539824485779 0.1278499960899353
f 247/293/247 250/382/250 188/294/188
vt 0.4706810116767883 0.3521419763565063
f 240/383/240 251/355/251 241/354/241
vt 0.7964630126953125 0.4154289960861206
vt 0.7336320281028748 0.3905040025711060
vt 0.7858099937438965 0.3482519984245300
f 33/384/33 34/385/34 3/386/3
vt 0.5094119906425476 0.0002229809761047
f 86/291/86 87/387/87 12/350/12
vt 0.1652310043573380 0.9071320295333862
f 85/277/85 12/388/12 77/278/77
vt 0.5763440132141113 0.0783849954605103
f 1/262/1 3/389/3 34/302/34
vt 0.3297390043735504 0.4170590043067932
f 249/390/249 248/356/248 252/381/252
vt 0.8078960180282593 0.4673600196838379
f 122/391/122 121/369/121 120/368/120
vt 0.2869090139865875 0.7594590187072754
vt 0.2568849921226501 0.7385659813880920
f 225/192/225 168/392/168 167/393/167
vt 0.0206530001014471 0.1188470125198364
f 159/394/159 223/359/223 160/358/160
vt 0.0012649999698624 0.8747689723968506
vt 0.0114709995687008 0.9061790108680725
vt 0.0016619999660179 0.9041600227355957
f 240/395/240 176/396/176 242/397/242
vt 0.8435310125350952 0.4643689990043640
vt 0.7614589929580688 0.4555460214614868
f 33/384/33 35/398/35 36/399/36
vt 0.0042200000025332 0.0588470101356506
vt 0.0042200000025332 0.0078880190849304
vt 0.0981739982962608 0.0382639765739441
f 165/400/165 160/401/160 166/402/166
vt 0.8428410291671753 0.3832119703292847
f 33/384/33 3/386/3 37/403/37
vt 0.9023460149765015 0.1647859811782837
f 250/373/250 252/375/252 190/404/190
vt 0.5070403218269348 0.4348275363445282
f 251/355/251 240/383/240 242/405/242
vt 0.0450109988451004 0.6349809765815735
vt 0.0450109988451004 0.5348979830741882
vt 0.1152990013360977 0.6351640224456787
f 122/406/122 159/407/159 124/408/124
vt 0.4808300137519836 0.4388729929924011
vt 0.4792079925537109 0.4775359630584717
vt 0.4114030003547668 0.4716030359268188
f 24/409/24 69/410/69 29/411/29
vt 0.2696940004825592 0.8211759924888611
f 66/332/66 71/412/71 67/333/67
vt 0.7581700086593628 0.0033299922943115
f 4/365/4 2/413/2 1/363/1
vt 0.5684599876403809 0.3810549974441528
vt 0.5853790044784546 0.4150080084800720
vt 0.5471580028533936 0.4494220018386841
f 1/414/1 2/415/2 3/416/3
vt 0.8192499876022339 0.5382940173149109
f 87/370/87 121/369/121 123/417/123
f 122/391/122 123/417/123 121/369/121
vt 0.1714780032634735 0.4026319980621338
f 45/326/45 48/418/48 46/327/46
vt 0.5260720252990723 0.0514039993286133
f 12/350/12 87/387/87 14/419/14
vt 0.5319629907608032 0.1658309698104858
vt 0.4848409891128540 0.1505199670791626
vt 0.5392209887504578 0.0958099961280823
f 252/420/252 251/421/251 178/422/178
vt 0.4789550006389618 0.0863339900970459
f 251/421/251 242/423/242 178/422/178
f 37/403/37 35/398/35 33/384/33
vt 0.8848090171813965 0.4255670309066772
f 38/424/38 35/398/35 37/403/37
vt 0.9318779706954956 0.0797790288925171
vt 0.9318779706954956 0.0114079713821411
vt 0.9677649736404419 0.0373870134353638
f 250/425/250 190/426/190 191/427/191
f 225/192/225 183/298/183 168/392/168
f 12/388/12 7/379/7 77/278/77
vt 0.4720729887485504 0.9306880235671997
vt 0.4458090066909790 0.9236500263214111
vt 0.5358520150184631 0.9225980043411255
f 250/428/250 191/429/191 188/430/188
f 35/352/35 48/418/48 45/326/45
vt 0.5944020152091980 0.1353099942207336
f 252/420/252 178/422/178 190/431/190
vt 0.3600279986858368 0.7474259734153748
f 188/249/188 185/432/185 183/298/183
vt 0.1575089991092682 0.7870680093765259
f 6/433/6 79/380/79 7/379/7
vt 0.0047419997863472 0.5676620006561279
vt 0.0497669987380505 0.6456480026245117
vt 0.0048520001582801 0.6732950210571289
f 188/434/188 191/435/191 189/436/189
vt 0.1470420062541962 0.5074750185012817
vt 0.1230669990181923 0.5692840218544006
f 160/437/160 161/438/161 159/407/159
vt 0.6160699725151062 0.9046509861946106
f 79/351/79 6/439/6 4/376/4
f 124/408/124 159/407/159 161/438/161
vt 0.4652299880981445 0.1436530351638794
vt 0.5439419746398926 0.1762499809265137
vt 0.5246430039405823 0.2294740080833435
f 188/440/188 189/441/189 185/442/185
vt 0.4695770144462585 0.5546529889106750
vt 0.3991439938545227 0.5476750135421753
f 67/443/67 72/444/72 69/410/69
vt 0.8749729990959167 0.4776650071144104
f 122/391/122 124/445/124 123/417/123
vt 0.3227469921112061 0.9789760112762451
vt 0.3407669961452484 0.9532399773597717
vt 0.3383390009403229 0.9862139821052551
f 190/446/190 177/447/177 191/448/191
vt 0.0196560006588697 0.3906919956207275
vt 0.0753830000758171 0.3867950439453125
vt 0.0081620002165437 0.4695470333099365
f 175/449/175 26/450/26 170/451/170
vt 0.4211269915103912 0.4341279864311218
f 29/411/29 25/452/25 24/409/24
vt 0.2682720124721527 0.8607609868049622
f 46/367/46 49/453/49 66/332/66
vt 0.7815809845924377 0.6034500002861023
f 87/370/87 123/417/123 14/454/14
vt 0.3219940066337585 0.9526550173759460
f 190/446/190 178/455/178 177/447/177
vt 0.0923329964280128 0.0187849998474121
vt 0.0977870002388954 0.0366219878196716
vt 0.0642099976539612 0.0259709954261780
f 242/456/242 176/457/176 177/458/177
vt 0.6093189716339111 0.1449909806251526
vt 0.6063600182533264 0.1026819944381714
vt 0.6448609828948975 0.1400160193443298
f 4/459/4 5/460/5 2/461/2
vt 0.3737579882144928 0.1207039952278137
vt 0.4400550127029419 0.1207039952278137
vt 0.3877879977226257 0.1677010059356689
f 161/462/161 160/463/160 145/464/145
vt 0.0719569995999336 0.0102450251579285
f 178/465/178 242/456/242 177/458/177
vt 0.5821520090103149 0.1427329778671265
vt 0.6005179882049561 0.1767489910125732
f 191/466/191 180/467/180 189/441/189
vt 0.5798339843750000 0.1218640208244324
f 4/459/4 6/468/6 5/460/5
vt 0.5719720125198364 0.9220209717750549
vt 0.5268080234527588 0.9099190235137939
vt 0.5673990249633789 0.8548520207405090
f 24/469/24 25/470/25 26/471/26
vt 0.0109529998153448 0.5065320134162903
vt 0.0442660003900528 0.5523840188980103
vt 0.0020920000970364 0.5627490282058716
f 167/472/167 168/473/168 165/474/165
vt 0.5319089889526367 0.0847589969635010
f 7/475/7 5/460/5 6/468/6
vt 0.6167380213737488 0.1468650102615356
f 191/466/191 177/476/177 180/467/180
vt 0.1864240020513535 0.1929939985275269
vt 0.1529929935932159 0.2314530014991760
vt 0.1424050033092499 0.1601369976997375
f 160/477/160 165/478/165 162/479/162
vt 0.9758350253105164 0.5971699953079224
vt 0.9758350253105164 0.6580520272254944
vt 0.9100540280342102 0.6305400133132935
f 160/480/160 162/481/162 145/482/145
vt 0.5683060288429260 0.8088420033454895
vt 0.5412009954452515 0.7618950009346008
vt 0.6962239742279053 0.8078190088272095
f 26/483/26 27/484/27 170/485/170
vt 0.2194049954414368 0.3798309564590454
f 48/418/48 35/352/35 38/486/38
f 66/332/66 49/453/49 71/412/71
vt 0.1418399959802628 0.2734249830245972
vt 0.1188149973750114 0.2213599681854248
f 165/478/165 168/487/168 163/488/163
vt 0.3101089894771576 0.1542730331420898
f 161/462/161 145/464/145 130/489/130
vt 0.7361140251159668 0.3931180238723755
vt 0.7361140251159668 0.4191310405731201
vt 0.7023000121116638 0.3897410035133362
f 12/490/12 13/491/13 7/492/7
vt 0.6470630168914795 0.0178639888763428
vt 0.7223129868507385 0.0191890001296997
vt 0.6815609931945801 0.0468100309371948
f 14/493/14 123/494/123 125/495/125
vt 0.9274399876594543 0.7272400259971619
vt 0.8580930233001709 0.6928340196609497
vt 0.9139369726181030 0.6901429891586304
f 123/496/123 124/497/124 126/498/126
vt 0.5699470043182373 0.2136169672012329
f 180/467/180 187/499/187 189/441/189
vt 0.9906700253486633 0.0467770099639893
vt 0.9731609821319580 0.0594969987869263
vt 0.9749040007591248 0.0260859727859497
f 12/500/12 14/501/14 13/502/13
vt 0.6150680184364319 0.4736210107803345
f 8/503/8 3/416/3 2/415/2
vt 0.6484419703483582 0.0776770114898682
f 125/495/125 15/504/15 14/493/14
vt 0.3077799975872040 0.1138160228729248
f 161/462/161 130/489/130 124/505/124
vt 0.1513700038194656 0.4227169752120972
f 46/327/46 48/418/48 49/506/49
vt 0.7011700272560120 0.4362649917602539
f 9/507/9 7/492/7 13/491/13
vt 0.8937109708786011 0.6427180171012878
f 124/497/124 129/508/129 126/498/126
vt 0.5484780073165894 0.6720010042190552
vt 0.4876079857349396 0.6156299710273743
vt 0.5430319905281067 0.6097509860992432
f 183/509/183 184/510/184 168/511/168
f 185/442/185 189/441/189 187/499/187
vt 0.6368380188941956 0.4301120042800903
vt 0.7014409899711609 0.3889960050582886
vt 0.6822856068611145 0.4530859589576721
f 5/512/5 7/513/7 9/514/9
vt 0.2137050032615662 0.1398910284042358
vt 0.1777440011501312 0.1411830186843872
vt 0.1925690025091171 0.1179090142250061
f 14/515/14 15/516/15 13/517/13
vt 0.4827489852905273 0.6387680172920227
f 183/509/183 185/518/185 184/510/184
vt 0.8036530017852783 0.2783719897270203
f 3/386/3 8/519/8 37/403/37
vt 0.5285540223121643 0.8682879805564880
f 26/471/26 25/470/25 27/520/27
f 162/479/162 165/478/165 163/488/163
vt 0.9139819741249084 0.7636039853096008
vt 0.8917279839515686 0.7279909849166870
vt 0.9615579843521118 0.7509469985961914
f 123/521/123 126/522/126 125/523/125
vt 0.5936830043792725 0.7587370276451111
f 170/485/170 27/484/27 171/524/171
vt 0.8470720052719116 0.3291530013084412
vt 0.8776720166206360 0.3818260431289673
f 37/403/37 39/525/39 40/526/40
vt 0.3779320120811462 0.0206419825553894
vt 0.3621639907360077 0.0544570088386536
vt 0.3175089955329895 0.0092689990997314
f 124/527/124 130/528/130 129/529/129
f 38/424/38 37/403/37 40/526/40
vt 0.8173279762268066 0.0412219762802124
vt 0.8307089805603027 0.0000410079956055
vt 0.8703950047492981 0.0403149724006653
f 38/530/38 41/531/41 48/532/48
vt 0.0869999974966049 0.2947790026664734
f 168/487/168 169/533/169 163/488/163
vt 0.2314870059490204 0.8095139861106873
f 67/333/67 71/412/71 72/534/72
vt 0.6867740154266357 0.0840209722518921
f 15/504/15 125/495/125 127/535/127
vt 0.3300780057907104 0.9213389754295349
vt 0.2992689907550812 0.9042609930038452
vt 0.3467789888381958 0.8877869844436646
f 177/536/177 176/537/176 179/538/179
vt 0.9738690257072449 0.2036190032958984
vt 0.9181339740753174 0.2036190032958984
vt 0.9331399798393250 0.1860910058021545
f 168/539/168 184/540/184 169/541/169
f 69/410/69 72/444/72 29/411/29
f 39/525/39 37/403/37 8/519/8
vt 0.4730550050735474 0.9054179787635803
f 25/470/25 28/542/28 27/520/27
f 5/512/5 8/503/8 2/415/2
vt 0.3193939924240112 0.8733869791030884
f 176/537/176 170/543/170 179/538/179
vt 0.7548720240592957 0.0414670109748840
vt 0.7312570214271545 0.0755429863929749
f 125/495/125 126/544/126 128/545/128
vt 0.5707259774208069 0.0830810070037842
vt 0.5419020056724548 0.0419160127639771
vt 0.5969650149345398 0.0495749711990356
f 48/546/48 56/547/56 49/548/49
vt 0.2790549993515015 0.0401520133018494
vt 0.2349539995193481 0.0412489771842957
vt 0.2349539995193481 0.0025619864463806
f 41/549/41 38/550/38 40/551/40
vt 0.0016980000073090 0.3026679754257202
vt 0.0319239981472492 0.3026679754257202
vt 0.0046720001846552 0.3565269708633423
f 25/552/25 29/553/29 28/554/28
f 5/512/5 9/514/9 8/503/8
vt 0.7615650296211243 0.8517100214958191
vt 0.7780910134315491 0.9219480156898499
vt 0.7358570098876953 0.9197350144386292
f 163/555/163 147/556/147 162/557/162
f 125/495/125 128/545/128 127/535/127
vt 0.8553429841995239 0.3309789896011353
vt 0.8909950256347656 0.2692300081253052
vt 0.9337549805641174 0.3564350008964539
f 145/558/145 162/559/162 146/560/146
vt 0.3612630069255829 0.9149829745292664
f 177/536/177 179/538/179 180/561/180
vt 0.4860709905624390 0.0844209790229797
f 48/546/48 41/562/41 56/547/56
vt 0.8818879723548889 0.3434120416641235
f 40/526/40 39/525/39 42/563/42
vt 0.2318249940872192 0.8564699888229370
f 49/453/49 57/564/57 71/412/71
vt 0.3284179866313934 0.1923480033874512
f 145/464/145 149/565/149 130/489/130
f 71/412/71 57/564/57 72/534/72
vt 0.6167880296707153 0.2001309990882874
f 187/499/187 180/467/180 181/566/181
vt 0.1513040065765381 0.1149349808692932
f 15/516/15 16/567/16 13/517/13
vt 0.4350369870662689 0.3557029962539673
vt 0.4567869901657104 0.2864120006561279
vt 0.4889206588268280 0.3324048817157745
f 145/568/145 146/569/146 149/570/149
vt 0.6783490180969238 0.7480530142784119
f 170/485/170 171/524/171 172/571/172
vt 0.7359619736671448 0.4706560373306274
f 9/507/9 13/491/13 17/572/17
vt 0.6099609732627869 0.9074730277061462
vt 0.5700920224189758 0.9533650279045105
vt 0.5752220153808594 0.8961859941482544
f 127/573/127 19/574/19 15/575/15
vt 0.0845889970660210 0.2217069864273071
f 169/533/169 164/576/164 163/488/163
vt 0.2646459937095642 0.0080980062484741
f 41/549/41 40/551/40 43/577/43
vt 0.3691419959068298 0.8939419984817505
f 181/578/181 180/561/180 179/538/179
vt 0.3522560000419617 0.8331000208854675
f 179/538/179 170/543/170 172/579/172
vt 0.7984369993209839 0.8606340289115906
f 164/580/164 147/556/147 163/555/163
vt 0.9090499877929688 0.9895799756050110
vt 0.8890929818153381 0.9561010003089905
vt 0.9398459792137146 0.9396100044250488
f 128/581/128 126/582/126 131/583/131
vt 0.3047159910202026 0.0600129961967468
f 130/528/130 132/584/132 129/529/129
vt 0.4513280093669891 0.5927960276603699
f 184/510/184 185/518/185 186/585/186
vt 0.9332039952278137 0.2665910124778748
f 162/559/162 147/586/147 146/560/146
vt 0.1372179985046387 0.8327119946479797
vt 0.1434189975261688 0.7876139879226685
vt 0.1621199995279312 0.8078100085258484
f 42/587/42 43/588/43 40/589/40
vt 0.3836930096149445 0.8374660015106201
f 179/538/179 172/579/172 174/590/174
vt 0.6661930084228516 0.5335270166397095
f 9/514/9 10/591/10 8/503/8
vt 0.4071179926395416 0.0507609844207764
vt 0.4622969925403595 0.0439860224723816
vt 0.3851920068264008 0.1196340322494507
f 49/592/49 56/593/56 57/594/57
vt 0.6264600157737732 0.5654550194740295
f 8/503/8 10/591/10 11/595/11
vt 0.3516640067100525 0.5832870006561279
vt 0.3355059921741486 0.5387700200080872
f 72/444/72 57/596/57 63/597/63
f 181/578/181 179/538/179 174/590/174
vt 0.4278759956359863 0.0872790217399597
f 57/594/57 56/593/56 58/598/58
vt 0.1585610061883926 0.8595449924468994
vt 0.0945990011096001 0.8750190138816833
f 39/599/39 11/600/11 42/587/42
vt 0.1659879982471466 0.9199759960174561
f 8/601/8 11/600/11 39/599/39
vt 0.5390149950981140 0.5568659901618958
vt 0.5040029883384705 0.5993930101394653
vt 0.4807069897651672 0.5727639794349670
f 164/602/164 169/603/169 154/604/154
vt 0.9253720045089722 0.6380169987678528
f 126/498/126 129/508/129 131/605/131
vt 0.6277800202369690 0.7141020298004150
f 171/524/171 173/606/173 172/571/172
f 169/603/169 184/510/184 186/585/186
vt 0.0906110033392906 0.9032620191574097
vt 0.1696220040321350 0.9551190137863159
vt 0.0861089974641800 0.9547169804573059
f 43/607/43 59/608/59 41/609/41
vt 0.1629009991884232 0.0771399736404419
f 13/517/13 16/567/16 17/610/17
vt 0.6939960122108459 0.5099700093269348
f 10/611/10 9/507/9 17/572/17
f 27/484/27 173/606/173 171/524/171
vt 0.1145559996366501 0.7890769839286804
f 50/612/50 43/588/43 42/587/42
vt 0.9606270194053650 0.9893980026245117
f 131/583/131 133/613/133 128/581/128
vt 0.6967689990997314 0.9294540286064148
vt 0.6599109768867493 0.9158819913864136
vt 0.6940559744834900 0.9073590040206909
f 129/614/129 134/615/134 131/616/131
vt 0.5438690185546875 0.6785470247268677
f 27/484/27 30/617/30 173/606/173
vt 0.9435439705848694 0.8565070033073425
vt 0.9693509936332703 0.9359329938888550
vt 0.8834260106086731 0.8926950097084045
f 41/618/41 59/619/59 56/620/56
vt 0.6504880189895630 0.9204999804496765
vt 0.6277160048484802 0.9667789936065674
f 127/573/127 128/621/128 133/622/133
vt 0.4329380095005035 0.6759510040283203
f 187/623/187 186/585/186 185/518/185
f 169/603/169 186/585/186 154/604/154
vt 0.1001159995794296 0.8513309955596924
f 42/587/42 11/600/11 51/624/51
vt 0.1064210012555122 0.1349430084228516
vt 0.1109820008277893 0.0947629809379578
f 16/567/16 18/625/18 17/626/17
vt 0.5363889932632446 0.3396359682083130
vt 0.4947420060634613 0.3809909820556641
f 149/570/149 132/627/132 130/628/130
vt 0.9007639884948730 0.9417610168457031
f 60/629/60 56/620/56 59/619/59
vt 0.8441979885101318 0.8816249966621399
vt 0.8374040126800537 0.9173679947853088
f 147/556/147 156/630/156 157/631/157
f 147/556/147 164/580/164 156/630/156
f 72/444/72 63/597/63 29/411/29
vt 0.6025919914245605 0.2418819665908813
f 187/499/187 181/566/181 182/632/182
vt 0.3933629989624023 0.2347429990768433
vt 0.4266070127487183 0.2311999797821045
f 147/633/147 148/634/148 146/569/146
vt 0.9136059880256653 0.7678920030593872
vt 0.9590529799461365 0.7531250119209290
vt 0.9292790293693542 0.8023449778556824
f 57/635/57 58/636/58 62/637/62
vt 0.2797349989414215 0.0100520253181458
f 129/529/129 132/584/132 134/638/134
vt 0.1405880004167557 0.1597539782524109
f 15/516/15 19/639/19 16/567/16
vt 0.4777730107307434 0.0936719775199890
f 56/593/56 60/640/60 58/598/58
f 127/573/127 133/622/133 19/574/19
vt 0.8708680272102356 0.8090760111808777
f 164/580/164 154/641/154 156/630/156
vt 0.3249039947986603 0.5794429779052734
f 63/597/63 57/596/57 62/642/62
vt 0.3438270092010498 0.4340339899063110
f 29/411/29 63/597/63 28/643/28
vt 0.8968579769134521 0.9713649749755859
vt 0.8402789831161499 0.9897480010986328
vt 0.8481979966163635 0.9557430148124695
f 147/644/147 157/645/157 148/646/148
vt 0.1372189968824387 0.9035689830780029
f 43/607/43 50/647/50 59/608/59
vt 0.4659860134124756 0.8591650128364563
f 27/520/27 28/542/28 30/648/30
vt 0.5715730190277100 0.6640909910202026
f 30/617/30 143/649/143 173/606/173
vt 0.6447190046310425 0.8784930109977722
f 134/615/134 135/650/135 131/616/131
vt 0.6750199794769287 0.6892499923706055
f 173/606/173 141/651/141 172/571/172
vt 0.4103589951992035 0.8804720044136047
f 182/652/182 181/578/181 174/590/174
vt 0.5094140768051147 0.2765746116638184
f 149/570/149 146/569/146 151/653/151
vt 0.8369820117950439 0.5852230191230774
vt 0.8654959797859192 0.6023550033569336
vt 0.8118510246276855 0.6265509724617004
f 53/654/53 63/655/63 62/656/62
vt 0.8205890059471130 0.9917820096015930
vt 0.7545509934425354 0.9917820096015930
vt 0.7776280045509338 0.9465770125389099
f 28/657/28 20/658/20 21/659/21
vt 0.8317310214042664 0.9200829863548279
vt 0.8033459782600403 0.9439010024070740
vt 0.7566549777984619 0.9240030050277710
f 17/660/17 21/661/21 20/662/20
vt 0.7355610132217407 0.5559570193290710
f 17/572/17 20/663/20 10/611/10
vt 0.0639310032129288 0.0938680171966553
f 17/626/17 18/625/18 21/664/21
vt 0.4321039915084839 0.8758919835090637
f 28/542/28 31/665/31 30/648/30
vt 0.4822779893875122 0.2099410295486450
f 146/569/146 148/634/148 150/666/150
vt 0.0933090001344681 0.8145380020141602
f 42/587/42 52/667/52 50/612/50
vt 0.4566769897937775 0.1602929830551147
f 58/598/58 60/640/60 61/668/61
f 149/570/149 151/653/151 132/627/132
vt 0.9739289879798889 0.3336340188980103
vt 0.9369779825210571 0.3271180391311646
vt 0.9773439764976501 0.3089100122451782
f 133/669/133 131/670/131 136/671/136
f 16/567/16 19/639/19 18/625/18
vt 0.1121890023350716 0.9685410261154175
vt 0.1740739941596985 0.9556959867477417
vt 0.1563840061426163 0.9829009771347046
f 10/672/10 22/673/22 11/674/11
vt 0.7012850046157837 0.7176529765129089
f 174/675/174 172/571/172 141/651/141
vt 0.8079059720039368 0.5730519890785217
f 62/656/62 64/676/64 53/654/53
vt 0.4466109871864319 0.5546699762344360
f 154/604/154 186/585/186 155/677/155
f 150/666/150 151/653/151 146/569/146
vt 0.1792020052671432 0.9913229942321777
f 51/678/51 11/674/11 22/673/22
vt 0.2782120108604431 0.4874199628829956
f 28/643/28 63/597/63 20/679/20
vt 0.3982509970664978 0.6503930091857910
f 187/623/187 182/680/182 186/585/186
vt 0.7738749980926514 0.6151260137557983
f 64/676/64 62/656/62 61/681/61
vt 0.5867789983749390 0.6638219952583313
f 173/606/173 143/649/143 142/682/142
vt 0.6918029785156250 0.5674679875373840
f 20/663/20 22/683/22 10/611/10
vt 0.1021210029721260 0.1796100139617920
f 19/639/19 23/684/23 18/625/18
vt 0.8739640116691589 0.7026879787445068
vt 0.9070979952812195 0.7555199861526489
vt 0.8617500066757202 0.7516729831695557
f 28/685/28 21/686/21 31/687/31
vt 0.8690189719200134 0.4946919679641724
f 63/655/63 53/654/53 20/688/20
vt 0.1304060071706772 0.0971210002899170
vt 0.0999509990215302 0.0917509794235229
vt 0.1260419934988022 0.0395910143852234
f 132/689/132 137/690/137 134/691/134
vt 0.9631130099296570 0.8230339884757996
f 62/637/62 58/636/58 61/692/61
vt 0.9678090214729309 0.7020409703254700
vt 0.9831680059432983 0.7493090033531189
vt 0.9180039763450623 0.7348949909210205
f 22/693/22 20/694/20 53/695/53
vt 0.9390540122985840 0.2443010210990906
vt 0.9164350032806396 0.2337529659271240
vt 0.9495040178298950 0.2045019865036011
f 133/696/133 136/697/136 19/698/19
vt 0.8771690130233765 0.7805789709091187
f 31/687/31 21/686/21 144/699/144
vt 0.9227229952812195 0.4388630390167236
vt 0.9794679880142212 0.4573000073432922
vt 0.9302420020103455 0.4668940305709839
f 22/700/22 53/701/53 54/702/54
f 42/587/42 51/624/51 52/667/52
vt 0.9589310288429260 0.7047970294952393
vt 0.9156649708747864 0.6890490055084229
vt 0.9595260024070740 0.6673840284347534
f 51/703/51 54/704/54 52/705/52
vt 0.9126819968223572 0.2077829837799072
f 19/698/19 136/697/136 23/706/23
vt 0.5563020110130310 0.2937430143356323
f 151/653/151 137/707/137 132/627/132
f 173/606/173 142/682/142 141/651/141
vt 0.0257190000265837 0.9228050112724304
vt 0.0906419977545738 0.9828469753265381
vt 0.0204119998961687 0.9834610223770142
f 50/708/50 55/709/55 59/710/59
vt 0.2730210125446320 0.7007769942283630
vt 0.2215709984302521 0.6952900290489197
vt 0.2536050081253052 0.6324200034141541
f 142/711/142 32/712/32 135/713/135
vt 0.9058319926261902 0.8053219914436340
f 21/686/21 18/714/18 144/699/144
vt 0.9340170025825500 0.2700339555740356
vt 0.9552599787712097 0.2782739996910095
f 131/670/131 135/715/135 138/716/138
f 138/716/138 136/671/136 131/670/131
vt 0.9249129891395569 0.7165579795837402
f 51/703/51 22/717/22 54/704/54
vt 0.4003430008888245 0.8112130165100098
f 174/590/174 141/718/141 182/652/182
vt 0.6155089735984802 0.9079539775848389
f 134/615/134 139/719/139 135/650/135
vt 0.6574050188064575 0.6104140281677246
f 141/651/141 142/682/142 139/720/139
vt 0.2484090030193329 0.9921709895133972
vt 0.1749230027198792 0.9171519875526428
vt 0.2484090030193329 0.9222890138626099
f 60/721/60 55/722/55 61/723/61
vt 0.3056589961051941 0.2064700126647949
vt 0.2690950036048889 0.2083020210266113
vt 0.3126290142536163 0.1678810119628906
f 154/724/154 155/725/155 156/726/156
vt 0.1797530055046082 0.9872180223464966
f 60/721/60 59/727/59 55/722/55
vt 0.3213599920272827 0.9825429916381836
vt 0.2491959929466248 0.9825429916381836
vt 0.2769129872322083 0.9675340056419373
f 54/728/54 53/729/53 64/730/64
vt 0.2486660033464432 0.7441020011901855
vt 0.2601949870586395 0.7116019725799561
f 30/731/30 32/712/32 143/732/143
vt 0.1953780055046082 0.7305060029029846
f 31/733/31 32/712/32 30/731/30
f 142/711/142 143/732/143 32/712/32
vt 0.2239409983158112 0.6231560111045837
f 135/713/135 32/712/32 138/734/138
vt 0.0792009979486465 0.9231529831886292
f 50/708/50 52/735/52 55/709/55
vt 0.0993449985980988 0.0032349824905396
f 134/691/134 137/690/137 139/736/139
vt 0.4009099900722504 0.0426549911499023
vt 0.3820750117301941 0.0487750172615051
vt 0.3850789964199066 0.0113369822502136
f 148/737/148 157/738/157 150/739/150
vt 0.8812900185585022 0.8240569829940796
f 18/714/18 23/740/23 144/699/144
f 182/680/182 155/677/155 186/585/186
vt 0.9888870120048523 0.5256350040435791
vt 0.9907760024070740 0.5797169804573059
vt 0.9448620080947876 0.5094320178031921
f 64/741/64 61/742/61 54/743/54
vt 0.8488230109214783 0.7017930150032043
vt 0.8500630259513855 0.6307430267333984
vt 0.9061440229415894 0.6232200264930725
f 142/744/142 135/745/135 139/746/139
vt 0.3060289919376373 0.1441890001296997
vt 0.2649230062961578 0.1432579755783081
f 157/747/157 156/726/156 150/748/150
vt 0.2020020037889481 0.1517940163612366
vt 0.1896570026874542 0.1938170194625854
vt 0.1575700044631958 0.1659280061721802
f 137/749/137 140/750/140 139/751/139
vt 0.8798390030860901 0.2430830001831055
f 136/697/136 138/752/138 23/706/23
vt 0.9270930290222168 0.6481890082359314
f 54/704/54 55/753/55 52/705/52
f 156/726/156 155/725/155 150/748/150
vt 0.3323169946670532 0.6132310032844543
vt 0.4041309952735901 0.5492150187492371
f 182/680/182 141/754/141 158/755/158
vt 0.1584620028734207 0.6170799732208252
vt 0.1873189955949783 0.6570510268211365
f 23/756/23 138/734/138 144/757/144
vt 0.8356419801712036 0.7667639851570129
f 31/687/31 144/699/144 32/758/32
vt 0.9261879920959473 0.5675569772720337
f 54/743/54 61/742/61 55/759/55
f 155/677/155 182/680/182 158/755/158
vt 0.8580170273780823 0.8483800292015076
vt 0.8743960261344910 0.8033800125122070
vt 0.8755540251731873 0.9113429784774780
f 139/760/139 140/761/140 141/762/141
f 138/734/138 32/712/32 144/757/144
vt 0.5315359830856323 0.2343959808349609
f 137/707/137 151/653/151 152/763/152
f 151/653/151 150/666/150 152/763/152
vt 0.5663920044898987 0.2161319851875305
f 137/707/137 152/763/152 153/764/153
vt 0.2282000035047531 0.1684859991073608
vt 0.2395679950714111 0.1496559977531433
f 150/748/150 153/765/153 152/766/152
f 153/765/153 140/750/140 137/749/137
f 150/748/150 155/725/155 153/765/153
vt 0.2316299974918365 0.2218769788742065
vt 0.1927739977836609 0.2917900085449219
f 158/767/158 141/768/141 140/750/140
f 155/725/155 158/767/158 153/765/153
f 158/767/158 140/750/140 153/765/153
# 500 faces, 768 coords texture

# End of File
