####
#
# OBJ File Generated by Meshlab
#
####
# Object pop.obj
#
# Vertices: 252
# Faces: 500
#
####
mtllib ./pop.obj.mtl

vn -0.1754248864989576 0.8636027153038720 0.4726695032648152
v -0.1478099972009659 0.9420019984245300 0.0665539279580116
vn -0.1028133670273260 0.4469936190075312 0.8886090907294695
v -0.1119270026683807 0.8727089762687683 0.1389109343290329
vn -0.0396289929971979 0.7335137073987779 0.6785183740858668
v -0.0893549993634224 0.8862280249595642 0.1240139380097389
vn -0.0831675230498124 0.3506363135646493 0.9328115236850110
v 0.0332029983401299 0.8876950144767761 0.1346429437398911
vn -0.0107267975741273 0.1535641922679473 0.9880804494912835
v -0.0776180028915405 0.7806810140609741 0.1323619335889816
vn -0.2018574683666895 0.2724928405396967 0.9407450315144898
v 0.0180380009114742 0.7912390232086182 0.1313059329986572
vn -0.1472653172250985 0.5852941427750991 0.7973353703277894
v -0.0166020002216101 0.6629989743232727 0.2064879685640335
vn 0.0737728162565427 0.8911812424891435 0.4476087182094250
v 0.0690750032663345 0.9498559832572937 0.0726339221000671
vn -0.2106333156367309 0.9179309975379100 -0.3362087002189781
v -0.1467279940843582 0.9431499838829041 -0.0660250708460808
vn 0.1225227950136366 0.8859248053219250 -0.4473537794825874
v 0.0660590007901192 0.9498310089111328 -0.0739240720868111
vn -0.1387261825295203 0.3592090211635681 0.9228889019787254
v -0.0004820000031032 0.6581770181655884 0.2153399586677551
vn -0.1652780086741418 0.3359258022530655 0.9272739806709476
v 0.0250300001353025 0.7905480265617371 0.1352449357509613
vn 0.0465182705987979 0.1512616276758481 0.9873985874475161
v 0.1600749939680099 0.7553640007972717 0.1459729373455048
vn 0.2258498636977170 0.4552660122503132 0.8612344031431980
v 0.2226559966802597 0.8261720538139343 0.1447219401597977
vn 0.4471758140356533 0.8583387528600127 0.2515718121735204
v 0.2515639960765839 0.8981159925460815 0.0676569342613220
vn 0.4278640172392453 0.8181358050377444 -0.3841694772716029
v 0.2522599995136261 0.8971359729766846 -0.0696750655770302
vn -0.8276083021087308 0.4421338655055062 -0.3458065112947741
v -0.4664059877395630 0.6993780732154846 -0.0707960501313210
vn -0.7855172589182902 0.5128930893157193 0.3462705804333850
v -0.4665150046348572 0.6990759968757629 0.0696989446878433
vn -0.5478986070454012 0.7233170993805128 -0.4202612165564059
v -0.3397249877452850 0.8421310186386108 -0.0782480686903000
vn -0.2775582273975481 0.1435491948501976 0.9499237122326144
v -0.3806239962577820 0.6503469944000244 0.1488599479198456
vn -0.5021442907511225 0.6647460496588866 0.5531399467846785
v -0.3403880000114441 0.8422150015830994 0.0748549327254295
vn -0.0598798787340487 0.1266405166527802 0.9901396768460058
v -0.2416809946298599 0.8072580099105835 0.1489739418029785
vn -0.4255162457735163 0.8453306321035428 0.3230356745163563
v -0.2500000000000000 0.8895170092582703 0.0722659304738045
vn -0.1710178231464296 0.2989632051872208 0.9388151607800336
v -0.1877949982881546 0.7288429737091064 0.1342689394950867
vn -0.1341153798349303 0.2809725370801817 0.9502986363761964
v -0.1217229962348938 0.6390519738197327 0.2144339531660080
vn -0.0446268213135002 -0.1832657431153509 0.9820499550531180
v -0.0128220003098249 0.5973089933395386 0.2029899507761002
vn 0.0420935198933049 0.1425761427283974 0.9888883552290842
v 0.0891060009598732 0.6313380002975464 0.2202299535274506
vn -0.2082262964462347 0.2232791912273543 0.9522542791886752
v -0.1962890028953552 0.5566410422325134 0.2179459482431412
vn -0.1565661815240966 0.0275186967861316 0.9872840280943254
v -0.0966750010848045 0.4968149960041046 0.1822379529476166
vn 0.0118484744212121 -0.0380112950497679 0.9992070631768619
v -0.1552730053663254 0.5986329913139343 0.2180219590663910
vn -0.0219804154956863 -0.0097527900651293 0.9997108304007627
v -0.0576209984719753 0.5334320068359375 0.1900659501552582
vn -0.2493187383138571 0.3239434428518534 0.9126339970431052
v -0.0393959991633892 0.4486840367317200 0.2281289696693420
vn -0.0353352408879563 0.0913020002743658 0.9951961442335324
v 0.0575480014085770 0.5277289748191833 0.1935429573059082
vn -0.0375241152243931 0.0605873044323266 0.9974573270663016
v -0.0220069997012615 0.5277060270309448 0.1908549517393112
vn 0.0057445977319208 0.0519445632931499 0.9986334472373647
v -0.0061980001628399 0.4252430200576782 0.2447589635848999
vn 0.0545476611108740 0.0429361064849837 0.9975876119054623
v 0.0839840024709702 0.4990229904651642 0.1916449666023254
vn -0.2312579110565049 0.0997277514861188 0.9677676137158675
v -0.3071030080318451 0.5974959731101990 0.1325939595699310
vn -0.1274645214453121 0.0923538057149110 0.9875340856611938
v -0.2792969942092896 0.6269530057907104 0.1347019523382187
vn -0.0097135038401397 0.1567486231620180 -0.9875907639199344
v -0.0775950103998184 0.7799569964408875 -0.1336420625448227
vn -0.0772048395155083 0.4201286315604061 -0.9041744000460117
v -0.1128109991550446 0.8719050288200378 -0.1399980634450912
vn -0.1708614250131358 0.2734099794907485 -0.9466009489522758
v 0.0152430003508925 0.7896010279655457 -0.1323130577802658
vn -0.0626355998307255 0.3536718413802267 -0.9332700628695667
v 0.0391039997339249 0.8871939778327942 -0.1354130655527115
vn -0.0466667837745189 0.7309488426500083 -0.6808347822495233
v -0.0820309966802597 0.8804700374603271 -0.1319700628519058
vn -0.1246843161692007 0.6141125958012265 -0.7793070902922019
v -0.0224610008299351 0.6631090044975281 -0.2065720409154892
vn -0.0952661379329967 0.3582872841605417 -0.9287381681465420
v 0.0012900000438094 0.6576340198516846 -0.2163670510053635
vn -0.1407419188540340 0.3345306051198256 -0.9318159617196133
v 0.0258140005171299 0.7910180091857910 -0.1366440653800964
vn 0.0684648369305255 0.1855675002973078 -0.9802434743151751
v 0.0934000015258789 0.6281560063362122 -0.2213530391454697
vn 0.0499651803051299 0.1530221028168443 -0.9869588222446705
v 0.1627729982137680 0.7567840218544006 -0.1465960741043091
vn 0.2263920690908703 0.4596487543928351 -0.8587605333490064
v 0.2216800004243851 0.8298050165176392 -0.1442250609397888
vn -0.0586142665917854 0.1230810721244219 -0.9906641294791136
v -0.2421880066394806 0.8077989816665649 -0.1497460603713989
vn -0.3354701662584684 0.1907962028540625 -0.9225272768471331
v -0.3803200125694275 0.6517450213432312 -0.1499380469322205
vn -0.1741159051859781 0.3000778018541965 -0.9378896333767748
v -0.1848350018262863 0.7304650545120239 -0.1355820596218109
vn -0.1753721931279835 0.0778331155568778 -0.9814207048968301
v -0.3083429932594299 0.5982090234756470 -0.1337890475988388
vn -0.0920804234318017 0.0665667103592520 -0.9935240654823453
v -0.1983560025691986 0.5559930205345154 -0.2185890525579453
vn -0.1257890813696491 0.2630850092712431 -0.9565371842771873
v -0.1219960004091263 0.6392080187797546 -0.2153270393610001
vn 0.0118006132088511 0.0516173465017086 -0.9985972136292077
v -0.1435409933328629 0.6100370287895203 -0.2188270390033722
vn -0.0008155542695890 -0.0306544289717759 -0.9995297098414072
v -0.0579929985105991 0.5313789844512939 -0.1909310519695282
vn -0.0137521399240519 0.3172915777430875 -0.9482283128766045
v -0.0146490000188351 0.6541180610656738 -0.2182820439338684
vn -0.0061598186747612 -0.0370742235946349 -0.9992935297392599
v -0.0228610001504421 0.5292350053787231 -0.1918000429868698
vn -0.0913802675127598 0.0531472413998560 -0.9943968108561499
v -0.0966370031237602 0.4977830052375793 -0.1834510415792465
vn -0.0145408482837918 0.0602413768276638 -0.9980779229344247
v -0.1034509986639023 0.4643909931182861 -0.1875410228967667
vn -0.2459566995986510 0.0175386759747645 -0.9691221268589379
v -0.0743819996714592 0.5148350000381470 -0.1863560378551483
vn -0.4971630634281687 -0.0009320388149645 -0.8676566254379471
v -0.0687640011310577 0.4213209748268127 -0.2174180299043655
vn -0.2722207686350742 0.3247154382388613 -0.9057901176834916
v -0.0393729992210865 0.4475759565830231 -0.2290930300951004
vn -0.0414536344185835 0.0955944360296021 -0.9945568359795596
v 0.0562909990549088 0.5292739868164062 -0.1944800615310669
vn -0.0494002775393038 0.0703602658291382 -0.9962976691589178
v -0.0040110000409186 0.4263359606266022 -0.2456890344619751
vn -0.0486181425689036 -0.0226810747875845 0.9985598855650220
v -0.1855469942092896 0.3867190182209015 0.2158299684524536
vn -0.1062443131256422 0.0047841796851694 0.9943285460818273
v -0.1244620010256767 0.3406670391559601 0.2174229770898819
vn -0.0452276185061250 0.2841221076447910 0.9577207789704399
v -0.0940549969673157 0.4038420021533966 0.1957099735736847
vn -0.2371335381639910 0.0068830894043127 0.9714526793200373
v -0.2103880047798157 0.4667090177536011 0.2232509702444077
vn -0.0355007060337973 0.0641355246620065 0.9973095479074844
v -0.1077293732980672 0.4440590860289076 0.1863559292688960
vn -0.3677971699299060 -0.0050495092296038 0.9298923293844789
v -0.0829299986362457 0.4072470366954803 0.1976539641618729
vn -0.5102336669128991 -0.0988711359274930 0.8543337191221143
v -0.0650850012898445 0.4216150343418121 0.2182859629392624
vn -0.1059684672722546 -0.1464253694755742 0.9835295090224342
v -0.0520839989185333 0.3130320310592651 0.2232299745082855
vn -0.0653722332384159 -0.1280037778366258 0.9896168470579781
v -0.0000220000001718 0.3755180239677429 0.2429269701242447
vn -0.2275537513154511 -0.0684259995871165 0.9713584162618707
v -0.2973760068416595 0.3139500021934509 0.1537929773330688
vn -0.2044169430066474 -0.0125498297887220 0.9788034609583740
v -0.3368349969387054 0.4467140436172485 0.1474109739065170
vn -0.1294671317567687 -0.0444593359194981 0.9905865077035285
v -0.1910080015659332 0.1986040174961090 0.1664829850196838
vn -0.2680749784650708 -0.1884830352894326 0.9447803720066554
v -0.3021830022335052 0.1377280205488205 0.1616989821195602
vn -0.1587255896447436 -0.2517629093966394 0.9546840444063511
v -0.1992640048265457 0.0855080112814903 0.1832209974527359
vn -0.0528489135645654 -0.1181255672700753 0.9915913183828144
v -0.0235680006444454 0.1806710213422775 0.1747099906206131
vn -0.8863550752153767 -0.2292672853105732 0.4022576196000073
v -0.5297690033912659 0.2630890011787415 0.0719329789280891
vn -0.5895176305981319 -0.0458059777634740 0.8064556873226801
v -0.5004119873046875 0.3974609971046448 0.0971069708466530
vn -0.8346457947718974 0.1021116072739488 0.5412389647184677
v -0.5430899858474731 0.4947969913482666 0.0683969631791115
vn -0.4206949180128974 -0.1541433241815412 0.8940109739641823
v -0.4486599862575531 0.4774349927902222 0.1431149691343307
vn -0.2587083320552262 -0.0870759337104025 0.9620227547691710
v -0.4496969878673553 0.4864000380039215 0.1461839675903320
vn -0.3224356504909493 -0.0786004732138276 0.9433224352802391
v -0.4076560139656067 0.2822020053863525 0.1533939838409424
vn -0.6514832792385536 -0.5018763155085255 0.5689373434783199
v -0.4291099905967712 0.0784010067582130 0.0747049972414970
vn -0.5994517659316581 -0.7074814949398752 0.3743360984984700
v -0.3449209928512573 0.0088320057839155 0.0794489979743958
vn -0.3660664051689105 -0.7563464710928518 0.5421580974882703
v -0.2514609992504120 -0.0678469911217690 0.0828960090875626
vn -0.2081449081097655 -0.0224468212738761 -0.9778403946670825
v -0.3370369970798492 0.4471710026264191 -0.1480980515480042
vn -0.1549048219710887 -0.0047610628531120 -0.9879179259486154
v -0.2102099955081940 0.4689269661903381 -0.2244270294904709
vn -0.2289503466436081 -0.0672599475321188 -0.9711116507537885
v -0.2981449961662292 0.3136689960956573 -0.1548170298337936
vn -0.0438056567579586 -0.0136821998329997 -0.9989463758599526
v -0.1852249950170517 0.3880529701709747 -0.2172860354185104
vn -0.1997192331871251 -0.0188242796376281 -0.9796723301141415
v -0.1079140007495880 0.4417330026626587 -0.1869530230760574
vn -0.1079430106124839 0.0108331804582978 -0.9940980578700831
v -0.1228619962930679 0.3427669703960419 -0.2186980247497559
vn -0.1277785879503300 -0.0445903516098477 -0.9907998450770620
v -0.1890819966793060 0.1991799920797348 -0.1679020076990128
vn -0.1556172739192436 0.2267494651830083 -0.9614405567153711
v -0.0904129967093468 0.4115110039710999 -0.1937990337610245
vn -0.4328664301316771 -0.0446780444325638 -0.9003502240854611
v -0.0810189992189407 0.4056719839572906 -0.1999280303716660
vn -0.1100077513087456 -0.1445141872425351 -0.9833686716270875
v -0.0509120002388954 0.3155959844589233 -0.2255900353193283
vn 0.0138429957992491 -0.0981268844406185 -0.9950776281362573
v 0.0002570000069682 0.3754569590091705 -0.2443240433931351
vn -0.2485919996095353 -0.1481673456449632 -0.9572086791367171
v -0.3009609878063202 0.1364019811153412 -0.1627750098705292
vn -0.1574228205023401 -0.2506264980730525 -0.9551986254432774
v -0.1984619945287704 0.0858329832553864 -0.1845269948244095
vn -0.0480850732806733 -0.1193155561363195 -0.9916912946030499
v -0.0244139991700649 0.1806639879941940 -0.1755020171403885
vn -0.8411274277877198 0.0383000945780576 -0.5394791497162110
v -0.5431510210037231 0.4949060380458832 -0.0693350359797478
vn -0.8022921857290919 -0.1949422363532509 -0.5642027766713220
v -0.5298569798469543 0.2641009986400604 -0.0735880210995674
vn -0.5878729189730796 -0.0444053162046489 -0.8077336188563876
v -0.4985300004482269 0.3950679898262024 -0.0991410315036774
vn -0.4236031732436853 -0.1744955973735399 -0.8888822408593458
v -0.4488109946250916 0.4775010347366333 -0.1440080255270004
vn -0.2608721893993102 -0.1091099770825970 -0.9591875279104943
v -0.4497059881687164 0.4851240217685699 -0.1470940262079239
vn -0.3230335841260287 -0.0778487492033633 -0.9431801926324385
v -0.4087829887866974 0.2822850048542023 -0.1539280116558075
vn -0.7134710440233494 -0.5662490220391999 -0.4126997872302358
v -0.4268270134925842 0.0767569914460182 -0.0767450109124184
vn -0.4153456651674515 -0.7259834870913877 -0.5481203835812313
v -0.2516080141067505 -0.0669060051441193 -0.0854839906096458
vn 0.3023753510831801 0.2271804009961949 0.9257203748759836
v 0.3462849855422974 0.7317399978637695 0.1451769471168518
vn 0.2209291619422952 0.1754204193647403 0.9593841680335222
v 0.2813169956207275 0.6513119935989380 0.1429129540920258
vn 0.6651725340712441 0.5979785369111741 0.4471768881671004
v 0.4193060100078583 0.7642800211906433 0.0653209388256073
vn 0.7127248045173576 0.6212634861102546 -0.3256609185208259
v 0.4176630079746246 0.7649430036544800 -0.0677940621972084
vn 0.3635764128003892 0.0524418037727238 0.9300871191841461
v 0.4437690079212189 0.5358340144157410 0.1499849557876587
vn 0.8641245199296415 0.2342343914071265 0.4454470383092693
v 0.5229820013046265 0.5649049878120422 0.0687929540872574
vn 0.0750205197785600 0.0525359467134901 0.9957971158399045
v 0.1758099943399429 0.5704060196876526 0.2261779606342316
vn -0.0560273490087066 0.0172271702278424 0.9982806022201359
v 0.1269530057907104 0.4482420086860657 0.1943619698286057
vn 0.2224551684189230 0.0773322482894862 0.9718710930047265
v 0.2304880023002625 0.4602460265159607 0.2315429747104645
vn 0.5205395737504914 0.2788091484194975 0.8070340828721246
v 0.2246090024709702 0.5224609971046448 0.2070239484310150
vn 0.2787411084021427 0.0660359154588466 0.9580932378199197
v 0.3544709980487823 0.4983960390090942 0.1417059600353241
vn 0.3713295584326206 -0.0280746154330699 0.9280765997494604
v 0.3603520095348358 0.3750000298023224 0.1376969665288925
vn 0.4750177938673967 -0.2645623342908272 0.8392644796391303
v 0.2373200058937073 0.3130170404911041 0.2186439633369446
vn 0.1383030490490277 0.1519735862601248 0.9786604598649006
v 0.3652580082416534 0.3819099962711334 0.1341979652643204
vn 0.3193253725015140 -0.0192179208430354 0.9474502509341797
v 0.4170140027999878 0.2021460086107254 0.1430829912424088
vn 0.3251332008935795 0.0646071651969101 0.9434586985564946
v 0.4581609964370728 0.3742240071296692 0.1460109651088715
vn 0.8517273398208521 -0.0988327534372038 0.5145800476599492
v 0.5416049957275391 0.3510789871215820 0.0795189738273621
vn 0.7324260754675418 0.0358391140346269 0.6799026414718714
v 0.4602789878845215 0.4969460368156433 0.1311179548501968
vn 0.7994745365260881 0.2088412166783671 -0.5632280281224434
v 0.5230209827423096 0.5639119744300842 -0.0697410479187965
vn 0.9258671703998824 -0.0976545883804564 -0.3650117315155211
v 0.5415999889373779 0.3504790067672729 -0.0804870277643204
vn 0.3272641140419908 0.0554965189344714 -0.9433018265891711
v 0.4575549960136414 0.3726269900798798 -0.1471020281314850
vn 0.8365508269437449 -0.3983855199312900 0.3761272277419067
v 0.4880100190639496 0.1522949934005737 0.0692049860954285
vn 0.0518611421738230 0.0577593278730947 -0.9969825886022660
v 0.0927729979157448 0.4873049557209015 -0.1931430250406265
vn 0.0751638606401536 0.0618906002639756 -0.9952486863355472
v 0.1742019951343536 0.5727130174636841 -0.2271010428667068
vn 0.2221457370070991 0.1798656172385472 -0.9582795162503314
v 0.2802729904651642 0.6494140028953552 -0.1437140405178070
vn 0.0194862703137531 0.0159845831355550 -0.9996823387312802
v 0.1281149983406067 0.4468080103397369 -0.1954650282859802
vn 0.5197481345291974 0.2872913022600397 -0.8045654630290501
v 0.2264399975538254 0.5172049999237061 -0.2085720449686050
vn 0.2587694459691822 0.0664336139086013 -0.9636518815297594
v 0.3529419898986816 0.4997769892215729 -0.1431470513343811
vn 0.3022799711356307 0.2269316728727807 -0.9258125268635133
v 0.3480319976806641 0.7299730181694031 -0.1462090611457825
vn 0.3693397716799997 0.0531031040428553 -0.9277759392204453
v 0.4441379904747009 0.5340660214424133 -0.1509780436754227
vn 0.2256474381136384 0.0796886800909738 -0.9709443588270701
v 0.2317239940166473 0.4598589837551117 -0.2318960279226303
vn -0.0773208687229076 0.0100324899114557 -0.9969557825731848
v 0.1250459998846054 0.3293099701404572 -0.1986040323972702
vn 0.3489149623799121 -0.0381486498172926 -0.9363776105527845
v 0.3591119945049286 0.3720960021018982 -0.1390240341424942
vn 0.3720151950107798 -0.1959184512970259 -0.9073150804006657
v 0.2373050004243851 0.3124999701976776 -0.2194910496473312
vn 0.0857393028511071 0.1189036259152090 -0.9891969974129633
v 0.3672710061073303 0.3823089897632599 -0.1348760277032852
vn 0.2739463454675121 -0.1423611497081950 -0.9511501999467569
v 0.4159229993820190 0.1876079887151718 -0.1451890319585800
vn 0.7420000995463439 0.0334145584748258 -0.6695665161544058
v 0.4573760032653809 0.4936519861221313 -0.1355820447206497
vn 0.4074289479866379 -0.4780316720505431 0.7781306913745684
v 0.1120069995522499 0.1043080165982246 0.1879109889268875
vn 0.2357867946349103 -0.2300860220439722 0.9441742476554714
v 0.2544290125370026 0.1140610054135323 0.1382239907979965
vn 0.5196225485367244 -0.3669824320748296 0.7715674316614475
v 0.2010450065135956 0.1826170086860657 0.1990689784288406
vn 0.1540863081581341 -0.2913668190875072 0.9441201122595708
v 0.1559869945049286 0.1710340082645416 0.2134119868278503
vn 0.2572915455251286 -0.1507667315834469 0.9545001064687921
v 0.1868239939212799 0.1962800174951553 0.2164719849824905
vn -0.0385670404761120 -0.0251156575898025 0.9989403321183632
v 0.1252489984035492 0.3297140300273895 0.1976819634437561
vn 0.6770314297983188 -0.2478564807656290 0.6929614765683022
v 0.1990080028772354 0.2109830081462860 0.2051229923963547
vn 0.6218345687258681 -0.3164051435877231 0.7163864559361421
v 0.2447950094938278 0.3064670264720917 0.2035679668188095
vn 0.1959305134682192 -0.0790855620521471 0.9774235048160935
v 0.3288970291614532 0.2175820171833038 0.1362149864435196
vn 0.1401410281492400 -0.2734504072114975 0.9516224918659396
v 0.1688469946384430 0.0343960113823414 0.1244769915938377
vn -0.1205072731564698 -0.1172508486114397 0.9857637828690448
v 0.2636719942092896 -0.0224609915167093 0.1153830066323280
vn 0.2969975758103429 -0.5471686253684995 0.7825592216408456
v 0.3283230066299438 -0.0003679900255520 0.1322659999132156
vn 0.4919380806471904 -0.2770733881119707 0.8253649268107480
v 0.3576380014419556 0.0635940060019493 0.1275150030851364
vn 0.7297443122847002 -0.5813883748490982 0.3598066095535969
v 0.3426840007305145 -0.0033039920963347 0.1036999970674515
vn 0.3163942233455332 -0.0566660786845649 0.9469338155119880
v 0.4144909977912903 0.1892480105161667 0.1460679918527603
vn 0.6406977281786015 -0.7274547678659619 0.2455931224929929
v 0.3573870062828064 -0.0121449958533049 0.0508349984884262
vn -0.0480062191791934 -0.0718848063024192 0.9962569836859277
v 0.0762450024485588 0.2337550222873688 0.1850379854440689
vn -0.1360219176827560 0.1081452955926090 0.9847855771441278
v 0.0933779999613762 0.2024550139904022 0.1880159825086594
vn -0.2777186893861275 0.0920345227025025 0.9562436803433392
v 0.1699219942092896 0.1962890177965164 0.2121269851922989
vn -0.0818004438942018 -0.1109914659695851 0.9904491818668103
v 0.0355320014059544 0.0913330167531967 0.1997040063142776
vn 0.2227650708837921 -0.4175901652814895 0.8809053167363207
v 0.1352140009403229 0.0067820092663169 0.1244319975376129
vn 0.0423972268751953 -0.0430599567541067 0.9981724877382804
v 0.0931790024042130 0.1119330152869225 0.2065619975328445
vn -0.1610956704299384 0.2277436620212142 0.9603025613721415
v -0.0244139991700649 0.0859380140900612 0.1843349933624268
vn -0.0081988734518737 -0.1468988337871592 0.9891175416026614
v -0.0432109981775284 0.0581750161945820 0.1890749931335449
vn -0.1948369620759601 -0.4453172746062505 0.8739170916890642
v -0.0327269993722439 -0.0553229935467243 0.1155520156025887
vn 0.2441760063597406 -0.1862709451211043 -0.9516728497345601
v 0.2568359971046448 0.1132809892296791 -0.1380280107259750
vn -0.1304405327127605 -0.1444400365479650 -0.9808783529406865
v 0.2692649960517883 -0.0113530093804002 -0.1187139973044395
vn 0.1433060430063948 -0.3076976169071319 -0.9406304027552592
v 0.2239159941673279 0.0810929909348488 -0.1317780017852783
vn 0.2844443757628952 -0.3786013561671402 -0.8807680796925256
v 0.3268229961395264 -0.0014020099770278 -0.1323940008878708
vn 0.1241242353266313 -0.0112112502354550 -0.9922033471384467
v 0.2818939983844757 0.1081319898366928 -0.1330830156803131
vn 0.3872258099214756 -0.2648003242063660 -0.8831403967834677
v 0.3558300137519836 0.0594809837639332 -0.1284250020980835
vn 0.2136260149391499 -0.1267861205820624 -0.9686532947184813
v 0.3330540060997009 0.2218889892101288 -0.1364520192146301
vn 0.6875599273789078 -0.7031610099953367 -0.1811793042404376
v 0.3597039878368378 -0.0102470032870770 -0.0513710007071495
vn 0.7859185283350044 -0.4413475642434986 -0.4330639610450998
v 0.4874570071697235 0.1505450010299683 -0.0697010159492493
vn 0.4952853656521372 -0.3861309407955291 -0.7782000405623147
v 0.2012699991464615 0.1811819821596146 -0.1996510177850723
vn 0.6686799826855427 -0.2399495954453772 -0.7037693318135297
v 0.1987520009279251 0.2099769860506058 -0.2054970115423203
vn 0.6341484441047882 -0.3424161032273503 -0.6932582225189060
v 0.2462830096483231 0.3079499602317810 -0.2045100331306458
vn 0.4791949263812850 -0.1968467226291512 -0.8553499811893357
v 0.2343996207713226 0.3087550478497803 -0.2202513854826856
vn -0.0401238053461073 -0.0531674599140698 -0.9977791847151520
v 0.0760819986462593 0.2340320050716400 -0.1860030144453049
vn 0.1582268889821644 -0.0981992224756167 -0.9825075899494162
v 0.1860550194978714 0.1950749903917313 -0.2173000127077103
vn -0.1275921610873565 0.1854931683087102 -0.9743267033905283
v 0.0987360030412674 0.1568989902734756 -0.1976560205221176
vn 0.4061881889856757 -0.4762791505447243 -0.7798521179588684
v 0.1092120036482811 0.1068849861621857 -0.1928030103445053
vn 0.1245036961932321 -0.1570717972595951 -0.9797077524138840
v 0.0926790013909340 0.1137349829077721 -0.2080440223217010
vn -0.0029148579884836 -0.1451110833579904 -0.9894110758878624
v -0.0411060005426407 0.0582519844174385 -0.1902760118246078
vn -0.1863172673783415 -0.4378142729501260 -0.8795479169879378
v -0.0330820009112358 -0.0563270077109337 -0.1155359894037247
vn -0.1309023817913028 0.1774747007576049 -0.9753805908630552
v -0.0227010026574135 0.0853129848837852 -0.1850100010633469
vn 0.2143655556942540 -0.3967867017431143 -0.8925288353054565
v 0.1351909935474396 0.0069389906711876 -0.1253300011157990
vn 0.1398796181806596 -0.5786643167699953 0.8034807408486824
v 0.2339600026607513 -0.0569039918482304 0.1089260056614876
vn 0.3152213650780435 -0.8994431121789266 0.3027169948189590
v 0.2290830016136169 -0.0736149922013283 0.0659840106964111
vn 0.3715489969232970 -0.9040648640086698 0.2112298855519197
v 0.2505210041999817 -0.0776569917798042 0.0522000081837177
vn 0.1532301376295536 -0.5849119934164805 -0.7964913589484742
v 0.2440880089998245 -0.0524750091135502 -0.1097959950566292
vn 0.3306711951126463 -0.8951665799669029 -0.2988868595859190
v 0.2295770049095154 -0.0737800076603889 -0.0684469938278198
vn 0.3610906864990994 -0.8878957009859678 -0.2850521711796736
v 0.2504689991474152 -0.0776330083608627 -0.0537709929049015
vn 0.2370237822548709 -0.5967113682641103 0.7666519872993018
v 0.1518719941377640 -0.1108879894018173 0.1012680083513260
vn -0.0317484235100259 -0.9512958463175446 0.3066402621698829
v 0.0006639999919571 -0.1334589868783951 0.1076400056481361
vn 0.1327475112755445 -0.9836753066989846 -0.1214948115797867
v 0.1317639946937561 -0.1186570003628731 0.0401260070502758
vn 0.5152406823095790 -0.6968742201974988 0.4988921331483264
v 0.0302730016410351 -0.1213179901242256 0.0548610091209412
vn -0.1345746124416481 -0.8318373078566335 -0.5384573956628405
v 0.0660070031881332 -0.1127589941024780 0.0493510067462921
vn 0.5795540545448346 -0.7649083731295413 0.2811268015984272
v 0.0543389990925789 -0.1107819974422455 0.0236120074987411
vn 0.0863992881844565 -0.9945484535571826 0.0583826731850808
v 0.1289499998092651 -0.1190470010042191 -0.0395619943737984
vn 0.3373509953483277 -0.8875449384430035 0.3137806370407478
v 0.0292969997972250 -0.1222480088472366 -0.0559199936687946
vn -0.1506059781992456 -0.7745630120113984 0.6143044682846436
v 0.0726279988884926 -0.1128669977188110 -0.0472949929535389
vn 0.7631473401241960 -0.5658287640319380 -0.3121601304706509
v 0.0549560002982616 -0.1107010021805763 -0.0223909933120012
vn 0.2262336244214211 -0.5967376808450814 -0.7698847234753923
v 0.1543540060520172 -0.1099820062518120 -0.1030189916491508
vn 0.0351946327936824 -0.9830090013464569 -0.1801517168787446
v 0.0024929998908192 -0.1324090212583542 -0.1099529936909676
vn 0.2672461873183599 -0.7476044515761165 0.6080025159054642
v -0.0340769998729229 -0.1232889965176582 0.0543810091912746
vn 0.1631080697346645 -0.9749438422225353 -0.1512622295875348
v -0.0164537765033860 -0.1189610989568714 0.0577404948860359
vn 0.0692183680573834 -0.9840189837475800 -0.1640593098481533
v -0.0068359998986125 -0.1338459998369217 0.0898440107703209
vn 0.1553378202022545 -0.9420260493326315 -0.2974173565775313
v -0.0012629999546334 -0.1294890046119690 0.0858070105314255
vn 0.4418071359916992 -0.8405582839338837 -0.3134776322115131
v 0.0326769985258579 -0.1118549928069115 0.0532980076968670
vn -0.6056184162507879 -0.4458506089043977 0.6591233332521808
v -0.0604860000312328 -0.1344199925661087 0.0541850104928017
vn -0.2261553283225342 -0.9434407980769962 -0.2424319038310910
v -0.0536150000989437 -0.1011530011892319 0.0323320068418980
vn 0.3308983467106993 -0.5581513887655737 -0.7609029579145997
v -0.0573129989206791 -0.1328040063381195 0.0512350127100945
vn 0.5749639875487709 -0.6601789315311724 -0.4833013463506762
v -0.0523540005087852 -0.1010909974575043 0.0456130057573318
vn -0.3818302632434225 -0.8292985246354111 -0.4080068713992316
v -0.0382790006697178 -0.1022079959511757 0.0504520088434219
vn 0.3901877217324742 -0.7576983147500492 -0.5231126127653171
v -0.0543100014328957 -0.1019449979066849 -0.0296999923884869
vn -0.6057644829213631 -0.6847685347435056 -0.4051437338232519
v -0.0605470016598701 -0.1335379928350449 -0.0564519874751568
vn 0.2333475798463777 -0.6211092017914802 0.7481793009899355
v -0.0532290004193783 -0.1020390018820763 -0.0481039918959141
vn -0.4571055410199437 -0.6227787843001900 -0.6349811888508525
v -0.0354770012199879 -0.1019390076398849 -0.0522579923272133
vn 0.0481261079022839 -0.5658194312195600 0.8231234712924612
v -0.0568609982728958 -0.1329530030488968 -0.0532959885895252
vn 0.2794588987565252 -0.6614696971231602 0.6959601739277794
v -0.0174109991639853 -0.1195930093526840 -0.0588539913296700
vn -0.0246282523495379 -0.9965479960325510 -0.0792814025463386
v -0.0078119998797774 -0.1329829990863800 -0.0908199921250343
vn 0.3748264263031789 -0.8922306964002323 0.2518522077448286
v 0.0345420017838478 -0.1095840111374855 -0.0513769909739494
vn -0.9531330023728791 0.0110619419450636 0.3023493231810933
v -0.0689330026507378 -0.6178640127182007 0.0242340471595526
vn -0.2580108141744452 0.0078282587297120 0.9661103136465840
v -0.0384769998490810 -0.3793460130691528 0.0583210289478302
vn -0.8451449512881003 0.0051716890730328 -0.5345121747391416
v -0.0689499974250793 -0.6056830286979675 -0.0237669534981251
vn -0.4554593113702918 0.0228983123158045 -0.8899620682811079
v -0.0392530001699924 -0.5123850107192993 -0.0619689635932446
vn 0.3897508821168978 0.0189357131644149 -0.9207256315841625
v 0.0349470004439354 -0.5943080186843872 -0.0630899518728256
vn 0.4541647923137628 0.0178738374869869 0.8907383832282549
v 0.0326590016484261 -0.3874000012874603 0.0591010302305222
vn 0.9471970862319778 0.0163260314790308 0.3202360700011743
v 0.0581919997930527 -0.3807309865951538 0.0241430271416903
vn -0.3771417925254348 -0.2012249407264699 -0.9040313000999083
v -0.0451980009675026 -0.8618440032005310 -0.0669849365949631
vn -0.3741435926841712 -0.2035564640990285 0.9047548496564591
v -0.0439720004796982 -0.8621349930763245 0.0665150657296181
vn 0.9339563185469226 0.0170431486822039 0.3569805682796694
v 0.0639659985899925 -0.6751279830932617 0.0230200495570898
vn 0.5130214351710787 -0.2069178104193679 0.8330630389029762
v 0.0384900011122227 -0.8770200014114380 0.0660740733146667
vn 0.9535241575157810 -0.1431210491929940 -0.2651566448568031
v 0.0678580030798912 -0.8945760130882263 -0.0220809336751699
vn -0.9387458079183374 -0.2645586094329451 -0.2208281012250354
v -0.0747459977865219 -0.8909829854965210 -0.0228469334542751
vn -0.9015464118009268 -0.2547593318561381 0.3497309683186317
v -0.0748410001397133 -0.8900870084762573 0.0228720661252737
vn 0.4101786463077474 -0.2602799689847051 -0.8740754062770927
v 0.0385829992592335 -0.8752149939537048 -0.0671129301190376
vn 0.9017150053927386 -0.3454696237115121 0.2599245816428293
v 0.0678509995341301 -0.8951370120048523 0.0221950672566891
vn -0.4476212043623576 -0.7426921619166510 -0.4980397675213936
v -0.0347520001232624 -0.9509589672088623 -0.0250299274921417
vn -0.4711619615520614 -0.8197013455463372 0.3257239783865139
v -0.0337829999625683 -0.9516990184783936 0.0229310728609562
vn 0.4010387156436026 -0.8081693362453058 -0.4313122679773341
v 0.0289639998227358 -0.9509009718894958 -0.0232059266418219
vn 0.3384412736367449 -0.7324443248851206 0.5907476747670851
v 0.0271300002932549 -0.9517240524291992 0.0230440720915794
# 252 vertices, 0 vertices normals


usemtl material_0
vt 0.3898679912090302 0.4931939840316772
vt 0.2997359931468964 0.4382590055465698
vt 0.3898679912090302 0.4397050142288208
f 105/1/105 82/2/82 84/3/84
vt 0.3000839948654175 0.4947730302810669
f 105/1/105 106/4/106 82/2/82
vt 0.4746850132942200 0.4938110113143921
f 84/3/84 17/5/17 105/1/105
vt 0.0524710007011890 0.1070610284805298
vt 0.1021749973297119 0.0850999951362610
vt 0.1423790007829666 0.0997329950332642
f 82/6/82 83/7/83 84/8/84
vt 0.1293780058622360 0.0542759895324707
vt 0.1329600065946579 0.0533319711685181
f 84/8/84 85/9/85 86/10/86
vt 0.8037319779396057 0.0669189691543579
vt 0.8288959860801697 0.0268120169639587
vt 0.8946570158004761 0.0481790304183960
f 84/11/84 86/12/86 20/13/20
f 84/8/84 83/7/83 85/9/85
vt 0.5930430293083191 0.6006699800491333
vt 0.5924999713897705 0.6654559969902039
vt 0.4973019957542419 0.6654559969902039
f 82/14/82 106/15/106 111/16/111
vt 0.9489949941635132 0.6055759787559509
vt 0.9336799979209900 0.5643079876899719
vt 0.9561759829521179 0.5160650014877319
f 105/17/105 107/18/107 106/19/106
vt 0.4745920002460480 0.4392490386962891
f 84/3/84 18/20/18 17/5/17
vt 0.4994280040264130 0.5980510115623474
f 111/16/111 88/21/88 82/14/82
vt 0.9036170244216919 0.5925469994544983
f 105/17/105 108/22/108 107/18/107
vt 0.9026889801025391 0.5956230163574219
f 105/17/105 109/23/109 108/22/108
vt 0.8833550214767456 0.0960479974746704
f 84/11/84 20/13/20 18/24/18
vt 0.5033590197563171 0.4934870004653931
vt 0.4312080144882202 0.5589420199394226
vt 0.4100640118122101 0.4967449903488159
f 88/25/88 87/26/87 82/27/82
vt 0.8993120193481445 0.5152699947357178
f 110/28/110 106/19/106 107/18/107
vt 0.5248219966888428 0.0969319939613342
vt 0.5290960073471069 0.0480830073356628
vt 0.6096190214157104 0.0950350165367126
f 17/29/17 51/30/51 105/31/105
vt 0.3229930102825165 0.7302880287170410
vt 0.3519070148468018 0.6395869851112366
vt 0.4053120017051697 0.6769809722900391
f 111/32/111 106/33/106 110/34/110
vt 0.5991950035095215 0.0488330125808716
f 105/31/105 51/30/51 109/35/109
vt 0.0519820004701614 0.0495349764823914
f 85/9/85 83/7/83 87/36/87
f 82/6/82 87/36/87 83/7/83
vt 0.8133209943771362 0.0968480110168457
vt 0.8880890011787415 0.0968480110168457
vt 0.8660690188407898 0.2077850103378296
f 51/37/51 17/38/17 19/39/19
f 107/18/107 108/22/108 110/28/110
vt 0.2594040036201477 0.8997679948806763
vt 0.2594040036201477 0.8385570049285889
vt 0.3425500094890594 0.9031909704208374
f 17/40/17 18/41/18 19/42/19
vt 0.3456180095672607 0.2648479938507080
vt 0.3941299915313721 0.2148779630661011
vt 0.4218960106372833 0.2504160404205322
f 87/43/87 77/44/77 85/45/85
vt 0.6068620085716248 0.9032409787178040
vt 0.5382789969444275 0.8429830074310303
vt 0.6211339831352234 0.8499789834022522
f 20/46/20 21/47/21 18/48/18
vt 0.4254179894924164 0.2492710351943970
f 85/45/85 77/44/77 86/49/86
vt 0.3016200065612793 0.2372269630432129
vt 0.3035080134868622 0.2398259639739990
vt 0.2584869861602783 0.2500759959220886
f 108/50/108 109/51/109 91/52/91
vt 0.2483640015125275 0.1809430122375488
f 110/53/110 108/50/108 91/52/91
vt 0.5103309750556946 0.5663419961929321
f 88/25/88 79/54/79 87/26/87
vt 0.4438410103321075 0.1812750101089478
vt 0.4741579890251160 0.2002239823341370
f 86/49/86 37/55/37 20/56/20
vt 0.3425279855728149 0.8364869952201843
f 18/41/18 21/57/21 19/42/19
vt 0.3909780085086823 0.7565590143203735
f 111/32/111 110/34/110 102/58/102
vt 0.2796790003776550 0.3061699867248535
vt 0.3149639964103699 0.3089870214462280
f 53/59/53 109/51/109 51/60/51
vt 0.4508369863033295 0.5953069925308228
f 111/16/111 89/61/89 88/21/88
f 86/49/86 77/44/77 37/55/37
vt 0.3405449986457825 0.2205389738082886
f 87/43/87 76/62/76 77/44/77
vt 0.5496820211410522 0.5078989863395691
f 88/25/88 89/63/89 79/54/79
vt 0.2182690054178238 0.2139450311660767
f 110/53/110 91/52/91 93/64/93
vt 0.5656880140304565 0.1246129870414734
vt 0.6890950202941895 0.1246129870414734
vt 0.5702090263366699 0.1783950328826904
f 51/65/51 50/66/50 53/67/53
f 53/59/53 91/52/91 109/51/109
vt 0.7737339735031128 0.0921660065650940
vt 0.6981310248374939 0.1166470050811768
vt 0.7423800230026245 0.0520340204238892
f 87/68/87 79/69/79 76/70/76
vt 0.5159940123558044 0.8942419886589050
f 20/46/20 22/71/22 21/47/21
vt 0.9555370211601257 0.7955909967422485
vt 0.9555370211601257 0.8746010065078735
vt 0.9064970016479492 0.8103110194206238
f 93/72/93 102/73/102 110/74/110
vt 0.2135200053453445 0.5693550109863281
vt 0.2719480097293854 0.5807120203971863
vt 0.2240909934043884 0.6670039892196655
f 19/75/19 50/76/50 51/77/51
vt 0.6010140180587769 0.5235710144042969
f 79/54/79 89/63/89 90/78/90
vt 0.3963829874992371 0.6680359840393066
f 111/16/111 112/79/112 89/61/89
vt 0.8726580142974854 0.4846509695053101
vt 0.8726580142974854 0.4657709598541260
vt 0.9151600003242493 0.4898509979248047
f 37/80/37 38/81/38 20/82/20
vt 0.3869709968566895 0.8377590179443359
f 21/57/21 23/83/23 19/42/19
vt 0.3255029916763306 0.8312090039253235
f 102/58/102 112/84/112 111/32/111
vt 0.7653599977493286 0.6220059990882874
vt 0.8428980112075806 0.6194670200347900
vt 0.8428980112075806 0.6751880049705505
f 112/85/112 90/86/90 89/87/89
vt 0.5846509933471680 0.9465939998626709
vt 0.6757419705390930 0.8798140287399292
vt 0.6646800041198730 0.9680370092391968
f 76/88/76 70/89/70 77/90/77
vt 0.9173719882965088 0.3923239707946777
f 20/82/20 38/81/38 22/91/22
vt 0.7648460268974304 0.6196950078010559
vt 0.7488809823989868 0.7102410197257996
vt 0.6760460138320923 0.6268789768218994
f 91/92/91 53/93/53 92/94/92
vt 0.7562350034713745 0.9566469788551331
f 77/90/77 70/89/70 37/95/37
vt 0.5544040203094482 0.5941259860992432
f 79/54/79 90/78/90 80/96/80
vt 0.7481309771537781 0.5385000109672546
f 93/97/93 91/92/91 92/94/92
vt 0.4061110019683838 0.8060969710350037
f 112/84/112 102/58/102 103/98/103
vt 0.0964550003409386 0.7768089771270752
vt 0.0379390008747578 0.7425150275230408
vt 0.0997330024838448 0.7582160234451294
f 37/99/37 28/100/28 38/101/38
vt 0.7298809885978699 0.8736559748649597
f 37/95/37 70/89/70 28/102/28
vt 0.6681849956512451 0.5769109725952148
f 93/97/93 92/94/92 94/103/94
vt 0.6738989949226379 0.0658389925956726
f 79/69/79 78/104/78 76/70/76
vt 0.8736259937286377 0.4020360112190247
f 38/81/38 24/105/24 22/91/22
vt 0.4531500041484833 0.9031130075454712
vt 0.4943839907646179 0.8500559926033020
f 21/47/21 2/106/2 23/107/23
f 21/47/21 22/71/22 2/106/2
vt 0.1141249984502792 0.6961200237274170
f 28/100/28 24/108/24 38/101/38
vt 0.6683830022811890 0.6787549853324890
f 92/94/92 53/93/53 54/109/54
vt 0.9943339824676514 0.8540530204772949
vt 0.9943339824676514 0.9254029989242554
vt 0.9397040009498596 0.8883010149002075
f 78/110/78 79/111/79 80/112/80
vt 0.6266019940376282 0.8693240284919739
f 76/88/76 67/113/67 70/89/70
vt 0.4374740123748779 0.8981739878654480
f 19/42/19 23/83/23 9/114/9
vt 0.2837710082530975 0.4936200380325317
vt 0.3189379870891571 0.5308449864387512
f 19/75/19 9/115/9 40/116/40
f 19/75/19 40/116/40 50/76/50
vt 0.6773350238800049 0.1810259819030762
f 52/117/52 53/67/53 50/66/50
vt 0.6979140043258667 0.4098880290985107
vt 0.6504660248756409 0.4640159606933594
vt 0.6331729888916016 0.4019390344619751
f 102/118/102 97/119/97 103/120/103
vt 0.4370130002498627 0.8404099941253662
f 23/83/23 1/121/1 9/114/9
vt 0.7298679947853088 0.5041120052337646
f 102/118/102 93/122/93 97/119/97
vt 0.1460520029067993 0.3041470050811768
vt 0.2345999926328659 0.3041470050811768
vt 0.1613769978284836 0.3854830265045166
f 76/123/76 78/124/78 67/125/67
vt 0.8986089825630188 0.4884650111198425
vt 0.8986089825630188 0.5956240296363831
vt 0.8169000148773193 0.5151429772377014
f 53/126/53 52/127/52 54/128/54
vt 0.6783900260925293 0.5698639750480652
f 93/122/93 94/129/94 97/119/97
vt 0.4448280036449432 0.8575019836425781
f 23/107/23 2/106/2 1/130/1
vt 0.0379239991307259 0.4142029881477356
vt 0.0379239991307259 0.3597149848937988
vt 0.1000420004129410 0.3625420331954956
f 28/131/28 70/132/70 71/133/71
vt 0.2957229912281036 0.0086119771003723
vt 0.3598659932613373 0.0086119771003723
vt 0.3580990135669708 0.0216000080108643
f 92/134/92 61/135/61 95/136/95
vt 0.9999759793281555 0.7997789978981018
vt 0.9575530290603638 0.8306019902229309
vt 0.9547060132026672 0.7499619722366333
f 92/137/92 54/138/54 61/139/61
vt 0.3392319977283478 0.0488870143890381
vt 0.3121030032634735 0.1323820352554321
vt 0.2352890074253082 0.0651829838752747
f 80/140/80 90/141/90 174/142/174
vt 0.9984570145606995 0.6807609796524048
vt 0.9984570145606995 0.7338169813156128
vt 0.9570659995079041 0.6739630103111267
f 24/143/24 5/144/5 22/145/22
vt 0.1093410030007362 0.9042310118675232
vt 0.0519910007715225 0.8951439857482910
vt 0.0561939999461174 0.8149449825286865
f 78/146/78 80/147/80 173/148/173
vt 0.0441550016403198 0.8854039907455444
vt 0.0499989986419678 0.9562169909477234
vt 0.0312669984996319 0.9630349874496460
f 54/149/54 60/150/60 61/151/61
vt 0.2039629966020584 0.3917239904403687
f 67/125/67 78/124/78 68/152/68
vt 0.9545239806175232 0.5480129718780518
vt 0.9998999834060669 0.5400120019912720
vt 0.9527680277824402 0.6039140224456787
f 52/153/52 50/154/50 39/155/39
vt 0.6057119965553284 0.0006399750709534
vt 0.6057119965553284 0.0512229800224304
vt 0.5488700270652771 0.0160139799118042
f 94/156/94 92/157/92 95/158/95
vt 0.7959139943122864 0.0271729826927185
vt 0.7393329739570618 0.0271729826927185
vt 0.7898989915847778 0.0005210041999817
f 28/159/28 29/160/29 30/161/30
vt 0.1450970023870468 0.4204950332641602
vt 0.2990109920501709 0.4744020104408264
vt 0.1882880032062531 0.5052610039710999
f 54/162/54 52/163/52 55/164/55
vt 0.8405770063400269 0.5650309920310974
vt 0.8784559965133667 0.5869010090827942
vt 0.8467739820480347 0.6756529808044434
f 94/165/94 96/166/96 97/167/97
vt 0.0503300018608570 0.6922649741172791
f 24/108/24 28/100/28 25/168/25
vt 0.0431360006332397 0.7156919836997986
f 28/100/28 30/169/30 25/168/25
vt 0.8494259715080261 0.2920830249786377
vt 0.8792340159416199 0.3406679630279541
vt 0.8344659805297852 0.3331849575042725
f 94/170/94 98/171/98 96/172/96
vt 0.1033409982919693 0.0221700072288513
vt 0.1511290073394775 0.0066429972648621
vt 0.1534560024738312 0.0663679838180542
f 70/173/70 67/174/67 71/175/71
vt 0.9557219743728638 0.7374169826507568
f 2/176/2 22/145/22 5/144/5
vt 0.8292710185050964 0.1326559782028198
vt 0.7896299958229065 0.2303029894828796
vt 0.7422299981117249 0.1402720212936401
f 103/177/103 194/178/194 112/179/112
vt 0.9346489906311035 0.4011620283126831
vt 0.9346489906311035 0.3208919763565063
vt 0.9591069817543030 0.3332630395889282
f 28/180/28 71/181/71 29/182/29
vt 0.9992550015449524 0.6085280179977417
f 50/154/50 40/183/40 39/155/39
vt 0.3091349899768829 0.3627899885177612
f 78/124/78 81/184/81 68/152/68
vt 0.1710450053215027 0.4798890352249146
f 54/162/54 55/164/55 56/185/56
vt 0.1907750070095062 0.5917310118675232
f 55/164/55 52/163/52 44/186/44
vt 0.7759270071983337 0.5284169912338257
f 112/85/112 226/187/226 90/86/90
vt 0.0391740016639233 0.6431990265846252
f 25/168/25 7/188/7 24/108/24
vt 0.8286920189857483 0.2389199733734131
vt 0.8320840001106262 0.3004549741744995
vt 0.7735430002212524 0.2922279834747314
f 67/189/67 68/190/68 69/191/69
vt 0.3297829926013947 0.5196359753608704
f 9/115/9 43/192/43 40/116/40
vt 0.4092180132865906 0.3868969678878784
vt 0.2806409895420074 0.4459429979324341
vt 0.2560310065746307 0.3783259987831116
f 90/193/90 220/194/220 174/195/174
vt 0.4391869902610779 0.2842670083045959
vt 0.4927229881286621 0.2477319836616516
vt 0.5532839894294739 0.3280999660491943
f 54/196/54 56/197/56 57/198/57
vt 0.7432669997215271 0.2344490289688110
f 112/179/112 194/178/194 226/199/226
vt 0.0658029988408089 0.9604809880256653
f 60/150/60 54/149/54 62/200/62
vt 0.0795079991221428 0.9619349837303162
f 57/201/57 62/200/62 54/149/54
vt 0.9384710192680359 0.8762099742889404
vt 0.9384710192680359 0.9692080020904541
vt 0.8500490188598633 0.9400349855422974
f 104/202/104 97/203/97 96/204/96
vt 0.1097740009427071 0.6396059989929199
f 7/188/7 5/205/5 24/108/24
vt 0.5981379747390747 0.9185829758644104
vt 0.5765820145606995 0.9581630229949951
vt 0.5684480071067810 0.9482730031013489
f 1/206/1 2/207/2 3/208/3
vt 0.8936889767646790 0.3265680074691772
f 98/171/98 94/170/94 95/209/95
vt 0.7669209837913513 0.2990399599075317
f 68/190/68 72/210/72 69/191/69
vt 0.4966999888420105 0.0264530181884766
vt 0.5051259994506836 0.0164110064506531
vt 0.5151969790458679 0.0506259799003601
f 95/211/95 61/212/61 63/213/63
vt 0.5998330116271973 0.1236709952354431
vt 0.6525939702987671 0.0510519742965698
vt 0.6675379872322083 0.1049469709396362
f 44/214/44 52/215/52 39/216/39
vt 0.8799030184745789 0.6848210096359253
vt 0.9001529812812805 0.7263389825820923
vt 0.8358950018882751 0.6942489743232727
f 71/217/71 73/218/73 29/219/29
vt 0.7527109980583191 0.2657009959220886
f 67/189/67 69/191/69 71/220/71
vt 0.8268749713897705 0.5267249941825867
f 220/221/220 90/86/90 226/187/226
vt 0.1193009987473488 0.8194079995155334
f 173/148/173 81/222/81 78/146/78
vt 0.0799539983272552 0.6403220295906067
vt 0.0345459990203381 0.6323149800300598
vt 0.0970389991998672 0.5785139799118042
f 103/223/103 97/224/97 193/225/193
vt 0.5165029764175415 0.0006030201911926
f 63/213/63 61/212/61 60/226/60
f 69/191/69 72/210/72 71/220/71
vt 0.5003269910812378 0.0527709722518921
f 95/211/95 63/213/63 99/227/99
vt 0.0776510015130043 0.3844360113143921
vt 0.1009910032153130 0.3636429905891418
vt 0.1420920044183731 0.4223409891128540
f 25/228/25 30/229/30 31/230/31
vt 0.8756250143051147 0.9691100120544434
vt 0.7830619812011719 0.9697279930114746
vt 0.8472149968147278 0.9452720284461975
f 68/231/68 81/232/81 74/233/74
vt 0.4965890049934387 0.0466459989547729
f 95/211/95 99/227/99 98/234/98
vt 0.8763440251350403 0.3472360372543335
f 96/172/96 98/171/98 99/235/99
vt 0.8202840089797974 0.3619079589843750
f 68/190/68 74/236/74 72/210/72
vt 0.9103279709815979 0.7036870121955872
f 71/217/71 72/237/72 73/218/73
vt 0.8288949728012085 0.3766440153121948
f 99/235/99 100/238/100 96/172/96
vt 0.0491920001804829 0.0491260290145874
vt 0.0402759984135628 0.0353980064392090
vt 0.0975010022521019 0.0321220159530640
f 60/239/60 62/240/62 63/241/63
vt 0.1645440012216568 0.3993700146675110
f 30/229/30 29/242/29 31/230/31
vt 0.3067109882831573 0.2440720200538635
vt 0.3136300146579742 0.2102299928665161
vt 0.3765600025653839 0.1921849846839905
f 96/243/96 100/244/100 104/245/104
vt 0.5156419873237610 0.2273409962654114
f 56/197/56 55/246/55 57/198/57
vt 0.9187459945678711 0.3209680318832397
vt 0.9340010285377502 0.3213430047035217
vt 0.9340010285377502 0.4122079610824585
f 245/247/245 246/248/246 233/249/233
vt 0.9179620146751404 0.4161919951438904
f 233/249/233 235/250/235 245/247/245
vt 0.1773400008678436 0.5958899855613708
f 55/164/55 44/186/44 58/251/58
vt 0.8673419952392578 0.4017739892005920
f 99/235/99 101/252/101 100/238/100
vt 0.1459729969501495 0.1106410026550293
vt 0.0398279987275600 0.1106410026550293
vt 0.1416720002889633 0.1008390188217163
f 233/253/233 226/254/226 235/255/235
vt 0.8796920180320740 0.7497400045394897
f 29/219/29 73/218/73 32/256/32
vt 0.0849779993295670 0.0117999911308289
f 63/241/63 62/240/62 64/257/64
vt 0.5694779753684998 0.3330960273742676
vt 0.4103809893131256 0.3330960273742676
vt 0.4123390018939972 0.2968130111694336
f 233/258/233 220/259/220 226/260/226
vt 0.5165849924087524 0.9432700276374817
f 2/207/2 4/261/4 3/208/3
vt 0.8983929753303528 0.0313569903373718
vt 0.9479500055313110 0.0474590063095093
vt 0.8939849734306335 0.0631740093231201
f 29/262/29 32/263/32 31/264/31
vt 0.9326670169830322 0.5083180069923401
vt 0.9175509810447693 0.4225890040397644
vt 0.9354199767112732 0.4131320118904114
f 235/265/235 240/266/240 245/267/245
vt 0.4010289907455444 0.0959799885749817
vt 0.4095369875431061 0.0777360200881958
vt 0.4917199909687042 0.0903490185737610
f 246/268/246 241/269/241 233/270/233
vt 0.0284359995275736 0.7085710167884827
vt 0.0304770004004240 0.7095230221748352
vt 0.0287239998579025 0.7239559888839722
f 226/271/226 229/272/229 227/273/227
vt 0.0290399994701147 0.6682900190353394
vt 0.0290399994701147 0.7012969851493835
vt 0.0177880004048347 0.6774910092353821
f 225/274/225 226/275/226 227/276/227
vt 0.6001139879226685 0.2209910154342651
vt 0.5893440246582031 0.1799259781837463
vt 0.6400079727172852 0.2243390083312988
f 39/277/39 40/278/40 41/279/41
vt 0.1149929985404015 0.6782389879226685
vt 0.1149929985404015 0.5191429853439331
vt 0.1256919950246811 0.5981789827346802
f 220/280/220 233/281/233 234/282/234
vt 0.6489940285682678 0.1835439801216125
f 40/278/40 42/283/42 41/279/41
vt 0.0068500000052154 0.6753370165824890
vt 0.0068500000052154 0.7033129930496216
vt 0.0047309999354184 0.6777380108833313
f 220/284/220 221/285/221 222/286/222
vt 0.9720119833946228 0.4618859887123108
vt 0.9973520040512085 0.4980750083923340
vt 0.9694150090217590 0.5225049853324890
f 249/287/249 245/288/245 240/289/240
vt 0.0319049991667271 0.0244489908218384
f 62/240/62 57/290/57 64/257/64
vt 0.0291249994188547 0.6029670238494873
vt 0.0287180002778769 0.6262859702110291
vt 0.0051150000654161 0.6352000236511230
f 63/291/63 64/292/64 66/293/66
vt 0.0261710006743670 0.7411969900131226
vt 0.0261710006743670 0.7668600082397461
vt 0.0181389991194010 0.7622900009155273
f 222/294/222 221/295/221 223/296/223
vt 0.0301649998873472 0.4297739863395691
vt 0.0021540001034737 0.4297739863395691
vt 0.0294100008904934 0.3844259977340698
f 246/297/246 245/298/245 250/299/250
vt 0.8191890120506287 0.0271260142326355
vt 0.7966210246086121 0.0267940163612366
vt 0.7966210246086121 0.0164560079574585
f 222/300/222 223/301/223 224/302/224
vt 0.0152679998427629 0.7789530158042908
vt 0.0236050002276897 0.7908599972724915
vt 0.0146629996597767 0.8021140098571777
f 225/303/225 227/304/227 228/305/228
vt 0.3981780111789703 0.9696930050849915
vt 0.3872680068016052 0.9620540142059326
vt 0.5533159971237183 0.9598129987716675
f 226/306/226 228/307/228 235/308/235
vt 0.0000460000010207 0.3856450319290161
f 245/298/245 249/309/249 250/299/250
vt 0.9718419909477234 0.4097650051116943
vt 0.9823369979858398 0.3872590065002441
vt 0.9801610112190247 0.4611799716949463
f 73/310/73 72/311/72 35/312/35
vt 0.4385100007057190 0.0350649952888489
vt 0.4164749979972839 0.0279049873352051
vt 0.4354839920997620 0.0021960139274597
f 225/313/225 228/314/228 226/315/226
vt 0.9598289728164673 0.4743800163269043
vt 0.9711880087852478 0.4547060132026672
vt 0.9678800106048584 0.5301880240440369
f 235/316/235 236/317/236 240/318/240
vt 0.8109719753265381 0.0116450190544128
f 222/300/222 224/302/224 215/319/215
vt 0.0255789998918772 0.7097020149230957
vt 0.0255789998918772 0.7369239926338196
vt 0.0096680000424385 0.7327129840850830
f 220/320/220 224/321/224 221/322/221
vt 0.0084410002455115 0.7083640098571777
vt 0.0031409999355674 0.7159330248832703
vt 0.0031630001030862 0.6994749903678894
f 223/323/223 221/324/221 224/325/224
vt 0.5117759704589844 0.0869500041007996
vt 0.4313110113143921 0.0799109935760498
vt 0.5154089927673340 0.0782679915428162
f 220/326/220 234/327/234 215/328/215
vt 0.8452849984169006 0.7086330056190491
vt 0.8809300065040588 0.7694119811058044
vt 0.8451529741287231 0.7824339866638184
f 25/329/25 26/330/26 11/331/11
vt 0.0099060004577041 0.2659490108489990
vt 0.0029269999358803 0.3055310249328613
vt 0.0016740000573918 0.2533819675445557
f 63/332/63 66/333/66 99/334/99
vt 0.5822100043296814 0.3345919847488403
f 55/246/55 59/335/59 57/198/57
vt 0.9988110065460205 0.1741610169410706
vt 0.9583889842033386 0.1639640331268311
vt 0.9583889842033386 0.1232039928436279
f 2/336/2 5/337/5 6/338/6
vt 0.7720239758491516 0.9283310174942017
vt 0.7030770182609558 0.8354460000991821
vt 0.7706230282783508 0.8480340242385864
f 80/339/80 174/340/174 173/341/173
vt 0.2055310010910034 0.7771689891815186
vt 0.1510950028896332 0.7848190069198608
vt 0.2083310037851334 0.7131029963493347
f 193/342/193 194/343/194 103/344/103
vt 0.2584759891033173 0.9106730222702026
vt 0.3467969894409180 0.9039880037307739
vt 0.2883110046386719 0.9462299942970276
f 9/345/9 10/346/10 43/347/43
vt 0.0163109991699457 0.7632070183753967
vt 0.0121839996427298 0.7437909841537476
vt 0.0260830000042915 0.7378000020980835
f 220/348/220 215/349/215 224/350/224
vt 0.7549319863319397 0.3784010410308838
f 72/210/72 74/236/74 75/351/75
vt 0.4133810102939606 0.0537919998168945
vt 0.4090600013732910 0.0292900204658508
vt 0.4276910126209259 0.0524359941482544
f 227/352/227 229/353/229 228/354/228
vt 0.8993290066719055 0.6509060263633728
vt 0.9086809754371643 0.5978689789772034
vt 0.9103389978408813 0.7022320032119751
f 233/355/233 241/356/241 234/357/234
vt 0.5538269877433777 0.9590349793434143
vt 0.3877640068531036 0.9590349793434143
vt 0.5219510197639465 0.9457989931106567
f 235/358/235 228/359/228 236/360/236
vt 0.0059609999880195 0.4699929952621460
vt 0.0158639997243881 0.5128870010375977
vt 0.0027670001145452 0.4702320098876953
f 222/361/222 217/362/217 220/363/220
vt 0.2361650019884109 0.0637800097465515
vt 0.2309910058975220 0.0439990162849426
vt 0.2834840118885040 0.0366209745407104
f 57/364/57 59/365/59 64/366/64
vt 0.9895660281181335 0.7419670224189758
vt 0.9903579950332642 0.7873150110244751
vt 0.9527440071105957 0.7388679981231689
f 246/367/246 250/368/250 241/369/241
vt 0.6068969964981079 0.2297480106353760
f 58/370/58 59/335/59 55/246/55
vt 0.1034710034728050 0.4490389823913574
f 25/228/25 31/230/31 26/371/26
vt 0.8224689960479736 0.2267100214958191
vt 0.8236029744148254 0.1617189645767212
vt 0.8300840258598328 0.2352349758148193
f 7/372/7 25/373/25 11/374/11
vt 0.3385269939899445 0.9412559866905212
f 42/375/42 43/347/43 10/346/10
vt 0.0484180003404617 0.5672349929809570
f 97/224/97 104/376/104 193/225/193
vt 0.0193879995495081 0.4812589883804321
f 222/361/222 215/377/215 217/362/217
vt 0.9289399981498718 0.1221240162849426
vt 0.9066259860992432 0.0804669857025146
f 32/263/32 33/378/33 34/379/34
vt 0.7790859937667847 0.9156849980354309
f 74/233/74 81/232/81 166/380/166
f 31/264/31 32/263/32 34/379/34
vt 0.2759590148925781 0.9521470069885254
f 43/347/43 42/375/42 40/381/40
vt 0.1454059928655624 0.4435039758682251
f 31/230/31 34/382/34 26/371/26
vt 0.0867569968104362 0.5700820088386536
f 193/225/193 104/376/104 195/383/195
vt 0.6468440294265747 0.2954199910163879
vt 0.6212739944458008 0.2520259618759155
f 44/384/44 39/385/39 41/279/41
vt 0.9883850216865540 0.3362059593200684
vt 0.9727600216865540 0.3945220112800598
vt 0.9718359708786011 0.3189730048179626
f 237/386/237 240/387/240 236/388/236
vt 0.4412850141525269 0.0369799733161926
f 229/353/229 230/389/230 228/354/228
vt 0.2373079955577850 0.4353010058403015
f 220/194/220 217/390/217 174/195/174
vt 0.9003840088844299 0.7784219980239868
f 32/256/32 73/218/73 35/391/35
vt 0.7614150047302246 0.2570719718933105
f 226/199/226 194/178/194 231/392/231
vt 0.7207859754562378 0.3568379878997803
f 75/351/75 35/393/35 72/210/72
vt 0.8603389859199524 0.9075430035591125
f 74/233/74 166/380/166 75/394/75
vt 0.0722310021519661 0.8088600039482117
f 173/148/173 172/395/172 81/222/81
vt 0.9012020230293274 0.7791309952735901
vt 0.9012020230293274 0.8835080265998840
vt 0.8858069777488708 0.7806990146636963
f 234/396/234 241/397/241 238/398/238
vt 0.0016880000475794 0.0401679873466492
vt 0.0016880000475794 0.0011209845542908
vt 0.0310420002788305 0.0387340188026428
f 249/399/249 251/400/251 250/401/250
vt 0.8276249766349792 0.3591749668121338
vt 0.8226940035820007 0.3747830390930176
vt 0.7914720177650452 0.3802889585494995
f 215/402/215 216/403/216 217/404/217
vt 0.9994069933891296 0.0547999739646912
vt 0.9391630291938782 0.0432909727096558
vt 0.9424149990081787 0.0061200261116028
f 241/405/241 250/406/250 252/407/252
vt 0.0053539997898042 0.3634389638900757
vt 0.0016309999627993 0.3644360303878784
vt 0.0027389999013394 0.3148189783096313
f 229/408/229 226/409/226 231/410/231
vt 0.0225380007177591 0.3351140022277832
f 229/408/229 231/410/231 230/411/230
vt 0.0799129977822304 0.7783439755439758
f 173/148/173 169/412/169 172/395/172
vt 0.3574520051479340 0.0261330008506775
vt 0.2910870015621185 0.0261330008506775
vt 0.2931109964847565 0.0091130137443542
f 194/413/194 214/414/214 231/415/231
vt 0.9720770120620728 0.0573319792747498
f 32/263/32 35/416/35 33/378/33
vt 0.8956769704818726 0.3956849575042725
f 99/235/99 66/417/66 101/252/101
vt 0.3482530117034912 0.1496219635009766
f 100/244/100 188/418/188 104/245/104
vt 0.7958310246467590 0.3862949609756470
f 217/404/217 216/403/216 218/419/218
vt 0.5160040259361267 0.0571330189704895
f 215/328/215 234/327/234 206/420/206
vt 0.0413170009851456 0.0393580198287964
vt 0.0518539994955063 0.0991110205650330
vt 0.0023350000847131 0.0416039824485779
f 249/421/249 240/422/240 251/423/251
vt 0.1779019981622696 0.6097159981727600
f 58/251/58 44/186/44 45/424/45
vt 0.0300440005958080 0.0014340281486511
f 250/401/250 251/400/251 252/425/252
vt 0.7410230040550232 0.7529379725456238
f 173/341/173 174/340/174 170/426/170
vt 0.7402600049972534 0.0278419852256775
vt 0.8191559910774231 0.0278419852256775
vt 0.8160650134086609 0.0451689958572388
f 174/427/174 217/428/217 204/429/204
vt 0.6573669910430908 0.2934669852256775
f 44/384/44 41/279/41 45/430/45
vt 0.9552850127220154 0.6740639805793762
vt 0.9552850127220154 0.6094210147857666
vt 0.9938589930534363 0.6225910186767578
f 7/431/7 6/432/6 5/433/5
vt 0.9983149766921997 0.1123449802398682
f 2/336/2 6/338/6 4/434/4
vt 0.1564680039882660 0.7755270004272461
f 81/222/81 172/395/172 166/435/166
vt 0.6207320094108582 0.2294949889183044
f 58/370/58 45/436/45 59/335/59
vt 0.0064739999361336 0.4963250160217285
vt 0.0020379999186844 0.5128800272941589
vt 0.0010779999429360 0.4684889912605286
f 231/437/231 214/438/214 230/439/230
vt 0.5920900106430054 0.4017350077629089
vt 0.5872340202331543 0.3741970062255859
vt 0.7506309747695923 0.3767889738082886
f 241/440/241 243/441/243 238/442/238
vt 0.2835060060024261 0.1901360154151917
f 101/443/101 188/418/188 100/244/100
vt 0.7755979895591736 0.3878899812698364
f 217/404/217 218/419/218 204/444/204
vt 0.6418179869651794 0.7607790231704712
vt 0.5822499990463257 0.7107959985733032
vt 0.6416140198707581 0.5846390128135681
f 174/445/174 204/446/204 203/447/203
vt 0.7409129738807678 0.2687950134277344
f 6/448/6 7/372/7 11/374/11
vt 0.4136990010738373 0.3783320188522339
vt 0.5056489706039429 0.3783320188522339
vt 0.4126020073890686 0.4344739913940430
f 1/449/1 8/450/8 9/451/9
vt 0.5689259767532349 0.3338649868965149
vt 0.4074079990386963 0.3584809899330139
vt 0.4340879917144775 0.3338649868965149
f 228/452/228 237/453/237 236/454/236
vt 0.4781500101089478 0.0343599915504456
f 228/354/228 230/389/230 210/455/210
vt 0.0313600003719330 0.5246880054473877
f 104/376/104 188/456/188 195/383/195
vt 0.8252679705619812 0.5114189982414246
f 218/419/218 205/457/205 204/444/204
vt 0.8217269778251648 0.4180070161819458
f 218/419/218 216/403/216 206/458/206
vt 0.0000030000001061 0.2340149879455566
vt 0.0000030000001061 0.1753510236740112
vt 0.0085570001974702 0.2161110043525696
f 215/459/215 206/460/206 216/461/216
vt 0.0423690006136894 0.2196030020713806
vt 0.1207730025053024 0.3045979738235474
vt 0.0517159998416901 0.3264349699020386
f 174/462/174 203/463/203 170/464/170
vt 0.7655460238456726 0.5357270240783691
vt 0.7655460238456726 0.3816950321197510
vt 0.8155220150947571 0.4920610189437866
f 194/465/194 213/466/213 214/467/214
vt 0.7918879985809326 0.8099550008773804
f 173/341/173 170/426/170 169/468/169
vt 0.8685240149497986 0.8336629867553711
f 26/330/26 27/469/27 11/331/11
vt 0.9381440281867981 0.3180680274963379
vt 0.9857609868049622 0.2413480281829834
vt 0.9943829774856567 0.3180680274963379
f 47/470/47 59/471/59 45/472/45
vt 0.5026350021362305 0.4403409957885742
f 9/451/9 8/450/8 10/473/10
vt 0.4286080002784729 0.0565540194511414
f 234/327/234 238/474/238 206/420/206
f 218/419/218 206/458/206 205/457/205
vt 0.5225890278816223 0.1767250299453735
vt 0.4609470069408417 0.1501879692077637
vt 0.5231810212135315 0.1733660101890564
f 6/475/6 11/476/11 12/477/12
vt 0.2345120012760162 0.0606169700622559
vt 0.2345120012760162 0.0889289975166321
vt 0.1421249955892563 0.0765910148620605
f 247/478/247 240/479/240 237/480/237
vt 0.0830890014767647 0.5216649770736694
f 195/383/195 192/481/192 193/225/193
vt 0.2170549929141998 0.0001680254936218
f 59/365/59 65/482/65 64/366/64
vt 0.8042730093002319 0.8704360127449036
vt 0.8810340166091919 0.8955199718475342
f 75/394/75 155/483/155 35/484/35
vt 0.9956219792366028 0.0036090016365051
f 241/405/241 252/407/252 243/485/243
vt 0.5073729753494263 0.9038709998130798
f 1/206/1 3/208/3 8/486/8
vt 0.6456620097160339 0.2238320112228394
f 45/430/45 41/279/41 46/487/46
vt 0.0000090000003183 0.0954760313034058
f 240/422/240 247/488/247 251/423/251
vt 0.9418050050735474 0.2548840045928955
f 59/471/59 47/470/47 65/489/65
f 41/279/41 42/283/42 46/487/46
f 3/208/3 4/261/4 8/486/8
vt 0.1465139985084534 0.1114850044250488
vt 0.1465139985084534 0.1558870077133179
vt 0.1113559976220131 0.1228780150413513
f 230/490/230 214/491/214 210/492/210
vt 0.5637249946594238 0.1811739802360535
f 6/475/6 12/477/12 4/493/4
vt 0.5624319911003113 0.3552260398864746
f 210/494/210 237/453/237 228/452/228
vt 0.0299769993871450 0.5789819955825806
vt 0.0016189999878407 0.5789819955825806
vt 0.0278530009090900 0.5363249778747559
f 252/495/252 251/496/251 248/497/248
vt 0.0207710005342960 0.6319289803504944
vt 0.0285739991813898 0.6274240016937256
vt 0.0280869994312525 0.6646199822425842
f 219/498/219 206/499/206 208/500/208
vt 0.7871840000152588 0.7182499766349792
vt 0.8291299939155579 0.7963520288467407
vt 0.7926880121231079 0.8096160292625427
f 204/501/204 205/502/205 203/503/203
vt 0.0819799974560738 0.5099729895591736
f 26/371/26 34/382/34 27/504/27
vt 0.3755269944667816 0.9495790004730225
vt 0.3484250009059906 0.9692699909210205
vt 0.3455199897289276 0.9436200261116028
f 219/505/219 208/506/208 207/507/207
vt 0.2915039956569672 0.0120769739151001
f 65/482/65 66/508/66 64/366/64
vt 0.4242880046367645 0.0679140090942383
vt 0.3368940055370331 0.0671100020408630
vt 0.3393220007419586 0.0529320240020752
f 206/509/206 238/510/238 239/511/239
vt 0.6748279929161072 0.0366619825363159
vt 0.6999310255050659 0.0021100044250488
vt 0.7264819741249084 0.0236549973487854
f 252/512/252 248/513/248 243/514/243
vt 0.0077240001410246 0.6743639707565308
vt 0.0164449997246265 0.6816819906234741
vt 0.0096840001642704 0.7088189721107483
f 210/515/210 232/516/232 212/517/212
vt 0.0513399988412857 0.7523360252380371
vt 0.0350590012967587 0.8446689844131470
vt 0.0347630009055138 0.7429440021514893
f 247/518/247 237/519/237 244/520/244
vt 0.1453559994697571 0.4907610416412354
f 34/382/34 33/521/33 27/504/27
vt 0.9506559967994690 0.1302750110626221
f 35/416/35 36/522/36 33/378/33
f 75/394/75 166/380/166 155/483/155
vt 0.8524770140647888 0.2929819822311401
vt 0.8915539979934692 0.2071790099143982
vt 0.9451060295104980 0.2245789766311646
f 12/523/12 11/524/11 27/525/27
vt 0.8467900156974792 0.6902670264244080
vt 0.7847040295600891 0.6793199777603149
vt 0.8905519843101501 0.6799619793891907
f 242/526/242 238/527/238 243/528/243
vt 0.0199069995433092 0.5291609764099121
vt 0.0047650001943111 0.5362219810485840
vt 0.0078509999439120 0.4919760227203369
f 135/529/135 138/530/138 66/531/66
vt 0.0091329999268055 0.7155429720878601
vt 0.0170510001480579 0.6859930157661438
vt 0.0170469991862774 0.7198479771614075
f 219/532/219 207/533/207 206/534/206
vt 0.7899870276451111 0.7865710258483887
vt 0.7764790058135986 0.7914879918098450
vt 0.7780029773712158 0.6319770216941833
f 210/535/210 212/536/212 237/537/237
vt 0.2607550024986267 0.1922320127487183
vt 0.2513349950313568 0.1290400028228760
f 66/538/66 138/539/138 101/443/101
vt 0.0012100000167266 0.5795699954032898
vt 0.0295049995183945 0.6001279950141907
vt 0.0040059997700155 0.6334210038185120
f 247/540/247 244/541/244 251/542/251
vt 0.7831640243530273 0.6886609792709351
f 238/527/238 242/526/242 239/543/239
vt 0.4279600083827972 0.0550190210342407
f 206/509/206 239/511/239 208/544/208
vt 0.0119639998301864 0.6701329946517944
vt 0.0026380000635982 0.6766629815101624
vt 0.0033869999460876 0.6410610079765320
f 232/545/232 210/546/210 211/547/211
vt 0.0007379999733530 0.5370550155639648
f 248/497/248 251/496/251 244/548/244
vt 0.5243290066719055 0.1140999794006348
f 12/477/12 13/549/13 4/493/4
vt 0.1581760048866272 0.4532929658889771
vt 0.1696179956197739 0.5181819796562195
vt 0.1600909978151321 0.6227399706840515
f 244/550/244 237/551/237 212/552/212
vt 0.9544330239295959 0.6065009832382202
vt 0.9544330239295959 0.6951640248298645
vt 0.9393230080604553 0.6064469814300537
f 208/553/208 239/554/239 212/555/212
vt 0.3437330126762390 0.9436799883842468
vt 0.3259159922599792 0.9682030081748962
vt 0.3158850073814392 0.9462490081787109
f 232/556/232 211/557/211 212/558/212
vt 0.8483589887619019 0.8349279761314392
f 35/484/35 155/483/155 120/559/120
vt 0.0153379999101162 0.6741420030593872
vt 0.0030990000814199 0.6364719867706299
vt 0.0200629997998476 0.6360290050506592
f 66/560/66 65/561/65 135/562/135
vt 0.8248630166053772 0.4832879900932312
vt 0.8248630166053772 0.3706899881362915
vt 0.8674830198287964 0.4660240411758423
f 169/563/169 170/564/170 171/565/171
vt 0.7042490243911743 0.2858669757843018
f 46/487/46 47/566/47 45/430/45
vt 0.1564120054244995 0.4839389920234680
vt 0.1466909945011139 0.5950509905815125
vt 0.1462060064077377 0.4255939722061157
f 239/567/239 244/568/244 212/569/212
vt 0.3525449931621552 0.0240240097045898
vt 0.3740139901638031 0.0182719826698303
vt 0.4138189852237701 0.0206440091133118
f 206/570/206 207/571/207 205/572/205
vt 0.4434129893779755 0.1801810264587402
vt 0.3889969885349274 0.2021660208702087
vt 0.4414719939231873 0.1633459925651550
f 208/573/208 209/574/209 207/575/207
vt 0.1563239991664886 0.5475860238075256
f 242/576/242 244/568/244 239/567/239
vt 0.9788140058517456 0.1703540086746216
vt 0.9908670186996460 0.2387089729309082
vt 0.9728789925575256 0.2435439825057983
f 242/577/242 243/578/243 248/579/248
vt 0.8801339864730835 0.8344010114669800
f 35/484/35 120/559/120 36/580/36
vt 0.0332439988851547 0.1385149955749512
f 214/491/214 209/581/209 210/492/210
vt 0.2271189987659454 0.0000929832458496
vt 0.2874830067157745 0.0000929832458496
vt 0.2536639869213104 0.0049419999122620
f 210/582/210 209/583/209 211/584/211
vt 0.0037459998857230 0.2542250156402588
vt 0.0265730004757643 0.2146869897842407
vt 0.0236050002276897 0.2732279896736145
f 212/585/212 209/586/209 208/587/208
vt 0.1142750009894371 0.5187330245971680
vt 0.1142750009894371 0.6559910178184509
vt 0.0876389965415001 0.5238549709320068
f 244/588/244 242/589/242 248/590/248
vt 0.5868149995803833 0.3303110003471375
vt 0.6700779795646667 0.2925629615783691
vt 0.7123939990997314 0.3756139874458313
f 172/591/172 171/592/171 166/593/166
vt 0.6259170174598694 0.3053840398788452
f 172/591/172 169/594/169 171/592/171
vt 0.4325180053710938 0.9518650174140930
f 4/261/4 14/595/14 8/486/8
vt 0.0001130000018748 0.2362999916076660
f 212/585/212 211/596/211 209/586/209
f 192/481/192 195/383/195 188/456/188
vt 0.5604079961776733 0.0967710018157959
f 4/493/4 13/549/13 14/597/14
vt 0.4022159874439240 0.1563360095024109
f 209/574/209 205/598/205 207/575/207
vt 0.1799969971179962 0.8510059714317322
f 193/342/193 196/599/196 194/343/194
vt 0.0655379965901375 0.5177850127220154
f 188/456/188 190/600/190 192/481/192
vt 0.4873279929161072 0.0032219886779785
vt 0.4821279942989349 0.0327159762382507
vt 0.4541130065917969 0.0047169923782349
f 47/601/47 136/602/136 65/603/65
vt 0.7097100019454956 0.3490189909934998
f 166/593/166 171/592/171 167/604/167
vt 0.3039090037345886 0.1306020021438599
f 101/443/101 144/605/144 188/418/188
vt 0.2324340045452118 0.8291550278663635
f 193/342/193 192/606/192 196/599/196
vt 0.9320009946823120 0.3205150365829468
f 12/523/12 27/525/27 13/607/13
vt 0.9818379878997803 0.9212059974670410
vt 0.9808970093727112 0.9382719993591309
vt 0.9476240277290344 0.9574829936027527
f 166/608/166 167/609/167 168/610/168
vt 0.7110260128974915 0.2122880220413208
f 47/566/47 46/487/46 48/611/48
vt 0.2275159955024719 0.8371999859809875
f 196/599/196 192/606/192 191/612/191
vt 0.6514440178871155 0.4724749922752380
vt 0.6686729788780212 0.5879150032997131
vt 0.5917299985885620 0.5127530097961426
f 213/613/213 194/614/194 196/615/196
vt 0.2006399929523468 0.8828390240669250
vt 0.1755409985780716 0.9306920170783997
vt 0.1647499948740005 0.8885239958763123
f 188/616/188 189/617/189 190/618/190
vt 0.3355750143527985 0.2739210128784180
vt 0.4244650006294250 0.2509700059890747
vt 0.4205119907855988 0.2919740080833435
f 214/619/214 213/620/213 209/621/209
vt 0.7538539767265320 0.3082579970359802
f 167/604/167 171/592/171 168/622/168
vt 0.4468660056591034 0.0200619697570801
f 136/602/136 135/623/135 65/603/65
vt 0.3622489869594574 0.1312659978866577
vt 0.3404740095138550 0.0786060094833374
vt 0.3576099872589111 0.0782420039176941
f 119/624/119 33/625/33 36/626/36
vt 0.3167420029640198 0.1214029788970947
f 33/625/33 119/624/119 27/627/27
f 46/487/46 42/283/42 48/611/48
vt 0.5858870148658752 0.3827530145645142
f 8/450/8 15/628/15 10/473/10
vt 0.1184720024466515 0.9209250211715698
vt 0.1385799944400787 0.8184520006179810
vt 0.1335269957780838 0.9068850278854370
f 171/629/171 170/630/170 150/631/150
f 101/443/101 138/539/138 144/605/144
vt 0.2577669918537140 0.8738660216331482
f 191/612/191 192/606/192 184/632/184
vt 0.7343249917030334 0.2991360425949097
f 168/622/168 171/592/171 153/633/153
vt 0.4169819951057434 0.9550259709358215
f 42/375/42 10/346/10 49/634/49
vt 0.9402340054512024 0.8903700113296509
f 168/610/168 155/635/155 166/608/166
vt 0.6679620146751404 0.0607590079307556
vt 0.6250780224800110 0.0296019911766052
vt 0.6725050210952759 0.0016779899597168
f 191/636/191 184/637/184 177/638/177
vt 0.1451839953660965 0.8841689825057983
f 192/639/192 190/618/190 189/617/189
vt 0.1730419993400574 0.9554650187492371
f 171/629/171 150/631/150 153/640/153
vt 0.1680109947919846 0.8322039842605591
f 150/631/150 170/630/170 159/641/159
vt 0.6088320016860962 0.0686269998550415
vt 0.6424270272254944 0.0614860057830811
vt 0.6115840077400208 0.1050360202789307
f 138/642/138 143/643/143 144/644/144
vt 0.2392719984054565 0.9117469787597656
f 188/616/188 144/645/144 189/617/189
vt 0.0457919985055923 0.3517839908599854
f 170/464/170 203/463/203 159/646/159
vt 0.9059739708900452 0.8118849992752075
vt 0.9539690017700195 0.8779439926147461
vt 0.9020230174064636 0.8683540225028992
f 155/647/155 121/648/121 120/649/120
vt 0.3867990076541901 0.0771939754486084
f 36/626/36 120/650/120 119/624/119
vt 0.1506399959325790 0.1282439827919006
vt 0.2039929926395416 0.1542389988899231
vt 0.1517550051212311 0.1809129714965820
f 48/651/48 137/652/137 47/653/47
vt 0.8143630027770996 0.8606650233268738
f 198/654/198 203/503/203 205/502/205
vt 0.7354300022125244 0.1783959865570068
f 42/283/42 49/655/49 48/611/48
vt 0.4782350063323975 0.2557600140571594
f 213/620/213 201/656/201 209/621/209
vt 0.2093230038881302 0.9533560276031494
f 153/640/153 150/631/150 152/657/152
vt 0.4401639997959137 0.0350459814071655
f 135/623/135 136/602/136 138/658/138
vt 0.5846089720726013 0.4409030079841614
f 10/473/10 15/628/15 16/659/16
vt 0.2242099940776825 0.9611300230026245
vt 0.2227450013160706 0.9594299793243408
f 144/645/144 146/660/146 187/661/187
vt 0.7641419768333435 0.3002660274505615
f 153/633/153 154/662/154 168/622/168
vt 0.5292119979858398 0.4831069707870483
f 213/613/213 196/615/196 177/663/177
vt 0.2898609936237335 0.9696279764175415
f 146/660/146 144/645/144 143/664/143
vt 0.2092490047216415 0.8870980143547058
f 191/612/191 177/665/177 196/599/196
vt 0.0126550002023578 0.2761560082435608
vt 0.0246060006320477 0.2740490436553955
vt 0.0202270001173019 0.3311879634857178
f 189/666/189 184/667/184 192/668/192
vt 0.9401149749755859 0.9610900282859802
f 155/635/155 168/610/168 154/669/154
vt 0.4268209934234619 0.9124910235404968
f 10/346/10 16/670/16 49/634/49
vt 0.2200170010328293 0.0517820119857788
vt 0.1515849977731705 0.0740169882774353
vt 0.1691790074110031 0.0266879796981812
f 150/671/150 151/672/151 152/673/152
vt 0.3330219984054565 0.1261320114135742
f 209/574/209 199/674/199 205/598/205
vt 0.4143750071525574 0.1171479821205139
f 121/675/121 119/624/119 120/650/120
vt 0.0218150001019239 0.7864480018615723
vt 0.0146540002897382 0.7644079923629761
vt 0.0266350004822016 0.7680420279502869
f 153/676/153 152/677/152 154/678/154
vt 0.4270380139350891 0.9058920145034790
f 8/486/8 14/595/14 15/679/15
vt 0.1359370052814484 0.3286119699478149
vt 0.1142190024256706 0.2909680008888245
vt 0.1569599956274033 0.2728250026702881
f 150/680/150 159/681/159 151/682/151
vt 0.7877339720726013 0.8683559894561768
f 203/503/203 198/654/198 197/683/197
vt 0.1125840023159981 0.3629750013351440
f 203/463/203 197/684/197 159/646/159
vt 0.7155259847640991 0.4548670053482056
vt 0.7207120060920715 0.3824200034141541
vt 0.7648360133171082 0.3824200034141541
f 113/685/113 14/686/14 13/687/13
vt 0.4836589992046356 0.2271599769592285
f 201/656/201 213/620/213 200/688/200
vt 0.0806339979171753 0.9611899852752686
vt 0.0529690012335777 0.8963189721107483
vt 0.1105090007185936 0.9151870012283325
f 155/689/155 154/690/154 125/691/125
vt 0.6219059824943542 0.0278940200805664
f 138/642/138 136/692/136 143/643/143
vt 0.1620360016822815 0.9631980061531067
f 155/689/155 125/691/125 121/693/121
vt 0.2154410034418106 0.0260639786720276
vt 0.1607729941606522 0.0179629921913147
vt 0.2082100063562393 0.0188329815864563
f 189/694/189 187/695/187 185/696/185
vt 0.9554420113563538 0.7949789762496948
vt 0.9426760077476501 0.7742329835891724
vt 0.9492750167846680 0.7561020255088806
f 136/697/136 139/698/139 143/699/143
vt 0.0522890016436577 0.2194100022315979
vt 0.0518519990146160 0.2068979740142822
vt 0.0622919984161854 0.2159839868545532
f 154/700/154 152/701/152 156/702/156
vt 0.2208980023860931 0.0152249932289124
f 189/694/189 185/696/185 184/703/184
f 144/645/144 187/661/187 189/617/189
vt 0.9923179745674133 0.3197529911994934
vt 0.9923179745674133 0.3952519893646240
vt 0.9809949994087219 0.3847600221633911
f 205/704/205 199/705/199 198/706/198
vt 0.2519760131835938 0.7244049906730652
vt 0.3316090106964111 0.6797270178794861
vt 0.3183619976043701 0.7485679984092712
f 27/707/27 114/708/114 13/709/13
vt 0.2526780068874359 0.6260660290718079
vt 0.2710680067539215 0.6490679979324341
vt 0.2627899944782257 0.6791149973869324
f 121/710/121 122/711/122 119/712/119
vt 0.1103890016674995 0.2364740371704102
f 154/700/154 156/702/156 125/713/125
f 27/707/27 119/712/119 114/708/114
vt 0.5003190040588379 0.0557150244712830
vt 0.4286839962005615 0.0557150244712830
vt 0.4865939915180206 0.0324019789695740
f 177/714/177 184/715/184 175/716/175
vt 0.1898860037326813 0.1921139955520630
f 47/653/47 137/652/137 136/717/136
vt 0.1996729969978333 0.6612640023231506
vt 0.1402609944343567 0.6130269765853882
vt 0.1938010007143021 0.6451290249824524
f 185/718/185 175/719/175 184/720/184
vt 0.2114309966564178 0.2031880021095276
f 136/717/136 137/652/137 139/721/139
vt 0.1990929991006851 0.7230139970779419
vt 0.1873739957809448 0.7234650254249573
f 187/722/187 186/723/186 185/718/185
vt 0.5975859761238098 0.4382680058479309
f 213/613/213 177/663/177 200/724/200
vt 0.0424720011651516 0.1572819948196411
f 156/702/156 152/701/152 151/725/151
vt 0.7381319999694824 0.0273240208625793
vt 0.7480480074882507 0.0391409993171692
vt 0.6708840131759644 0.0383260250091553
f 201/726/201 202/727/202 209/728/209
vt 0.1112719997763634 0.2279239892959595
f 125/713/125 156/702/156 157/729/157
vt 0.7637609839439392 0.4570200443267822
f 13/687/13 114/730/114 113/685/113
vt 0.9444299936294556 0.1290839910507202
vt 0.9444299936294556 0.2233830094337463
vt 0.8929319977760315 0.1659120321273804
f 199/731/199 209/732/209 202/733/202
vt 0.3738499879837036 0.1291750073432922
vt 0.4456869959831238 0.1195549964904785
vt 0.4421199858188629 0.1487510204315186
f 159/734/159 197/735/197 160/736/160
vt 0.0886579975485802 0.4543930292129517
vt 0.0583549998700619 0.4035179615020752
vt 0.0960830003023148 0.4339920282363892
f 175/737/175 176/738/176 177/739/177
vt 0.6128090023994446 0.8133289813995361
vt 0.6275290250778198 0.8058279752731323
vt 0.6124719977378845 0.8429909944534302
f 198/740/198 199/741/199 197/742/197
vt 0.8791499733924866 0.0959990024566650
vt 0.8127120137214661 0.0947719812393188
vt 0.7960759997367859 0.0681499838829041
f 177/743/177 176/744/176 200/745/200
vt 0.6428359746932983 0.7263529896736145
vt 0.6664360165596008 0.7059540152549744
vt 0.6492900252342224 0.7415710091590881
f 201/746/201 200/747/200 202/748/202
vt 0.3421539962291718 0.0759190320968628
vt 0.3335500061511993 0.0703669786453247
vt 0.3351449966430664 0.0680890083312988
f 186/749/186 187/750/187 146/751/146
vt 0.1084059998393059 0.2476010322570801
f 159/681/159 160/752/160 151/682/151
f 114/708/114 119/712/119 122/711/122
vt 0.7299249768257141 0.7132380008697510
f 200/747/200 178/753/178 202/748/202
vt 0.1150299981236458 0.6860499978065491
f 185/718/185 186/723/186 181/754/181
vt 0.1755540072917938 0.1972460150718689
f 124/755/124 125/713/125 157/729/157
f 185/718/185 181/754/181 175/719/175
vt 0.4599870145320892 0.1901119947433472
f 160/736/160 197/735/197 161/756/161
vt 0.1277379989624023 0.2276830077171326
f 160/752/160 161/757/161 151/682/151
vt 0.7266150116920471 0.7694060206413269
f 178/753/178 182/758/182 202/748/202
vt 0.9010540246963501 0.7583289742469788
f 139/698/139 140/759/140 143/699/143
f 202/748/202 182/758/182 199/741/199
vt 0.2341980040073395 0.1945849657058716
f 139/721/139 137/652/137 140/760/140
vt 0.8023279905319214 0.1317490339279175
f 176/744/176 178/761/178 200/745/200
vt 0.1031569987535477 0.1590729951858521
f 157/729/157 156/702/156 158/762/158
vt 0.0358910001814365 0.4202849864959717
f 176/738/176 175/737/175 178/763/178
vt 0.6750180125236511 0.8786380290985107
f 197/742/197 199/741/199 161/764/161
vt 0.4267719984054565 0.0738739967346191
f 186/749/186 146/751/146 145/765/145
vt 0.3195709884166718 0.6063399910926819
f 122/711/122 123/766/123 114/708/114
f 151/725/151 158/762/158 156/702/156
vt 0.1199890002608299 0.7746869921684265
f 186/723/186 145/767/145 181/754/181
vt 0.5874990224838257 0.2285659909248352
vt 0.5235260128974915 0.2195760011672974
vt 0.5866119861602783 0.1965429782867432
f 16/768/16 116/769/116 49/770/49
vt 0.2081490010023117 0.1098420023918152
f 137/652/137 48/651/48 141/771/141
vt 0.3973900079727173 0.8332650065422058
vt 0.4148460030555725 0.7853029966354370
vt 0.4964329898357391 0.8484089970588684
f 15/772/15 14/773/14 115/774/115
vt 0.0768719986081123 0.4574429988861084
f 175/737/175 179/775/179 178/763/178
vt 0.1733160018920898 0.1929399967193604
f 157/729/157 158/762/158 124/776/124
vt 0.7038090229034424 0.8307639956474304
f 199/741/199 165/777/165 161/764/161
vt 0.1446219980716705 0.0990340113639832
f 48/651/48 49/778/49 141/771/141
f 199/741/199 182/758/182 165/777/165
f 122/711/122 121/710/121 123/766/123
vt 0.1555490046739578 0.2273390293121338
f 161/757/161 162/779/162 151/682/151
vt 0.9378740191459656 0.0426139831542969
vt 0.8958460092544556 0.0289580225944519
vt 0.9379910230636597 0.0016959905624390
f 125/780/125 124/781/124 121/782/121
vt 0.0358400009572506 0.4518510103225708
f 179/775/179 180/783/180 178/763/178
vt 0.1251289993524551 0.6141049861907959
f 175/719/175 181/754/181 179/784/179
vt 0.9360949993133545 0.4763059616088867
vt 0.9360949993133545 0.3993229866027832
vt 0.9712560176849365 0.4535180330276489
f 15/785/15 116/786/116 16/787/16
vt 0.9072070121765137 0.7190909981727600
f 143/699/143 140/759/140 145/788/145
vt 0.2062530070543289 0.2628059983253479
f 151/682/151 162/779/162 158/789/158
vt 0.9554240107536316 0.7105590105056763
f 143/699/143 145/788/145 146/790/146
vt 0.2948510050773621 0.5580790042877197
f 124/791/124 123/766/123 121/710/121
vt 0.0783329978585243 0.5157259702682495
f 179/775/179 181/792/181 180/783/180
vt 0.6878029704093933 0.8625429868698120
f 161/764/161 165/777/165 163/793/163
vt 0.0305640008300543 0.7070189714431763
vt 0.0185209996998310 0.7109320163726807
vt 0.0177740007638931 0.6823210120201111
f 161/794/161 163/795/163 162/796/162
vt 0.4865980148315430 0.7965779900550842
f 14/773/14 113/797/113 115/774/115
vt 0.8772969841957092 0.0010849833488464
vt 0.8906620144844055 0.0422179698944092
vt 0.8263570070266724 0.0249789953231812
f 178/798/178 180/799/180 182/800/182
vt 0.1071719974279404 0.0288460254669189
vt 0.1344289928674698 0.0517179965972900
vt 0.0654700025916100 0.0493239760398865
f 163/801/163 165/802/165 162/803/162
vt 0.0202610008418560 0.6741909980773926
vt 0.0202610008418560 0.6400079727172852
vt 0.0220350008457899 0.6418200135231018
f 123/804/123 124/805/124 126/806/126
vt 0.2104340046644211 0.2272790074348450
f 162/779/162 164/807/164 158/789/158
vt 0.5380420088768005 0.1891329884529114
f 116/769/116 141/808/141 49/770/49
vt 0.4966419935226440 0.7318450212478638
vt 0.4966419935226440 0.7939990162849426
vt 0.3964479863643646 0.7320320010185242
f 115/809/115 116/810/116 15/811/15
vt 0.8338000178337097 0.2086299657821655
vt 0.8739889860153198 0.2423520088195801
vt 0.8329600095748901 0.3210780024528503
f 148/812/148 181/813/181 145/814/145
vt 0.9037569761276245 0.7215899825096130
f 145/788/145 140/759/140 147/815/147
vt 0.2155649960041046 0.2286660075187683
vt 0.2677269876003265 0.2779690027236938
f 158/789/158 127/816/127 124/817/124
f 158/789/158 164/807/164 127/816/127
vt 0.7538329958915710 0.5496039986610413
f 113/685/113 114/730/114 117/818/117
vt 0.7185890078544617 0.1179450154304504
vt 0.7383970022201538 0.1409450173377991
vt 0.7025120258331299 0.1781049966812134
f 142/819/142 140/820/140 137/821/137
vt 0.0363200008869171 0.5184350013732910
f 181/792/181 148/822/148 180/783/180
vt 0.2642410099506378 0.0969129800796509
f 141/771/141 142/823/142 137/652/137
vt 0.0001029999984894 0.1665289998054504
vt 0.0028890001121908 0.1633070111274719
vt 0.0306119993329048 0.1697080135345459
f 145/824/145 147/825/147 133/826/133
vt 0.8932909965515137 0.0730760097503662
vt 0.9304749965667725 0.1374800205230713
vt 0.8946290016174316 0.1605589985847473
f 114/827/114 123/828/123 117/829/117
vt 0.4608399868011475 0.1901550292968750
f 141/808/141 116/769/116 131/830/131
vt 0.0114930002018809 0.2254139780998230
f 148/831/148 145/824/145 133/826/133
vt 0.4085009992122650 0.6691480278968811
vt 0.5017899870872498 0.7310600280761719
vt 0.4043369889259338 0.7167419791221619
f 182/832/182 134/833/134 165/834/165
vt 0.3365119993686676 0.3586800098419189
vt 0.2843129932880402 0.3417190313339233
vt 0.3450419902801514 0.3150969743728638
f 164/835/164 162/836/162 134/837/134
vt 0.2624840140342712 0.3052439689636230
f 162/836/162 165/838/165 134/837/134
vt 0.0243790000677109 0.3345780372619629
vt 0.0269629992544651 0.3834480047225952
vt 0.0002269999968121 0.3787339925765991
f 127/839/127 128/840/128 124/841/124
vt 0.4785859882831573 0.1591470241546631
f 141/808/141 131/830/131 142/842/142
vt 0.7642610073089600 0.0968189835548401
f 142/819/142 133/843/133 140/820/140
vt 0.5872600078582764 0.7789829969406128
vt 0.6000930070877075 0.8321260213851929
f 113/797/113 117/844/117 118/845/118
vt 0.0010799999581650 0.3811219930648804
f 126/846/126 124/841/124 128/840/128
f 118/845/118 115/774/115 113/797/113
vt 0.3233000040054321 0.6212390065193176
vt 0.3447929918766022 0.5776609778404236
vt 0.4186530113220215 0.6075029969215393
f 182/847/182 180/848/180 183/849/183
vt 0.0016100000357255 0.4352430105209351
vt 0.0272029992192984 0.4307299852371216
vt 0.0019209999591112 0.4676610231399536
f 126/850/126 128/851/128 123/852/123
vt 0.3416830003261566 0.3599120378494263
f 127/853/127 164/835/164 134/837/134
vt 0.7713040113449097 0.1243860125541687
f 147/854/147 140/820/140 133/843/133
vt 0.5047940015792847 0.6662210226058960
f 134/833/134 182/832/182 183/855/183
vt 0.6015380024909973 0.7291629910469055
f 116/810/116 115/809/115 118/856/118
vt 0.0275940001010895 0.4756140112876892
f 128/851/128 117/857/117 123/852/123
vt 0.9731360077857971 0.0596269965171814
vt 0.9863719940185547 0.1081749796867371
vt 0.9777370095252991 0.0970979928970337
f 133/858/133 142/859/142 149/860/149
vt 0.4080959856510162 0.5570089817047119
f 180/848/180 148/861/148 183/849/183
vt 0.4195719957351685 0.1054919958114624
vt 0.4757390022277832 0.0993170142173767
vt 0.4635570049285889 0.1269450187683105
f 127/862/127 129/863/129 128/864/128
vt 0.5871009826660156 0.0472040176391602
vt 0.5282059907913208 0.0472040176391602
vt 0.5293949842453003 0.0132189989089966
f 148/865/148 133/866/133 132/867/132
vt 0.4974530041217804 0.1564729809761047
vt 0.4928910136222839 0.1445180177688599
f 117/868/117 128/864/128 130/869/130
vt 0.5225229859352112 0.1359729766845703
f 130/869/130 118/870/118 117/868/117
vt 0.2553460001945496 0.7320140004158020
vt 0.2170359939336777 0.7325909733772278
vt 0.2170359939336777 0.6698179841041565
f 118/871/118 131/872/131 116/873/116
vt 0.4207989871501923 0.3446099758148193
f 127/853/127 134/837/134 129/874/129
f 128/864/128 118/870/118 130/869/130
vt 0.5080189704895020 0.5700049996376038
f 148/861/148 132/875/132 183/849/183
vt 0.9537090063095093 0.1241599917411804
f 149/860/149 131/876/131 133/858/133
f 128/864/128 129/863/129 118/870/118
vt 0.0305710006505251 0.1088069677352905
vt 0.0305710006505251 0.1681320071220398
vt 0.0011510000331327 0.1609469652175903
f 131/877/131 132/878/132 133/879/133
f 131/876/131 149/860/149 142/859/142
vt 0.6017060279846191 0.6669449806213379
f 134/833/134 183/855/183 132/880/132
vt 0.2563839852809906 0.8483089804649353
vt 0.2145320028066635 0.7918630242347717
vt 0.2587809860706329 0.7913489937782288
f 134/881/134 132/882/132 129/883/129
f 118/871/118 132/882/132 131/872/131
f 129/883/129 132/882/132 118/871/118
# 500 faces, 883 coords texture

# End of File
