####
#
# OBJ File Generated by Meshlab
#
####
# Object twist.obj
#
# Vertices: 252
# Faces: 500
#
####
mtllib ./twist.obj.mtl

vn -0.9328396098997364 0.1145506132363329 0.3415968665097611
v -0.9484261883944637 0.1441645828912130 0.1070179199419174
vn -0.9916403126568309 -0.1095633081078962 0.0681569646501131
v -0.9390063893259666 0.0438318766332216 0.1033756242660971
vn -0.9958148465757064 -0.0888158700622767 -0.0215530175261620
v -0.9444705657788514 0.0266032688743101 -0.0294440856203006
vn -0.8836039566941060 0.0861019258427189 -0.4602504818907803
v -0.9431825839010409 0.1327409042565514 -0.0993621318359743
vn -0.7526258333687349 0.3116756657817856 0.5800108915404074
v -0.9151487318857816 0.3349371040439991 0.1191575662806320
vn -0.9716483271301659 0.2360375082949006 -0.0136316933315297
v -0.9293945604081609 0.2545806098250634 -0.0280735931487178
vn -0.8828257801990594 -0.2167406631146181 0.4167038837934653
v -0.9078782609564867 -0.1805241696095758 0.1509366130295340
vn -0.8072560241019615 -0.0102097722750591 0.5901131011095965
v -0.9275913956665630 0.0049455187834767 0.1905858549171823
vn -0.9063572033555184 0.2114821890650022 -0.3657757559404917
v -0.9340927930294138 0.2522124072480827 -0.1134288711839913
vn -0.5132729809869500 0.6495646845618259 -0.5609069152353764
v -0.8644000057949749 0.4385570859584396 -0.0776000624123134
vn -0.9666862174143553 -0.2524900442905343 -0.0420301629224771
v -0.8971984188698224 -0.3268900932334393 -0.0462278456793653
vn -0.5671113630656203 0.1001581173746453 0.8175286254351104
v -0.8362019537831332 0.1551050419885130 0.1884548642726640
vn -0.8630980550869236 0.0606482532559200 -0.5013816277868343
v -0.9316524952112675 0.0371757247482212 -0.1414705161680724
vn -0.5513913710801562 0.2179311119029368 -0.8052785768683377
v -0.8173701623701248 -0.0076721841040154 -0.2345909001786477
vn -0.8359372177506655 -0.0992504490147628 -0.5397761724545131
v -0.9184506792667846 -0.1264933720381912 -0.1651326218736948
vn -0.5885400283215583 0.1951106265874828 -0.7845715253919806
v -0.8485721303397953 0.2679505562351481 -0.1897708917841726
vn -0.3039738170469512 -0.4286978920934155 0.8507749619403293
v -0.8329498820293223 -0.2188525651667222 0.1857468247026438
vn -0.0865521772365375 0.9955736622645466 0.0366306377336448
v -0.8419118465177632 0.5170523773114822 0.0003040300788912
vn 0.3283117610638727 0.7713311566772182 0.5452152183185307
v -0.7881149769554794 0.4665618495594920 0.0560417918459505
vn -0.2529460957929104 -0.6341356955534406 0.7306778991101879
v -0.8348001492772159 -0.4164848103167466 0.0914485393080402
vn -0.3292804592585133 -0.5220522482605542 -0.7867883001396266
v -0.8782384034481830 -0.3214844249701478 -0.1475962098871925
vn -0.5158681299614793 0.2801039865098341 0.8095812678362468
v -0.8571472169542752 0.2903743469401799 0.1746741402566899
vn -0.6957150409111511 0.5796828879713608 0.4242031721276706
v -0.8742389020368515 0.4293051011570592 0.0752829282758809
vn -0.4057223971166958 0.2408389091006985 0.8816949338297616
v -0.7917507191331382 0.0322135665718844 0.2650890059471556
vn 0.2063433997076709 -0.9769998980758421 0.0537921979182335
v -0.7942309473382044 -0.4998545283541173 0.0135112175152887
vn -0.5575152031246227 -0.5088343087198439 0.6559454585211406
v -0.8844242245689954 -0.3317155238167517 0.1148911393566714
vn 0.5281153600458557 -0.6224764301008636 -0.5775961049492289
v -0.6984480436012235 -0.3841027275879871 -0.0711526505014753
vn -0.0410505140550736 0.6165861282307360 0.7862165107457644
v -0.7707685940357433 0.3221278287505800 0.1880266087554076
vn -0.2834718977827612 -0.4070063023919329 -0.8683257182536323
v -0.8185507200207743 -0.2140844608889875 -0.2177712822026843
vn -0.1159718544215312 0.2646981885598642 -0.9573324385787614
v -0.7661172639148747 0.2518498594518370 -0.2514275024422268
vn -0.1782486326288998 -0.1918938021208670 0.9650928419968335
v -0.7739972585451890 -0.0905043461171386 0.2766681441310446
vn -0.6622507134650149 -0.6704070900996896 -0.3346316274041432
v -0.8434186286357643 -0.4334845837546805 -0.0946081020474776
vn -0.4352590347608243 0.1072181584659515 -0.8938981145266196
v -0.7542093246664785 0.0839686414251440 -0.2356486690324923
vn 0.3952440730878726 0.7172709246874973 -0.5738506280268857
v -0.7180132935848034 0.3579196059495295 -0.1163610226487807
vn -0.0297420960997127 0.3708119465781557 0.9282316025618360
v -0.7671030423530072 0.2516082836151492 0.2408046325221929
vn 0.6910226594067315 -0.6779528460193136 0.2507341675176341
v -0.6752566842764584 -0.3802653454514040 0.0518822330298731
vn -0.2209633540910123 -0.0621993557831346 -0.9732966846183198
v -0.7605515295922286 -0.0913163706971263 -0.2938421448004711
vn 0.0225128743990112 0.1644059933305773 0.9861358120681353
v -0.7021342413142942 0.1075116182270188 0.2639809590240877
vn 0.2917522571409676 0.2010864712012257 -0.9351175602847961
v -0.6547223123808157 0.1451483555213237 -0.2469417813342062
vn 0.5448374699674394 0.8048139257530694 -0.2354287073264690
v -0.7472797134771428 0.4478516357578025 -0.0276103042739444
vn 0.4338285392807024 0.5162264053028625 -0.7384464076516704
v -0.6883443031402613 0.2228191175762688 -0.2379264107968110
vn 0.4840471358980655 -0.5667275915882077 0.6667219864092598
v -0.6723374102237195 -0.3395512495103681 0.0804458296565431
vn 0.0493791107635321 0.6674888114407570 -0.7429807467368238
v -0.7741725072616774 0.3191116931492006 -0.1970199325808056
vn 0.2780552012304121 -0.4892219422250715 0.8266481696067824
v -0.6726418643629271 -0.1889669682169044 0.2169275426364698
vn 0.5180262341509002 0.6763875072553073 0.5235921702626850
v -0.6841106800180132 0.3436233926467861 0.1134446597615337
vn 0.2819070183116225 -0.5387619792707260 -0.7938916567888469
v -0.6675417226509989 -0.2154356352570011 -0.2057807313024753
vn 0.6212685096840009 0.7800693388803251 -0.0742782970579766
v -0.6399211935884130 0.3669473067370847 -0.0198428118399698
vn 0.4779537175724023 -0.6660341137043002 -0.5726768750707921
v -0.6706562089772965 -0.3131124220699321 -0.1173575578107329
vn 0.5969369941900943 0.5822776985374390 -0.5519229174017316
v -0.5747204460268320 0.2881441025958131 -0.0940090541191669
vn 0.7338386825994094 -0.6674408772430982 -0.1265047955839092
v -0.6116637299825316 -0.3128259618662186 -0.0556845167734761
vn 0.4004403805130701 -0.1904227276881141 -0.8963184068367480
v -0.6556650803985784 -0.0841363476120119 -0.2631526926774354
vn 0.5487587057391456 -0.0391405563396526 -0.8350640093579176
v -0.6132021093803891 -0.0281354702835170 -0.2492783562785596
vn 0.6733501732588192 -0.4342788679412558 -0.5983321895335230
v -0.5282555639400355 -0.1475993259493711 -0.1398696871458036
vn 0.6462828254225742 -0.7043633274209503 0.2935827184088011
v -0.5406999729060601 -0.2309469149556312 0.0728682720984990
vn 0.6873112715815011 0.1793727109817181 -0.7038669238656474
v -0.5104749763215836 0.1024509787179560 -0.1563465962527374
vn 0.4574097049266337 -0.0322425103851947 0.8886713579062794
v -0.6202662022655765 0.0248891843937472 0.2436906513426629
vn 0.5198708793584960 0.3592017599422750 0.7750537816496327
v -0.5875039994092932 0.1717958852626424 0.1919080966150497
vn 0.6182260736411196 -0.7292854533576302 -0.2931539687455053
v -0.5164099841930302 -0.2010581886750293 -0.0639868314879925
vn 0.6831481600052702 0.0207891619355369 0.7299838369631425
v -0.4939151609181038 0.0451503433286211 0.1465642522964052
vn 0.6720087424694960 0.6473376290609925 0.3596640711083876
v -0.5558482069218041 0.2754176179841646 0.0859856003483435
vn 0.8010179457099273 0.5525823326865764 -0.2302672713463849
v -0.5078736003342996 0.2217261556436725 -0.0724415494108236
vn 0.6670008112625985 -0.3080715727637718 0.6783817684975706
v -0.5494743783372372 -0.1205787409808409 0.1670153614043890
vn 0.6808408950971259 -0.7090661363478321 0.1835235403105063
v -0.4629059602180439 -0.0914918030796858 0.0466476272001302
vn -0.5894138066381586 -0.3013236718944896 -0.7495301256789730
v -0.4709854486379754 -0.0334381498753585 -0.1026620989737953
vn -0.3928241948736103 -0.3971442671095697 0.8294369071990363
v -0.4684116927618889 -0.0424897914705079 0.1063473359898740
vn -0.4186419563601764 0.6250719637370618 -0.6588049426991403
v -0.4624489130538011 0.1132047186901154 -0.0931530108173969
vn -0.9145430323643439 -0.4041653810273013 0.0161674590733080
v -0.4299190381621611 -0.1854122664975768 0.0242429572844151
vn -0.9057748312536520 -0.2814017160703328 0.3168359658562931
v -0.4304956050254165 -0.1794783784178486 0.1167765403562131
vn -0.8754982793431509 0.4555654634620450 -0.1611299828330966
v -0.4137711000077439 0.2546612387779406 -0.0589420946328284
vn 0.0625066139067634 0.6357664447721939 0.7693464440157215
v -0.4606633578296681 0.1269907639389321 0.0956343134036409
vn -0.8340225175856865 0.0936953367652366 0.5437164923270968
v -0.4125188295052318 0.0813875654379231 0.2347124488086038
vn -0.7375942830204675 -0.1987056987261813 -0.6453454260698396
v -0.3610643835107172 -0.1021597839618669 -0.3001422324395556
vn -0.8350399238374896 -0.0415592109052188 -0.5486174966098104
v -0.4095389453480081 -0.0132530628068992 -0.2481142730807821
vn -0.8319634781346739 -0.4534096639985961 0.3197756207760937
v -0.3989702706827108 -0.2353605122279715 0.1311579138690357
vn -0.7033776407515587 0.7099483216094917 0.0351180172366966
v -0.3422005628199995 0.3529780605541335 -0.0074379279256816
vn -0.8856878198234436 0.4371762522678633 0.1563138198286413
v -0.4313652876660105 0.2150096034819406 0.0964387762448116
vn -0.8274805632266686 0.2807317182782468 -0.4862773075464433
v -0.3911796395024235 0.1567621100291219 -0.2426917781330143
vn -0.6174022573639882 -0.0592749997959361 0.7844111976514890
v -0.2918164779848499 -0.0356916166201924 0.3684696262054628
vn -0.5774656876481469 -0.4443880013621427 0.6848742102272598
v -0.2762600081259483 -0.2184323781490100 0.3276000659364388
vn -0.7248681834917502 -0.6886067793767667 -0.0196677390090281
v -0.3419954840577371 -0.3257956354427939 0.0039636360977565
vn -0.7593412772759194 0.3710178209820904 0.5345527112817564
v -0.3627244718405183 0.2039806226977868 0.2502767735347171
vn -0.8031774498532340 -0.0959457936574885 0.5879629144144131
v -0.3824593555507718 -0.0030097257674114 0.2794665094631184
vn -0.6922605095316616 -0.6840271283473153 0.2299614633539495
v -0.3362010620033604 -0.3326858576355520 0.1188136759359184
vn -0.7634013185992753 0.4511705054587959 -0.4622376031490106
v -0.3545041974626276 0.2443006516041430 -0.2229654059215256
vn -0.6695688883947317 0.6668466454785034 0.3270979289263548
v -0.3297374240024156 0.3421835287203006 0.1538486106978662
vn -0.6461567001209544 -0.2464317568268395 0.7223246556196435
v -0.3342605170735911 -0.1289221676839513 0.3202684992010688
vn -0.5566755347241163 0.8257595194436510 0.0907389943068012
v -0.3050480595268401 0.3766803612415652 0.0958845474291931
vn -0.6426898538880867 0.7155718069529852 -0.2736909585707013
v -0.3453625244821805 0.3478962756945312 -0.1269945235856879
vn -0.8673712131082633 -0.4119812959081139 -0.2791748385742719
v -0.4152466500094358 -0.2042316526557297 -0.1272410509299712
vn -0.6400126611508916 -0.4566486412190492 -0.6179448292844193
v -0.2997227652358627 -0.2222914112251029 -0.3049243076153217
vn -0.5977428632459486 0.1032078686128674 0.7950167327137990
v -0.2919438505503461 0.0706990266497463 0.3682250350351746
vn -0.4318406115229580 -0.6825837225912057 0.5895703078454763
v -0.2634472663729965 -0.2960722449690380 0.2722897153101869
vn -0.4206858770277693 0.6241856652742669 0.6583431082159951
v -0.2176017937680583 0.3008778820838639 0.3206251366338849
vn -0.6531168676643210 0.2104618420883910 -0.7274229651290278
v -0.3192929361807198 0.1136878715618626 -0.3412208882859826
vn -0.6328156038153019 -0.7016219989699256 -0.3275224910282047
v -0.3035965478952035 -0.3529225101673613 -0.1382675323491002
vn -0.4779164590494447 -0.8574052453391972 0.1909243395548920
v -0.2428582693555031 -0.3952021607477478 0.1309369684825003
vn -0.4146639332877998 -0.5899069702270532 -0.6928662128490822
v -0.2268457790618429 -0.2607777721645523 -0.3291443595668177
vn -0.3659352710962159 0.9299289764740373 -0.0363796107962732
v -0.1771693858216454 0.4460760100290532 -0.0433850498624111
vn -0.3914519891936411 0.3421598570099473 -0.8542200959982585
v -0.1991524254276048 0.1900921841176417 -0.3948812521215616
vn -0.2970279832968605 -0.1384568816463715 0.9447772589681457
v -0.1667363725430821 -0.0442410151213947 0.4443429152021355
vn -0.2134884871102948 -0.3390976307600689 -0.9162071068728215
v -0.1506647925854358 -0.1644650236108074 -0.4179068672010001
vn -0.5466313961863939 0.2669873735099834 0.7936698678226070
v -0.2495382704660058 0.1491295802968086 0.3795567777008612
vn -0.5257202723723116 0.5660310826684429 -0.6350015816279302
v -0.2377694117461741 0.2993319832213985 -0.3090902971996522
vn -0.5339600656280705 0.0605222580752570 -0.8433407997908904
v -0.2784933243140755 0.0271940976965812 -0.3809406804659041
vn -0.0442868894152864 -0.6091132159354761 -0.7918457940777739
v -0.0734987765712663 -0.2843932914497086 -0.3665494367074751
vn -0.1827602870649142 0.0672227293925946 0.9808566572771784
v -0.1102904381130129 0.0340801676956304 0.4609474131706161
vn -0.1227057671976208 0.7537987079314252 0.6455469019500885
v -0.1172551071506191 0.3591102977377742 0.3070830707403575
vn -0.2357270994624417 -0.9440757338390127 0.2305509560929078
v -0.1283297691094411 -0.4406494281859931 0.1227867318687891
vn -0.2449688876340778 -0.4451989351535902 0.8612712419612255
v -0.1006015326311729 -0.1972121682343251 0.4180027376010942
vn -0.1853923849399757 0.0625241579875078 -0.9806734386503089
v -0.1097168739989137 0.0355101908069899 -0.4612961529267368
vn -0.3481127096607562 0.8925065710485919 0.2867918443884536
v -0.2020760445907438 0.4313648859643597 0.1242509649340517
vn -0.0616484925692671 -0.8635748965571729 0.5004376698453115
v -0.0480660514771882 -0.4105024809573088 0.2282884526895928
vn -0.4103198299762845 -0.2140849285896891 -0.8864565869116099
v -0.2102263095854770 -0.0873602821942149 -0.4206541251746833
vn -0.3957368382704654 -0.8908194563550650 -0.2232331763313019
v -0.2021041709005687 -0.4146756973187751 -0.1388193575036178
vn -0.3124138961511565 0.3352001099626845 0.8888410677802071
v -0.1383688765567931 0.1774013271548653 0.4201221940863171
vn -0.1707597961029853 0.8730336497854807 0.4567858780403677
v -0.0837922174991941 0.4241891749456344 0.1987625188670031
vn -0.2504956455231030 0.8926129448798864 -0.3748253756175279
v -0.1442028592951804 0.4333418737378399 -0.1658702095293626
vn -0.0692076384217261 0.9807476248041215 -0.1826044885131849
v -0.0479201808085365 0.4764080066958546 -0.0618515259795267
vn -0.1659345197906020 0.7230040461398340 -0.6706197763317833
v -0.0918881280517076 0.3538414872413507 -0.3233794540361413
vn 0.1389926017278224 0.2591631698309000 -0.9557800521396808
v 0.0256473948567781 0.1616570308140557 -0.4406912220552452
vn -0.0887823566402495 -0.8081248052806400 -0.5822817120943532
v -0.0827808232356875 -0.3636030947241007 -0.2943259943796056
vn 0.0011211936695573 -0.0761930282726927 -0.9970924557769917
v -0.0283753923248678 -0.0235068168016657 -0.4540626191811791
vn 0.0106289338976277 -0.6930946555907860 0.7207682180532724
v 0.0066682460285840 -0.3301987200920126 0.3203474451334953
vn 0.0063597132468982 -0.1084185652911609 0.9940849907063397
v -0.0442946058711481 -0.0459701627286784 0.4440493131376630
vn -0.0506750529228657 0.3982590154976700 0.9158721502404642
v -0.0475231601572173 0.2030165663401222 0.4326501327389218
vn 0.0411463520307831 -0.3458136511555968 -0.9374006061385890
v 0.0303928678396522 -0.1670774365664466 -0.4340179735501018
vn 0.1508056694630882 0.8849150675047517 -0.4406619717661719
v 0.0236752508886999 0.3879258860458613 -0.2691690129641632
vn 0.0906686815993571 0.0490300008895195 0.9946734384660165
v 0.0404866577378132 0.0438798985618449 0.4446390968406125
vn -0.1316397312367331 0.3970012729647814 -0.9083286687230916
v -0.0928514716694101 0.2055298990872313 -0.4241543032916770
vn 0.0598548816598166 -0.9822675807425714 -0.1776732758847697
v 0.0012675858043188 -0.4652879916111707 -0.0914094251168839
vn 0.0055503780613004 -0.3308660105427283 0.9436614204103694
v -0.0297202844329283 -0.1700117835045326 0.4299199647710238
vn 0.1492463398274377 -0.1849722660959228 0.9713448362056866
v 0.0943694363902500 -0.0855537708609880 0.4477126446543128
vn 0.0197447954200717 0.9766561044995378 0.2138995011625968
v 0.0253558149030000 0.4752976215224290 0.1087122800078204
vn 0.1561859837622042 0.7484345714779642 -0.6445553744193191
v 0.0378044088748855 0.3656514905022151 -0.3102182303476558
vn 0.0586293981258781 0.6705249593726147 0.7395666788963321
v -0.0165491665691642 0.3102268171282802 0.3520362347384778
vn 0.0616389840630207 -0.9828321456185880 0.1739011477318112
v 0.0258757775530124 -0.4600818130991908 0.0791651915327299
vn 0.3260837996721319 -0.8971184214280067 0.2980736377573610
v 0.1219988291441400 -0.4294992167361535 0.1405339210030986
vn 0.2180536921235384 0.3223381935848637 0.9211681042609651
v 0.0960854454329875 0.1489747866084311 0.4297691687130586
vn 0.3192636632441032 0.6373620702757644 -0.7013132714456126
v 0.1192444164565642 0.3013894071090881 -0.3467623345750100
vn 0.2684407751384837 0.9478499716843165 -0.1718137986923348
v 0.1149798784834068 0.4572581274572503 -0.1030651805123404
vn 0.0875216306567212 0.8537212971264641 0.5133224240181764
v 0.0548686413115225 0.4152956415850644 0.2102714198028928
vn 0.1496836603188996 -0.9010180818812067 -0.4071378365574091
v 0.0381802103778686 -0.4097881758837613 -0.2002444701155534
vn 0.2995857290882034 -0.5911199705809002 -0.7488828822366855
v 0.1386039891394464 -0.2610571988710007 -0.3589643106609461
vn 0.2929506225508043 -0.5914796436133135 0.7512201833937662
v 0.1173470069675987 -0.2595664404712799 0.3721301214886665
vn 0.2710500069981050 0.6816224361770530 0.6796489889688550
v 0.0907846021513921 0.3616980184716986 0.3003731472280506
vn 0.3904061647665682 -0.9070129810791651 -0.1578305378123811
v 0.1418201604958856 -0.4273506976752650 -0.0679466020193014
vn 0.2854487481237694 -0.1706498217524257 -0.9430788145910384
v 0.1236814362446066 -0.0727278477583655 -0.4459596997731288
vn 0.3028378466154436 -0.8260785407024110 -0.4752720097463096
v 0.1179297934935005 -0.3881262836819728 -0.2201176302745766
vn 0.3755775253744786 -0.0503621374470157 0.9254216215030588
v 0.1509641090938161 -0.0590426186063812 0.4364842483984150
vn 0.4744141708678354 0.3114930939632318 0.8233488002620746
v 0.2162324750786148 0.1687849620126594 0.3741804643221900
vn 0.3718951917192116 0.8870770948498637 0.2734743025749523
v 0.1765396388110875 0.4282824283801881 0.1075525347973619
vn 0.4135995875542968 -0.3686305984343410 0.8324943621868288
v 0.1799778130376107 -0.1863887236914340 0.3763653632986225
vn 0.6538236304367580 -0.6769530792169705 0.3380076756837924
v 0.2744822609641945 -0.3210802850944905 0.1689869037829958
vn 0.5702715550819905 -0.5050199104497980 0.6478774911305735
v 0.2583446969135636 -0.2314019981286725 0.3022881389929281
vn 0.2729306863512153 0.1121807849149655 -0.9554707279366107
v 0.1332071083126711 0.0900848026167728 -0.4309495542702758
vn 0.6293963078252519 -0.2664999226250536 0.7299575870807711
v 0.2541452727944719 -0.1307218888122771 0.3586384856947069
vn 0.4759976504468650 0.7905421858639092 -0.3853171280109105
v 0.2090558215977235 0.4015131327782919 -0.1455247909453989
vn 0.6131273316865291 0.5235594854381980 -0.5915744588356113
v 0.2639855696331193 0.2410939223871650 -0.3017534517645643
vn 0.4413821178972998 0.2728887999702654 -0.8548178337232341
v 0.2156076469536354 0.1469124565137655 -0.3865157326903874
vn 0.6759116908593946 -0.6545138520279041 -0.3387550791695808
v 0.2973940154520703 -0.3065321345890201 -0.1570165638181208
vn 0.5257270775603046 -0.0650428410392914 -0.8481629965693144
v 0.2019950114266776 -0.0402409215018203 -0.4070575624217397
vn 0.5493305000651899 -0.4536874061252192 -0.7017148560644121
v 0.2181083848501657 -0.2212812327498485 -0.3438373945030457
vn 0.5902210390535499 0.7870996018731821 0.1792019581076788
v 0.2414872320333316 0.3953926047283679 0.1061349426888196
vn 0.4819336913843203 -0.7785123290433376 -0.4020677438395190
v 0.2031225359549912 -0.3477185390733984 -0.1989393134745547
vn 0.5269459752573349 0.8484094961368976 -0.0502918087249971
v 0.2159670962300584 0.4117283089528639 -0.0467718978797130
vn 0.7352726093729450 0.0785823497095284 0.6732005676022785
v 0.3275578412374375 0.0141127305937734 0.3199593718874980
vn 0.5599793655652489 0.6466963752040605 0.5178869649248478
v 0.2410747759982270 0.2947783033582794 0.2682848318468860
vn 0.5993063838989081 0.4268232139428390 0.6772398410146291
v 0.2574322076972062 0.2177422756295320 0.3155798594490833
vn 0.7898306702522315 -0.4261633936164850 -0.4410808024276182
v 0.3371628008566992 -0.1880615403446257 -0.2427692875502267
vn 0.7735830629749829 -0.4230289629930601 0.4718217260229332
v 0.3317017018398562 -0.1928991715251483 0.2381582002477683
vn 0.6542162618024268 -0.7504204162562542 -0.0941821727241883
v 0.3083648436830521 -0.3212535882755203 -0.0438454696892005
vn 0.7168408755924711 0.1665182562838545 -0.6770604326084960
v 0.3114871302519234 0.0673112889667076 -0.3342972920285617
vn 0.6164633866008858 -0.7825447224303983 0.0871587653474833
v 0.2424462794855416 -0.3710923924062032 0.0553095293104374
vn 0.7763703961609276 0.4161778345898577 -0.4733339391603155
v 0.3199321788228088 0.2268572690814808 -0.2376147801918653
vn 0.7641633058072848 0.6059906668464685 0.2209745545366126
v 0.3379011597163460 0.3063314572880116 0.0894789211538085
vn 0.8753688929220753 -0.4490527675267044 0.1791114549128217
v 0.3855786544396358 -0.1779673621179576 0.1186239106340546
vn 0.8306107457381224 -0.5511572159131093 0.0794450276056985
v 0.3466447570595302 -0.2541595253409556 0.0438779667594761
vn 0.8073087608638277 0.3892292230408333 0.4435686830283899
v 0.3521480387460328 0.2133233919140340 0.1986288265283835
vn 0.8572905123264399 0.2133750455741239 -0.4685339554411297
v 0.3642147817935659 0.1440861675725708 -0.2191503499145768
vn 0.8619400131070701 -0.4906854561277184 -0.1276213028836369
v 0.3749512126414909 -0.2085846177442111 -0.0873788157604249
vn 0.7475044742706897 0.6386620604179498 -0.1826138919359617
v 0.3425865398789276 0.3001434852597338 -0.0919285181711501
vn 0.9216121856598610 0.3756656186205891 0.0975003704078298
v 0.3933126248783819 0.2202797999321152 0.0569442165743776
vn 0.9371831488466090 0.1662299666753555 0.3066844366723963
v 0.4235752719483871 0.0390278145906941 0.1492855694852442
vn 0.9115841120113094 0.3010108764583162 -0.2800122479148884
v 0.4102591641916883 0.1610576718391361 -0.1134525844763687
vn 0.9307130378245738 -0.3459438118256729 -0.1187270831903015
v 0.4192292802236374 -0.1191584708460895 -0.1037588470851609
vn 0.9081500987997160 -0.2367752541201018 0.3452548002366186
v 0.3981985724172753 -0.0935813253707405 0.1977070756419435
vn 0.8230920891663567 -0.0851375503187896 -0.5614899912531638
v 0.3565391886301508 -0.0584355812588554 -0.2801784144998012
vn 0.4611323977758729 -0.7998221695073569 0.3842413419792553
v 0.4262167014261022 -0.0714461464169172 0.0411955075540271
vn -0.2539460179910939 0.6343984191959589 -0.7301027774691283
v 0.4355645215842922 0.1056613033321031 -0.0856164224601416
vn 0.3641904581456720 0.0151317973553998 -0.9312015565410318
v 0.4372280727410962 0.0173795413147417 -0.1035896383751835
vn -0.1125758869275894 -0.0153284398929030 0.9935248907867967
v 0.4377849647163759 0.0238234048687591 0.0961207350480333
vn -0.7656235907101344 0.3321560748653430 0.5509018599334815
v 0.4547309090899604 0.1063678439697589 0.0945188824186343
vn -0.4336253469798388 -0.7107942141046486 -0.5538417135355275
v 0.4360581398136611 -0.0819209337152483 -0.0727149300044727
vn 0.1652339803217850 0.9660777855441645 0.1984727790532075
v 0.4213692942800755 0.1234508636651903 -0.0231190043483338
vn -0.7959524793173237 -0.4752853655107628 0.3749179536910789
v 0.4901283741561283 -0.1784468937270764 0.0885969665829396
vn -0.7042946446073752 0.7090485877678518 -0.0349163824269623
v 0.5316182228924627 0.2469295258540205 -0.0424907319102410
vn -0.6315732971990294 0.7058883491341719 0.3206817874806426
v 0.5169073587315007 0.2150285575993187 0.0729171459964946
vn -0.5684560884061942 0.5433467887613935 0.6177636624928751
v 0.5890214509339428 0.2022570701023566 0.1698281410926415
vn -0.6272852057774174 -0.0624040270964568 0.7762853908292541
v 0.5294329625937286 -0.0250831984707975 0.1925919612974608
vn -0.6789205123993793 -0.5139774262658554 -0.5243034838073187
v 0.5230970909524323 -0.2083690187683011 -0.1159023368792218
vn -0.6519082597416956 -0.6913658775379808 0.3114945332693521
v 0.5807298787421581 -0.3089044791001809 0.0463831621393493
vn -0.4738655286352955 -0.2462764496192934 0.8454580836056319
v 0.5787271804069074 -0.0620106804030732 0.2165236652663547
vn -0.6094972519205335 -0.0813561096216804 -0.7886027411368431
v 0.5602036535956778 -0.0166085352439574 -0.2240960147207773
vn -0.6020283583983412 0.2428550625789704 -0.7606466158893778
v 0.5566925512898222 0.0888194582529830 -0.2039430618197869
vn -0.6505835774195842 0.6731801230111900 -0.3515245806121883
v 0.6242392669320848 0.3385383367091436 -0.0750529276150527
vn -0.5075839831088421 -0.5126105962043777 0.6925235568198060
v 0.5941836625866322 -0.2454708814852726 0.1205777522817584
vn -0.2065968009505802 0.4859682649877000 0.8492070461682657
v 0.7084597707866415 0.2414952570939518 0.2262539178499124
vn -0.3369453457306381 -0.5874178630506632 -0.7358043817207485
v 0.6987894216633769 -0.3237183625544140 -0.1380727935264834
vn -0.3640860116329842 -0.1521287565784904 -0.9188570169265016
v 0.6665233004913954 -0.0754311490746103 -0.2751478068836321
vn -0.3753455881136070 0.2237492182186028 -0.8994731662646833
v 0.6796235074894436 0.1083048541706410 -0.2734596746966422
vn -0.3943685562274714 0.7256361610857878 -0.5638489191119731
v 0.7046484146909097 0.3609295584399187 -0.1201812662864407
vn -0.5642587707777654 0.6185028007575748 0.5468695685951094
v 0.6779367418646437 0.3411291488548974 0.0978548414783530
vn -0.0722203316077583 -0.2705470341822578 0.9599940239385085
v 0.7544156764519122 -0.0871756003093063 0.2807739260503556
vn -0.4762712460382477 0.7886366428222038 -0.3888675170225699
v 0.6890853971031463 0.4033401681490031 -0.0640507768899611
vn -0.6189781038023864 0.7176141940629749 0.3192114902263844
v 0.6934490567458617 0.4054748983771945 0.0511591907604690
vn -0.2685306152812830 0.2264386815677486 0.9362781809625360
v 0.6967131262588572 0.1199767887862784 0.2794154772192625
vn -0.3070909806815921 -0.4492199597016327 -0.8389854333596510
v 0.7033902454809734 -0.1723790950339205 -0.2519228299461497
vn -0.5517095169058337 0.5306434980778038 -0.6434548056416111
v 0.6725402450793900 0.2872369380018929 -0.1823252633657461
vn -0.3239571306564146 -0.6181208528070559 0.7162250964759197
v 0.7202880651748705 -0.3318386851877392 0.1179350034782878
vn 0.2907056591873818 0.3875749299809640 0.8748004877494530
v 0.8308184231741281 0.3117459136040748 0.2069986222800709
vn 0.6581416136990841 0.2641360305866710 -0.7050402638597902
v 0.8504965002178834 0.2948899240249703 -0.2014959714581136
vn -0.5334941785697208 -0.7423759954928593 -0.4052922929790363
v 0.6898801317758337 -0.4042700040663074 -0.0677839478650702
vn -0.4587354274066287 -0.7337701125959277 0.5011419255091487
v 0.7752507536221703 -0.4680993362940453 0.0272673038561573
vn -0.3393793537028427 -0.4673737292036238 0.8163231293614917
v 0.6963508876619351 -0.1818419551986707 0.2297452283520614
vn -0.0814884256795551 0.5694290114515164 -0.8179915876080980
v 0.7885000764504615 0.3393558353547672 -0.2137791573969207
vn 0.2675031247033778 -0.1679779922627462 -0.9488021249919848
v 0.8254975683741378 -0.0571349350747977 -0.3145693479520449
vn 0.0709276202637814 -0.4848232549324620 0.8717314289162745
v 0.8054278745470699 -0.2438893681943135 0.2174596256108401
vn -0.1052341085459180 0.6906878387795996 0.7154551640462957
v 0.8128359009954946 0.3659283829413311 0.1574834937028191
vn 0.7294297393825564 -0.1986680821718824 -0.6545710415458675
v 0.8748641841540973 -0.1097565503184869 -0.2369590766147879
vn -0.0041180508415903 -0.6462596994858149 -0.7631064424297374
v 0.8320734470075327 -0.4188693497801111 -0.1009822675811624
vn 0.2394290209950577 0.2288327511422391 -0.9435620360686531
v 0.7942464651356976 0.1062681238591747 -0.2963514028352586
vn 0.3164376336648448 -0.4700188517922891 -0.8239839215424363
v 0.8223121778007371 -0.3017238050542751 -0.2008357582982869
vn 0.4050544458349387 0.1661579087959791 0.8990675420978658
v 0.8309414405843150 0.0436122348304671 0.3161432025431999
vn 0.7038147520126503 0.1325314029464328 -0.6979113282376364
v 0.8550756693659719 0.0303232050690298 -0.2845402748273445
vn 0.2679491616349755 0.9493313773804773 0.1642351445336820
v 0.8414228405265201 0.5081979017326540 0.0182470262586490
vn 0.8346809041295036 0.1784076322759443 0.5210359920650836
v 0.9253328429499226 0.0861117347403605 0.1850723206689651
vn -0.0586467173701030 -0.6065090207985354 0.7929106949913798
v 0.8473565012490791 -0.3771907578906628 0.1160121679206862
vn 0.7170481020342127 -0.4723919325425120 -0.5125308590103470
v 0.9113209117187839 -0.3703171854065310 -0.1012745325091162
vn 0.1081762651876607 -0.9935855284747931 0.0329498597191997
v 0.8542241327633069 -0.5331859945842176 -0.0018017123128347
vn 0.8326206354306065 0.3359389894940521 0.4403270066585155
v 0.9228470743589399 0.3422589727304587 0.1138098108310303
vn 0.4348591474695352 0.3113456485631116 0.8449623713414015
v 0.8504163341237321 0.1684004289369952 0.2018841738978512
vn 0.9130074154672397 0.0063263333342747 -0.4078939038627259
v 0.9212567195405541 -0.0133055553020710 -0.2067169323183324
vn 0.7453679121262897 0.2416074436366895 -0.6213312472038081
v 0.8816762671607078 0.1117051922733896 -0.2062293038898423
vn 0.8131158244685093 -0.3801268275041959 0.4408471968953548
v 0.9212684737725154 -0.3663135382271686 0.1084555182593934
vn 0.7982274618915657 -0.1596426443433085 0.5808159305573710
v 0.9146723010892723 -0.0592613473161552 0.2219898391285500
vn 0.4311442015525039 0.6770914791186943 -0.5963738813634554
v 0.8759982723963501 0.4189547766099102 -0.1097302954237263
vn 0.8647235639416891 -0.1468041847931909 -0.4803141568715104
v 0.9223677120646643 -0.1596253969811547 -0.1702797787424500
vn 0.9189589252157924 -0.1902263958991945 -0.3454394477610205
v 0.9337937050660811 -0.2950487431520779 -0.1136188477551471
vn 0.9994972095185934 -0.0230858025696963 0.0217341639880168
v 0.9363000015286406 -0.1529275779426347 0.0547291621856419
vn 0.9389331536705402 0.1509664817901389 -0.3092145764905037
v 0.9483307272130902 0.1708695350883761 -0.1012268563831411
vn 0.9363596570294095 0.3352333291216545 -0.1041595302110135
v 0.9198561151503347 0.3470616013511182 -0.0397094981060943
vn 0.9975407426755309 -0.0155016936677609 0.0683532310558973
v 0.9477750054901125 0.0905672927873970 0.0554907634935511
# 252 vertices, 0 vertices normals


usemtl material_0
vt 0.9535170197486877 0.9339523315429688
vt 0.9548292160034180 0.9746249318122864
vt 0.9065830707550049 0.9345197677612305
f 4/1/4 3/2/3 1/3/1
vt 0.9087024331092834 0.9718785285949707
f 1/3/1 3/2/3 2/4/2
vt 0.9267727732658386 0.9057513475418091
f 4/1/4 1/3/1 6/5/6
vt 0.8782436847686768 0.9837370514869690
f 1/3/1 2/4/2 8/6/8
vt 0.8905953168869019 0.9248338341712952
vt 0.9003068804740906 0.9014928340911865
f 1/3/1 12/7/12 5/8/5
f 1/3/1 5/8/5 6/5/6
vt 0.2023048549890518 0.6173157691955566
vt 0.1895572990179062 0.5813407897949219
vt 0.2295223921537399 0.5808351039886475
f 4/9/4 13/10/13 3/11/3
vt 0.1977653950452805 0.6596654057502747
vt 0.2283241897821426 0.6610432863235474
f 9/12/9 4/9/4 6/13/6
vt 0.2021072506904602 0.5658258795738220
f 3/11/3 13/10/13 15/14/15
vt 0.5862854123115540 0.9385260343551636
vt 0.6164700388908386 0.9814208149909973
vt 0.5553198456764221 0.9874621629714966
f 15/15/15 11/16/11 3/17/3
vt 0.2031850367784500 0.3375555574893951
vt 0.1889675557613373 0.3723627924919128
vt 0.1450259834527969 0.3447497785091400
f 3/18/3 11/19/11 7/20/7
vt 0.8861447572708130 0.9128029346466064
f 5/8/5 12/7/12 22/21/22
vt 0.1777056008577347 0.3168658912181854
f 3/18/3 7/20/7 2/22/2
vt 0.1582630574703217 0.2894469201564789
f 2/22/2 7/20/7 8/23/8
vt 0.2531289756298065 0.8765442967414856
vt 0.2464999705553055 0.9093749523162842
vt 0.1964650452136993 0.8817877769470215
f 9/24/9 6/25/6 10/26/10
vt 0.2466029226779938 0.8545299172401428
f 9/24/9 10/26/10 16/27/16
vt 0.1724123209714890 0.4120899140834808
vt 0.1274692118167877 0.3946686089038849
f 7/20/7 11/28/11 26/29/26
vt 0.1579160392284393 0.6646122336387634
f 4/9/4 9/12/9 16/30/16
vt 0.6371615529060364 0.9473165869712830
f 15/15/15 21/31/21 11/16/11
vt 0.1811486631631851 0.7379914522171021
vt 0.2244245857000351 0.7518551945686340
vt 0.1872254014015198 0.7888315916061401
f 5/32/5 23/33/23 6/34/6
vt 0.1926786899566650 0.9231577515602112
f 10/26/10 6/25/6 23/35/23
vt 0.1417538225650787 0.3013933002948761
f 7/20/7 31/36/31 8/23/8
vt 0.6270380020141602 0.9029489755630493
f 15/15/15 29/37/29 21/31/21
vt 0.8038869500160217 0.8726156949996948
vt 0.7605483531951904 0.8677616715431213
vt 0.7872411012649536 0.8246348500251770
f 11/38/11 21/39/21 32/40/32
vt 0.5529254674911499 0.9260638952255249
vt 0.5739913582801819 0.9034322500228882
f 15/15/15 13/41/13 14/42/14
vt 0.1573020964860916 0.5958618521690369
f 13/10/13 4/9/4 14/43/14
vt 0.3253835439682007 0.3394106924533844
vt 0.3156762421131134 0.2800891995429993
vt 0.3603034019470215 0.2989577651023865
f 26/44/26 11/45/11 32/46/32
vt 0.1091391146183014 0.3434693515300751
f 26/29/26 17/47/17 7/20/7
vt 0.1574402749538422 0.9078863859176636
f 23/35/23 18/48/18 10/26/10
vt 0.3631065487861633 0.3270781040191650
f 26/44/26 32/46/32 20/49/20
vt 0.5873759984970093 0.8949630856513977
f 14/42/14 37/50/37 15/15/15
vt 0.1216071397066116 0.2952572405338287
f 7/20/7 17/47/17 31/51/31
vt 0.2215723842382431 0.8325576186180115
f 16/27/16 10/26/10 43/52/43
vt 0.9505247473716736 0.6349576115608215
vt 0.9510409832000732 0.5779823660850525
vt 0.9690958261489868 0.5979720950126648
f 8/53/8 31/54/31 24/55/24
vt 0.6341239809989929 0.0578481331467628
vt 0.6367136836051941 0.0861151069402695
vt 0.6034506559371948 0.0757965669035912
f 8/56/8 24/57/24 1/58/1
vt 0.5328153967857361 0.0731966271996498
vt 0.5802456140518188 0.0820169374346733
vt 0.5489817261695862 0.1145207658410072
f 22/59/22 12/60/12 35/61/35
vt 0.2619383633136749 0.7348305583000183
vt 0.2670491635799408 0.7723399996757507
f 23/33/23 19/62/19 18/63/18
vt 0.1216169148683548 0.6082512736320496
f 4/9/4 33/64/33 14/43/14
vt 0.2227434664964676 0.6939962506294250
f 5/32/5 28/65/28 23/33/23
vt 0.1840628832578659 0.7066898941993713
f 5/32/5 22/66/22 28/65/28
vt 0.4019347727298737 0.3051057159900665
f 32/46/32 25/67/25 20/49/20
vt 0.7395172715187073 0.7963527441024780
f 21/39/21 27/68/27 32/40/32
f 15/15/15 37/50/37 29/37/29
f 4/9/4 16/30/16 33/64/33
vt 0.7297635674476624 0.8799911141395569
vt 0.7237251996994019 0.8607624173164368
f 29/69/29 46/70/46 21/39/21
vt 0.1478357017040253 0.8572703003883362
f 10/26/10 18/48/18 40/71/40
vt 0.7327545881271362 0.8424108624458313
f 21/39/21 48/72/48 27/68/27
vt 0.6098331212997437 0.1003394797444344
f 1/58/1 24/73/24 12/60/12
vt 0.3099945783615112 0.3862801790237427
vt 0.3301429748535156 0.3839546442031860
f 17/74/17 26/44/26 44/75/44
f 23/33/23 28/65/28 19/62/19
vt 0.2029336839914322 0.8411068916320801
vt 0.1882063001394272 0.8328251242637634
f 43/76/43 10/26/10 34/77/34
vt 0.1193702965974808 0.6587843298912048
f 16/30/16 30/78/30 33/64/33
f 48/72/48 21/39/21 46/70/46
vt 0.3550295233726501 0.6343176364898682
vt 0.3553081452846527 0.6808865666389465
vt 0.3261565566062927 0.6582785844802856
f 22/79/22 35/80/35 28/81/28
vt 0.1285317093133926 0.8707315325737000
f 18/48/18 19/82/19 40/71/40
vt 0.5830883979797363 0.1181466802954674
f 12/60/12 24/73/24 38/83/38
vt 0.2755784094333649 0.9918814897537231
vt 0.2941446006298065 0.9635385274887085
vt 0.3129985034465790 0.9892954230308533
f 16/84/16 43/85/43 30/86/30
vt 0.3702635765075684 0.3647156953811646
f 26/44/26 20/49/20 42/87/42
vt 0.2568633258342743 0.7048512101173401
f 28/65/28 45/88/45 19/62/19
f 12/60/12 38/83/38 35/61/35
vt 0.6177614927291870 0.5696901679039001
vt 0.6044346094131470 0.5549248456954956
vt 0.6232241392135620 0.5343440175056458
f 14/89/14 33/90/33 37/91/37
vt 0.9281514286994934 0.5759771466255188
vt 0.9389784336090088 0.5373266339302063
f 17/92/17 44/93/44 31/54/31
vt 0.9790685176849365 0.5781721472740173
f 24/55/24 31/54/31 38/94/38
vt 0.7662102580070496 0.7834876775741577
vt 0.8077433705329895 0.7868180871009827
f 32/40/32 27/95/27 25/96/25
vt 0.3912821114063263 0.3532110452651978
f 42/87/42 20/49/20 36/97/36
vt 0.1618224233388901 0.8426010608673096
f 10/26/10 40/98/40 34/77/34
vt 0.6491681933403015 0.5269513130187988
vt 0.6362885832786560 0.4834240376949310
f 29/99/29 37/91/37 46/100/46
f 20/49/20 25/67/25 36/97/36
vt 0.3238389194011688 0.9824853539466858
f 41/101/41 30/86/30 43/85/43
vt 0.1705409288406372 0.9605212211608887
vt 0.2277967929840088 0.9617497324943542
vt 0.2194658517837524 0.9831404089927673
f 42/102/42 44/103/44 26/104/26
vt 0.4137429893016815 0.0515035986900330
vt 0.4227187633514404 0.0734539777040482
vt 0.3881742656230927 0.0899322405457497
f 37/105/37 33/106/33 39/107/39
vt 0.4119118750095367 0.1011516377329826
f 33/106/33 30/108/30 39/107/39
vt 0.3951853513717651 0.0546066313982010
f 37/105/37 39/107/39 51/109/51
vt 0.9789686799049377 0.5528385639190674
f 38/94/38 31/54/31 56/110/56
vt 0.8959286212921143 0.2967810034751892
vt 0.9376003742218018 0.2986496686935425
vt 0.9087150096893311 0.3165942430496216
f 35/111/35 38/112/38 57/113/57
vt 0.2957050502300262 0.9245194792747498
vt 0.3350707888603210 0.9422170519828796
f 34/114/34 41/115/41 43/85/43
vt 0.1325614899396896 1.0018334388732910
vt 0.1171848177909851 0.9826307296752930
vt 0.1446176618337631 0.9723064303398132
f 25/116/25 27/117/27 36/118/36
vt 0.3390737473964691 0.6989651322364807
vt 0.2836267054080963 0.6738458275794983
f 28/81/28 35/119/35 45/120/45
vt 0.3965465724468231 0.1170888543128967
f 30/108/30 41/121/41 39/107/39
f 31/54/31 44/93/44 56/110/56
vt 0.6000027656555176 0.5091947913169861
f 46/100/46 37/91/37 51/122/51
vt 0.2664103806018829 0.8913655877113342
vt 0.3099878728389740 0.8770881295204163
f 40/123/40 47/124/47 34/114/34
vt 0.2578051984310150 0.6514457464218140
vt 0.2517497837543488 0.6614637374877930
f 19/125/19 45/120/45 40/126/40
vt 0.0387321375310421 0.1763078421354294
vt 0.0783702060580254 0.1825161427259445
vt 0.0428434424102306 0.1946277320384979
f 35/127/35 57/128/57 45/129/45
vt 0.3446782231330872 0.9008699655532837
f 34/114/34 47/124/47 49/130/49
f 34/114/34 49/130/49 41/115/41
vt 0.3775452971458435 0.0569407939910889
f 51/109/51 39/107/39 52/131/52
vt 0.8378659486770630 0.1787926107645035
vt 0.8252393603324890 0.2112741470336914
vt 0.8081904053688049 0.1632340401411057
f 41/132/41 49/133/49 39/134/39
vt 0.1380524039268494 0.9388759732246399
f 36/118/36 50/135/50 42/102/42
vt 0.2286333739757538 0.6754404306411743
f 40/126/40 45/120/45 47/136/47
vt 0.1056892201304436 0.8951929211616516
vt 0.0703638046979904 0.9187366962432861
vt 0.0867072343826294 0.8571497201919556
f 27/137/27 48/138/48 36/139/36
vt 0.9666237831115723 0.3276662230491638
vt 0.9426639080047607 0.3359090983867645
f 38/112/38 56/140/56 57/141/57
vt 0.2654518187046051 0.7005848288536072
f 45/120/45 60/142/60 47/136/47
vt 0.0512386523187160 0.8783577680587769
f 36/139/36 48/138/48 50/143/50
vt 0.6897293329238892 0.3138218224048615
vt 0.6881988048553467 0.3800103664398193
vt 0.6512950062751770 0.3464748561382294
f 44/144/44 54/145/54 62/146/62
vt 0.4297256469726562 0.2362333536148071
vt 0.4725399613380432 0.2690033912658691
vt 0.4030837118625641 0.2663776874542236
f 46/147/46 53/148/53 48/149/48
vt 0.7146324515342712 0.3544521629810333
f 44/144/44 42/150/42 54/145/54
vt 0.1523410528898239 0.9219750761985779
f 50/135/50 54/151/54 42/102/42
vt 0.0596017241477966 0.2248680293560028
f 45/129/45 57/128/57 60/152/60
vt 0.4648807644844055 0.2387908250093460
f 46/147/46 51/153/51 53/148/53
vt 0.6148803830146790 0.3026178181171417
f 44/144/44 62/146/62 56/154/56
vt 0.4110623300075531 0.2965105473995209
f 48/149/48 53/148/53 50/155/50
vt 0.3604013621807098 0.0672455430030823
f 39/107/39 55/156/55 52/131/52
vt 0.7672025561332703 0.1836822926998138
f 39/134/39 49/133/49 55/157/55
vt 0.4900145232677460 0.2308617234230042
f 51/153/51 52/158/52 53/148/53
vt 0.7945207953453064 0.2200131565332413
f 49/133/49 61/159/61 55/157/55
vt 0.5350171327590942 0.2434135973453522
f 55/160/55 53/148/53 52/158/52
vt 0.4302322864532471 0.3270048499107361
f 50/155/50 53/148/53 54/161/54
vt 0.6202228665351868 0.3461216390132904
f 56/154/56 62/146/62 59/162/59
vt 0.4587238430976868 0.2991063594818115
f 53/148/53 58/163/58 54/161/54
vt 0.8268749117851257 0.2410813421010971
f 49/133/49 47/164/47 61/159/61
vt 0.1186474785208702 0.1609870940446854
vt 0.1285568922758102 0.1895288079977036
f 57/128/57 56/165/56 59/166/59
vt 0.8010115027427673 0.2531941235065460
f 47/164/47 60/167/60 61/159/61
vt 0.1047817915678024 0.2225492745637894
f 60/152/60 57/128/57 70/168/70
vt 0.0888101831078529 0.2396178394556046
f 60/152/60 70/168/70 61/169/61
vt 0.6806665658950806 0.4033824205398560
vt 0.6375246644020081 0.3966146409511566
f 54/145/54 58/170/58 63/171/63
vt 0.5144344568252563 0.2781337201595306
f 53/148/53 55/160/55 64/172/64
vt 0.6059626936912537 0.3689910471439362
f 59/162/59 62/146/62 65/173/65
vt 0.4954417645931244 0.3284763097763062
f 63/174/63 58/163/58 53/148/53
f 57/128/57 59/166/59 70/168/70
f 62/146/62 54/145/54 63/171/63
vt 0.6161738038063049 0.3792944252490997
f 62/146/62 63/175/63 65/173/65
f 53/148/53 64/172/64 63/174/63
vt 0.1293994933366776 0.2158405184745789
f 70/168/70 59/166/59 65/176/65
vt 0.7604238390922546 0.2133349776268005
vt 0.7354322671890259 0.1881508529186249
f 55/157/55 66/177/66 64/178/64
vt 0.7739917039871216 0.2425067871809006
f 61/159/61 70/179/70 66/177/66
f 55/157/55 61/159/61 66/177/66
vt 0.7859237790107727 0.3345577418804169
vt 0.8105556368827820 0.3318483829498291
vt 0.8040263056755066 0.3472616672515869
f 66/180/66 70/181/70 76/182/76
vt 0.8117952942848206 0.3008645474910736
vt 0.8394211530685425 0.3055781722068787
f 65/183/65 71/184/71 70/181/70
vt 0.0647168681025505 0.7309312820434570
vt 0.0521004758775234 0.7460755705833435
vt 0.0281868483871222 0.7391545176506042
f 63/185/63 64/186/64 67/187/67
vt 0.0541385225951672 0.7135769128799438
f 65/188/65 63/185/63 67/187/67
vt 0.3052502572536469 0.4614297151565552
vt 0.3180493116378784 0.4395607113838196
vt 0.3681216239929199 0.4720514118671417
f 64/189/64 66/190/66 77/191/77
vt 0.3307175040245056 0.0532101020216942
vt 0.3267468810081482 0.0343320704996586
vt 0.3501981496810913 0.0114071685820818
f 66/192/66 76/193/76 69/194/69
vt 0.5661447048187256 0.5451002717018127
vt 0.5638767480850220 0.5813087224960327
vt 0.5413922071456909 0.5426380038261414
f 65/195/65 68/196/68 71/197/71
vt 0.0267151556909084 0.7083811759948730
f 68/198/68 65/188/65 67/187/67
vt 0.3469329774379730 0.4903661310672760
f 64/189/64 77/191/77 73/199/73
vt 0.2452981770038605 0.0625569671392441
vt 0.2858316004276276 0.0410185530781746
vt 0.2864172458648682 0.0653399080038071
f 64/200/64 89/201/89 67/202/67
vt 0.8073769807815552 0.3634043335914612
vt 0.8318480253219604 0.3665658831596375
f 76/203/76 70/181/70 81/204/81
vt 0.3494164347648621 0.4305962026119232
f 66/190/66 69/205/69 77/191/77
vt 0.2521234154701233 0.0307303573936224
f 64/200/64 73/206/73 89/201/89
vt 0.5249066352844238 0.5781330466270447
f 68/196/68 82/207/82 71/197/71
vt 0.5392255783081055 0.1523532271385193
vt 0.5680376291275024 0.1498092114925385
vt 0.5613237023353577 0.1750711351633072
f 82/208/82 91/209/91 71/210/71
vt 0.8470030426979065 0.3514660298824310
f 70/181/70 71/211/71 81/204/81
vt 0.5530129075050354 0.6107798814773560
f 68/196/68 74/212/74 82/207/82
vt 0.3929096460342407 0.4490403234958649
f 77/191/77 69/205/69 84/213/84
vt 0.0237338040024042 0.4124747812747955
vt 0.0364213585853577 0.4326114058494568
vt 0.0076428954489529 0.4168831408023834
f 88/214/88 84/215/84 69/216/69
vt 0.3072314560413361 0.0561902783811092
f 89/201/89 80/217/80 67/202/67
vt 0.8981278538703918 0.6881489157676697
vt 0.8690871000289917 0.7080346345901489
vt 0.8407557010650635 0.6871393322944641
f 73/218/73 72/219/72 89/220/89
vt 0.5184648036956787 0.0107592539861798
vt 0.5492088794708252 -0.0005690362304449
vt 0.5372613072395325 0.0163057781755924
f 68/221/68 67/222/67 74/223/74
vt 0.8394488692283630 0.3876482248306274
f 81/204/81 85/224/85 76/203/76
vt 0.5144179463386536 0.6203175783157349
f 74/212/74 86/225/86 82/207/82
vt 0.0390291884541512 0.1023127436637878
vt 0.0499538928270340 0.0700276866555214
vt 0.0717759206891060 0.1081651747226715
f 76/226/76 75/227/75 69/228/69
vt 0.9137134552001953 0.7122250199317932
vt 0.8983344435691833 0.7178904414176941
f 73/218/73 94/229/94 104/230/104
vt 0.4815081954002380 0.6125128865242004
f 86/225/86 78/231/78 82/207/82
vt 0.8275725841522217 0.5558888912200928
vt 0.8600450158119202 0.5784774422645569
vt 0.8283647894859314 0.5882092118263245
f 76/232/76 85/233/85 75/234/75
f 73/218/73 104/230/104 72/219/72
vt 0.9725104570388794 0.0338483266532421
vt 0.9691641330718994 0.0641640201210976
vt 0.9484941363334656 0.0514926537871361
f 67/235/67 80/236/80 74/237/74
vt 0.0913323536515236 0.0676073357462883
f 69/228/69 75/227/75 88/238/88
vt 0.5309874415397644 0.6373758912086487
f 86/225/86 74/212/74 79/239/79
vt 0.5998299121856689 0.1428924947977066
f 71/210/71 91/209/91 102/240/102
vt 0.3872419595718384 0.5120091438293457
f 73/199/73 77/191/77 94/241/94
vt 0.6023613810539246 0.1694819033145905
f 71/210/71 102/240/102 81/242/81
vt 0.3140665292739868 0.1959145814180374
vt 0.3496413528919220 0.1799425035715103
vt 0.3338926136493683 0.2031077146530151
f 89/243/89 95/244/95 80/245/80
vt 0.5738639831542969 0.0161270052194595
vt 0.5629876255989075 0.0347228907048702
f 74/223/74 83/246/83 92/247/92
vt 0.9481797218322754 0.0687912926077843
f 74/237/74 80/236/80 83/248/83
vt 0.0243398342281580 0.0740111693739891
vt 0.0171559806913137 0.0586134269833565
f 75/227/75 85/249/85 87/250/87
vt 0.6415570378303528 0.1362410187721252
vt 0.6299064755439758 0.1842627972364426
f 81/242/81 93/251/93 85/252/85
vt 0.8292762637138367 0.7175244688987732
f 72/219/72 90/253/90 89/220/89
vt 0.4244084060192108 0.4819793701171875
f 77/191/77 84/213/84 103/254/103
vt 0.5618950724601746 0.6579142808914185
f 79/239/79 74/212/74 92/255/92
vt 0.8201868534088135 0.6854667067527771
f 95/256/95 89/220/89 90/253/90
f 93/251/93 81/242/81 102/240/102
vt 0.4146831929683685 0.4404986202716827
f 84/213/84 88/257/88 103/254/103
vt 0.4114984273910522 0.4926651120185852
f 77/191/77 103/258/103 94/241/94
vt 0.4270667433738708 0.1172327026724815
vt 0.4552903175354004 0.1319568753242493
vt 0.4402510523796082 0.1347688734531403
f 78/259/78 91/260/91 82/261/82
vt 0.6059445738792419 0.2998457551002502
vt 0.6075690388679504 0.2719555497169495
vt 0.6311424970626831 0.2705108225345612
f 92/262/92 83/263/83 96/264/96
vt 0.6109641790390015 0.2555107772350311
f 83/263/83 80/265/80 96/264/96
vt 0.8510589003562927 0.5998585224151611
vt 0.8806415796279907 0.6225731968879700
f 87/266/87 85/233/85 111/267/111
vt 0.8731204271316528 0.4803438186645508
vt 0.8978818058967590 0.4976842105388641
vt 0.8603937625885010 0.5241631865501404
f 72/268/72 113/269/113 90/270/90
vt 0.4446395039558411 0.1053523793816566
f 91/260/91 78/259/78 100/271/100
vt 0.3300094008445740 0.1528890430927277
vt 0.3435087800025940 0.1359436810016632
f 90/272/90 97/273/97 95/244/95
vt 0.7782155275344849 0.5495902895927429
vt 0.7919729351997375 0.5840851068496704
vt 0.7448104619979858 0.5520720481872559
f 94/274/94 99/275/99 104/276/104
vt 0.2630066573619843 0.3550142347812653
vt 0.2269717007875443 0.3602243959903717
vt 0.2499593943357468 0.3248478472232819
f 80/277/80 95/278/95 114/279/114
vt 0.4766998291015625 0.0800585821270943
f 91/260/91 100/271/100 106/280/106
vt 0.8130949735641479 0.5591200590133667
f 94/274/94 103/281/103 99/275/99
vt 0.2944035828113556 0.3335902094841003
f 80/277/80 114/279/114 96/282/96
vt 0.8829418420791626 0.4581076800823212
f 72/268/72 104/283/104 113/269/113
vt 0.3786108493804932 0.1650293320417404
f 95/244/95 97/273/97 114/284/114
vt 0.6228597164154053 0.2370903342962265
vt 0.6049296855926514 0.2272284477949142
vt 0.6483342647552490 0.2289186716079712
f 88/285/88 75/286/75 98/287/98
vt 0.8691251873970032 0.5461311340332031
f 90/270/90 113/269/113 97/288/97
vt 0.6167972683906555 0.2034017592668533
f 75/286/75 87/289/87 98/287/98
vt 0.4812046289443970 0.2168496549129486
vt 0.4658193290233612 0.1947529017925262
vt 0.5156418681144714 0.1947189271450043
f 98/290/98 117/291/117 88/292/88
vt 0.4915758073329926 0.1701412647962570
f 88/292/88 117/291/117 103/293/103
vt 0.8960636258125305 0.5725045800209045
f 111/267/111 85/233/85 93/294/93
vt 0.4825484752655029 0.1330069303512573
f 91/260/91 106/280/106 102/295/102
vt 0.6356579065322876 0.1761724948883057
f 87/289/87 111/296/111 98/287/98
vt 0.9075094461441040 0.5271791219711304
f 113/269/113 101/297/101 97/288/97
vt 0.1356120854616165 0.2830438315868378
vt 0.1381853669881821 0.2558633983135223
vt 0.1748657226562500 0.2918759882450104
f 78/298/78 86/299/86 100/300/100
vt 0.3264027833938599 0.0774154439568520
vt 0.3078735172748566 0.1056128740310669
vt 0.2798714935779572 0.0608206503093243
f 104/301/104 110/302/110 113/303/113
vt 0.1895255297422409 0.2491944283246994
f 86/299/86 109/304/109 100/300/100
vt 0.6717798709869385 0.2619514465332031
vt 0.6528332829475403 0.3011055588722229
f 96/264/96 108/305/108 92/306/92
vt 0.5109782218933105 0.1410287618637085
vt 0.5086545348167419 0.1072037369012833
f 93/307/93 102/295/102 115/308/115
vt 0.0536518953740597 0.9400202631950378
vt 0.0339602604508400 0.9771174788475037
vt 0.0219529122114182 0.9471837282180786
f 79/309/79 92/310/92 109/311/109
vt 0.8983894586563110 0.6166207790374756
f 111/267/111 93/294/93 116/312/116
vt 0.7911825776100159 0.6229601502418518
f 104/276/104 99/275/99 129/313/129
vt 0.2691688835620880 0.2899869382381439
f 96/282/96 114/279/114 108/314/108
vt 0.1263967901468277 0.2325643599033356
f 86/299/86 79/315/79 109/304/109
vt 0.4588697850704193 0.1533841341733932
f 103/293/103 117/291/117 119/316/119
vt 0.4800584316253662 0.5344840288162231
vt 0.4919375479221344 0.5721961259841919
vt 0.4557420909404755 0.5803106427192688
f 97/317/97 101/318/101 105/319/105
f 102/295/102 106/280/106 115/308/115
vt 0.3299853503704071 0.1012396737933159
f 104/301/104 129/320/129 110/302/110
vt 0.5057548880577087 0.8060160279273987
vt 0.5320305228233337 0.8262724280357361
vt 0.5331655740737915 0.8672109246253967
f 93/321/93 107/322/107 116/323/116
vt 0.4267508387565613 0.5568730831146240
f 97/317/97 105/319/105 121/324/121
vt 0.5705373287200928 0.2740792334079742
vt 0.5611023306846619 0.2211745977401733
vt 0.5921773314476013 0.2568904757499695
f 103/325/103 119/326/119 99/327/99
vt 0.3837936818599701 0.1388263404369354
f 114/284/114 97/273/97 121/328/121
vt 0.5296054482460022 0.0921191871166229
f 115/308/115 125/329/125 93/307/93
vt 0.4319546818733215 0.2210989743471146
f 98/290/98 118/330/118 117/291/117
vt 0.6880375146865845 0.1844820678234100
f 98/287/98 111/296/111 133/331/133
vt 0.2303604334592819 0.2587229013442993
f 114/279/114 130/332/130 108/314/108
vt 0.6725813746452332 0.3074794709682465
f 92/306/92 108/305/108 112/333/112
vt 0.0096977604553103 0.9542328119277954
f 109/311/109 92/310/92 123/334/123
vt 0.5548594594001770 0.7957604527473450
f 107/322/107 93/321/93 125/335/125
vt 0.6027830243110657 0.2082604467868805
f 99/327/99 119/326/119 129/336/129
vt 0.9228584766387939 0.5390279889106750
vt 0.9141635894775391 0.5419585108757019
f 101/297/101 126/337/126 105/338/105
vt 0.4113495945930481 0.1500760167837143
f 114/284/114 121/328/121 130/339/130
vt 0.6949149370193481 0.2306525111198425
f 98/287/98 133/331/133 118/340/118
vt 0.2153554260730743 0.2611889541149139
f 109/304/109 131/341/131 100/300/100
vt 0.0090576708316803 0.9811226725578308
f 123/334/123 92/310/92 112/342/112
vt 0.1280685514211655 0.1140414848923683
vt 0.1712017655372620 0.1133649647235870
vt 0.1482178270816803 0.1421083807945251
f 100/343/100 124/344/124 106/345/106
vt 0.2003485411405563 0.2854529321193695
f 100/300/100 131/341/131 124/346/124
vt 0.5121653079986572 0.8825790882110596
vt 0.5544821023941040 0.9039294719696045
f 111/347/111 116/323/116 133/348/133
vt 0.7719531059265137 0.6592773199081421
vt 0.7484987974166870 0.6190454959869385
f 129/313/129 120/349/120 110/350/110
vt 0.2500503659248352 0.0948950499296188
vt 0.2757495343685150 0.1243821606040001
f 101/351/101 113/303/113 122/352/122
vt 0.4284132122993469 0.1738574951887131
f 119/316/119 117/291/117 127/353/127
vt 0.5668408274650574 0.8130780458450317
f 107/322/107 125/335/125 135/354/135
f 110/302/110 122/352/122 113/303/113
vt 0.5572588443756104 0.8552291989326477
f 107/322/107 141/355/141 116/323/116
vt 0.7052515149116516 0.2501204311847687
vt 0.7006848454475403 0.2948433458805084
f 108/305/108 136/356/136 112/357/112
vt 0.2129156440496445 0.2271286845207214
f 109/304/109 123/358/123 131/341/131
vt 0.1760651916265488 0.1911208927631378
vt 0.1577811241149902 0.1758862584829330
f 106/345/106 125/359/125 115/360/115
f 117/291/117 118/330/118 127/353/127
vt 0.1827626824378967 0.1337499171495438
f 124/344/124 128/361/128 106/345/106
vt 0.5374116301536560 0.1857772171497345
vt 0.5551791191101074 0.1802382171154022
f 119/326/119 127/362/127 134/363/134
vt 0.2237219661474228 0.1196534633636475
f 101/351/101 122/352/122 126/364/126
vt 0.2912707328796387 0.2626914381980896
f 108/314/108 130/332/130 136/365/136
vt 0.3265341818332672 0.1400849670171738
f 110/302/110 120/366/120 122/352/122
vt 0.3836497962474823 0.5606156587600708
vt 0.3848214149475098 0.5411344170570374
f 121/324/121 142/367/142 130/368/130
f 116/323/116 141/355/141 133/348/133
f 106/345/106 128/361/128 125/359/125
vt 0.8420820236206055 0.7480570077896118
vt 0.8752030134201050 0.7599542140960693
vt 0.8697950243949890 0.7923901081085205
f 131/369/131 123/370/123 144/371/144
vt 0.5611607432365417 0.8204553127288818
f 107/322/107 135/372/135 141/355/141
vt 0.2901523709297180 0.4265806674957275
vt 0.2801372706890106 0.3958943188190460
vt 0.3123058378696442 0.3896878063678741
f 133/373/133 140/374/140 118/375/118
vt 0.7760079503059387 0.6702008843421936
vt 0.7933770418167114 0.7145733237266541
vt 0.7414479851722717 0.6827802062034607
f 129/376/129 139/377/139 120/378/120
vt 0.5730963945388794 0.8525071144104004
vt 0.6144847869873047 0.8505635261535645
vt 0.5770947337150574 0.8585172295570374
f 136/379/136 137/380/137 112/381/112
vt 0.7991079688072205 0.6598776578903198
vt 0.7996634244918823 0.6823652386665344
f 119/382/119 134/383/134 129/376/129
vt 0.7544766068458557 0.5373191237449646
vt 0.7372900247573853 0.5765742063522339
vt 0.7294466495513916 0.5518879890441895
f 135/384/135 145/385/145 141/386/141
vt 0.7481253147125244 0.3994769752025604
vt 0.7790476083755493 0.3986802697181702
vt 0.7511744499206543 0.4415600895881653
f 121/387/121 105/388/105 148/389/148
vt 0.7979852557182312 0.9811106920242310
vt 0.8342618942260742 0.9410660266876221
vt 0.8413572907447815 0.9780330657958984
f 131/390/131 132/391/132 124/392/124
vt 0.7365373969078064 0.8776158690452576
vt 0.7768746614456177 0.9075543284416199
vt 0.7368853092193604 0.9196236729621887
f 125/393/125 128/394/128 138/395/138
vt 0.6430197358131409 0.7258939743041992
vt 0.6439712047576904 0.6847041249275208
vt 0.6747097373008728 0.6921943426132202
f 125/396/125 138/397/138 135/398/135
vt 0.7906469702720642 0.5233613252639771
vt 0.8285778760910034 0.4900624155998230
vt 0.8424827456474304 0.5326926708221436
f 120/399/120 155/400/155 122/401/122
f 129/376/129 134/383/134 139/377/139
vt 0.7345135807991028 0.3677606880664825
vt 0.7430746555328369 0.3169395327568054
vt 0.7778090238571167 0.3452263176441193
f 112/402/112 137/403/137 123/404/123
vt 0.8608131408691406 0.9792535305023193
f 124/392/124 132/391/132 128/405/128
vt 0.6040668487548828 0.3658487498760223
vt 0.5587422847747803 0.3379736542701721
vt 0.5962451100349426 0.3123147189617157
f 122/406/122 147/407/147 126/408/126
vt 0.6338891386985779 0.4543483555316925
vt 0.6895766258239746 0.4433986544609070
vt 0.6656711101531982 0.4754481911659241
f 136/409/136 130/410/130 137/411/137
vt 0.7290612459182739 0.4169712066650391
f 121/387/121 148/389/148 142/412/142
vt 0.8115839362144470 0.7532597780227661
vt 0.8332319259643555 0.7941635847091675
f 131/413/131 144/371/144 132/414/132
vt 0.6558942198753357 0.6936540603637695
vt 0.7269340753555298 0.6787664890289307
vt 0.7055627703666687 0.7256920933723450
f 127/415/127 118/416/118 140/417/140
vt 0.3069304525852203 0.2743883728981018
vt 0.3206401765346527 0.2377093881368637
vt 0.3480251729488373 0.2667664885520935
f 134/418/134 127/419/127 139/420/139
vt 0.6946376562118530 0.9740505218505859
vt 0.6616700291633606 0.9753080010414124
vt 0.6840439438819885 0.9365501403808594
f 105/421/105 126/422/126 143/423/143
vt 0.7738527655601501 0.9508040547370911
f 128/394/128 149/424/149 138/395/138
vt 0.7121935486793518 0.4617353379726410
vt 0.6850553154945374 0.4942602813243866
f 130/410/130 142/425/142 146/426/146
vt 0.6659051179885864 0.6525862216949463
f 135/398/135 138/397/138 145/427/145
vt 0.7825354933738708 0.4310752451419830
f 148/389/148 105/388/105 143/428/143
vt 0.8650934100151062 0.9256219863891602
f 128/405/128 132/391/132 149/429/149
vt 0.8636791110038757 0.4973385334014893
f 122/401/122 155/400/155 147/430/147
vt 0.7905934453010559 0.4659201204776764
f 155/400/155 120/399/120 159/431/159
vt 0.7520626187324524 0.7339314818382263
f 139/377/139 159/432/159 120/378/120
f 130/410/130 146/426/146 137/411/137
vt 0.6876990795135498 0.5938299894332886
vt 0.6986021399497986 0.5760797858238220
vt 0.6995694637298584 0.6097481846809387
f 133/433/133 141/434/141 151/435/151
vt 0.7707912325859070 0.2890549898147583
f 123/404/123 137/403/137 144/436/144
vt 0.2418157011270523 0.4108586907386780
f 133/373/133 151/437/151 140/374/140
vt 0.7114207148551941 0.4996805489063263
f 142/425/142 148/438/148 146/426/146
vt 0.6447919011116028 0.9348348379135132
f 126/422/126 147/439/147 143/423/143
f 141/434/141 145/385/145 151/435/151
vt 0.6819733977317810 0.7567893266677856
f 140/417/140 157/440/157 127/415/127
vt 0.8536008596420288 0.8302839994430542
vt 0.8280407786369324 0.8270119428634644
f 132/414/132 152/441/152 149/442/149
vt 0.2525986433029175 0.3813270330429077
f 165/443/165 140/374/140 151/437/151
f 132/414/132 144/371/144 152/441/152
vt 0.7293573617935181 0.6259257197380066
f 145/385/145 167/444/167 151/435/151
vt 0.6186932325363159 0.6393415927886963
f 138/397/138 150/445/150 145/427/145
vt 0.3659874796867371 0.2207198888063431
f 139/420/139 127/419/127 157/446/157
vt 0.8496230244636536 0.4597279429435730
f 155/400/155 161/447/161 147/430/147
vt 0.7851876020431519 0.7783254981040955
f 139/377/139 158/448/158 159/432/159
vt 0.7649877667427063 0.4766807854175568
f 143/428/143 164/449/164 148/389/148
vt 0.6884059309959412 0.5225250720977783
f 146/426/146 148/438/148 171/450/171
vt 0.6444183588027954 0.9306477308273315
vt 0.6718111634254456 0.9055560827255249
f 143/423/143 147/451/147 162/452/162
vt 0.7083253860473633 0.6396755576133728
f 167/444/167 163/453/163 151/435/151
vt 0.6666144132614136 0.8323727846145630
vt 0.6732008457183838 0.8735626935958862
f 137/380/137 173/454/173 153/455/153
vt 0.5249416232109070 0.3422721028327942
vt 0.5237099528312683 0.3098954558372498
f 147/407/147 161/456/161 162/457/162
vt 0.7185252904891968 0.9645054936408997
f 149/424/149 150/458/150 138/395/138
vt 0.6431431174278259 0.8119023442268372
f 137/380/137 146/459/146 173/454/173
vt 0.8938735127449036 0.8506671190261841
f 152/441/152 144/371/144 154/460/154
vt 0.7253736257553101 0.2565310895442963
f 144/436/144 137/403/137 153/461/153
vt 0.6366950273513794 0.6167616844177246
f 145/427/145 150/445/150 168/462/168
vt 0.8525753021240234 0.9180277585983276
vt 0.8389804959297180 0.8870944976806641
vt 0.8661476373672485 0.8904417157173157
f 149/463/149 152/464/152 156/465/156
vt 0.3892178535461426 0.2575394213199615
f 139/420/139 157/446/157 158/466/158
vt 0.7122135758399963 0.5246213078498840
f 148/438/148 164/467/164 171/450/171
vt 0.7075005173683167 0.9034489989280701
f 143/423/143 162/452/162 164/468/164
vt 0.7158693671226501 0.7654519081115723
f 140/417/140 165/469/165 157/440/157
vt 0.8173108696937561 0.4468328356742859
f 155/400/155 159/470/159 161/447/161
vt 0.7715497612953186 0.2583440542221069
f 144/436/144 153/461/153 154/471/154
vt 0.8640227317810059 0.8443233966827393
f 152/441/152 154/460/154 156/472/156
vt 0.6681570410728455 0.6117767095565796
f 145/427/145 168/462/168 167/473/167
vt 0.6648124456405640 0.7911979556083679
f 173/454/173 146/459/146 171/474/171
vt 0.7082227468490601 0.5401463508605957
f 164/467/164 160/475/160 171/450/171
vt 0.7553766369819641 1.0146317481994629
f 149/424/149 166/476/166 150/458/150
vt 0.7803997993469238 0.9848564863204956
f 149/424/149 156/477/156 166/476/166
vt 0.2180708348751068 0.4028731584548950
f 165/443/165 151/437/151 163/478/163
vt 0.6590983271598816 0.7651708126068115
vt 0.6890842318534851 0.7870286703109741
f 158/479/158 157/440/157 181/480/181
f 165/469/165 181/480/181 157/440/157
vt 0.7101842164993286 0.8832578063011169
f 164/468/164 162/452/162 160/481/160
vt 0.4838725030422211 0.3129180967807770
f 162/457/162 161/456/161 187/482/187
vt 0.7295678853988647 0.7845033407211304
f 165/469/165 163/483/163 181/480/181
vt 0.7204958200454712 0.6652255058288574
f 163/453/163 167/444/167 175/484/175
vt 0.5022193789482117 0.3612675368785858
vt 0.4963376522064209 0.3399671912193298
f 161/456/161 159/485/159 172/486/172
vt 0.6859713196754456 0.8727118372917175
f 160/481/160 162/452/162 169/487/169
vt 0.6515821814537048 0.8829968571662903
f 162/452/162 187/488/187 169/487/169
f 161/456/161 172/486/172 187/482/187
vt 0.1419445276260376 0.7117899060249329
vt 0.1082795709371567 0.7618532180786133
vt 0.1091409474611282 0.7198253870010376
f 158/489/158 181/490/181 174/491/174
vt 0.7263898849487305 0.8011891245841980
f 181/480/181 163/483/163 175/492/175
vt 0.7384199500083923 0.6618804931640625
f 175/484/175 167/444/167 178/493/178
vt 0.0953427553176880 0.4918407201766968
vt 0.0627625212073326 0.4631530940532684
vt 0.0906695276498795 0.4316693544387817
f 156/494/156 154/495/154 170/496/170
vt 0.0371781364083290 0.3919818401336670
f 154/495/154 153/497/153 170/496/170
vt 0.1268922984600067 0.4614096283912659
f 156/494/156 170/496/170 186/498/186
vt 0.9884817004203796 0.4256257116794586
vt 0.9564994573593140 0.4082329273223877
vt 0.9765531420707703 0.3807916343212128
f 156/499/156 186/500/186 166/501/166
vt 0.4070157110691071 0.8710654377937317
vt 0.4184671640396118 0.8976039290428162
vt 0.3974922299385071 0.9037595391273499
f 159/502/159 158/503/158 172/504/172
vt 0.1108708903193474 0.6827875971794128
f 158/489/158 174/491/174 172/505/172
vt 0.8728048205375671 0.1654035001993179
vt 0.9071590304374695 0.1827173084020615
vt 0.8768977522850037 0.1970448493957520
f 150/506/150 166/507/166 168/508/168
vt 0.0604615882039070 0.4989235997200012
vt 0.0300109162926674 0.5062292218208313
vt 0.0435537323355675 0.4762685000896454
f 160/509/160 169/510/169 180/511/180
vt 0.8498550653457642 0.2155660986900330
vt 0.8770251870155334 0.2384005337953568
f 167/512/167 168/508/168 178/513/178
vt 0.1446394175291061 0.0568291805684566
vt 0.1727373600006104 0.0232487078756094
vt 0.1727445572614670 0.0757141634821892
f 153/514/153 173/515/173 177/516/177
vt 0.2071916460990906 0.0503683611750603
vt 0.2412768304347992 0.0503276288509369
vt 0.2087220698595047 0.0854602158069611
f 171/517/171 160/518/160 180/519/180
f 173/515/173 171/517/171 177/516/177
vt 0.0814306437969208 0.6935490965843201
f 172/505/172 174/491/174 179/520/179
vt 0.1609200835227966 0.0805983543395996
f 177/516/177 176/521/176 153/514/153
vt 0.2162659019231796 0.0964364483952522
f 171/517/171 180/522/180 177/516/177
f 168/508/168 166/507/166 178/513/178
vt 0.1030950471758842 0.3948183357715607
f 170/496/170 153/497/153 176/523/176
vt 0.7458050251007080 0.1454326510429382
vt 0.7710896134376526 0.1236485466361046
vt 0.7676069736480713 0.1529731750488281
f 174/524/174 181/525/181 184/526/184
vt 0.4084226787090302 0.9365804195404053
vt 0.3912267684936523 0.9700534343719482
vt 0.3817861080169678 0.9483383893966675
f 179/527/179 187/528/187 172/529/172
vt 0.8290860652923584 0.1142724454402924
vt 0.8215491175651550 0.1495580077171326
f 181/525/181 175/530/175 182/531/182
vt 0.9290562272071838 0.3911389410495758
f 186/500/186 183/532/183 166/501/166
vt 0.7671944499015808 0.1530475020408630
vt 0.7520329356193542 0.1572334617376328
f 174/524/174 184/533/184 179/534/179
vt 0.8573170304298401 0.2878987193107605
vt 0.8987408280372620 0.2711117863655090
f 175/535/175 178/513/178 182/536/182
vt 0.4224871993064880 0.6958656311035156
vt 0.3831310272216797 0.6908781528472900
vt 0.4019235372543335 0.6691665649414062
f 177/537/177 180/538/180 185/539/185
vt 0.1366613060235977 0.4156818687915802
f 170/496/170 176/523/176 186/540/186
vt 0.5304021239280701 0.3805578351020813
vt 0.5893220305442810 0.4054236412048340
vt 0.5394356846809387 0.4280600547790527
f 166/541/166 183/542/183 178/543/178
vt 0.4335541129112244 0.9860445261001587
f 179/527/179 184/544/184 187/528/187
vt 0.0369375050067902 0.0329751111567020
vt 0.0827870965003967 0.0340825691819191
vt 0.0696288049221039 0.0568798221647739
f 169/545/169 185/546/185 180/547/180
vt 0.4513385295867920 0.6867282986640930
f 177/537/177 185/539/185 176/548/176
vt 0.7925663590431213 0.1625205576419830
f 182/531/182 184/549/184 181/525/181
vt 0.5726769566535950 0.4545859098434448
f 178/543/178 183/542/183 182/550/182
vt 0.0612435080111027 0.0074411355890334
f 169/545/169 187/551/187 185/546/185
vt 0.0323503948748112 0.8054578304290771
vt 0.0122879557311535 0.8090245723724365
vt 0.0214780084788799 0.7648600339889526
f 182/552/182 194/553/194 184/554/184
vt 0.4458401501178741 0.6489647626876831
f 185/539/185 186/555/186 176/548/176
vt 0.9631857872009277 0.9377024769783020
vt 0.9990708231925964 0.9209185242652893
vt 0.9900251626968384 0.9421451091766357
f 185/556/185 187/557/187 190/558/190
vt 0.4154354929924011 0.9905687570571899
f 187/528/187 184/544/184 190/559/190
vt 0.5730687379837036 0.4558546245098114
vt 0.6036548018455505 0.4600331187248230
f 182/560/182 183/542/183 194/561/194
vt 0.9369224309921265 0.6294366717338562
vt 0.9088204503059387 0.6057012081146240
vt 0.9139155745506287 0.5900571942329407
f 184/562/184 194/563/194 189/564/189
vt 0.4103019833564758 0.6265758275985718
f 185/539/185 188/565/188 186/555/186
vt 0.3668364286422729 0.6251950263977051
f 188/565/188 185/539/185 193/566/193
vt 0.4243162572383881 0.6186597347259521
vt 0.4709928333759308 0.6239502429962158
f 186/555/186 191/567/191 183/568/183
vt 0.9689937829971313 0.9612266421318054
f 185/556/185 190/558/190 193/569/193
vt 0.4278606474399567 0.6124269366264343
f 186/555/186 188/565/188 191/570/191
vt 0.6148607134819031 0.4129009544849396
f 183/542/183 191/571/191 194/561/194
vt 0.9140208363533020 0.5685063600540161
f 184/562/184 189/564/189 190/572/190
vt 0.6279016137123108 0.4473240673542023
vt 0.6143828630447388 0.4676150381565094
f 194/561/194 192/573/192 197/574/197
f 191/571/191 192/573/192 194/561/194
vt 0.4158867597579956 0.6071211695671082
f 188/565/188 195/575/195 191/570/191
vt 0.3911263346672058 0.6007346510887146
f 193/566/193 195/576/195 188/565/188
vt 0.6383757591247559 0.1473038643598557
vt 0.6308426856994629 0.1116812303662300
vt 0.6484485268592834 0.0993597209453583
f 193/577/193 190/578/190 203/579/203
vt 0.6829406023025513 0.1392533630132675
vt 0.6745249032974243 0.1664598286151886
f 193/577/193 200/580/200 195/581/195
vt 0.0764081180095673 0.3323596119880676
vt 0.0584349781274796 0.2813734710216522
vt 0.0951663926243782 0.2911134362220764
f 192/582/192 198/583/198 197/584/197
vt 0.9262024164199829 0.4379808306694031
vt 0.9621214270591736 0.4631660282611847
vt 0.9241610169410706 0.4817511141300201
f 194/585/194 196/586/196 189/587/189
vt 0.4662400484085083 0.8753976821899414
vt 0.4988798797130585 0.8835644125938416
vt 0.4748117923736572 0.9276083707809448
f 190/588/190 189/589/189 204/590/204
vt 0.0728213489055634 0.3554042875766754
vt 0.0466744527220726 0.3314889073371887
f 192/582/192 191/591/191 199/592/199
f 203/579/203 200/580/200 193/577/193
vt 0.9576226472854614 0.4405933618545532
f 194/585/194 197/593/197 196/586/196
vt 0.9435663819313049 0.8546131253242493
vt 0.9143186807632446 0.8559992909431458
vt 0.9503650665283203 0.8229799866676331
f 191/594/191 195/595/195 199/596/199
f 199/592/199 198/583/198 192/582/192
vt 0.4430128931999207 0.8798353672027588
vt 0.4255879819393158 0.9325389862060547
f 190/597/190 204/590/204 203/598/203
vt 0.9058991074562073 0.8410889506340027
vt 0.9021962881088257 0.8127092123031616
f 199/596/199 195/599/195 206/600/206
vt 0.6840468049049377 0.0949946343898773
f 200/580/200 203/579/203 209/601/209
vt 0.9533370733261108 0.5125637054443359
f 189/587/189 196/586/196 218/602/218
vt 0.7124968171119690 0.1897753030061722
f 195/581/195 200/580/200 201/603/201
vt 0.4574405848979950 0.3742444217205048
vt 0.4419519603252411 0.4217248857021332
vt 0.4149024188518524 0.3923273086547852
f 195/604/195 201/605/201 206/606/206
vt 0.9356537461280823 0.7960494756698608
f 199/596/199 206/600/206 202/607/202
vt 0.5278026461601257 0.9255866408348083
f 189/589/189 218/608/218 204/590/204
vt 0.1008519902825356 0.2644746303558350
f 197/584/197 198/583/198 196/609/196
vt 0.9793226122856140 0.4881576597690582
f 196/586/196 205/610/205 218/602/218
vt 0.9063234925270081 0.7683991193771362
f 206/600/206 224/611/224 202/607/202
vt 0.7387090325355530 0.1623705476522446
f 200/580/200 222/612/222 201/603/201
vt 0.4859482347965240 0.9904745221138000
f 218/608/218 210/613/210 204/590/204
vt 0.7254073619842529 0.1299125999212265
f 200/580/200 208/614/208 222/612/222
vt 0.7167125940322876 0.0979705303907394
f 209/601/209 217/615/217 200/580/200
vt 0.0163894146680832 0.2959711253643036
f 199/592/199 216/616/216 198/583/198
vt 0.0757222175598145 0.2425618469715118
f 198/583/198 212/617/212 196/609/196
f 203/598/203 204/590/204 210/613/210
vt 0.9326816797256470 0.1836694926023483
vt 0.9192021489143372 0.1423374116420746
vt 0.9389978647232056 0.1681340038776398
f 202/618/202 216/619/216 199/620/199
vt 0.0583118833601475 0.7517789602279663
vt 0.0822260007262230 0.7976281046867371
vt 0.0556727647781372 0.8204581737518311
f 196/621/196 212/622/212 215/623/215
vt 0.8951246738433838 0.1688681691884995
f 202/618/202 213/624/213 216/619/216
vt 0.3142517209053040 0.7293323874473572
vt 0.3542924523353577 0.6928037405014038
vt 0.3312343358993530 0.7477131485939026
f 196/625/196 215/626/215 205/627/205
f 200/580/200 217/615/217 208/614/208
vt 0.2322352528572083 0.5854233503341675
vt 0.2439956367015839 0.5337470769882202
vt 0.2767831981182098 0.5514387488365173
f 202/628/202 224/629/224 213/630/213
vt 0.3654343783855438 0.7323054075241089
f 205/627/205 215/626/215 214/631/214
vt 0.0301930774003267 0.2501712739467621
f 198/583/198 216/616/216 207/632/207
vt 0.2583362460136414 0.7814365625381470
vt 0.2927696108818054 0.7870588898658752
vt 0.2435629516839981 0.8040134906768799
f 206/633/206 201/634/201 219/635/219
vt 0.3485008776187897 0.7956370115280151
vt 0.3669033348560333 0.7623467445373535
f 218/636/218 205/627/205 211/637/211
vt 0.3625579178333282 0.5784609913825989
vt 0.3405483961105347 0.6075688004493713
vt 0.3272005915641785 0.5676580667495728
f 203/638/203 210/639/210 209/640/209
f 205/627/205 214/631/214 211/637/211
vt 0.3167938888072968 0.7998867034912109
vt 0.2892675995826721 0.8284614682197571
f 222/641/222 223/642/223 201/634/201
vt 0.3748988509178162 0.4087677597999573
vt 0.3583709597587585 0.3736182153224945
f 206/606/206 219/643/219 224/644/224
f 201/634/201 223/642/223 219/635/219
vt 0.0419935360550880 0.6377342343330383
vt 0.0196757260710001 0.6593262553215027
vt 0.0099995629861951 0.6358276605606079
f 210/645/210 218/646/218 225/647/225
vt 0.1128369271755219 0.7907869815826416
vt 0.1486554890871048 0.7871132493019104
f 198/648/198 207/649/207 212/622/212
vt 0.9569497704505920 0.7361814379692078
vt 0.9618200063705444 0.7865289449691772
vt 0.9231537580490112 0.7465401887893677
f 209/650/209 226/651/226 217/652/217
vt 0.3040255308151245 0.6111040115356445
f 210/639/210 231/653/231 209/640/209
vt 0.1093679070472717 0.8290367722511292
f 212/622/212 228/654/228 215/623/215
vt 0.5020061731338501 0.7492727041244507
vt 0.5010077357292175 0.7023168802261353
vt 0.5565603375434875 0.7396973967552185
f 222/655/222 208/656/208 230/657/230
f 207/649/207 228/654/228 212/622/212
vt 0.9034270644187927 0.1210639029741287
vt 0.9283309578895569 0.1179188489913940
f 216/619/216 241/658/241 207/659/207
vt 0.1033588796854019 0.6234757900238037
vt 0.0846982747316360 0.5734798312187195
vt 0.1240986809134483 0.5966845750808716
f 214/660/214 246/661/246 211/662/211
vt 0.9167116284370422 0.1107310429215431
f 207/659/207 241/658/241 220/663/220
vt 0.5127135515213013 0.6637898087501526
vt 0.5506053566932678 0.6746302247047424
f 208/656/208 217/664/217 232/665/232
vt 0.0852064192295074 0.6480022668838501
vt 0.0507455691695213 0.6193940043449402
f 214/660/214 215/666/215 235/667/235
vt 0.2646673917770386 0.5020536184310913
f 224/629/224 227/668/227 213/630/213
vt 0.1882503926753998 0.8121925592422485
vt 0.1981580555438995 0.7948529720306396
f 219/635/219 227/669/227 224/670/224
f 208/656/208 232/665/232 230/657/230
vt 0.6248868703842163 0.6939383149147034
vt 0.6233292818069458 0.7209066152572632
vt 0.5700309276580811 0.6727884411811829
f 215/671/215 228/672/228 235/673/235
f 214/660/214 235/667/235 246/661/246
vt 0.8699994683265686 0.1420714408159256
f 216/619/216 213/624/213 233/674/233
vt 0.1397166997194290 0.5643067955970764
vt 0.1386629939079285 0.5785205960273743
f 211/662/211 225/675/225 218/676/218
vt 0.3629499971866608 0.9883375763893127
vt 0.3329178988933563 0.9823920726776123
vt 0.3518019020557404 0.9626846313476562
f 210/677/210 225/678/225 231/679/231
f 216/619/216 233/674/233 241/658/241
vt 0.1572329550981522 0.8358338475227356
f 207/649/207 220/680/220 228/654/228
vt 0.2915920019149780 0.5814448595046997
f 231/653/231 226/681/226 209/640/209
vt 0.1767184287309647 0.5272359251976013
vt 0.1904869526624680 0.5056096911430359
vt 0.2226630300283432 0.5590190887451172
f 219/682/219 237/683/237 227/684/227
vt 0.1371056735515594 0.4890955388545990
f 223/685/223 237/683/237 219/682/219
vt 0.1289829611778259 0.5384903550148010
vt 0.1489218920469284 0.5324988961219788
f 225/675/225 221/686/221 231/687/231
f 211/662/211 246/661/246 225/675/225
vt 0.8627601265907288 0.3528401255607605
vt 0.8869155645370483 0.4227402508258820
vt 0.8388885259628296 0.4128690659999847
f 226/688/226 232/689/232 217/690/217
vt 0.1146783977746964 0.4700568914413452
vt 0.1430104821920395 0.4467689990997314
vt 0.1363200247287750 0.4888529181480408
f 222/691/222 239/692/239 223/693/223
vt 0.2793595194816589 0.5947150588035583
f 231/653/231 234/694/234 226/681/226
vt 0.1985335052013397 0.1535886973142624
vt 0.2323018610477448 0.1684647500514984
vt 0.1879744976758957 0.1819314807653427
f 222/695/222 230/696/230 239/697/239
vt 0.8962261080741882 0.3699612319469452
f 232/689/232 226/688/226 229/698/229
vt 0.3239387869834900 0.5236914157867432
f 227/668/227 245/699/245 213/630/213
vt 0.5810464620590210 0.7451258897781372
f 228/672/228 240/700/240 235/673/235
vt 0.8828708529472351 0.3302669823169708
f 226/688/226 234/701/234 229/698/229
f 237/683/237 223/693/223 239/692/239
vt 0.6343706846237183 0.0439480356872082
vt 0.6078082323074341 0.0467815697193146
vt 0.6177329421043396 0.0251640547066927
f 231/702/231 221/703/221 243/704/243
vt 0.4623446464538574 0.7422012686729431
vt 0.4522228240966797 0.7948358058929443
vt 0.4146860539913177 0.7738798856735229
f 233/705/233 236/706/236 241/707/241
vt 0.2910840511322021 0.1619464010000229
vt 0.2501116991043091 0.2011964172124863
f 230/696/230 232/708/232 238/709/238
vt 0.3139052689075470 0.5565946698188782
f 213/630/213 245/699/245 233/710/233
f 230/696/230 238/709/238 239/697/239
vt 0.6313077807426453 0.7487246990203857
f 220/711/220 240/700/240 228/672/228
f 225/675/225 246/661/246 221/686/221
vt 0.2692031860351562 0.6273319125175476
f 231/653/231 243/712/243 234/694/234
vt 0.2116057872772217 0.4863396883010864
f 227/684/227 237/683/237 244/713/244
f 237/683/237 239/692/239 244/713/244
vt 0.1903768330812454 0.4222853481769562
f 239/692/239 238/714/238 244/713/244
vt 0.0554595217108727 0.5453956723213196
f 235/667/235 251/715/251 246/661/246
vt 0.9109887480735779 0.3465579748153687
vt 0.9200738668441772 0.3751006126403809
f 229/698/229 242/716/242 247/717/247
vt 0.5371618270874023 0.7230836749076843
f 235/673/235 240/700/240 251/718/251
vt 0.6263418197631836 0.7793899178504944
f 220/711/220 241/719/241 240/700/240
vt 0.2459524720907211 0.5992785096168518
f 234/694/234 243/712/243 242/720/242
vt 0.5837252736091614 0.0355124622583389
f 221/703/221 250/721/250 243/704/243
vt 0.9234429001808167 0.4171993732452393
f 232/689/232 247/717/247 248/722/248
f 234/701/234 242/716/242 229/698/229
f 229/698/229 247/717/247 232/689/232
vt 0.4635161161422729 0.4550085961818695
vt 0.4961532652378082 0.4471625983715057
vt 0.4795692563056946 0.4979858398437500
f 227/723/227 244/724/244 245/725/245
vt 0.2287738472223282 0.4586040079593658
f 244/713/244 238/714/238 248/726/248
vt 0.2759158611297607 0.2193085998296738
f 238/709/238 232/708/232 248/727/248
vt 0.4820694029331207 0.7721227407455444
vt 0.4999471008777618 0.7843606472015381
f 233/728/233 245/729/245 236/706/236
vt 0.0913163721561432 0.5263791084289551
f 221/686/221 246/661/246 250/730/250
vt 0.4049905538558960 0.8211154937744141
f 240/731/240 241/707/241 236/706/236
vt 0.8099629878997803 0.0856209769845009
vt 0.7988914847373962 0.0461194738745689
vt 0.8242799639701843 0.0537298545241356
f 243/732/243 250/733/250 242/734/242
vt 0.5288261175155640 0.4882418811321259
f 245/725/245 244/724/244 249/735/249
vt 0.8999641537666321 0.1015377417206764
vt 0.8465719819068909 0.1128810718655586
vt 0.8909024596214294 0.0633333250880241
f 247/736/247 242/737/242 249/738/249
vt 0.9482212066650391 0.0810923427343369
f 247/736/247 249/738/249 248/739/248
vt 0.0824001953005791 0.5270205140113831
f 246/661/246 251/715/251 250/740/250
vt 0.5391952395439148 0.4329873919487000
f 244/724/244 248/741/248 249/735/249
vt 0.8527598977088928 0.0594959817826748
f 249/738/249 242/737/242 252/742/252
vt 0.4503967165946960 0.8415549397468567
f 245/729/245 252/743/252 236/706/236
vt 0.4940539300441742 0.5141156911849976
vt 0.5275405645370483 0.5265105366706848
f 245/744/245 249/735/249 252/745/252
f 236/706/236 252/743/252 240/731/240
vt 0.7712597846984863 0.0346727520227432
vt 0.7577582001686096 0.0052093523554504
f 251/746/251 240/747/240 250/733/250
vt 0.8247907757759094 0.0328452959656715
f 242/734/242 250/733/250 252/748/252
vt 0.4226588010787964 0.8661488294601440
f 240/731/240 252/743/252 250/749/250
# 500 faces, 749 coords texture

# End of File
