####
#
# OBJ File Generated by Meshlab
#
####
# Object dart.obj
#
# Vertices: 202
# Faces: 400
#
####
vn -0.4622724498528834 0.1622671989333447 -0.8717646117257455
v -0.8893611347696806 -0.0036400260794898 0.0009366660426215
vn -0.0887726358050162 0.7426203977392539 0.6638029556983174
v -0.8441925031056332 0.0056222616371070 0.0034558504220010
vn -0.0277500713846433 0.5798425323343908 -0.8142558389315906
v -0.8233994764243837 0.0011575120789856 -0.0072400515112285
vn -0.0955398178188371 -0.9912426562731187 0.0911599670675413
v -0.8157466174444213 -0.0120614075196693 0.0017716803003117
vn 0.0341504860425421 0.4346719320448353 0.8999411401838836
v -0.8019946028759312 0.0006035396672324 0.0078238136539908
vn 0.0663881809174168 -0.7073801394519158 -0.7037087094412464
v -0.7705926516102002 -0.0133441782126878 -0.0039648797358461
vn 0.0478393555392365 0.6764747943319865 -0.7349103677967042
v -0.7902771446004790 0.0023919087991369 -0.0074756491549787
vn -0.1677465394285434 -0.9083264271256298 0.3831503625144259
v -0.7561715024797419 -0.0124348608344273 0.0060278265415763
vn -0.0182053346934248 0.7545005465824977 0.6560468664626123
v -0.7561306370481005 0.0070055314486936 0.0035962004184434
vn -0.1172785764501964 0.8281548735239451 -0.5480923653585718
v -0.7200120586682146 0.0103418197249984 -0.0036442604254415
vn -0.0289804597243547 0.2563240559222302 -0.9661563596591095
v -0.6920989494892578 0.0014816607973666 -0.0124622217202017
vn -0.0486783699369682 -0.8002151475902517 0.5977341665551594
v -0.6982285711839070 -0.0154764104188366 0.0025121392769392
vn -0.2286438329074166 0.5182295868559141 0.8241116993348376
v -0.6784878164959781 0.0013368027267938 0.0142376094884850
vn -0.4476817353992286 -0.8467618820551110 0.2873593201697510
v -0.6117736601058102 -0.0274575111106630 0.0098382863718537
vn -0.4203421710231433 0.5298850560400492 -0.7365692680562940
v -0.6425561096311125 0.0125517340558263 -0.0040107551749682
vn -0.3229520347172533 0.4117794798048380 0.8521382770910148
v -0.5961596707607213 0.0106170926292388 0.0304443266962913
vn -0.4814647169065595 -0.2484122583668129 -0.8405254762749231
v -0.5988866586495798 -0.0178262701759802 -0.0212832217327324
vn -0.4103110968289927 0.9009934274648257 -0.1409100687820956
v -0.5951997613618170 0.0324453145943090 0.0030194605900677
vn -0.2659402013209696 -0.9194331091527391 -0.2896870157861571
v -0.5571857431856031 -0.0489460568595025 -0.0079058429338923
vn -0.2128954352281457 -0.4196744463501900 0.8823541764731891
v -0.5603663011646740 -0.0197815998590407 0.0421783087841049
vn -0.3255650135936430 0.7157086629873638 -0.6178742037410294
v -0.5673515026965311 0.0267369723523668 -0.0342569732244146
vn -0.0117144870315705 -0.2242448009198209 0.9744624364509989
v -0.5042790344170180 -0.0105017320457060 0.0477111990686836
vn -0.1861266514015033 0.0493526323069859 -0.9812854769751943
v -0.5362975976985198 0.0003178038439004 -0.0456698533185275
vn -0.0949168278708531 0.7188381814587350 0.6886671653738354
v -0.5146203225043263 0.0397089592010157 0.0325706518403725
vn -0.0068480912333333 -0.9229351887839417 0.3848944542998896
v -0.4944166284548938 -0.0551950715825986 0.0071047365605846
vn -0.0785022087530156 -0.5431337659034564 -0.8359683699497411
v -0.4843363961802721 -0.0386078543407321 -0.0411444859652629
vn -0.0605581619574608 0.5770657763964959 -0.8144493837754704
v -0.4744714558510764 0.0301727915595562 -0.0424631467968210
vn -0.0296971845286225 0.9977319051921021 -0.0604079679579677
v -0.4870238251426633 0.0527374554696770 0.0014828284148469
vn -0.0107553714540223 -0.0014926462914516 0.9999410452581364
v -0.4470067359577716 -0.0062725798325905 0.0466489306031652
vn -0.0436319010926660 -0.9990104090098496 0.0086290148344273
v -0.4288176882738106 -0.0552236961319058 -0.0083065650389341
vn 0.0437959198800747 0.9964933181072411 0.0712950515076537
v -0.4179172748981155 0.0511514193273692 0.0025218420498564
vn -0.0609439125052791 -0.6812853765253245 0.7294765762252382
v -0.3992214627068133 -0.0357377594863732 0.0391162543483114
vn 0.0435571804583389 0.4098866876379146 0.9110958650590718
v -0.3853210947507217 0.0216393692041051 0.0478834828658021
vn -0.0043426132104903 -0.9886934936675332 -0.1498876822490469
v -0.3724338909320105 -0.0548411771155849 -0.0117011428745656
vn 0.0222238657553796 -0.3025623069920993 -0.9528704792250128
v -0.3799012916851622 -0.0199099857526849 -0.0522161652755402
vn 0.1021325157009836 0.4710315162411798 -0.8761839190170769
v -0.4187756199326725 0.0164836447847805 -0.0497420769298744
vn 0.0652440647837670 -0.8177116768678965 -0.5719185479807283
v -0.3196002250206256 -0.0449384805907676 -0.0310115156642309
vn 0.0339417125549823 0.9673137772872793 -0.2513006494600654
v -0.3417021565796349 0.0346140126162362 -0.0005442895014673
vn 0.0722556185081799 -0.8226943340272579 0.5638733531152602
v -0.3170566510102099 -0.0473935795419151 0.0270922472656202
vn -0.1118174913328722 0.9818428566869932 -0.1532365929037432
v -0.2847797929610622 0.0459950024064219 -0.0172173372741938
vn -0.0865856943198630 0.2417364525684585 -0.9664711092623330
v -0.2932912567831147 0.0064185165666561 -0.0551646417570370
vn -0.1287985183375267 0.5116093043341324 0.8495097771025375
v -0.2892975935886082 0.0182598243242991 0.0389719874686508
vn -0.1285350055197989 0.1728599575043046 0.9765235211952834
v -0.2579754401642129 0.0034544182634453 0.0543610988404827
vn -0.1419371433641230 -0.7794312448959971 0.6101973302248288
v -0.2560336183209644 -0.0430658664657544 0.0350412451775084
vn 0.0537073946399949 -0.7308998188708251 -0.6803682609701741
v -0.2442959792340463 -0.0334823881478425 -0.0398250385120503
vn 0.0551570181609563 0.7027879834388185 -0.7092578894038407
v -0.2313492574297608 0.0316016053068008 -0.0427044932619309
vn 0.0081055577648311 -0.9901775707400460 -0.1395803651544957
v -0.1973210919401983 -0.0503550321026190 -0.0020251524720235
vn 0.0632806987952509 0.8863123180143213 0.4587439679124569
v -0.2140337456228782 0.0392187245098787 0.0180160946918620
vn 0.1306206834639021 0.0552562999516867 -0.9898913972588468
v -0.1768948054812531 0.0066012708678029 -0.0524283141807234
vn 0.1254850453339904 0.9815193013408352 0.1444761727515134
v -0.1772248767623867 0.0421104334701054 0.0060311005912681
vn 0.1287177656626336 -0.1212678558392766 0.9842387128857327
v -0.1800447105366774 -0.0176815435568544 0.0510077533262397
vn 0.2000480486397818 -0.6483778499485715 -0.7345658186517279
v -0.1461659354968125 -0.0410581019521568 -0.0249134193615686
vn 0.2290077559558900 -0.9130890953419368 0.3373777581283195
v -0.1244379581321405 -0.0440096894638128 0.0217669035053606
vn 0.1909228763567223 0.3917430201108056 0.9000476995571627
v -0.1159490928430219 0.0066751429987933 0.0370231177610425
vn 0.2396891866425993 0.7343875522823219 -0.6349992258730629
v -0.1315050276467427 0.0293736627695563 -0.0268256446652602
vn 0.0498388754522188 0.9610649227809339 0.2717909135599197
v -0.0664633612713494 0.0336548184017858 0.0166663873845356
vn 0.2239291325271811 -0.3295737870203317 -0.9171896546051428
v -0.0902268124063391 -0.0147600567781468 -0.0268729106116732
vn 0.0507844469116046 -0.8704800476329608 0.4895767831758372
v -0.0301626827123800 -0.0243576852103847 0.0088706309961332
vn -0.0929901672941518 0.4898417466689028 -0.8668378695044212
v -0.0156171195867987 0.0185712130186313 -0.0311476446612638
vn 0.0927259394515673 0.5816588308340241 0.8081304997743993
v 0.0010711263506365 0.0218575208169951 0.0268336569176235
vn 0.0154875816856714 -0.6749794809649299 -0.7376739354822316
v 0.0315878759354853 -0.0254694886052064 -0.0339391851901470
vn 0.1240355964261737 -0.5379034806953683 0.8338315275132087
v 0.0358510752438253 -0.0146281984534170 0.0208998269852345
vn 0.1590425654506759 0.9096844589823946 -0.3836399972119377
v 0.0598298267345554 0.0268041855549928 -0.0159221785998580
vn 0.2854081656860649 -0.8920853614853199 -0.3503225467812798
v 0.0743806498275107 -0.0235028298686174 -0.0205379729675601
vn 0.1011372463819008 -0.4808046103691300 -0.8709754210321183
v 0.1232798891318837 -0.0056325162911254 -0.0199419759905754
vn 0.0077296251880339 -0.3924451084973989 0.9197429476277148
v 0.0905571492785446 0.0010189702947957 0.0243695936751479
vn -0.0829976478528885 -0.9294301843045267 0.3595426580456645
v 0.1603958883545571 -0.0162217356991808 0.0136521080124451
vn -0.0272934559666323 -0.1188888673591826 -0.9925323694869846
v 0.1887351837614192 -0.0016045632473454 -0.0222416457495419
vn 0.0085871958702663 0.9456238015558960 0.3251490212165201
v 0.1602764126550341 0.0243906411388329 0.0148529973584034
vn 0.0214292483526191 -0.8480550911321258 -0.5294745978042038
v 0.2233047423549301 -0.0194763174580335 -0.0081114908503115
vn 0.1074219917221135 -0.3098498475746497 0.9446976170460157
v 0.2482235484895261 -0.0045774083498193 0.0257834254382125
vn 0.0342371977868268 -0.9096888704527941 -0.4138767609591353
v 0.2726237817708780 -0.0208260903029169 -0.0143287722505059
vn 0.0132722197044928 0.8571479862035792 -0.5148991920087507
v 0.2477356145065489 0.0237964687515758 -0.0064284621784452
vn 0.0373824043193273 0.2071110082248634 0.9776029798028374
v 0.2905876254317968 0.0078028598111626 0.0161810345681092
vn 0.0969930814969073 0.6722297242606355 -0.7339615384761004
v 0.3000421912614591 0.0188323397952416 -0.0207131637736071
vn 0.0884809411762156 -0.9697525258407338 0.2274888165912510
v 0.3125973072390307 -0.0183816840627621 -0.0000658591009995
vn 0.0471385846420342 -0.0092232419588767 0.9988457767071521
v 0.3343813348193292 0.0136530872423863 0.0178523486494333
vn -0.0565584103027329 -0.4581880010967325 -0.8870540580342374
v 0.3538168091558644 -0.0135587534597511 -0.0143974523967164
vn -0.4555138820946587 -0.8883325428060436 0.0580723394638290
v 0.3861312898368896 -0.0252251169669368 -0.0014414223341011
vn -0.0287225292585696 0.8868658058121365 0.4611334500924655
v 0.3631772934934474 0.0121041426066261 0.0083932336331839
vn -0.4004015509443457 0.7463191952911840 -0.5316824773690422
v 0.4147194364517102 0.0314854132416010 -0.0091259745699103
vn -0.3842923876910162 -0.9208912837298489 -0.0654110412172802
v 0.4402003488325521 -0.0593393987237035 -0.0041154554157403
vn -0.3591940229692677 -0.0832319502680389 0.9295440260244439
v 0.4177953082076904 -0.0075475507595885 0.0256397820736489
vn -0.2504808060170307 0.7060165310485816 0.6624198243585300
v 0.4537484961296915 0.0187360847137857 0.0202510309657156
vn -0.3488997520691829 0.6340415616845942 0.6901161214336492
v 0.4604290273135089 0.0747613755992270 0.0021213994433993
vn -0.4927003859916356 0.7465599968782595 -0.4470956281432714
v 0.4892451548439072 -0.0019840154435464 -0.0834096641522040
vn -0.3248241816614167 -0.4417314128312209 0.8362790263579044
v 0.4627625455303095 -0.0029286756383415 0.0665033853080134
vn -0.7307746148301806 0.6825539620311457 -0.0094101665971772
v 0.4858830316251003 0.1283467148135815 -0.0005266040699048
vn -0.7317473261113774 -0.6789446668094798 -0.0598330188091291
v 0.4959658576242129 -0.1175519983601915 -0.0008313505514845
vn -0.0714085997337540 0.3617145974073646 -0.9295500857439005
v 0.4819566388778919 0.0387307627208596 -0.0105517015290322
vn -0.3986612612232224 0.0000380959243859 0.9170982484710187
v 0.5224923886052106 -0.0020605598134327 0.0814714136714103
vn -0.0948665952533678 0.8482432233958688 -0.5210410377964676
v 0.5128067232809983 0.0084973128899151 -0.0332959434122950
vn -0.0939691509229561 -0.4556641594260808 0.8851779326719245
v 0.4963100119141088 -0.0320288570665333 0.0130059654098596
vn -0.0435916417984819 0.7645707802100826 0.6430639865629690
v 0.5092501315987704 0.0145008399940752 0.0209276920065594
vn -0.3277014143293301 0.9447077834185691 -0.0117892745718611
v 0.5458393800032142 0.1668099227593492 -0.0009158333605533
vn -0.2539920755294635 -0.0895186991503661 -0.9630547378371914
v 0.4667529008421405 -0.0107373684966972 -0.0335814236578876
vn -0.0419281911254350 -0.3103409382599155 -0.9497002310355117
v 0.5232785338126440 -0.0579191980670690 -0.0082196061201469
vn -0.0474409841402480 -0.0978388061872268 0.9940708833014189
v 0.5524854470880013 -0.1345274584882079 0.0050601876479739
vn -0.6484706771459855 -0.7603201306416185 -0.0374042754633628
v 0.5301853277334905 -0.1674512450688519 -0.0010905490183057
vn -0.0403454306514450 0.9932198769729981 -0.1090253283016924
v 0.5674461313740196 0.0043979393759485 -0.0657071204849209
vn -0.0432273296856548 0.0842210311554119 -0.9955090235047430
v 0.5509629985780437 0.1012449299057084 -0.0066044077244293
vn -0.0844648509780569 -0.8830412579798441 -0.4616316991440568
v 0.5623302130121006 -0.0138197183102963 -0.0391404518449644
vn -0.0863484499484881 -0.7436557878156850 0.6629630566175814
v 0.5468194968492965 -0.0199566222582724 0.0231553257811542
vn -0.7169790690301757 0.0105814337248236 0.6970143813673789
v 0.5468355963919499 -0.0012322544121187 0.1212242000594749
vn -0.0159382645312280 -0.9754650672130589 0.2195765797409981
v 0.5902065105737755 -0.0069377390864735 0.0953948274741334
vn 0.0101720189038549 0.2917020196508407 -0.9564551540783499
v 0.5668399958802272 0.0340220858947301 -0.0099596490457231
vn -0.2188195881311675 0.8335562235873750 -0.5072494553657600
v 0.5291823647906944 0.0000234483133389 -0.1190178053078819
vn -0.0816603595532784 -0.4496120034128939 -0.8894833512015125
v 0.5848722182779825 -0.1926524632902513 -0.0007098048678269
vn -0.0302315091112205 0.0932549434238365 0.9951831848377842
v 0.5501077161962243 0.1088609939425550 0.0055249914606949
vn -0.2334647246188123 -0.8081702218622498 -0.5406987283633873
v 0.5757453791310531 -0.0037488002937972 -0.1297823243387491
vn -0.0425121130956729 0.8026551983692573 -0.5949263423071374
v 0.6097645324727990 0.0115813898690734 -0.0222045382918930
vn -0.0306549133827882 -0.0552008402095916 -0.9980045809141603
v 0.5704236145054631 -0.1166909737799832 -0.0064259256429571
vn -0.4109853346044184 -0.0081425322362732 0.9116055912009731
v 0.5947635382308182 -0.0015696972969627 0.1752317712292155
vn -0.0231982299443372 0.5360123053542173 0.8438913737183874
v 0.5681211821719400 0.0341234688913973 0.0124043390285957
vn -0.0374895504439377 0.0913796016792082 0.9951101959102121
v 0.6344540558603278 0.0943776614798731 0.0057973727861342
vn -0.0229560234381122 -0.9979527745659074 0.0596932217602300
v 0.6238244563324896 -0.0061638641450381 0.1212876744099458
vn -0.0539516013958868 0.6204824854838658 0.7823622625833788
v 0.6005786163207208 0.1703628744305183 -0.0007554213513498
vn -0.0100538898504729 -0.6481356597269905 0.7614585253900132
v 0.6174498920086361 -0.0440135650103352 0.0168733670229583
vn 0.0219670685770937 -0.3101522739580344 -0.9504330670051362
v 0.6255689911995473 -0.0656284032804228 -0.0070578068890155
vn -0.0478826867089749 0.9906437918377126 -0.1277972065693491
v 0.6207277099100691 0.0036223572072394 -0.0964012956593413
vn -0.1084230492469418 0.8747159417665787 -0.4723520547339690
v 0.6202173153904640 -0.0019881796397581 -0.1672339706649870
vn -0.0457270541394867 0.7060637834112958 0.7066703405935834
v 0.6564582400762453 0.0292534297457680 0.0101181663537592
vn 0.0619197379052168 -0.2666997729253797 0.9617885303845646
v 0.6544438972596022 -0.1844278725210006 0.0003248381962593
vn -0.0014947863608747 0.0541177901245953 -0.9985334398034778
v 0.6170323972873589 0.0966408948326023 -0.0066584044908925
vn -0.0248723367104242 -0.1402339275867284 0.9898059468502720
v 0.5793933536650766 -0.0952520342887420 0.0059811035375505
vn -0.0329180125092940 0.5655637446657259 -0.8240473622141626
v 0.6509920527638384 0.1734816892884736 -0.0018404309037178
vn -0.0145555780812698 0.9974235596982705 0.0702451258490639
v 0.6436437848488979 0.0018621454536917 0.1486987102930570
vn -0.0756462196327103 0.9729516488105969 0.2182721661871262
v 0.5838167518478359 0.0040799498550190 0.0787305694567104
vn 0.0154402666054525 -0.0681542048014741 -0.9975553130203013
v 0.6286852370763278 -0.1332711338630565 -0.0061036377136981
vn 0.0314758590692272 -0.9479006576093237 -0.3170072768875592
v 0.6314581399769885 -0.0152280964995931 -0.0543249878618447
vn 0.0520615160777537 -0.0874991712838347 0.9948032436458618
v 0.6578097286245141 -0.1331856877939116 0.0052831391031230
vn 0.1310593462297133 -0.8706360423131517 -0.4741480038881654
v 0.6756729330135768 -0.0030273175939376 -0.1572494550585189
vn -0.0165860876137654 -0.9091168313475786 0.4162108704229227
v 0.6436753719827570 -0.0019129848303141 0.1807590441742584
vn -0.0187602953073207 0.1615889644960748 -0.9866798152759935
v 0.6477102547738438 0.0638414479334213 -0.0070793510305492
vn 0.0038186003132392 0.1498297813017454 0.9887044325412520
v 0.6778159565237598 0.1493811529981458 0.0044468217279673
vn -0.0040970354141360 0.9783617655109277 0.2068609921835337
v 0.6404436888750961 0.0042032528479867 0.0763799871054462
vn -0.0245384169535886 -0.0831768548386985 -0.9962326419629874
v 0.6979718405184210 -0.0879876028642524 -0.0069378811413557
vn -0.0061498432292981 -0.9801891649221544 -0.1979681297518985
v 0.7122776898458687 -0.0073656659322534 -0.0724895936621841
vn 0.0891968096106117 -0.3638106452983029 0.9271923983310695
v 0.6644715642967799 -0.0485343002561423 0.0078047984879330
vn 0.0725645830700313 -0.9451368930686687 0.3185131624350497
v 0.6700395105347039 -0.0076071215062251 0.0584475903840017
vn 0.0356425516205673 0.1546104825453162 0.9873323691650546
v 0.7243951163590298 0.0834669625019398 0.0057154114240290
vn -0.0104198678606934 -0.9975718564055924 0.0688608572504420
v 0.6953267956722462 -0.0062830227321659 0.1171015625808895
vn 0.0224110345672099 0.7991398337545259 0.6007272855767547
v 0.7183398655399591 0.0147985516371318 0.0295956729575434
vn 0.0815670471473675 -0.5709165959407505 0.8169461777247539
v 0.7077324776653983 -0.1550390094784504 -0.0007276579497868
vn 0.0325198819578704 -0.6404614846635078 -0.7673014687461907
v 0.6867033328135761 -0.0254329528024179 -0.0128925045496284
vn 0.0106923677330101 0.8894651857960092 0.4568778354540010
v 0.7071111725411612 -0.0010886575416643 0.1804237867405611
vn -0.0031985227431016 0.0524629094481507 -0.9986177509860803
v 0.7113484650782169 0.1289813805744626 -0.0059162431989855
vn 0.0096140051850273 -0.7977268878713454 0.6029422719227771
v 0.7162331958683781 -0.0166233125656994 0.0241702696220909
vn -0.1508198912597403 -0.0408356362743897 -0.9877174753999576
v 0.7301172025398386 -0.0029864236979030 -0.1500643464223592
vn -0.0037785572470924 0.9888081409722194 0.1491448385033624
v 0.6896338049933801 0.0035297760970833 0.0965121089396357
vn 0.0057795172564447 0.6393668322212324 0.7688801278714837
v 0.7066822980230730 0.1742225850120439 -0.0032928467032516
vn 0.0065251244857397 0.8433159818242014 -0.5373784304848204
v 0.7197200137227012 0.0134799451114124 -0.0279353249594349
vn -0.0382444224258894 0.7551377935662898 -0.6544495984269114
v 0.6764282349742464 0.0203690825956099 -0.0204135131697882
vn -0.0234082678890199 0.1788848452972991 -0.9835915133414873
v 0.7404256210100516 0.0779754387575210 -0.0066228354052666
vn 0.0056591361720226 0.0886890539954110 0.9960432851433644
v 0.7583615592430474 0.1362392059213965 0.0045343628995588
vn 0.0167513265258777 0.9344750016278572 0.3556344533256580
v 0.7798074319387942 -0.0014551695473286 0.1801245733307562
vn 0.0212181724465208 0.9893633910077769 -0.1439092411613044
v 0.6883772424950906 0.0030948533865862 -0.1132161977178436
vn 0.0085908103639516 -0.1073207501121730 -0.9941873337418111
v 0.7568303952997687 -0.1321422989525247 -0.0059086479900830
vn 0.0064392823839682 -0.1252542617147174 0.9921037776183903
v 0.7460098614835665 -0.0844453991300786 0.0058530176238292
vn 0.0794170876787367 -0.9722516962100026 -0.2200444623284137
v 0.8053671931965809 -0.0069736587506969 -0.0661939287674072
vn 0.0277192656914059 -0.9758433017567305 0.2167060052837761
v 0.7705553737205139 -0.0070733529253855 0.0770490048529902
vn 0.0947905381985539 0.5501867182076366 -0.8296440977768355
v 0.7838206929250113 0.1861799599973160 -0.0000759647673604
vn 0.0036196116976398 -0.9982851759631148 0.0584260717783688
v 0.7691807322429228 -0.0058487312827935 0.1319653824002373
vn 0.0128020614070979 -0.5049965630779725 -0.8630264066082591
v 0.7582378157893999 -0.0391668309238334 -0.0148732266488405
vn 0.0293748786580564 0.1111298062910049 -0.9933716739758329
v 0.8030822543179854 0.0918539616064571 -0.0059768414232822
vn -0.3187495349883829 -0.0053068065137747 -0.9478241249036209
v 0.7648525335099172 -0.0017517418788460 -0.1779394579743012
vn 0.0224974004488728 0.9967181072416811 0.0777616979598796
v 0.7778394079202415 0.0025391492749530 0.1253611872361189
vn 0.0242799748481082 -0.2084079435529637 -0.9777405647130530
v 0.7598955984780494 -0.1887062225293921 0.0003645563227505
vn 0.0202824654926693 0.7077287267318452 -0.7061930833363208
v 0.7935668254414608 0.0143499944206237 -0.0265639485652769
vn 0.0548345950322337 0.1125704742555223 -0.9921295558109019
v 0.8042460880822707 0.1550091365608372 -0.0047394764541969
vn 0.0562515155719477 -0.3927758330418712 0.9179122572305716
v 0.7817712992152596 -0.0424255169918201 0.0063611588378794
vn -0.0067537397903820 0.9944279915537152 -0.1052015048052442
v 0.7770285396131341 0.0029597231236219 -0.1114602955156964
vn 0.1374241396666908 -0.6632828306290668 -0.7356429109490299
v 0.8276800559573620 -0.0247868909703794 -0.0112718200232987
vn 0.0770372340027140 -0.0624279846193315 -0.9950718623866216
v 0.8291013955284839 -0.0946198221595857 -0.0057552758650260
vn -0.0032631742525696 0.9932840336249179 0.1156554375704415
v 0.8060164238759066 0.0036661486559720 0.0732888355795435
vn 0.2233640498043442 0.8193893033927127 -0.5279296077514571
v 0.8554419307000418 0.0082830065645195 -0.0316580971959552
vn 0.0148027287238479 0.6567542950786212 0.7539593325359875
v 0.8060690073769879 0.0103948883928779 0.0193650591031973
vn 0.0484669020341551 -0.9863372953712929 0.1574474489055142
v 0.8410508875051687 -0.0064748849806036 0.0727348705611871
vn 0.0566606449713354 0.9958505255158769 -0.0712130756335108
v 0.8308943452338764 0.0029953596590071 -0.1020458822479715
vn 0.0244732915223760 -0.9988284667137709 -0.0417462822809198
v 0.8198042244892583 -0.0057030784229955 -0.1295620001885187
vn 0.0542895706535834 -0.4870279349477544 0.8716974435541126
v 0.7952170184196271 -0.1607074140067317 0.0006850799016865
vn 0.0539731983296729 0.1168229936787323 0.9916850719911058
v 0.8174752308642860 0.0728535827726235 0.0050944863555122
vn 0.1373944389774674 -0.3010939704325984 -0.9436446307308702
v 0.8379386840551919 -0.1719125954081886 -0.0028298983976025
vn 0.0325964356657118 -0.0584914807669124 0.9977555908435616
v 0.8266568475895477 -0.1192531563458088 0.0044772268594926
vn 0.9604818622999305 -0.0016434612447942 -0.2783377287181787
v 0.8943223740583984 -0.0007011263089329 -0.1308289840760582
vn 0.9448586916170797 -0.0516968504300107 -0.3233720589835762
v 0.8865378472495237 -0.0017848457124546 -0.0911585576280043
vn 0.3654304549140795 0.4445189986586954 0.8178407194880675
v 0.8516744501216753 0.1517630696968874 0.0016332549671648
vn 0.0934240712688861 -0.6128223393662500 0.7846787388996996
v 0.8302718873498228 -0.0205290344000416 0.0129824369914736
vn 0.1541885674492916 -0.9471574267312164 0.2812804555169728
v 0.8517337461339619 -0.0025020805450978 0.1667868092499346
vn 0.1070331312076233 0.9484718336965142 -0.2982366334108926
v 0.8494284797658319 -0.0016580746420059 -0.1761135757880450
vn 0.4036467767318833 -0.8949748898708565 -0.1899716456069414
v 0.8896642134926802 -0.0312013218696679 0.0021530165182795
vn 0.1409720113981886 -0.1277031292634666 0.9817427375736820
v 0.8770554924869592 -0.1536362276425345 -0.0000259466886128
vn 0.5023450752764411 -0.6795305307494643 -0.5346846576486536
v 0.9037524459346499 -0.0024497536304807 -0.0495650320038226
vn 0.4441583726507032 0.2346323910612174 -0.8646796985411275
v 0.8737933546803156 0.1238745906603410 -0.0020756432865056
vn 0.9553884971854796 -0.2944454667807133 -0.0231232899466888
v 0.8949133624061095 -0.0761254048664194 -0.0002747042009694
vn 0.3018119271380083 0.9203690123665350 0.2486572776185937
v 0.8931216387773374 -0.0010146629388281 0.1193001584713348
vn 0.4695552752086535 -0.2903350386847576 0.8338005809758388
v 0.8737971897291054 -0.1057827461358938 0.0005708226521496
vn 0.5172124170072340 0.7141918028975522 -0.4716157168367897
v 0.8793562253097629 0.0799095368153537 -0.0020220419918185
vn 0.2655163570427272 0.7260830033108447 0.6342748114546743
v 0.8762348530850238 0.0205808129648581 0.0183373224672047
vn 0.8784921681470661 0.4748189497273168 -0.0529006189388643
v 0.8993415895627017 0.0493137719075668 -0.0028740752876005
vn 0.9625448934873173 0.2630962838620944 -0.0654803286449084
v 0.9219448585066334 -0.0020949287231545 -0.0033121315337728
vn 0.8615859764831977 -0.3606851706311153 0.3571775648249728
v 0.9152566649385532 -0.0024619602035963 0.0393042508002244
# 202 vertices, 0 vertices normals

f 1//1 2//2 3//3
f 1//1 4//4 2//2
f 1//1 3//3 4//4
f 2//2 4//4 5//5
f 5//5 3//3 2//2
f 4//4 3//3 7//7
f 3//3 5//5 7//7
f 7//7 6//6 4//4
f 4//4 6//6 5//5
f 6//6 8//8 5//5
f 5//5 8//8 7//7
f 7//7 8//8 9//9
f 7//7 9//9 6//6
f 6//6 9//9 10//10
f 8//8 12//12 9//9
f 6//6 10//10 8//8
f 8//8 10//10 11//11
f 8//8 11//11 12//12
f 12//12 10//10 9//9
f 10//10 12//12 13//13
f 10//10 13//13 11//11
f 12//12 11//11 15//15
f 13//13 12//12 14//14
f 11//11 13//13 15//15
f 14//14 12//12 15//15
f 13//13 16//16 15//15
f 13//13 14//14 16//16
f 15//15 17//17 14//14
f 17//17 15//15 18//18
f 15//15 16//16 18//18
f 21//21 23//23 17//17
f 17//17 18//18 21//21
f 14//14 19//19 20//20
f 16//16 14//14 20//20
f 18//18 16//16 24//24
f 17//17 19//19 14//14
f 21//21 18//18 24//24
f 16//16 20//20 24//24
f 19//19 17//17 23//23
f 19//19 25//25 20//20
f 20//20 22//22 24//24
f 20//20 25//25 22//22
f 19//19 26//26 25//25
f 21//21 28//28 23//23
f 21//21 24//24 28//28
f 26//26 19//19 23//23
f 23//23 27//27 26//26
f 23//23 28//28 27//27
f 22//22 25//25 29//29
f 36//36 26//26 27//27
f 25//25 30//30 29//29
f 27//27 28//28 31//31
f 22//22 29//29 24//24
f 25//25 26//26 30//30
f 28//28 24//24 29//29
f 28//28 29//29 31//31
f 29//29 30//30 32//32
f 26//26 36//36 35//35
f 30//30 26//26 35//35
f 31//31 29//29 33//33
f 27//27 31//31 36//36
f 29//29 32//32 33//33
f 32//32 30//30 34//34
f 33//33 38//38 31//31
f 30//30 35//35 34//34
f 34//34 35//35 37//37
f 31//31 38//38 36//36
f 39//39 33//33 32//32
f 35//35 36//36 38//38
f 34//34 39//39 32//32
f 39//39 34//34 37//37
f 38//38 41//41 35//35
f 33//33 42//42 38//38
f 33//33 39//39 42//42
f 37//37 35//35 41//41
f 41//41 38//38 40//40
f 38//38 42//42 40//40
f 42//42 44//44 43//43
f 39//39 44//44 42//42
f 37//37 41//41 45//45
f 37//37 45//45 39//39
f 41//41 40//40 46//46
f 39//39 45//45 44//44
f 45//45 41//41 46//46
f 40//40 42//42 48//48
f 40//40 48//48 46//46
f 45//45 47//47 44//44
f 45//45 46//46 49//49
f 42//42 43//43 48//48
f 44//44 51//51 43//43
f 44//44 47//47 51//51
f 43//43 51//51 48//48
f 46//46 48//48 50//50
f 46//46 50//50 49//49
f 45//45 49//49 47//47
f 50//50 48//48 51//51
f 47//47 53//53 51//51
f 47//47 52//52 53//53
f 49//49 50//50 55//55
f 51//51 54//54 50//50
f 47//47 49//49 52//52
f 50//50 54//54 55//55
f 53//53 54//54 51//51
f 52//52 49//49 55//55
f 53//53 52//52 57//57
f 55//55 54//54 56//56
f 52//52 55//55 57//57
f 57//57 55//55 56//56
f 54//54 53//53 58//58
f 53//53 57//57 58//58
f 59//59 57//57 56//56
f 54//54 58//58 56//56
f 57//57 59//59 58//58
f 58//58 60//60 56//56
f 59//59 56//56 60//60
f 60//60 58//58 62//62
f 58//58 61//61 62//62
f 58//58 59//59 61//61
f 60//60 63//63 59//59
f 60//60 62//62 63//63
f 62//62 61//61 64//64
f 61//61 59//59 63//63
f 63//63 64//64 61//61
f 62//62 66//66 63//63
f 64//64 66//66 62//62
f 64//64 65//65 66//66
f 64//64 63//63 65//65
f 63//63 66//66 69//69
f 65//65 63//63 69//69
f 69//69 66//66 67//67
f 65//65 67//67 66//66
f 67//67 65//65 68//68
f 68//68 65//65 69//69
f 67//67 68//68 70//70
f 70//70 71//71 67//67
f 71//71 69//69 67//67
f 69//69 73//73 68//68
f 68//68 73//73 70//70
f 69//69 71//71 73//73
f 71//71 70//70 72//72
f 70//70 73//73 72//72
f 72//72 73//73 75//75
f 73//73 71//71 74//74
f 75//75 73//73 74//74
f 72//72 74//74 71//71
f 74//74 72//72 76//76
f 74//74 76//76 77//77
f 72//72 75//75 76//76
f 76//76 75//75 78//78
f 74//74 77//77 75//75
f 75//75 77//77 80//80
f 76//76 78//78 77//77
f 75//75 80//80 78//78
f 78//78 79//79 77//77
f 77//77 79//79 80//80
f 78//78 80//80 81//81
f 80//80 83//83 81//81
f 80//80 79//79 83//83
f 78//78 81//81 79//79
f 79//79 82//82 83//83
f 79//79 81//81 96//96
f 81//81 83//83 84//84
f 79//79 96//96 82//82
f 83//83 87//87 84//84
f 81//81 90//90 96//96
f 81//81 84//84 85//85
f 83//83 82//82 93//93
f 81//81 85//85 90//90
f 83//83 93//93 87//87
f 86//86 96//96 92//92
f 84//84 91//91 94//94
f 87//87 91//91 84//84
f 85//85 101//101 90//90
f 82//82 89//89 93//93
f 96//96 90//90 92//92
f 87//87 93//93 103//103
f 89//89 82//82 97//97
f 85//85 88//88 101//101
f 85//85 109//109 88//88
f 84//84 94//94 85//85
f 82//82 96//96 97//97
f 85//85 114//114 109//109
f 101//101 88//88 95//95
f 87//87 103//103 91//91
f 89//89 99//99 98//98
f 86//86 92//92 100//100
f 85//85 94//94 114//114
f 96//96 86//86 102//102
f 89//89 98//98 93//93
f 86//86 107//107 102//102
f 97//97 96//96 102//102
f 88//88 109//109 95//95
f 92//92 90//90 106//106
f 94//94 91//91 128//128
f 102//102 107//107 110//110
f 90//90 101//101 106//106
f 97//97 112//112 89//89
f 86//86 100//100 107//107
f 93//93 98//98 125//125
f 94//94 128//128 114//114
f 125//125 103//103 93//93
f 99//99 89//89 112//112
f 100//100 92//92 111//111
f 92//92 106//106 111//111
f 99//99 112//112 108//108
f 91//91 105//105 104//104
f 91//91 104//104 128//128
f 120//120 107//107 100//100
f 97//97 119//119 112//112
f 106//106 101//101 124//124
f 103//103 118//118 91//91
f 101//101 95//95 117//117
f 107//107 120//120 110//110
f 99//99 108//108 98//98
f 104//104 116//116 113//113
f 105//105 116//116 104//104
f 97//97 102//102 119//119
f 109//109 117//117 95//95
f 109//109 114//114 115//115
f 91//91 118//118 105//105
f 121//121 110//110 120//120
f 101//101 117//117 124//124
f 104//104 127//127 128//128
f 110//110 130//130 102//102
f 103//103 125//125 118//118
f 98//98 123//123 125//125
f 113//113 127//127 104//104
f 129//129 112//112 119//119
f 102//102 130//130 119//119
f 111//111 106//106 134//134
f 108//108 112//112 129//129
f 128//128 136//136 114//114
f 106//106 124//124 134//134
f 109//109 115//115 117//117
f 98//98 108//108 123//123
f 113//113 133//133 127//127
f 114//114 122//122 115//115
f 124//124 117//117 126//126
f 108//108 129//129 123//123
f 123//123 131//131 125//125
f 120//120 100//100 111//111
f 116//116 133//133 113//113
f 110//110 121//121 130//130
f 125//125 131//131 118//118
f 118//118 140//140 105//105
f 128//128 127//127 136//136
f 105//105 140//140 116//116
f 120//120 157//157 121//121
f 122//122 114//114 136//136
f 117//117 135//135 126//126
f 117//117 115//115 135//135
f 116//116 142//142 133//133
f 130//130 121//121 132//132
f 132//132 121//121 157//157
f 111//111 134//134 153//153
f 130//130 145//145 119//119
f 139//139 140//140 118//118
f 111//111 153//153 120//120
f 129//129 119//119 137//137
f 124//124 126//126 147//147
f 136//136 150//150 122//122
f 134//134 124//124 147//147
f 116//116 140//140 142//142
f 129//129 137//137 144//144
f 123//123 129//129 144//144
f 136//136 127//127 146//146
f 135//135 115//115 141//141
f 123//123 144//144 131//131
f 145//145 130//130 138//138
f 140//140 139//139 148//148
f 133//133 146//146 127//127
f 122//122 143//143 115//115
f 153//153 134//134 154//154
f 126//126 151//151 147//147
f 131//131 139//139 118//118
f 157//157 120//120 153//153
f 136//136 146//146 150//150
f 137//137 119//119 145//145
f 115//115 143//143 141//141
f 130//130 132//132 138//138
f 150//150 143//143 122//122
f 133//133 142//142 146//146
f 135//135 151//151 126//126
f 149//149 132//132 157//157
f 131//131 144//144 139//139
f 139//139 159//159 148//148
f 135//135 155//155 151//151
f 154//154 134//134 147//147
f 157//157 153//153 152//152
f 140//140 148//148 142//142
f 142//142 163//163 146//146
f 139//139 144//144 159//159
f 138//138 164//164 145//145
f 132//132 149//149 138//138
f 143//143 150//150 167//167
f 137//137 145//145 164//164
f 158//158 144//144 137//137
f 135//135 141//141 155//155
f 146//146 156//156 150//150
f 147//147 151//151 162//162
f 150//150 156//156 167//167
f 137//137 164//164 158//158
f 142//142 161//161 163//163
f 157//157 152//152 172//172
f 151//151 155//155 162//162
f 144//144 181//181 159//159
f 160//160 164//164 138//138
f 149//149 157//157 172//172
f 152//152 169//169 172//172
f 152//152 153//153 154//154
f 168//168 144//144 158//158
f 149//149 172//172 166//166
f 148//148 161//161 142//142
f 167//167 175//175 143//143
f 144//144 168//168 181//181
f 159//159 171//171 148//148
f 152//152 154//154 169//169
f 146//146 163//163 156//156
f 141//141 143//143 177//177
f 148//148 171//171 161//161
f 143//143 175//175 177//177
f 147//147 162//162 170//170
f 160//160 138//138 180//180
f 154//154 170//170 165//165
f 180//180 138//138 149//149
f 154//154 147//147 170//170
f 141//141 182//182 155//155
f 177//177 182//182 141//141
f 164//164 160//160 173//173
f 168//168 158//158 181//181
f 171//171 188//188 161//161
f 149//149 166//166 180//180
f 159//159 181//181 184//184
f 188//188 178//178 161//161
f 154//154 165//165 169//169
f 166//166 190//190 180//180
f 155//155 187//187 162//162
f 158//158 174//174 181//181
f 158//158 164//164 174//174
f 159//159 184//184 171//171
f 166//166 172//172 190//190
f 173//173 174//174 164//164
f 161//161 178//178 163//163
f 163//163 189//189 156//156
f 190//190 172//172 179//179
f 155//155 182//182 187//187
f 181//181 174//174 183//183
f 172//172 169//169 179//179
f 165//165 170//170 194//194
f 156//156 189//189 167//167
f 184//184 197//197 171//171
f 169//169 165//165 198//198
f 167//167 196//196 175//175
f 190//190 179//179 185//185
f 189//189 163//163 178//178
f 174//174 173//173 191//191
f 181//181 183//183 184//184
f 171//171 197//197 188//188
f 179//179 169//169 176//176
f 182//182 177//177 199//199
f 169//169 198//198 176//176
f 183//183 174//174 197//197
f 194//194 198//198 165//165
f 170//170 162//162 187//187
f 179//179 186//186 185//185
f 160//160 180//180 186//186
f 189//189 196//196 167//167
f 183//183 192//192 184//184
f 197//197 184//184 192//192
f 176//176 198//198 200//200
f 160//160 186//186 193//193
f 178//178 196//196 189//189
f 175//175 199//199 177//177
f 160//160 193//193 173//173
f 187//187 194//194 170//170
f 186//186 179//179 176//176
f 197//197 195//195 188//188
f 183//183 197//197 192//192
f 188//188 195//195 191//191
f 174//174 191//191 195//195
f 188//188 191//191 178//178
f 198//198 182//182 199//199
f 182//182 198//198 194//194
f 182//182 194//194 187//187
f 186//186 180//180 185//185
f 191//191 202//202 178//178
f 200//200 201//201 176//176
f 196//196 199//199 175//175
f 197//197 174//174 195//195
f 186//186 176//176 193//193
f 173//173 193//193 191//191
f 180//180 190//190 185//185
f 178//178 202//202 196//196
f 198//198 199//199 200//200
f 196//196 202//202 199//199
f 193//193 176//176 201//201
f 200//200 199//199 201//201
f 201//201 202//202 191//191
f 191//191 193//193 201//201
f 199//199 202//202 201//201
# 400 faces, 0 coords texture

# End of File
